solid OpenSCAD_Model
  facet normal -0.000000 0.000000 -1.000000
    outer loop
      vertex -11.900000 0.000000 0.000000
      vertex -11.639956 2.474149 0.000000
      vertex -11.639956 -2.474149 0.000000
    endloop
  endfacet
  facet normal 0.000000 -0.000000 -1.000000
    outer loop
      vertex -11.250000 1.250000 0.000000
      vertex -11.639956 2.474149 0.000000
      vertex -10.871191 4.840166 0.000000
    endloop
  endfacet
  facet normal -0.000000 0.000000 -1.000000
    outer loop
      vertex 1.250000 11.250000 0.000000
      vertex 3.677302 11.317573 0.000000
      vertex 5.950000 10.305702 0.000000
    endloop
  endfacet
  facet normal 0.000000 -0.000000 -1.000000
    outer loop
      vertex -8.838835 7.071068 0.000000
      vertex -9.627302 6.994645 0.000000
      vertex -7.962654 8.843423 0.000000
    endloop
  endfacet
  facet normal 0.000000 -0.000000 -1.000000
    outer loop
      vertex -7.071068 8.838835 0.000000
      vertex -7.962654 8.843423 0.000000
      vertex -5.950000 10.305702 0.000000
    endloop
  endfacet
  facet normal 0.000000 0.000000 -1.000000
    outer loop
      vertex -1.250000 11.250000 0.000000
      vertex -1.243889 11.834811 0.000000
      vertex 1.243889 11.834811 0.000000
    endloop
  endfacet
  facet normal 0.000000 -0.000000 -1.000000
    outer loop
      vertex 1.250000 11.250000 0.000000
      vertex 1.243889 11.834811 0.000000
      vertex 3.677302 11.317573 0.000000
    endloop
  endfacet
  facet normal 0.000000 -0.000000 -1.000000
    outer loop
      vertex 6.695277 -1.250000 0.000000
      vertex -11.639956 -2.474149 0.000000
      vertex 6.875000 0.000000 0.000000
    endloop
  endfacet
  facet normal 0.000000 -0.000000 -1.000000
    outer loop
      vertex 7.071068 8.838835 0.000000
      vertex 5.950000 10.305702 0.000000
      vertex 7.962654 8.843423 0.000000
    endloop
  endfacet
  facet normal -0.000000 -0.000000 -1.000000
    outer loop
      vertex 8.838835 7.071068 0.000000
      vertex 7.962654 8.843423 0.000000
      vertex 9.627302 6.994645 0.000000
    endloop
  endfacet
  facet normal 0.000000 0.000000 -1.000000
    outer loop
      vertex 5.644836 3.877069 0.000000
      vertex 9.627302 6.994645 0.000000
      vertex 10.871191 4.840166 0.000000
    endloop
  endfacet
  facet normal 0.000000 0.000000 -1.000000
    outer loop
      vertex -6.695277 -1.250000 0.000000
      vertex 10.871191 4.840166 0.000000
      vertex 11.639956 2.474149 0.000000
    endloop
  endfacet
  facet normal -0.000000 0.000000 -1.000000
    outer loop
      vertex 11.250000 1.250000 0.000000
      vertex 11.639956 2.474149 0.000000
      vertex 11.900000 0.000000 0.000000
    endloop
  endfacet
  facet normal -0.000000 0.000000 -1.000000
    outer loop
      vertex 11.250000 -1.250000 0.000000
      vertex 11.900000 0.000000 0.000000
      vertex 11.639956 -2.474149 0.000000
    endloop
  endfacet
  facet normal -0.000000 0.000000 -1.000000
    outer loop
      vertex 5.644836 -3.877069 0.000000
      vertex 11.639956 -2.474149 0.000000
      vertex 10.871191 -4.840166 0.000000
    endloop
  endfacet
  facet normal 0.000000 0.000000 -1.000000
    outer loop
      vertex 3.848255 5.616022 0.000000
      vertex -6.695277 1.250000 0.000000
      vertex 1.250000 6.725277 0.000000
    endloop
  endfacet
  facet normal -0.000000 0.000000 -1.000000
    outer loop
      vertex 8.838835 -7.071068 0.000000
      vertex 9.627302 -6.994645 0.000000
      vertex 7.962654 -8.843423 0.000000
    endloop
  endfacet
  facet normal 0.000000 0.000000 -1.000000
    outer loop
      vertex 7.071068 -8.838835 0.000000
      vertex 7.962654 -8.843423 0.000000
      vertex 5.950000 -10.305702 0.000000
    endloop
  endfacet
  facet normal 0.000000 0.000000 -1.000000
    outer loop
      vertex 1.250000 -11.250000 0.000000
      vertex 3.677302 -11.317573 0.000000
      vertex 1.243889 -11.834811 0.000000
    endloop
  endfacet
  facet normal 0.000000 0.000000 -1.000000
    outer loop
      vertex -1.250000 -11.250000 0.000000
      vertex 1.243889 -11.834811 0.000000
      vertex -1.243889 -11.834811 0.000000
    endloop
  endfacet
  facet normal 0.000000 0.000000 -1.000000
    outer loop
      vertex -3.848255 -5.616022 0.000000
      vertex -1.250000 -11.250000 0.000000
      vertex -1.243889 -11.834811 0.000000
    endloop
  endfacet
  facet normal 0.000000 0.000000 -1.000000
    outer loop
      vertex 1.250000 -11.250000 0.000000
      vertex 1.243889 -11.834811 0.000000
      vertex -1.250000 -11.250000 0.000000
    endloop
  endfacet
  facet normal 0.000000 0.000000 -1.000000
    outer loop
      vertex -8.838835 -7.071068 0.000000
      vertex -5.950000 -10.305702 0.000000
      vertex -7.962654 -8.843423 0.000000
    endloop
  endfacet
  facet normal 0.000000 0.000000 -1.000000
    outer loop
      vertex -11.639956 -2.474149 0.000000
      vertex -7.962654 -8.843423 0.000000
      vertex -9.627302 -6.994645 0.000000
    endloop
  endfacet
  facet normal 0.000000 0.000000 -1.000000
    outer loop
      vertex -11.639956 -2.474149 0.000000
      vertex -9.627302 -6.994645 0.000000
      vertex -10.871191 -4.840166 0.000000
    endloop
  endfacet
  facet normal 0.000000 -0.000000 -1.000000
    outer loop
      vertex -11.639956 -2.474149 0.000000
      vertex -11.639956 2.474149 0.000000
      vertex -11.250000 1.250000 0.000000
    endloop
  endfacet
  facet normal 0.000000 0.000000 -1.000000
    outer loop
      vertex -6.695277 -1.250000 0.000000
      vertex -11.639956 -2.474149 0.000000
      vertex -11.250000 -1.250000 0.000000
    endloop
  endfacet
  facet normal 0.000000 0.000000 -1.000000
    outer loop
      vertex 8.838835 7.071068 0.000000
      vertex 9.627302 6.994645 0.000000
      vertex 5.644836 3.877069 0.000000
    endloop
  endfacet
  facet normal -0.000000 0.000000 -1.000000
    outer loop
      vertex -6.875000 0.000000 0.000000
      vertex 10.871191 4.840166 0.000000
      vertex -6.695277 -1.250000 0.000000
    endloop
  endfacet
  facet normal 0.000000 0.000000 -1.000000
    outer loop
      vertex -11.639956 -2.474149 0.000000
      vertex -6.695277 -1.250000 0.000000
      vertex 11.639956 2.474149 0.000000
    endloop
  endfacet
  facet normal 0.000000 0.000000 -1.000000
    outer loop
      vertex -7.071068 8.838835 0.000000
      vertex -5.950000 10.305702 0.000000
      vertex -3.677302 11.317573 0.000000
    endloop
  endfacet
  facet normal 0.000000 0.000000 -1.000000
    outer loop
      vertex 1.250000 -6.725277 0.000000
      vertex 3.677302 -11.317573 0.000000
      vertex 1.250000 -11.250000 0.000000
    endloop
  endfacet
  facet normal 0.000000 0.000000 -1.000000
    outer loop
      vertex 5.644836 -3.877069 0.000000
      vertex 10.871191 -4.840166 0.000000
      vertex 9.627302 -6.994645 0.000000
    endloop
  endfacet
  facet normal 0.000000 0.000000 -1.000000
    outer loop
      vertex -1.250000 6.725277 0.000000
      vertex -5.644836 3.877069 0.000000
      vertex -3.848255 5.616022 0.000000
    endloop
  endfacet
  facet normal 0.000000 0.000000 -1.000000
    outer loop
      vertex -7.071068 -8.838835 0.000000
      vertex -5.950000 -10.305702 0.000000
      vertex -8.838835 -7.071068 0.000000
    endloop
  endfacet
  facet normal 0.000000 0.000000 -1.000000
    outer loop
      vertex -11.639956 -2.474149 0.000000
      vertex -8.838835 -7.071068 0.000000
      vertex -7.962654 -8.843423 0.000000
    endloop
  endfacet
  facet normal 0.000000 0.000000 -1.000000
    outer loop
      vertex 1.250000 -6.725277 0.000000
      vertex 5.950000 -10.305702 0.000000
      vertex 3.677302 -11.317573 0.000000
    endloop
  endfacet
  facet normal 0.000000 0.000000 -1.000000
    outer loop
      vertex -1.250000 6.725277 0.000000
      vertex -7.071068 8.838835 0.000000
      vertex -1.250000 11.250000 0.000000
    endloop
  endfacet
  facet normal -0.000000 0.000000 -1.000000
    outer loop
      vertex -1.250000 11.250000 0.000000
      vertex 1.243889 11.834811 0.000000
      vertex 1.250000 11.250000 0.000000
    endloop
  endfacet
  facet normal 0.000000 0.000000 -1.000000
    outer loop
      vertex -6.875000 0.000000 0.000000
      vertex 5.644836 3.877069 0.000000
      vertex 10.871191 4.840166 0.000000
    endloop
  endfacet
  facet normal 0.000000 -0.000000 -1.000000
    outer loop
      vertex -8.838835 -7.071068 0.000000
      vertex -11.639956 -2.474149 0.000000
      vertex -5.644836 -3.877069 0.000000
    endloop
  endfacet
  facet normal -0.000000 -0.000000 -1.000000
    outer loop
      vertex -0.978415 -6.805022 0.000000
      vertex -3.848255 -5.616022 0.000000
      vertex 0.978415 -6.805022 0.000000
    endloop
  endfacet
  facet normal 0.000000 0.000000 -1.000000
    outer loop
      vertex -5.644836 3.877069 0.000000
      vertex -4.502168 5.195778 0.000000
      vertex -3.848255 5.616022 0.000000
    endloop
  endfacet
  facet normal 0.000000 0.000000 -1.000000
    outer loop
      vertex 7.071068 -8.838835 0.000000
      vertex -5.644836 -3.877069 0.000000
      vertex 3.848255 -5.616022 0.000000
    endloop
  endfacet
  facet normal 0.000000 -0.000000 -1.000000
    outer loop
      vertex 4.502168 -5.195778 0.000000
      vertex -11.639956 -2.474149 0.000000
      vertex 5.644836 -3.877069 0.000000
    endloop
  endfacet
  facet normal 0.000000 0.000000 -1.000000
    outer loop
      vertex -3.848255 -5.616022 0.000000
      vertex -3.677302 -11.317573 0.000000
      vertex -5.950000 -10.305702 0.000000
    endloop
  endfacet
  facet normal 0.000000 0.000000 -1.000000
    outer loop
      vertex -3.848255 -5.616022 0.000000
      vertex -1.243889 -11.834811 0.000000
      vertex -3.677302 -11.317573 0.000000
    endloop
  endfacet
  facet normal 0.000000 0.000000 -1.000000
    outer loop
      vertex -3.848255 -5.616022 0.000000
      vertex -5.950000 -10.305702 0.000000
      vertex -7.071068 -8.838835 0.000000
    endloop
  endfacet
  facet normal 0.000000 0.000000 -1.000000
    outer loop
      vertex -4.502168 -5.195778 0.000000
      vertex 0.978415 -6.805022 0.000000
      vertex -3.848255 -5.616022 0.000000
    endloop
  endfacet
  facet normal 0.000000 -0.000000 -1.000000
    outer loop
      vertex -1.250000 -11.250000 0.000000
      vertex -3.848255 -5.616022 0.000000
      vertex -1.250000 -6.725277 0.000000
    endloop
  endfacet
  facet normal 0.000000 0.000000 -1.000000
    outer loop
      vertex 3.848255 5.616022 0.000000
      vertex -6.875000 0.000000 0.000000
      vertex -6.695277 1.250000 0.000000
    endloop
  endfacet
  facet normal -0.000000 0.000000 -1.000000
    outer loop
      vertex -1.250000 6.725277 0.000000
      vertex -0.978415 6.805022 0.000000
      vertex -6.695277 1.250000 0.000000
    endloop
  endfacet
  facet normal 0.000000 0.000000 -1.000000
    outer loop
      vertex 1.250000 6.725277 0.000000
      vertex -6.695277 1.250000 0.000000
      vertex 0.978415 6.805022 0.000000
    endloop
  endfacet
  facet normal 0.000000 0.000000 -1.000000
    outer loop
      vertex 1.250000 11.250000 0.000000
      vertex 5.950000 10.305702 0.000000
      vertex 1.250000 6.725277 0.000000
    endloop
  endfacet
  facet normal 0.000000 0.000000 -1.000000
    outer loop
      vertex -7.071068 8.838835 0.000000
      vertex -1.243889 11.834811 0.000000
      vertex -1.250000 11.250000 0.000000
    endloop
  endfacet
  facet normal 0.000000 0.000000 -1.000000
    outer loop
      vertex -7.071068 8.838835 0.000000
      vertex -3.677302 11.317573 0.000000
      vertex -1.243889 11.834811 0.000000
    endloop
  endfacet
  facet normal 0.000000 -0.000000 -1.000000
    outer loop
      vertex 0.978415 -6.805022 0.000000
      vertex -4.502168 -5.195778 0.000000
      vertex 1.250000 -6.725277 0.000000
    endloop
  endfacet
  facet normal 0.000000 0.000000 -1.000000
    outer loop
      vertex 7.071068 -8.838835 0.000000
      vertex 1.250000 -6.725277 0.000000
      vertex -5.644836 -3.877069 0.000000
    endloop
  endfacet
  facet normal 0.000000 -0.000000 -1.000000
    outer loop
      vertex 3.848255 5.616022 0.000000
      vertex 1.250000 6.725277 0.000000
      vertex 7.071068 8.838835 0.000000
    endloop
  endfacet
  facet normal 0.000000 0.000000 -1.000000
    outer loop
      vertex -11.639956 -2.474149 0.000000
      vertex 4.502168 -5.195778 0.000000
      vertex 3.848255 -5.616022 0.000000
    endloop
  endfacet
  facet normal 0.000000 0.000000 -1.000000
    outer loop
      vertex 5.644836 -3.877069 0.000000
      vertex 9.627302 -6.994645 0.000000
      vertex 8.838835 -7.071068 0.000000
    endloop
  endfacet
  facet normal 0.000000 0.000000 -1.000000
    outer loop
      vertex -11.639956 -2.474149 0.000000
      vertex 11.639956 -2.474149 0.000000
      vertex 5.644836 -3.877069 0.000000
    endloop
  endfacet
  facet normal -0.000000 -0.000000 -1.000000
    outer loop
      vertex -5.644836 -3.877069 0.000000
      vertex -11.639956 -2.474149 0.000000
      vertex 3.848255 -5.616022 0.000000
    endloop
  endfacet
  facet normal 0.000000 0.000000 -1.000000
    outer loop
      vertex 5.644836 3.877069 0.000000
      vertex -6.875000 0.000000 0.000000
      vertex 4.502168 5.195778 0.000000
    endloop
  endfacet
  facet normal 0.000000 0.000000 -1.000000
    outer loop
      vertex -6.875000 0.000000 0.000000
      vertex 3.848255 5.616022 0.000000
      vertex 4.502168 5.195778 0.000000
    endloop
  endfacet
  facet normal 0.000000 0.000000 -1.000000
    outer loop
      vertex -5.644836 -3.877069 0.000000
      vertex 1.250000 -6.725277 0.000000
      vertex -4.502168 -5.195778 0.000000
    endloop
  endfacet
  facet normal -0.000000 0.000000 -1.000000
    outer loop
      vertex 7.071068 8.838835 0.000000
      vertex 7.962654 8.843423 0.000000
      vertex 8.838835 7.071068 0.000000
    endloop
  endfacet
  facet normal 0.000000 0.000000 -1.000000
    outer loop
      vertex 1.250000 6.725277 0.000000
      vertex 5.950000 10.305702 0.000000
      vertex 7.071068 8.838835 0.000000
    endloop
  endfacet
  facet normal 0.000000 0.000000 -1.000000
    outer loop
      vertex 11.250000 1.250000 0.000000
      vertex 11.900000 0.000000 0.000000
      vertex 11.250000 -1.250000 0.000000
    endloop
  endfacet
  facet normal -0.000000 0.000000 -1.000000
    outer loop
      vertex -11.639956 -2.474149 0.000000
      vertex 6.695277 -1.250000 0.000000
      vertex 11.639956 -2.474149 0.000000
    endloop
  endfacet
  facet normal 0.000000 0.000000 -1.000000
    outer loop
      vertex 6.695277 -1.250000 0.000000
      vertex 11.250000 -1.250000 0.000000
      vertex 11.639956 -2.474149 0.000000
    endloop
  endfacet
  facet normal -0.000000 0.000000 -1.000000
    outer loop
      vertex 6.695277 1.250000 0.000000
      vertex 11.639956 2.474149 0.000000
      vertex 11.250000 1.250000 0.000000
    endloop
  endfacet
  facet normal 0.000000 0.000000 -1.000000
    outer loop
      vertex -11.639956 -2.474149 0.000000
      vertex 11.639956 2.474149 0.000000
      vertex 6.695277 1.250000 0.000000
    endloop
  endfacet
  facet normal 0.000000 0.000000 -1.000000
    outer loop
      vertex -11.639956 -2.474149 0.000000
      vertex 6.695277 1.250000 0.000000
      vertex 6.875000 0.000000 0.000000
    endloop
  endfacet
  facet normal 0.000000 0.000000 -1.000000
    outer loop
      vertex -11.250000 1.250000 0.000000
      vertex -10.871191 4.840166 0.000000
      vertex -9.627302 6.994645 0.000000
    endloop
  endfacet
  facet normal 0.000000 0.000000 -1.000000
    outer loop
      vertex -11.250000 1.250000 0.000000
      vertex -9.627302 6.994645 0.000000
      vertex -8.838835 7.071068 0.000000
    endloop
  endfacet
  facet normal 0.000000 0.000000 -1.000000
    outer loop
      vertex -5.644836 3.877069 0.000000
      vertex -11.250000 1.250000 0.000000
      vertex -8.838835 7.071068 0.000000
    endloop
  endfacet
  facet normal 0.000000 0.000000 -1.000000
    outer loop
      vertex -8.838835 7.071068 0.000000
      vertex -7.962654 8.843423 0.000000
      vertex -7.071068 8.838835 0.000000
    endloop
  endfacet
  facet normal 0.000000 0.000000 -1.000000
    outer loop
      vertex 8.838835 -7.071068 0.000000
      vertex 7.962654 -8.843423 0.000000
      vertex 7.071068 -8.838835 0.000000
    endloop
  endfacet
  facet normal 0.000000 0.000000 -1.000000
    outer loop
      vertex 1.250000 -6.725277 0.000000
      vertex 7.071068 -8.838835 0.000000
      vertex 5.950000 -10.305702 0.000000
    endloop
  endfacet
  facet normal 0.000000 0.000000 -1.000000
    outer loop
      vertex -0.978415 -6.805022 0.000000
      vertex -1.250000 -6.725277 0.000000
      vertex -3.848255 -5.616022 0.000000
    endloop
  endfacet
  facet normal 0.000000 0.000000 -1.000000
    outer loop
      vertex 0.978415 6.805022 0.000000
      vertex -6.695277 1.250000 0.000000
      vertex -0.978415 6.805022 0.000000
    endloop
  endfacet
  facet normal -0.000000 0.000000 -1.000000
    outer loop
      vertex -5.644836 3.877069 0.000000
      vertex -1.250000 6.725277 0.000000
      vertex -6.695277 1.250000 0.000000
    endloop
  endfacet
  facet normal -0.000000 0.000000 -1.000000
    outer loop
      vertex -11.250000 1.250000 0.000000
      vertex -5.644836 3.877069 0.000000
      vertex -6.695277 1.250000 0.000000
    endloop
  endfacet
  facet normal 0.000000 0.000000 -1.000000
    outer loop
      vertex -1.250000 6.725277 0.000000
      vertex -3.848255 5.616022 0.000000
      vertex -7.071068 8.838835 0.000000
    endloop
  endfacet
  facet normal 0.000000 -0.000000 -1.000000
    outer loop
      vertex -11.250000 -1.250000 0.000000
      vertex -11.639956 -2.474149 0.000000
      vertex -11.250000 1.250000 0.000000
    endloop
  endfacet
  facet normal -0.994522 0.104529 0.000000
    outer loop
      vertex -11.900000 0.000000 0.000000
      vertex -11.900000 0.000000 2.500000
      vertex -11.639956 2.474149 0.000000
    endloop
  endfacet
  facet normal -0.994522 0.104529 0.000000
    outer loop
      vertex -11.639956 2.474149 0.000000
      vertex -11.900000 0.000000 2.500000
      vertex -11.639956 2.474149 2.500000
    endloop
  endfacet
  facet normal -0.994522 -0.104529 -0.000000
    outer loop
      vertex -11.900000 0.000000 0.000000
      vertex -11.639956 -2.474149 0.000000
      vertex -11.900000 0.000000 2.500000
    endloop
  endfacet
  facet normal -0.994522 -0.104529 0.000000
    outer loop
      vertex -11.900000 0.000000 2.500000
      vertex -11.639956 -2.474149 0.000000
      vertex -11.639956 -2.474149 2.500000
    endloop
  endfacet
  facet normal -0.951057 -0.309017 -0.000000
    outer loop
      vertex -11.639956 -2.474149 0.000000
      vertex -10.871191 -4.840166 0.000000
      vertex -11.639956 -2.474149 2.500000
    endloop
  endfacet
  facet normal -0.951057 -0.309017 0.000000
    outer loop
      vertex -11.639956 -2.474149 2.500000
      vertex -10.871191 -4.840166 0.000000
      vertex -10.871191 -4.840166 2.500000
    endloop
  endfacet
  facet normal -0.866025 -0.500000 -0.000000
    outer loop
      vertex -10.871191 -4.840166 0.000000
      vertex -9.627302 -6.994645 0.000000
      vertex -10.871191 -4.840166 2.500000
    endloop
  endfacet
  facet normal -0.866025 -0.500000 0.000000
    outer loop
      vertex -10.871191 -4.840166 2.500000
      vertex -9.627302 -6.994645 0.000000
      vertex -9.627302 -6.994645 2.500000
    endloop
  endfacet
  facet normal -0.743145 -0.669131 -0.000000
    outer loop
      vertex -9.627302 -6.994645 0.000000
      vertex -7.962654 -8.843423 0.000000
      vertex -9.627302 -6.994645 2.500000
    endloop
  endfacet
  facet normal -0.743145 -0.669131 0.000000
    outer loop
      vertex -9.627302 -6.994645 2.500000
      vertex -7.962654 -8.843423 0.000000
      vertex -7.962654 -8.843423 2.500000
    endloop
  endfacet
  facet normal -0.587785 -0.809017 0.000000
    outer loop
      vertex -7.962654 -8.843423 2.500000
      vertex -7.962654 -8.843423 0.000000
      vertex -5.950000 -10.305702 0.000000
    endloop
  endfacet
  facet normal -0.587785 -0.809017 0.000000
    outer loop
      vertex -5.950000 -10.305702 2.500000
      vertex -7.962654 -8.843423 2.500000
      vertex -5.950000 -10.305702 0.000000
    endloop
  endfacet
  facet normal -0.406737 -0.913545 0.000000
    outer loop
      vertex -5.950000 -10.305702 2.500000
      vertex -5.950000 -10.305702 0.000000
      vertex -3.677302 -11.317573 0.000000
    endloop
  endfacet
  facet normal -0.406737 -0.913545 0.000000
    outer loop
      vertex -3.677302 -11.317573 2.500000
      vertex -5.950000 -10.305702 2.500000
      vertex -3.677302 -11.317573 0.000000
    endloop
  endfacet
  facet normal -0.207912 -0.978148 0.000000
    outer loop
      vertex -3.677302 -11.317573 2.500000
      vertex -3.677302 -11.317573 0.000000
      vertex -1.243889 -11.834811 0.000000
    endloop
  endfacet
  facet normal -0.207912 -0.978148 0.000000
    outer loop
      vertex -1.243889 -11.834811 2.500000
      vertex -3.677302 -11.317573 2.500000
      vertex -1.243889 -11.834811 0.000000
    endloop
  endfacet
  facet normal 0.000000 -1.000000 0.000000
    outer loop
      vertex -1.243889 -11.834811 2.500000
      vertex -1.243889 -11.834811 0.000000
      vertex 1.243889 -11.834811 0.000000
    endloop
  endfacet
  facet normal 0.000000 -1.000000 0.000000
    outer loop
      vertex 1.243889 -11.834811 2.500000
      vertex -1.243889 -11.834811 2.500000
      vertex 1.243889 -11.834811 0.000000
    endloop
  endfacet
  facet normal 0.207912 -0.978148 0.000000
    outer loop
      vertex 1.243889 -11.834811 2.500000
      vertex 1.243889 -11.834811 0.000000
      vertex 3.677302 -11.317573 0.000000
    endloop
  endfacet
  facet normal 0.207912 -0.978148 0.000000
    outer loop
      vertex 3.677302 -11.317573 2.500000
      vertex 1.243889 -11.834811 2.500000
      vertex 3.677302 -11.317573 0.000000
    endloop
  endfacet
  facet normal 0.406737 -0.913545 0.000000
    outer loop
      vertex 3.677302 -11.317573 2.500000
      vertex 3.677302 -11.317573 0.000000
      vertex 5.950000 -10.305702 0.000000
    endloop
  endfacet
  facet normal 0.406737 -0.913545 0.000000
    outer loop
      vertex 5.950000 -10.305702 2.500000
      vertex 3.677302 -11.317573 2.500000
      vertex 5.950000 -10.305702 0.000000
    endloop
  endfacet
  facet normal 0.587785 -0.809017 0.000000
    outer loop
      vertex 5.950000 -10.305702 2.500000
      vertex 5.950000 -10.305702 0.000000
      vertex 7.962654 -8.843423 0.000000
    endloop
  endfacet
  facet normal 0.587785 -0.809017 0.000000
    outer loop
      vertex 7.962654 -8.843423 2.500000
      vertex 5.950000 -10.305702 2.500000
      vertex 7.962654 -8.843423 0.000000
    endloop
  endfacet
  facet normal 0.743145 -0.669131 0.000000
    outer loop
      vertex 7.962654 -8.843423 2.500000
      vertex 7.962654 -8.843423 0.000000
      vertex 9.627302 -6.994645 0.000000
    endloop
  endfacet
  facet normal 0.743145 -0.669131 0.000000
    outer loop
      vertex 9.627302 -6.994645 2.500000
      vertex 7.962654 -8.843423 2.500000
      vertex 9.627302 -6.994645 0.000000
    endloop
  endfacet
  facet normal 0.866025 -0.500000 0.000000
    outer loop
      vertex 9.627302 -6.994645 2.500000
      vertex 9.627302 -6.994645 0.000000
      vertex 10.871191 -4.840166 0.000000
    endloop
  endfacet
  facet normal 0.866025 -0.500000 0.000000
    outer loop
      vertex 10.871191 -4.840166 2.500000
      vertex 9.627302 -6.994645 2.500000
      vertex 10.871191 -4.840166 0.000000
    endloop
  endfacet
  facet normal 0.951057 -0.309017 0.000000
    outer loop
      vertex 10.871191 -4.840166 2.500000
      vertex 10.871191 -4.840166 0.000000
      vertex 11.639956 -2.474149 0.000000
    endloop
  endfacet
  facet normal 0.951057 -0.309017 0.000000
    outer loop
      vertex 11.639956 -2.474149 2.500000
      vertex 10.871191 -4.840166 2.500000
      vertex 11.639956 -2.474149 0.000000
    endloop
  endfacet
  facet normal 0.994522 -0.104529 0.000000
    outer loop
      vertex 11.639956 -2.474149 2.500000
      vertex 11.639956 -2.474149 0.000000
      vertex 11.900000 0.000000 0.000000
    endloop
  endfacet
  facet normal 0.994522 -0.104529 0.000000
    outer loop
      vertex 11.900000 0.000000 2.500000
      vertex 11.639956 -2.474149 2.500000
      vertex 11.900000 0.000000 0.000000
    endloop
  endfacet
  facet normal 0.994522 0.104529 0.000000
    outer loop
      vertex 11.900000 0.000000 0.000000
      vertex 11.639956 2.474149 0.000000
      vertex 11.639956 2.474149 2.500000
    endloop
  endfacet
  facet normal 0.994522 0.104529 -0.000000
    outer loop
      vertex 11.900000 0.000000 2.500000
      vertex 11.900000 0.000000 0.000000
      vertex 11.639956 2.474149 2.500000
    endloop
  endfacet
  facet normal 0.951057 0.309017 0.000000
    outer loop
      vertex 11.639956 2.474149 0.000000
      vertex 10.871191 4.840166 0.000000
      vertex 10.871191 4.840166 2.500000
    endloop
  endfacet
  facet normal 0.951057 0.309017 -0.000000
    outer loop
      vertex 11.639956 2.474149 2.500000
      vertex 11.639956 2.474149 0.000000
      vertex 10.871191 4.840166 2.500000
    endloop
  endfacet
  facet normal 0.866025 0.500000 0.000000
    outer loop
      vertex 10.871191 4.840166 0.000000
      vertex 9.627302 6.994645 0.000000
      vertex 9.627302 6.994645 2.500000
    endloop
  endfacet
  facet normal 0.866025 0.500000 -0.000000
    outer loop
      vertex 10.871191 4.840166 2.500000
      vertex 10.871191 4.840166 0.000000
      vertex 9.627302 6.994645 2.500000
    endloop
  endfacet
  facet normal 0.743145 0.669131 0.000000
    outer loop
      vertex 9.627302 6.994645 0.000000
      vertex 7.962654 8.843423 0.000000
      vertex 7.962654 8.843423 2.500000
    endloop
  endfacet
  facet normal 0.743145 0.669131 -0.000000
    outer loop
      vertex 9.627302 6.994645 2.500000
      vertex 9.627302 6.994645 0.000000
      vertex 7.962654 8.843423 2.500000
    endloop
  endfacet
  facet normal 0.587785 0.809017 0.000000
    outer loop
      vertex 5.950000 10.305702 0.000000
      vertex 5.950000 10.305702 2.500000
      vertex 7.962654 8.843423 0.000000
    endloop
  endfacet
  facet normal 0.587785 0.809017 0.000000
    outer loop
      vertex 7.962654 8.843423 0.000000
      vertex 5.950000 10.305702 2.500000
      vertex 7.962654 8.843423 2.500000
    endloop
  endfacet
  facet normal 0.406737 0.913545 0.000000
    outer loop
      vertex 3.677302 11.317573 0.000000
      vertex 3.677302 11.317573 2.500000
      vertex 5.950000 10.305702 0.000000
    endloop
  endfacet
  facet normal 0.406737 0.913545 0.000000
    outer loop
      vertex 5.950000 10.305702 0.000000
      vertex 3.677302 11.317573 2.500000
      vertex 5.950000 10.305702 2.500000
    endloop
  endfacet
  facet normal 0.207912 0.978148 0.000000
    outer loop
      vertex 1.243889 11.834811 0.000000
      vertex 1.243889 11.834811 2.500000
      vertex 3.677302 11.317573 0.000000
    endloop
  endfacet
  facet normal 0.207912 0.978148 0.000000
    outer loop
      vertex 3.677302 11.317573 0.000000
      vertex 1.243889 11.834811 2.500000
      vertex 3.677302 11.317573 2.500000
    endloop
  endfacet
  facet normal 0.000000 1.000000 0.000000
    outer loop
      vertex -1.243889 11.834811 0.000000
      vertex -1.243889 11.834811 2.500000
      vertex 1.243889 11.834811 0.000000
    endloop
  endfacet
  facet normal 0.000000 1.000000 0.000000
    outer loop
      vertex 1.243889 11.834811 0.000000
      vertex -1.243889 11.834811 2.500000
      vertex 1.243889 11.834811 2.500000
    endloop
  endfacet
  facet normal -0.207912 0.978148 0.000000
    outer loop
      vertex -3.677302 11.317573 0.000000
      vertex -3.677302 11.317573 2.500000
      vertex -1.243889 11.834811 0.000000
    endloop
  endfacet
  facet normal -0.207912 0.978148 0.000000
    outer loop
      vertex -1.243889 11.834811 0.000000
      vertex -3.677302 11.317573 2.500000
      vertex -1.243889 11.834811 2.500000
    endloop
  endfacet
  facet normal -0.406737 0.913545 0.000000
    outer loop
      vertex -5.950000 10.305702 0.000000
      vertex -5.950000 10.305702 2.500000
      vertex -3.677302 11.317573 0.000000
    endloop
  endfacet
  facet normal -0.406737 0.913545 0.000000
    outer loop
      vertex -3.677302 11.317573 0.000000
      vertex -5.950000 10.305702 2.500000
      vertex -3.677302 11.317573 2.500000
    endloop
  endfacet
  facet normal -0.587785 0.809017 0.000000
    outer loop
      vertex -7.962654 8.843423 0.000000
      vertex -7.962654 8.843423 2.500000
      vertex -5.950000 10.305702 0.000000
    endloop
  endfacet
  facet normal -0.587785 0.809017 0.000000
    outer loop
      vertex -5.950000 10.305702 0.000000
      vertex -7.962654 8.843423 2.500000
      vertex -5.950000 10.305702 2.500000
    endloop
  endfacet
  facet normal -0.743145 0.669131 0.000000
    outer loop
      vertex -9.627302 6.994645 0.000000
      vertex -9.627302 6.994645 2.500000
      vertex -7.962654 8.843423 0.000000
    endloop
  endfacet
  facet normal -0.743145 0.669131 0.000000
    outer loop
      vertex -7.962654 8.843423 0.000000
      vertex -9.627302 6.994645 2.500000
      vertex -7.962654 8.843423 2.500000
    endloop
  endfacet
  facet normal -0.866025 0.500000 0.000000
    outer loop
      vertex -10.871191 4.840166 0.000000
      vertex -10.871191 4.840166 2.500000
      vertex -9.627302 6.994645 0.000000
    endloop
  endfacet
  facet normal -0.866025 0.500000 0.000000
    outer loop
      vertex -9.627302 6.994645 0.000000
      vertex -10.871191 4.840166 2.500000
      vertex -9.627302 6.994645 2.500000
    endloop
  endfacet
  facet normal -0.951057 0.309017 0.000000
    outer loop
      vertex -11.639956 2.474149 0.000000
      vertex -11.639956 2.474149 2.500000
      vertex -10.871191 4.840166 0.000000
    endloop
  endfacet
  facet normal -0.951057 0.309017 0.000000
    outer loop
      vertex -10.871191 4.840166 0.000000
      vertex -11.639956 2.474149 2.500000
      vertex -10.871191 4.840166 2.500000
    endloop
  endfacet
  facet normal 1.000000 -0.000000 0.000000
    outer loop
      vertex -11.250000 1.250000 0.000000
      vertex -11.250000 1.250000 2.500000
      vertex -11.250000 -1.250000 2.500000
    endloop
  endfacet
  facet normal 1.000000 -0.000000 0.000000
    outer loop
      vertex -11.250000 -1.250000 0.000000
      vertex -11.250000 1.250000 0.000000
      vertex -11.250000 -1.250000 2.500000
    endloop
  endfacet
  facet normal -0.000000 -1.000000 -0.000000
    outer loop
      vertex -6.695277 1.250000 0.000000
      vertex -6.695277 1.250000 2.500000
      vertex -11.250000 1.250000 2.500000
    endloop
  endfacet
  facet normal -0.000000 -1.000000 -0.000000
    outer loop
      vertex -11.250000 1.250000 0.000000
      vertex -6.695277 1.250000 0.000000
      vertex -11.250000 1.250000 2.500000
    endloop
  endfacet
  facet normal -0.989821 0.142315 0.000000
    outer loop
      vertex -6.875000 0.000000 0.000000
      vertex -6.875000 0.000000 2.500000
      vertex -6.695277 1.250000 0.000000
    endloop
  endfacet
  facet normal -0.989821 0.142315 0.000000
    outer loop
      vertex -6.695277 1.250000 0.000000
      vertex -6.875000 0.000000 2.500000
      vertex -6.695277 1.250000 2.500000
    endloop
  endfacet
  facet normal -0.989821 -0.142315 -0.000000
    outer loop
      vertex -6.875000 0.000000 0.000000
      vertex -6.695277 -1.250000 0.000000
      vertex -6.875000 0.000000 2.500000
    endloop
  endfacet
  facet normal -0.989821 -0.142315 0.000000
    outer loop
      vertex -6.875000 0.000000 2.500000
      vertex -6.695277 -1.250000 0.000000
      vertex -6.695277 -1.250000 2.500000
    endloop
  endfacet
  facet normal 0.000000 1.000000 -0.000000
    outer loop
      vertex -6.695277 -1.250000 2.500000
      vertex -6.695277 -1.250000 0.000000
      vertex -11.250000 -1.250000 2.500000
    endloop
  endfacet
  facet normal 0.000000 1.000000 -0.000000
    outer loop
      vertex -11.250000 -1.250000 2.500000
      vertex -6.695277 -1.250000 0.000000
      vertex -11.250000 -1.250000 0.000000
    endloop
  endfacet
  facet normal 0.707107 -0.707107 0.000000
    outer loop
      vertex -5.644836 -3.877069 0.000000
      vertex -5.644836 -3.877069 2.500000
      vertex -8.838835 -7.071068 2.500000
    endloop
  endfacet
  facet normal 0.707107 -0.707107 0.000000
    outer loop
      vertex -8.838835 -7.071068 0.000000
      vertex -5.644836 -3.877069 0.000000
      vertex -8.838835 -7.071068 2.500000
    endloop
  endfacet
  facet normal 0.707107 0.707107 0.000000
    outer loop
      vertex -8.838835 -7.071068 2.500000
      vertex -7.071068 -8.838835 2.500000
      vertex -7.071068 -8.838835 0.000000
    endloop
  endfacet
  facet normal 0.707107 0.707107 0.000000
    outer loop
      vertex -8.838835 -7.071068 0.000000
      vertex -8.838835 -7.071068 2.500000
      vertex -7.071068 -8.838835 0.000000
    endloop
  endfacet
  facet normal -0.755750 -0.654861 -0.000000
    outer loop
      vertex -5.644836 -3.877069 0.000000
      vertex -4.502168 -5.195778 0.000000
      vertex -5.644836 -3.877069 2.500000
    endloop
  endfacet
  facet normal -0.755750 -0.654861 0.000000
    outer loop
      vertex -5.644836 -3.877069 2.500000
      vertex -4.502168 -5.195778 0.000000
      vertex -4.502168 -5.195778 2.500000
    endloop
  endfacet
  facet normal -0.540641 -0.841254 0.000000
    outer loop
      vertex -4.502168 -5.195778 2.500000
      vertex -4.502168 -5.195778 0.000000
      vertex -3.848255 -5.616022 0.000000
    endloop
  endfacet
  facet normal -0.540641 -0.841254 0.000000
    outer loop
      vertex -3.848255 -5.616022 2.500000
      vertex -4.502168 -5.195778 2.500000
      vertex -3.848255 -5.616022 0.000000
    endloop
  endfacet
  facet normal -0.707107 0.707107 0.000000
    outer loop
      vertex -3.848255 -5.616022 2.500000
      vertex -3.848255 -5.616022 0.000000
      vertex -7.071068 -8.838835 2.500000
    endloop
  endfacet
  facet normal -0.707107 0.707107 0.000000
    outer loop
      vertex -7.071068 -8.838835 2.500000
      vertex -3.848255 -5.616022 0.000000
      vertex -7.071068 -8.838835 0.000000
    endloop
  endfacet
  facet normal 0.707107 -0.707107 0.000000
    outer loop
      vertex -7.071068 8.838835 0.000000
      vertex -7.071068 8.838835 2.500000
      vertex -8.838835 7.071068 2.500000
    endloop
  endfacet
  facet normal 0.707107 -0.707107 0.000000
    outer loop
      vertex -8.838835 7.071068 0.000000
      vertex -7.071068 8.838835 0.000000
      vertex -8.838835 7.071068 2.500000
    endloop
  endfacet
  facet normal -0.707107 -0.707107 0.000000
    outer loop
      vertex -3.848255 5.616022 2.500000
      vertex -7.071068 8.838835 2.500000
      vertex -3.848255 5.616022 0.000000
    endloop
  endfacet
  facet normal -0.707107 -0.707107 0.000000
    outer loop
      vertex -3.848255 5.616022 0.000000
      vertex -7.071068 8.838835 2.500000
      vertex -7.071068 8.838835 0.000000
    endloop
  endfacet
  facet normal -0.540641 0.841254 0.000000
    outer loop
      vertex -4.502168 5.195778 0.000000
      vertex -4.502168 5.195778 2.500000
      vertex -3.848255 5.616022 0.000000
    endloop
  endfacet
  facet normal -0.540641 0.841254 0.000000
    outer loop
      vertex -3.848255 5.616022 0.000000
      vertex -4.502168 5.195778 2.500000
      vertex -3.848255 5.616022 2.500000
    endloop
  endfacet
  facet normal -0.755750 0.654861 0.000000
    outer loop
      vertex -5.644836 3.877069 0.000000
      vertex -5.644836 3.877069 2.500000
      vertex -4.502168 5.195778 0.000000
    endloop
  endfacet
  facet normal -0.755750 0.654861 0.000000
    outer loop
      vertex -4.502168 5.195778 0.000000
      vertex -5.644836 3.877069 2.500000
      vertex -4.502168 5.195778 2.500000
    endloop
  endfacet
  facet normal 0.707107 0.707107 0.000000
    outer loop
      vertex -8.838835 7.071068 2.500000
      vertex -5.644836 3.877069 2.500000
      vertex -5.644836 3.877069 0.000000
    endloop
  endfacet
  facet normal 0.707107 0.707107 0.000000
    outer loop
      vertex -8.838835 7.071068 0.000000
      vertex -8.838835 7.071068 2.500000
      vertex -5.644836 3.877069 0.000000
    endloop
  endfacet
  facet normal 1.000000 -0.000000 0.000000
    outer loop
      vertex -1.250000 -6.725277 0.000000
      vertex -1.250000 -6.725277 2.500000
      vertex -1.250000 -11.250000 2.500000
    endloop
  endfacet
  facet normal 1.000000 -0.000000 0.000000
    outer loop
      vertex -1.250000 -11.250000 0.000000
      vertex -1.250000 -6.725277 0.000000
      vertex -1.250000 -11.250000 2.500000
    endloop
  endfacet
  facet normal -0.281732 -0.959493 0.000000
    outer loop
      vertex -1.250000 -6.725277 2.500000
      vertex -1.250000 -6.725277 0.000000
      vertex -0.978415 -6.805022 0.000000
    endloop
  endfacet
  facet normal -0.281732 -0.959493 0.000000
    outer loop
      vertex -0.978415 -6.805022 2.500000
      vertex -1.250000 -6.725277 2.500000
      vertex -0.978415 -6.805022 0.000000
    endloop
  endfacet
  facet normal 0.000000 -1.000000 0.000000
    outer loop
      vertex -0.978415 -6.805022 2.500000
      vertex -0.978415 -6.805022 0.000000
      vertex 0.978415 -6.805022 0.000000
    endloop
  endfacet
  facet normal 0.000000 -1.000000 0.000000
    outer loop
      vertex 0.978415 -6.805022 2.500000
      vertex -0.978415 -6.805022 2.500000
      vertex 0.978415 -6.805022 0.000000
    endloop
  endfacet
  facet normal 0.281732 -0.959493 0.000000
    outer loop
      vertex 0.978415 -6.805022 2.500000
      vertex 0.978415 -6.805022 0.000000
      vertex 1.250000 -6.725277 0.000000
    endloop
  endfacet
  facet normal 0.281732 -0.959493 0.000000
    outer loop
      vertex 1.250000 -6.725277 2.500000
      vertex 0.978415 -6.805022 2.500000
      vertex 1.250000 -6.725277 0.000000
    endloop
  endfacet
  facet normal -1.000000 0.000000 0.000000
    outer loop
      vertex 1.250000 -6.725277 2.500000
      vertex 1.250000 -6.725277 0.000000
      vertex 1.250000 -11.250000 2.500000
    endloop
  endfacet
  facet normal -1.000000 0.000000 0.000000
    outer loop
      vertex 1.250000 -11.250000 2.500000
      vertex 1.250000 -6.725277 0.000000
      vertex 1.250000 -11.250000 0.000000
    endloop
  endfacet
  facet normal 0.000000 1.000000 -0.000000
    outer loop
      vertex 1.250000 -11.250000 2.500000
      vertex 1.250000 -11.250000 0.000000
      vertex -1.250000 -11.250000 2.500000
    endloop
  endfacet
  facet normal 0.000000 1.000000 -0.000000
    outer loop
      vertex -1.250000 -11.250000 2.500000
      vertex 1.250000 -11.250000 0.000000
      vertex -1.250000 -11.250000 0.000000
    endloop
  endfacet
  facet normal 1.000000 0.000000 0.000000
    outer loop
      vertex -1.250000 11.250000 0.000000
      vertex -1.250000 11.250000 2.500000
      vertex -1.250000 6.725277 2.500000
    endloop
  endfacet
  facet normal 1.000000 0.000000 0.000000
    outer loop
      vertex -1.250000 6.725277 0.000000
      vertex -1.250000 11.250000 0.000000
      vertex -1.250000 6.725277 2.500000
    endloop
  endfacet
  facet normal 0.000000 -1.000000 0.000000
    outer loop
      vertex 1.250000 11.250000 0.000000
      vertex 1.250000 11.250000 2.500000
      vertex -1.250000 11.250000 2.500000
    endloop
  endfacet
  facet normal -0.000000 -1.000000 -0.000000
    outer loop
      vertex -1.250000 11.250000 0.000000
      vertex 1.250000 11.250000 0.000000
      vertex -1.250000 11.250000 2.500000
    endloop
  endfacet
  facet normal -1.000000 0.000000 0.000000
    outer loop
      vertex 1.250000 11.250000 2.500000
      vertex 1.250000 11.250000 0.000000
      vertex 1.250000 6.725277 2.500000
    endloop
  endfacet
  facet normal -1.000000 0.000000 0.000000
    outer loop
      vertex 1.250000 6.725277 2.500000
      vertex 1.250000 11.250000 0.000000
      vertex 1.250000 6.725277 0.000000
    endloop
  endfacet
  facet normal 0.281732 0.959493 0.000000
    outer loop
      vertex 0.978415 6.805022 0.000000
      vertex 0.978415 6.805022 2.500000
      vertex 1.250000 6.725277 0.000000
    endloop
  endfacet
  facet normal 0.281732 0.959493 0.000000
    outer loop
      vertex 1.250000 6.725277 0.000000
      vertex 0.978415 6.805022 2.500000
      vertex 1.250000 6.725277 2.500000
    endloop
  endfacet
  facet normal 0.000000 1.000000 0.000000
    outer loop
      vertex -0.978415 6.805022 0.000000
      vertex -0.978415 6.805022 2.500000
      vertex 0.978415 6.805022 0.000000
    endloop
  endfacet
  facet normal 0.000000 1.000000 0.000000
    outer loop
      vertex 0.978415 6.805022 0.000000
      vertex -0.978415 6.805022 2.500000
      vertex 0.978415 6.805022 2.500000
    endloop
  endfacet
  facet normal -0.281732 0.959493 0.000000
    outer loop
      vertex -1.250000 6.725277 0.000000
      vertex -1.250000 6.725277 2.500000
      vertex -0.978415 6.805022 0.000000
    endloop
  endfacet
  facet normal -0.281732 0.959493 0.000000
    outer loop
      vertex -0.978415 6.805022 0.000000
      vertex -1.250000 6.725277 2.500000
      vertex -0.978415 6.805022 2.500000
    endloop
  endfacet
  facet normal 0.540641 -0.841254 0.000000
    outer loop
      vertex 3.848255 -5.616022 2.500000
      vertex 3.848255 -5.616022 0.000000
      vertex 4.502168 -5.195778 0.000000
    endloop
  endfacet
  facet normal 0.540641 -0.841254 0.000000
    outer loop
      vertex 4.502168 -5.195778 2.500000
      vertex 3.848255 -5.616022 2.500000
      vertex 4.502168 -5.195778 0.000000
    endloop
  endfacet
  facet normal 0.755750 -0.654861 0.000000
    outer loop
      vertex 4.502168 -5.195778 2.500000
      vertex 4.502168 -5.195778 0.000000
      vertex 5.644836 -3.877069 0.000000
    endloop
  endfacet
  facet normal 0.755750 -0.654861 0.000000
    outer loop
      vertex 5.644836 -3.877069 2.500000
      vertex 4.502168 -5.195778 2.500000
      vertex 5.644836 -3.877069 0.000000
    endloop
  endfacet
  facet normal -0.707107 -0.707107 0.000000
    outer loop
      vertex 8.838835 -7.071068 2.500000
      vertex 5.644836 -3.877069 2.500000
      vertex 8.838835 -7.071068 0.000000
    endloop
  endfacet
  facet normal -0.707107 -0.707107 0.000000
    outer loop
      vertex 8.838835 -7.071068 0.000000
      vertex 5.644836 -3.877069 2.500000
      vertex 5.644836 -3.877069 0.000000
    endloop
  endfacet
  facet normal -0.707107 0.707107 0.000000
    outer loop
      vertex 8.838835 -7.071068 2.500000
      vertex 8.838835 -7.071068 0.000000
      vertex 7.071068 -8.838835 2.500000
    endloop
  endfacet
  facet normal -0.707107 0.707107 0.000000
    outer loop
      vertex 7.071068 -8.838835 2.500000
      vertex 8.838835 -7.071068 0.000000
      vertex 7.071068 -8.838835 0.000000
    endloop
  endfacet
  facet normal 0.707107 0.707107 0.000000
    outer loop
      vertex 3.848255 -5.616022 2.500000
      vertex 7.071068 -8.838835 2.500000
      vertex 7.071068 -8.838835 0.000000
    endloop
  endfacet
  facet normal 0.707107 0.707107 0.000000
    outer loop
      vertex 3.848255 -5.616022 0.000000
      vertex 3.848255 -5.616022 2.500000
      vertex 7.071068 -8.838835 0.000000
    endloop
  endfacet
  facet normal 0.540641 0.841254 0.000000
    outer loop
      vertex 3.848255 5.616022 0.000000
      vertex 3.848255 5.616022 2.500000
      vertex 4.502168 5.195778 0.000000
    endloop
  endfacet
  facet normal 0.540641 0.841254 0.000000
    outer loop
      vertex 4.502168 5.195778 0.000000
      vertex 3.848255 5.616022 2.500000
      vertex 4.502168 5.195778 2.500000
    endloop
  endfacet
  facet normal 0.707107 -0.707107 0.000000
    outer loop
      vertex 7.071068 8.838835 0.000000
      vertex 7.071068 8.838835 2.500000
      vertex 3.848255 5.616022 2.500000
    endloop
  endfacet
  facet normal 0.707107 -0.707107 0.000000
    outer loop
      vertex 3.848255 5.616022 0.000000
      vertex 7.071068 8.838835 0.000000
      vertex 3.848255 5.616022 2.500000
    endloop
  endfacet
  facet normal -0.707107 -0.707107 0.000000
    outer loop
      vertex 8.838835 7.071068 2.500000
      vertex 7.071068 8.838835 2.500000
      vertex 8.838835 7.071068 0.000000
    endloop
  endfacet
  facet normal -0.707107 -0.707107 0.000000
    outer loop
      vertex 8.838835 7.071068 0.000000
      vertex 7.071068 8.838835 2.500000
      vertex 7.071068 8.838835 0.000000
    endloop
  endfacet
  facet normal -0.707107 0.707107 0.000000
    outer loop
      vertex 8.838835 7.071068 2.500000
      vertex 8.838835 7.071068 0.000000
      vertex 5.644836 3.877069 2.500000
    endloop
  endfacet
  facet normal -0.707107 0.707107 0.000000
    outer loop
      vertex 5.644836 3.877069 2.500000
      vertex 8.838835 7.071068 0.000000
      vertex 5.644836 3.877069 0.000000
    endloop
  endfacet
  facet normal 0.755750 0.654861 0.000000
    outer loop
      vertex 5.644836 3.877069 0.000000
      vertex 4.502168 5.195778 0.000000
      vertex 4.502168 5.195778 2.500000
    endloop
  endfacet
  facet normal 0.755750 0.654861 -0.000000
    outer loop
      vertex 5.644836 3.877069 2.500000
      vertex 5.644836 3.877069 0.000000
      vertex 4.502168 5.195778 2.500000
    endloop
  endfacet
  facet normal 0.989821 -0.142315 0.000000
    outer loop
      vertex 6.695277 -1.250000 2.500000
      vertex 6.695277 -1.250000 0.000000
      vertex 6.875000 0.000000 0.000000
    endloop
  endfacet
  facet normal 0.989821 -0.142315 0.000000
    outer loop
      vertex 6.875000 0.000000 2.500000
      vertex 6.695277 -1.250000 2.500000
      vertex 6.875000 0.000000 0.000000
    endloop
  endfacet
  facet normal 0.989821 0.142315 0.000000
    outer loop
      vertex 6.875000 0.000000 0.000000
      vertex 6.695277 1.250000 0.000000
      vertex 6.695277 1.250000 2.500000
    endloop
  endfacet
  facet normal 0.989821 0.142315 -0.000000
    outer loop
      vertex 6.875000 0.000000 2.500000
      vertex 6.875000 0.000000 0.000000
      vertex 6.695277 1.250000 2.500000
    endloop
  endfacet
  facet normal -0.000000 -1.000000 -0.000000
    outer loop
      vertex 11.250000 1.250000 0.000000
      vertex 11.250000 1.250000 2.500000
      vertex 6.695277 1.250000 2.500000
    endloop
  endfacet
  facet normal -0.000000 -1.000000 -0.000000
    outer loop
      vertex 6.695277 1.250000 0.000000
      vertex 11.250000 1.250000 0.000000
      vertex 6.695277 1.250000 2.500000
    endloop
  endfacet
  facet normal -1.000000 0.000000 0.000000
    outer loop
      vertex 11.250000 1.250000 2.500000
      vertex 11.250000 1.250000 0.000000
      vertex 11.250000 -1.250000 2.500000
    endloop
  endfacet
  facet normal -1.000000 0.000000 0.000000
    outer loop
      vertex 11.250000 -1.250000 2.500000
      vertex 11.250000 1.250000 0.000000
      vertex 11.250000 -1.250000 0.000000
    endloop
  endfacet
  facet normal 0.000000 1.000000 -0.000000
    outer loop
      vertex 11.250000 -1.250000 2.500000
      vertex 11.250000 -1.250000 0.000000
      vertex 6.695277 -1.250000 2.500000
    endloop
  endfacet
  facet normal 0.000000 1.000000 -0.000000
    outer loop
      vertex 6.695277 -1.250000 2.500000
      vertex 11.250000 -1.250000 0.000000
      vertex 6.695277 -1.250000 0.000000
    endloop
  endfacet
  facet normal 0.000000 0.000000 1.000000
    outer loop
      vertex -11.639956 2.474149 2.500000
      vertex -11.900000 0.000000 2.500000
      vertex -11.639956 -2.474149 2.500000
    endloop
  endfacet
  facet normal 0.000000 0.000000 1.000000
    outer loop
      vertex -3.848255 -5.616022 2.500000
      vertex -1.250000 -6.725277 2.500000
      vertex -5.644836 -3.877069 2.500000
    endloop
  endfacet
  facet normal -0.000000 0.000000 1.000000
    outer loop
      vertex -11.250000 -1.250000 2.500000
      vertex -11.639956 2.474149 2.500000
      vertex -11.639956 -2.474149 2.500000
    endloop
  endfacet
  facet normal 0.000000 0.000000 1.000000
    outer loop
      vertex -6.875000 0.000000 2.500000
      vertex -6.695277 -1.250000 2.500000
      vertex 1.250000 -6.725277 2.500000
    endloop
  endfacet
  facet normal 0.000000 0.000000 1.000000
    outer loop
      vertex -11.250000 1.250000 2.500000
      vertex -6.695277 1.250000 2.500000
      vertex -11.639956 2.474149 2.500000
    endloop
  endfacet
  facet normal 0.000000 0.000000 1.000000
    outer loop
      vertex -3.848255 -5.616022 2.500000
      vertex -3.677302 -11.317573 2.500000
      vertex -1.243889 -11.834811 2.500000
    endloop
  endfacet
  facet normal 0.000000 0.000000 1.000000
    outer loop
      vertex -1.250000 11.250000 2.500000
      vertex 1.250000 11.250000 2.500000
      vertex 1.243889 11.834811 2.500000
    endloop
  endfacet
  facet normal 0.000000 0.000000 1.000000
    outer loop
      vertex -7.071068 8.838835 2.500000
      vertex -3.677302 11.317573 2.500000
      vertex -5.950000 10.305702 2.500000
    endloop
  endfacet
  facet normal 0.000000 -0.000000 1.000000
    outer loop
      vertex 1.250000 -6.725277 2.500000
      vertex 1.250000 -11.250000 2.500000
      vertex 3.677302 -11.317573 2.500000
    endloop
  endfacet
  facet normal 0.000000 -0.000000 1.000000
    outer loop
      vertex 5.644836 3.877069 2.500000
      vertex -11.639956 2.474149 2.500000
      vertex 11.639956 2.474149 2.500000
    endloop
  endfacet
  facet normal 0.000000 0.000000 1.000000
    outer loop
      vertex 7.071068 8.838835 2.500000
      vertex 8.838835 7.071068 2.500000
      vertex 7.962654 8.843423 2.500000
    endloop
  endfacet
  facet normal 0.000000 0.000000 1.000000
    outer loop
      vertex 0.978415 6.805022 2.500000
      vertex -0.978415 6.805022 2.500000
      vertex -1.250000 6.725277 2.500000
    endloop
  endfacet
  facet normal -0.000000 0.000000 1.000000
    outer loop
      vertex 1.250000 6.725277 2.500000
      vertex 0.978415 6.805022 2.500000
      vertex -4.502168 5.195778 2.500000
    endloop
  endfacet
  facet normal 0.000000 0.000000 1.000000
    outer loop
      vertex -7.071068 8.838835 2.500000
      vertex -1.250000 11.250000 2.500000
      vertex -1.243889 11.834811 2.500000
    endloop
  endfacet
  facet normal 0.000000 0.000000 1.000000
    outer loop
      vertex -7.071068 8.838835 2.500000
      vertex -1.243889 11.834811 2.500000
      vertex -3.677302 11.317573 2.500000
    endloop
  endfacet
  facet normal 0.000000 -0.000000 1.000000
    outer loop
      vertex -9.627302 6.994645 2.500000
      vertex -11.639956 2.474149 2.500000
      vertex -7.962654 8.843423 2.500000
    endloop
  endfacet
  facet normal 0.000000 -0.000000 1.000000
    outer loop
      vertex -10.871191 4.840166 2.500000
      vertex -11.639956 2.474149 2.500000
      vertex -9.627302 6.994645 2.500000
    endloop
  endfacet
  facet normal 0.000000 0.000000 1.000000
    outer loop
      vertex -10.871191 -4.840166 2.500000
      vertex -11.250000 -1.250000 2.500000
      vertex -11.639956 -2.474149 2.500000
    endloop
  endfacet
  facet normal 0.000000 0.000000 1.000000
    outer loop
      vertex 5.644836 -3.877069 2.500000
      vertex 8.838835 -7.071068 2.500000
      vertex 9.627302 -6.994645 2.500000
    endloop
  endfacet
  facet normal 0.000000 0.000000 1.000000
    outer loop
      vertex 6.695277 -1.250000 2.500000
      vertex 10.871191 -4.840166 2.500000
      vertex 11.639956 -2.474149 2.500000
    endloop
  endfacet
  facet normal 0.000000 0.000000 1.000000
    outer loop
      vertex -1.250000 6.725277 2.500000
      vertex -1.250000 11.250000 2.500000
      vertex -7.071068 8.838835 2.500000
    endloop
  endfacet
  facet normal -0.000000 0.000000 1.000000
    outer loop
      vertex -1.250000 6.725277 2.500000
      vertex -7.071068 8.838835 2.500000
      vertex -3.848255 5.616022 2.500000
    endloop
  endfacet
  facet normal 0.000000 -0.000000 1.000000
    outer loop
      vertex -3.848255 -5.616022 2.500000
      vertex -5.950000 -10.305702 2.500000
      vertex -3.677302 -11.317573 2.500000
    endloop
  endfacet
  facet normal 0.000000 0.000000 1.000000
    outer loop
      vertex -5.950000 -10.305702 2.500000
      vertex -7.071068 -8.838835 2.500000
      vertex -7.962654 -8.843423 2.500000
    endloop
  endfacet
  facet normal 0.000000 0.000000 1.000000
    outer loop
      vertex -7.962654 -8.843423 2.500000
      vertex -8.838835 -7.071068 2.500000
      vertex -9.627302 -6.994645 2.500000
    endloop
  endfacet
  facet normal 0.000000 0.000000 1.000000
    outer loop
      vertex 4.502168 -5.195778 2.500000
      vertex -6.695277 1.250000 2.500000
      vertex -6.875000 0.000000 2.500000
    endloop
  endfacet
  facet normal 0.000000 0.000000 1.000000
    outer loop
      vertex -0.950000 -1.645448 2.500000
      vertex -1.900000 0.000000 2.500000
      vertex -6.695277 1.250000 2.500000
    endloop
  endfacet
  facet normal -0.000000 0.000000 1.000000
    outer loop
      vertex -5.644836 3.877069 2.500000
      vertex -8.838835 7.071068 2.500000
      vertex -11.639956 2.474149 2.500000
    endloop
  endfacet
  facet normal 0.000000 0.000000 1.000000
    outer loop
      vertex -3.848255 -5.616022 2.500000
      vertex -5.644836 -3.877069 2.500000
      vertex -4.502168 -5.195778 2.500000
    endloop
  endfacet
  facet normal 0.000000 0.000000 1.000000
    outer loop
      vertex -0.978415 -6.805022 2.500000
      vertex 0.978415 -6.805022 2.500000
      vertex -6.695277 -1.250000 2.500000
    endloop
  endfacet
  facet normal 0.000000 -0.000000 1.000000
    outer loop
      vertex -7.962654 8.843423 2.500000
      vertex -8.838835 7.071068 2.500000
      vertex -5.950000 10.305702 2.500000
    endloop
  endfacet
  facet normal 0.000000 0.000000 1.000000
    outer loop
      vertex -7.962654 8.843423 2.500000
      vertex -11.639956 2.474149 2.500000
      vertex -8.838835 7.071068 2.500000
    endloop
  endfacet
  facet normal 0.000000 0.000000 1.000000
    outer loop
      vertex -8.838835 7.071068 2.500000
      vertex -7.071068 8.838835 2.500000
      vertex -5.950000 10.305702 2.500000
    endloop
  endfacet
  facet normal 0.000000 0.000000 1.000000
    outer loop
      vertex 4.502168 -5.195778 2.500000
      vertex 5.644836 -3.877069 2.500000
      vertex -0.950000 -1.645448 2.500000
    endloop
  endfacet
  facet normal 0.000000 -0.000000 1.000000
    outer loop
      vertex 1.250000 11.250000 2.500000
      vertex 1.250000 6.725277 2.500000
      vertex 7.071068 8.838835 2.500000
    endloop
  endfacet
  facet normal 0.000000 0.000000 1.000000
    outer loop
      vertex 7.071068 -8.838835 2.500000
      vertex -6.875000 0.000000 2.500000
      vertex 1.250000 -6.725277 2.500000
    endloop
  endfacet
  facet normal 0.000000 -0.000000 1.000000
    outer loop
      vertex 8.838835 7.071068 2.500000
      vertex 5.644836 3.877069 2.500000
      vertex 10.871191 4.840166 2.500000
    endloop
  endfacet
  facet normal -0.000000 0.000000 1.000000
    outer loop
      vertex 1.250000 -11.250000 2.500000
      vertex -1.250000 -11.250000 2.500000
      vertex 1.243889 -11.834811 2.500000
    endloop
  endfacet
  facet normal 0.000000 0.000000 1.000000
    outer loop
      vertex 1.900000 0.000000 2.500000
      vertex 10.871191 -4.840166 2.500000
      vertex 6.695277 -1.250000 2.500000
    endloop
  endfacet
  facet normal 0.000000 0.000000 1.000000
    outer loop
      vertex 11.639956 2.474149 2.500000
      vertex -11.639956 2.474149 2.500000
      vertex -0.950000 1.645448 2.500000
    endloop
  endfacet
  facet normal 0.000000 0.000000 1.000000
    outer loop
      vertex 11.639956 2.474149 2.500000
      vertex -0.950000 1.645448 2.500000
      vertex 0.950000 1.645448 2.500000
    endloop
  endfacet
  facet normal 0.000000 -0.000000 1.000000
    outer loop
      vertex 11.250000 1.250000 2.500000
      vertex 11.250000 -1.250000 2.500000
      vertex 11.900000 0.000000 2.500000
    endloop
  endfacet
  facet normal 0.000000 0.000000 1.000000
    outer loop
      vertex 0.950000 1.645448 2.500000
      vertex 1.900000 0.000000 2.500000
      vertex 6.875000 0.000000 2.500000
    endloop
  endfacet
  facet normal 0.000000 0.000000 1.000000
    outer loop
      vertex 10.871191 -4.840166 2.500000
      vertex 0.950000 -1.645448 2.500000
      vertex -0.950000 -1.645448 2.500000
    endloop
  endfacet
  facet normal -0.000000 0.000000 1.000000
    outer loop
      vertex 1.243889 -11.834811 2.500000
      vertex -1.250000 -11.250000 2.500000
      vertex -1.243889 -11.834811 2.500000
    endloop
  endfacet
  facet normal 0.000000 -0.000000 1.000000
    outer loop
      vertex -4.502168 5.195778 2.500000
      vertex -5.644836 3.877069 2.500000
      vertex 1.250000 6.725277 2.500000
    endloop
  endfacet
  facet normal 0.000000 0.000000 1.000000
    outer loop
      vertex 1.250000 11.250000 2.500000
      vertex 5.950000 10.305702 2.500000
      vertex 3.677302 11.317573 2.500000
    endloop
  endfacet
  facet normal 0.000000 0.000000 1.000000
    outer loop
      vertex 0.978415 -6.805022 2.500000
      vertex 1.250000 -6.725277 2.500000
      vertex -6.695277 -1.250000 2.500000
    endloop
  endfacet
  facet normal 0.000000 0.000000 1.000000
    outer loop
      vertex -6.695277 -1.250000 2.500000
      vertex -1.250000 -6.725277 2.500000
      vertex -0.978415 -6.805022 2.500000
    endloop
  endfacet
  facet normal -0.000000 0.000000 1.000000
    outer loop
      vertex 7.071068 -8.838835 2.500000
      vertex 1.250000 -6.725277 2.500000
      vertex 5.950000 -10.305702 2.500000
    endloop
  endfacet
  facet normal 0.000000 0.000000 1.000000
    outer loop
      vertex -3.848255 -5.616022 2.500000
      vertex -1.243889 -11.834811 2.500000
      vertex -1.250000 -11.250000 2.500000
    endloop
  endfacet
  facet normal -0.000000 0.000000 1.000000
    outer loop
      vertex 3.677302 -11.317573 2.500000
      vertex 1.250000 -11.250000 2.500000
      vertex 1.243889 -11.834811 2.500000
    endloop
  endfacet
  facet normal 0.000000 0.000000 1.000000
    outer loop
      vertex 1.250000 -6.725277 2.500000
      vertex 3.677302 -11.317573 2.500000
      vertex 5.950000 -10.305702 2.500000
    endloop
  endfacet
  facet normal -0.000000 0.000000 1.000000
    outer loop
      vertex 3.848255 5.616022 2.500000
      vertex 1.250000 6.725277 2.500000
      vertex -5.644836 3.877069 2.500000
    endloop
  endfacet
  facet normal 0.000000 -0.000000 1.000000
    outer loop
      vertex -1.243889 11.834811 2.500000
      vertex -1.250000 11.250000 2.500000
      vertex 1.243889 11.834811 2.500000
    endloop
  endfacet
  facet normal 0.000000 0.000000 1.000000
    outer loop
      vertex 0.978415 6.805022 2.500000
      vertex -1.250000 6.725277 2.500000
      vertex -3.848255 5.616022 2.500000
    endloop
  endfacet
  facet normal 0.000000 0.000000 1.000000
    outer loop
      vertex 1.243889 11.834811 2.500000
      vertex 1.250000 11.250000 2.500000
      vertex 3.677302 11.317573 2.500000
    endloop
  endfacet
  facet normal 0.000000 0.000000 1.000000
    outer loop
      vertex 6.695277 -1.250000 2.500000
      vertex 6.875000 0.000000 2.500000
      vertex 1.900000 0.000000 2.500000
    endloop
  endfacet
  facet normal 0.000000 0.000000 1.000000
    outer loop
      vertex 7.071068 -8.838835 2.500000
      vertex 3.848255 -5.616022 2.500000
      vertex -6.875000 0.000000 2.500000
    endloop
  endfacet
  facet normal 0.000000 -0.000000 1.000000
    outer loop
      vertex -3.848255 5.616022 2.500000
      vertex -4.502168 5.195778 2.500000
      vertex 0.978415 6.805022 2.500000
    endloop
  endfacet
  facet normal 0.000000 0.000000 1.000000
    outer loop
      vertex 3.848255 5.616022 2.500000
      vertex 7.071068 8.838835 2.500000
      vertex 1.250000 6.725277 2.500000
    endloop
  endfacet
  facet normal -0.000000 0.000000 1.000000
    outer loop
      vertex 5.644836 3.877069 2.500000
      vertex 4.502168 5.195778 2.500000
      vertex -11.639956 2.474149 2.500000
    endloop
  endfacet
  facet normal -0.000000 0.000000 1.000000
    outer loop
      vertex 4.502168 -5.195778 2.500000
      vertex -6.875000 0.000000 2.500000
      vertex 3.848255 -5.616022 2.500000
    endloop
  endfacet
  facet normal 0.000000 0.000000 1.000000
    outer loop
      vertex 8.838835 -7.071068 2.500000
      vertex 7.071068 -8.838835 2.500000
      vertex 7.962654 -8.843423 2.500000
    endloop
  endfacet
  facet normal 0.000000 0.000000 1.000000
    outer loop
      vertex 3.848255 5.616022 2.500000
      vertex -5.644836 3.877069 2.500000
      vertex -11.639956 2.474149 2.500000
    endloop
  endfacet
  facet normal -0.000000 0.000000 1.000000
    outer loop
      vertex 10.871191 -4.840166 2.500000
      vertex 5.644836 -3.877069 2.500000
      vertex 9.627302 -6.994645 2.500000
    endloop
  endfacet
  facet normal 0.000000 0.000000 1.000000
    outer loop
      vertex 10.871191 -4.840166 2.500000
      vertex -0.950000 -1.645448 2.500000
      vertex 5.644836 -3.877069 2.500000
    endloop
  endfacet
  facet normal 0.000000 0.000000 1.000000
    outer loop
      vertex 9.627302 -6.994645 2.500000
      vertex 8.838835 -7.071068 2.500000
      vertex 7.962654 -8.843423 2.500000
    endloop
  endfacet
  facet normal -0.000000 0.000000 1.000000
    outer loop
      vertex 7.962654 -8.843423 2.500000
      vertex 7.071068 -8.838835 2.500000
      vertex 5.950000 -10.305702 2.500000
    endloop
  endfacet
  facet normal 0.000000 0.000000 1.000000
    outer loop
      vertex 4.502168 -5.195778 2.500000
      vertex -0.950000 -1.645448 2.500000
      vertex -6.695277 1.250000 2.500000
    endloop
  endfacet
  facet normal 0.000000 -0.000000 1.000000
    outer loop
      vertex 3.848255 5.616022 2.500000
      vertex -11.639956 2.474149 2.500000
      vertex 4.502168 5.195778 2.500000
    endloop
  endfacet
  facet normal -0.000000 -0.000000 1.000000
    outer loop
      vertex 11.250000 -1.250000 2.500000
      vertex 6.695277 -1.250000 2.500000
      vertex 11.639956 -2.474149 2.500000
    endloop
  endfacet
  facet normal 0.000000 0.000000 1.000000
    outer loop
      vertex 5.950000 10.305702 2.500000
      vertex 7.071068 8.838835 2.500000
      vertex 7.962654 8.843423 2.500000
    endloop
  endfacet
  facet normal 0.000000 0.000000 1.000000
    outer loop
      vertex 7.962654 8.843423 2.500000
      vertex 8.838835 7.071068 2.500000
      vertex 9.627302 6.994645 2.500000
    endloop
  endfacet
  facet normal 0.000000 0.000000 1.000000
    outer loop
      vertex 8.838835 7.071068 2.500000
      vertex 10.871191 4.840166 2.500000
      vertex 9.627302 6.994645 2.500000
    endloop
  endfacet
  facet normal 0.000000 -0.000000 1.000000
    outer loop
      vertex 10.871191 4.840166 2.500000
      vertex 5.644836 3.877069 2.500000
      vertex 11.639956 2.474149 2.500000
    endloop
  endfacet
  facet normal 0.000000 -0.000000 1.000000
    outer loop
      vertex 1.900000 0.000000 2.500000
      vertex 0.950000 -1.645448 2.500000
      vertex 10.871191 -4.840166 2.500000
    endloop
  endfacet
  facet normal 0.000000 0.000000 1.000000
    outer loop
      vertex 6.875000 0.000000 2.500000
      vertex 6.695277 1.250000 2.500000
      vertex 0.950000 1.645448 2.500000
    endloop
  endfacet
  facet normal 0.000000 0.000000 1.000000
    outer loop
      vertex 11.639956 2.474149 2.500000
      vertex 0.950000 1.645448 2.500000
      vertex 6.695277 1.250000 2.500000
    endloop
  endfacet
  facet normal 0.000000 -0.000000 1.000000
    outer loop
      vertex 11.639956 2.474149 2.500000
      vertex 11.250000 1.250000 2.500000
      vertex 11.900000 0.000000 2.500000
    endloop
  endfacet
  facet normal 0.000000 0.000000 1.000000
    outer loop
      vertex 11.639956 2.474149 2.500000
      vertex 6.695277 1.250000 2.500000
      vertex 11.250000 1.250000 2.500000
    endloop
  endfacet
  facet normal 0.000000 0.000000 1.000000
    outer loop
      vertex 11.900000 0.000000 2.500000
      vertex 11.250000 -1.250000 2.500000
      vertex 11.639956 -2.474149 2.500000
    endloop
  endfacet
  facet normal 0.000000 0.000000 1.000000
    outer loop
      vertex -11.250000 -1.250000 2.500000
      vertex -11.250000 1.250000 2.500000
      vertex -11.639956 2.474149 2.500000
    endloop
  endfacet
  facet normal 0.000000 0.000000 1.000000
    outer loop
      vertex -3.848255 -5.616022 2.500000
      vertex -7.071068 -8.838835 2.500000
      vertex -5.950000 -10.305702 2.500000
    endloop
  endfacet
  facet normal 0.000000 0.000000 1.000000
    outer loop
      vertex -6.695277 -1.250000 2.500000
      vertex -5.644836 -3.877069 2.500000
      vertex -1.250000 -6.725277 2.500000
    endloop
  endfacet
  facet normal 0.000000 0.000000 1.000000
    outer loop
      vertex -1.250000 -11.250000 2.500000
      vertex -1.250000 -6.725277 2.500000
      vertex -3.848255 -5.616022 2.500000
    endloop
  endfacet
  facet normal 0.000000 0.000000 1.000000
    outer loop
      vertex -6.695277 1.250000 2.500000
      vertex -0.950000 1.645448 2.500000
      vertex -11.639956 2.474149 2.500000
    endloop
  endfacet
  facet normal 0.000000 0.000000 1.000000
    outer loop
      vertex -1.900000 0.000000 2.500000
      vertex -0.950000 1.645448 2.500000
      vertex -6.695277 1.250000 2.500000
    endloop
  endfacet
  facet normal -0.000000 0.000000 1.000000
    outer loop
      vertex -7.071068 -8.838835 2.500000
      vertex -8.838835 -7.071068 2.500000
      vertex -7.962654 -8.843423 2.500000
    endloop
  endfacet
  facet normal 0.000000 0.000000 1.000000
    outer loop
      vertex 1.250000 11.250000 2.500000
      vertex 7.071068 8.838835 2.500000
      vertex 5.950000 10.305702 2.500000
    endloop
  endfacet
  facet normal 0.000000 0.000000 1.000000
    outer loop
      vertex -8.838835 -7.071068 2.500000
      vertex -5.644836 -3.877069 2.500000
      vertex -6.695277 -1.250000 2.500000
    endloop
  endfacet
  facet normal 0.000000 0.000000 1.000000
    outer loop
      vertex -6.695277 -1.250000 2.500000
      vertex -9.627302 -6.994645 2.500000
      vertex -8.838835 -7.071068 2.500000
    endloop
  endfacet
  facet normal 0.000000 0.000000 1.000000
    outer loop
      vertex -6.695277 -1.250000 2.500000
      vertex -10.871191 -4.840166 2.500000
      vertex -9.627302 -6.994645 2.500000
    endloop
  endfacet
  facet normal -0.000000 0.000000 1.000000
    outer loop
      vertex -6.695277 -1.250000 2.500000
      vertex -11.250000 -1.250000 2.500000
      vertex -10.871191 -4.840166 2.500000
    endloop
  endfacet
  facet normal -0.866025 -0.500000 -0.000000
    outer loop
      vertex -1.900000 0.000000 2.500000
      vertex -0.950000 -1.645448 2.500000
      vertex -1.900000 0.000000 10.000000
    endloop
  endfacet
  facet normal -0.866025 -0.500000 0.000000
    outer loop
      vertex -1.900000 0.000000 10.000000
      vertex -0.950000 -1.645448 2.500000
      vertex -0.950000 -1.645448 10.000000
    endloop
  endfacet
  facet normal 0.000000 -1.000000 0.000000
    outer loop
      vertex -0.950000 -1.645448 10.000000
      vertex -0.950000 -1.645448 2.500000
      vertex 0.950000 -1.645448 2.500000
    endloop
  endfacet
  facet normal 0.000000 -1.000000 0.000000
    outer loop
      vertex 0.950000 -1.645448 10.000000
      vertex -0.950000 -1.645448 10.000000
      vertex 0.950000 -1.645448 2.500000
    endloop
  endfacet
  facet normal 0.866025 -0.500000 0.000000
    outer loop
      vertex 0.950000 -1.645448 10.000000
      vertex 0.950000 -1.645448 2.500000
      vertex 1.900000 0.000000 2.500000
    endloop
  endfacet
  facet normal 0.866025 -0.500000 0.000000
    outer loop
      vertex 1.900000 0.000000 10.000000
      vertex 0.950000 -1.645448 10.000000
      vertex 1.900000 0.000000 2.500000
    endloop
  endfacet
  facet normal 0.866025 0.500000 0.000000
    outer loop
      vertex 1.900000 0.000000 2.500000
      vertex 0.950000 1.645448 2.500000
      vertex 0.950000 1.645448 10.000000
    endloop
  endfacet
  facet normal 0.866025 0.500000 -0.000000
    outer loop
      vertex 1.900000 0.000000 10.000000
      vertex 1.900000 0.000000 2.500000
      vertex 0.950000 1.645448 10.000000
    endloop
  endfacet
  facet normal 0.000000 1.000000 0.000000
    outer loop
      vertex -0.950000 1.645448 2.500000
      vertex -0.950000 1.645448 10.000000
      vertex 0.950000 1.645448 2.500000
    endloop
  endfacet
  facet normal 0.000000 1.000000 0.000000
    outer loop
      vertex 0.950000 1.645448 2.500000
      vertex -0.950000 1.645448 10.000000
      vertex 0.950000 1.645448 10.000000
    endloop
  endfacet
  facet normal -0.866025 0.500000 0.000000
    outer loop
      vertex -1.900000 0.000000 2.500000
      vertex -1.900000 0.000000 10.000000
      vertex -0.950000 1.645448 2.500000
    endloop
  endfacet
  facet normal -0.866025 0.500000 0.000000
    outer loop
      vertex -0.950000 1.645448 2.500000
      vertex -1.900000 0.000000 10.000000
      vertex -0.950000 1.645448 10.000000
    endloop
  endfacet
  facet normal 0.000000 0.000000 1.000000
    outer loop
      vertex -0.950000 1.645448 10.000000
      vertex -1.900000 0.000000 10.000000
      vertex -0.950000 -1.645448 10.000000
    endloop
  endfacet
  facet normal -0.000000 0.000000 1.000000
    outer loop
      vertex 1.900000 0.000000 10.000000
      vertex -0.950000 1.645448 10.000000
      vertex 0.950000 -1.645448 10.000000
    endloop
  endfacet
  facet normal -0.000000 0.000000 1.000000
    outer loop
      vertex 0.950000 -1.645448 10.000000
      vertex -0.950000 1.645448 10.000000
      vertex -0.950000 -1.645448 10.000000
    endloop
  endfacet
  facet normal 0.000000 -0.000000 1.000000
    outer loop
      vertex 0.950000 1.645448 10.000000
      vertex -0.950000 1.645448 10.000000
      vertex 1.900000 0.000000 10.000000
    endloop
  endfacet
endsolid OpenSCAD_Model
