solid OpenSCAD_Model
  facet normal -1 -0 -0
    outer loop
      vertex -12.5 0 0
      vertex -12.5 0 5
      vertex -12.5 10 0
    endloop
  endfacet
  facet normal -1 0 0
    outer loop
      vertex -12.5 10 0
      vertex -12.5 0 5
      vertex -12.5 10 5
    endloop
  endfacet
  facet normal -0.994522 -0.104528 -0
    outer loop
      vertex -12.5 0 0
      vertex -12.2268 -2.5989 0
      vertex -12.5 0 5
    endloop
  endfacet
  facet normal -0.994522 -0.104528 0
    outer loop
      vertex -12.5 0 5
      vertex -12.2268 -2.5989 0
      vertex -12.2268 -2.5989 5
    endloop
  endfacet
  facet normal -0 -0 -1
    outer loop
      vertex -12.5 0 0
      vertex -12.5 10 0
      vertex -12.2268 -2.5989 0
    endloop
  endfacet
  facet normal 0 -0 -1
    outer loop
      vertex -12.2268 -2.5989 0
      vertex -12.5 10 0
      vertex -10 10 0
    endloop
  endfacet
  facet normal 0 0 -1
    outer loop
      vertex -12.2268 -2.5989 0
      vertex -10 10 0
      vertex -10 0 0
    endloop
  endfacet
  facet normal 0 0 -1
    outer loop
      vertex -12.2268 -2.5989 0
      vertex -10 0 0
      vertex -9.78148 -2.07912 0
    endloop
  endfacet
  facet normal 0 0 -1
    outer loop
      vertex -9.78148 -2.07912 0
      vertex -9.13546 -4.06737 0
      vertex -12.2268 -2.5989 0
    endloop
  endfacet
  facet normal 0 0 -1
    outer loop
      vertex -9.13546 -4.06737 0
      vertex -8.09017 -5.87785 0
      vertex -12.2268 -2.5989 0
    endloop
  endfacet
  facet normal 0 0 -1
    outer loop
      vertex -8.09017 -5.87785 0
      vertex -6.69131 -7.43145 0
      vertex -12.2268 -2.5989 0
    endloop
  endfacet
  facet normal 0 0 -1
    outer loop
      vertex -6.69131 -7.43145 0
      vertex -1.30661 -12.4315 0
      vertex -12.2268 -2.5989 0
    endloop
  endfacet
  facet normal -0 0 -1
    outer loop
      vertex 9.13546 -4.06737 0
      vertex 12.5 0 0
      vertex 8.09017 -5.87785 0
    endloop
  endfacet
  facet normal -0 0 -1
    outer loop
      vertex 9.78148 -2.07912 0
      vertex 12.5 0 0
      vertex 9.13546 -4.06737 0
    endloop
  endfacet
  facet normal 0 -0 -1
    outer loop
      vertex 10 0 0
      vertex 10 45 0
      vertex 12.5 45 0
    endloop
  endfacet
  facet normal -0 0 -1
    outer loop
      vertex 10 0 0
      vertex 12.5 45 0
      vertex 12.5 0 0
    endloop
  endfacet
  facet normal 0 0 -1
    outer loop
      vertex 10 0 0
      vertex 12.5 0 0
      vertex 9.78148 -2.07912 0
    endloop
  endfacet
  facet normal 0 0 -1
    outer loop
      vertex 8.09017 -5.87785 0
      vertex 12.5 0 0
      vertex 12.2268 -2.5989 0
    endloop
  endfacet
  facet normal -0 0 -1
    outer loop
      vertex 8.09017 -5.87785 0
      vertex 12.2268 -2.5989 0
      vertex 6.69131 -7.43145 0
    endloop
  endfacet
  facet normal 0 0 -1
    outer loop
      vertex 6.69131 -7.43145 0
      vertex 12.2268 -2.5989 0
      vertex 11.4193 -5.08421 0
    endloop
  endfacet
  facet normal -0 0 -1
    outer loop
      vertex 6.69131 -7.43145 0
      vertex 11.4193 -5.08421 0
      vertex 5 -8.66025 0
    endloop
  endfacet
  facet normal 0 0 -1
    outer loop
      vertex 5 -8.66025 0
      vertex 11.4193 -5.08421 0
      vertex 10.1127 -7.34732 0
    endloop
  endfacet
  facet normal -0 0 -1
    outer loop
      vertex 5 -8.66025 0
      vertex 10.1127 -7.34732 0
      vertex 3.09017 -9.51056 0
    endloop
  endfacet
  facet normal 0 0 -1
    outer loop
      vertex 3.09017 -9.51056 0
      vertex 10.1127 -7.34732 0
      vertex 8.36413 -9.28931 0
    endloop
  endfacet
  facet normal -0 0 -1
    outer loop
      vertex 3.09017 -9.51056 0
      vertex 8.36413 -9.28931 0
      vertex 1.04529 -9.94522 0
    endloop
  endfacet
  facet normal -0 0 -1
    outer loop
      vertex 1.04529 -9.94522 0
      vertex 8.36413 -9.28931 0
      vertex 6.25 -10.8253 0
    endloop
  endfacet
  facet normal 0 0 -1
    outer loop
      vertex 1.04529 -9.94522 0
      vertex 6.25 -10.8253 0
      vertex -1.04529 -9.94522 0
    endloop
  endfacet
  facet normal 0 0 -1
    outer loop
      vertex -1.04529 -9.94522 0
      vertex 6.25 -10.8253 0
      vertex 3.86271 -11.8882 0
    endloop
  endfacet
  facet normal 0 0 -1
    outer loop
      vertex -1.04529 -9.94522 0
      vertex 3.86271 -11.8882 0
      vertex -3.09017 -9.51056 0
    endloop
  endfacet
  facet normal 0 0 -1
    outer loop
      vertex -3.09017 -9.51056 0
      vertex 3.86271 -11.8882 0
      vertex 1.30661 -12.4315 0
    endloop
  endfacet
  facet normal 0 0 -1
    outer loop
      vertex -3.09017 -9.51056 0
      vertex 1.30661 -12.4315 0
      vertex -5 -8.66025 0
    endloop
  endfacet
  facet normal 0 0 -1
    outer loop
      vertex -5 -8.66025 0
      vertex 1.30661 -12.4315 0
      vertex -1.30661 -12.4315 0
    endloop
  endfacet
  facet normal 0 0 -1
    outer loop
      vertex -5 -8.66025 0
      vertex -1.30661 -12.4315 0
      vertex -6.69131 -7.43145 0
    endloop
  endfacet
  facet normal 0 0 -1
    outer loop
      vertex -12.2268 -2.5989 0
      vertex -1.30661 -12.4315 0
      vertex -3.86271 -11.8882 0
    endloop
  endfacet
  facet normal 0 0 -1
    outer loop
      vertex -12.2268 -2.5989 0
      vertex -3.86271 -11.8882 0
      vertex -6.25 -10.8253 0
    endloop
  endfacet
  facet normal 0 0 -1
    outer loop
      vertex -12.2268 -2.5989 0
      vertex -6.25 -10.8253 0
      vertex -8.36413 -9.28931 0
    endloop
  endfacet
  facet normal 0 0 -1
    outer loop
      vertex -12.2268 -2.5989 0
      vertex -8.36413 -9.28931 0
      vertex -10.1127 -7.34732 0
    endloop
  endfacet
  facet normal 0 0 -1
    outer loop
      vertex -12.2268 -2.5989 0
      vertex -10.1127 -7.34732 0
      vertex -11.4193 -5.08421 0
    endloop
  endfacet
  facet normal 0 1 0
    outer loop
      vertex -12.5 10 0
      vertex -12.5 10 5
      vertex -10 10 0
    endloop
  endfacet
  facet normal 0 1 0
    outer loop
      vertex -10 10 0
      vertex -12.5 10 5
      vertex -10 10 5
    endloop
  endfacet
  facet normal 0 -0 1
    outer loop
      vertex -12.5 10 5
      vertex -12.5 0 5
      vertex -12.2268 -2.5989 5
    endloop
  endfacet
  facet normal 0 0 1
    outer loop
      vertex -10.1127 -7.34732 5
      vertex -12.5 10 5
      vertex -11.4193 -5.08421 5
    endloop
  endfacet
  facet normal 0 0 1
    outer loop
      vertex -11.4193 -5.08421 5
      vertex -12.5 10 5
      vertex -12.2268 -2.5989 5
    endloop
  endfacet
  facet normal 0 0 1
    outer loop
      vertex -8.36413 -9.28931 5
      vertex -12.5 10 5
      vertex -10.1127 -7.34732 5
    endloop
  endfacet
  facet normal -0 -0 1
    outer loop
      vertex -9.78148 -2.07912 5
      vertex -12.5 10 5
      vertex -8.36413 -9.28931 5
    endloop
  endfacet
  facet normal 0 0 1
    outer loop
      vertex -9.78148 -2.07912 5
      vertex -10 0 5
      vertex -12.5 10 5
    endloop
  endfacet
  facet normal -0 -0 1
    outer loop
      vertex -6.69131 -7.43145 5
      vertex -8.09017 -5.87785 5
      vertex -6.25 -10.8253 5
    endloop
  endfacet
  facet normal -0 -0 1
    outer loop
      vertex -5 -8.66025 5
      vertex -6.69131 -7.43145 5
      vertex -3.86271 -11.8882 5
    endloop
  endfacet
  facet normal -0 0 1
    outer loop
      vertex -1.04529 -9.94522 5
      vertex -3.09017 -9.51056 5
      vertex -1.30661 -12.4315 5
    endloop
  endfacet
  facet normal 0 -0 1
    outer loop
      vertex 1.04529 -9.94522 5
      vertex -1.04529 -9.94522 5
      vertex 1.30661 -12.4315 5
    endloop
  endfacet
  facet normal 0 -0 1
    outer loop
      vertex 3.09017 -9.51056 5
      vertex 1.04529 -9.94522 5
      vertex 3.86271 -11.8882 5
    endloop
  endfacet
  facet normal 0 -0 1
    outer loop
      vertex 5 -8.66025 5
      vertex 3.09017 -9.51056 5
      vertex 6.25 -10.8253 5
    endloop
  endfacet
  facet normal 0 -0 1
    outer loop
      vertex 6.69131 -7.43145 5
      vertex 5 -8.66025 5
      vertex 8.36413 -9.28931 5
    endloop
  endfacet
  facet normal 0 -0 1
    outer loop
      vertex 9.13546 -4.06737 5
      vertex 8.09017 -5.87785 5
      vertex 10.1127 -7.34732 5
    endloop
  endfacet
  facet normal 0 -0 1
    outer loop
      vertex 9.78148 -2.07912 5
      vertex 9.13546 -4.06737 5
      vertex 11.4193 -5.08421 5
    endloop
  endfacet
  facet normal 0 -0 1
    outer loop
      vertex 10 0 5
      vertex 9.78148 -2.07912 5
      vertex 12.2268 -2.5989 5
    endloop
  endfacet
  facet normal 0 0 1
    outer loop
      vertex 12.5 0 5
      vertex 10 0 5
      vertex 12.2268 -2.5989 5
    endloop
  endfacet
  facet normal -0 0 1
    outer loop
      vertex 12.2268 -2.5989 5
      vertex 9.78148 -2.07912 5
      vertex 11.4193 -5.08421 5
    endloop
  endfacet
  facet normal -0 0 1
    outer loop
      vertex 11.4193 -5.08421 5
      vertex 9.13546 -4.06737 5
      vertex 10.1127 -7.34732 5
    endloop
  endfacet
  facet normal -0 0 1
    outer loop
      vertex 10.1127 -7.34732 5
      vertex 8.09017 -5.87785 5
      vertex 8.36413 -9.28931 5
    endloop
  endfacet
  facet normal 0 -0 1
    outer loop
      vertex 8.09017 -5.87785 5
      vertex 6.69131 -7.43145 5
      vertex 8.36413 -9.28931 5
    endloop
  endfacet
  facet normal -0 0 1
    outer loop
      vertex 8.36413 -9.28931 5
      vertex 5 -8.66025 5
      vertex 6.25 -10.8253 5
    endloop
  endfacet
  facet normal -0 0 1
    outer loop
      vertex 6.25 -10.8253 5
      vertex 3.09017 -9.51056 5
      vertex 3.86271 -11.8882 5
    endloop
  endfacet
  facet normal -0 0 1
    outer loop
      vertex 3.86271 -11.8882 5
      vertex 1.04529 -9.94522 5
      vertex 1.30661 -12.4315 5
    endloop
  endfacet
  facet normal -0 0 1
    outer loop
      vertex 1.30661 -12.4315 5
      vertex -1.04529 -9.94522 5
      vertex -1.30661 -12.4315 5
    endloop
  endfacet
  facet normal 0 0 1
    outer loop
      vertex -1.30661 -12.4315 5
      vertex -3.09017 -9.51056 5
      vertex -3.86271 -11.8882 5
    endloop
  endfacet
  facet normal -0 0 1
    outer loop
      vertex -3.09017 -9.51056 5
      vertex -5 -8.66025 5
      vertex -3.86271 -11.8882 5
    endloop
  endfacet
  facet normal 0 0 1
    outer loop
      vertex -3.86271 -11.8882 5
      vertex -6.69131 -7.43145 5
      vertex -6.25 -10.8253 5
    endloop
  endfacet
  facet normal 0 0 1
    outer loop
      vertex -6.25 -10.8253 5
      vertex -8.09017 -5.87785 5
      vertex -8.36413 -9.28931 5
    endloop
  endfacet
  facet normal -0 0 1
    outer loop
      vertex -8.09017 -5.87785 5
      vertex -9.13546 -4.06737 5
      vertex -8.36413 -9.28931 5
    endloop
  endfacet
  facet normal -0 -0 1
    outer loop
      vertex -9.13546 -4.06737 5
      vertex -9.78148 -2.07912 5
      vertex -8.36413 -9.28931 5
    endloop
  endfacet
  facet normal 0 0 1
    outer loop
      vertex 10 45 5
      vertex 12.5 0 5
      vertex 12.5 45 5
    endloop
  endfacet
  facet normal 0 -0 1
    outer loop
      vertex 10 45 5
      vertex 10 0 5
      vertex 12.5 0 5
    endloop
  endfacet
  facet normal 0 0 1
    outer loop
      vertex -10 0 5
      vertex -10 10 5
      vertex -12.5 10 5
    endloop
  endfacet
  facet normal -0.951056 -0.309017 -0
    outer loop
      vertex -12.2268 -2.5989 0
      vertex -11.4193 -5.08421 0
      vertex -12.2268 -2.5989 5
    endloop
  endfacet
  facet normal -0.951056 -0.309017 0
    outer loop
      vertex -12.2268 -2.5989 5
      vertex -11.4193 -5.08421 0
      vertex -11.4193 -5.08421 5
    endloop
  endfacet
  facet normal -0.866025 -0.5 -0
    outer loop
      vertex -11.4193 -5.08421 0
      vertex -10.1127 -7.34732 0
      vertex -11.4193 -5.08421 5
    endloop
  endfacet
  facet normal -0.866025 -0.5 0
    outer loop
      vertex -11.4193 -5.08421 5
      vertex -10.1127 -7.34732 0
      vertex -10.1127 -7.34732 5
    endloop
  endfacet
  facet normal -0.743145 -0.669131 -0
    outer loop
      vertex -10.1127 -7.34732 0
      vertex -8.36413 -9.28931 0
      vertex -10.1127 -7.34732 5
    endloop
  endfacet
  facet normal -0.743145 -0.669131 0
    outer loop
      vertex -10.1127 -7.34732 5
      vertex -8.36413 -9.28931 0
      vertex -8.36413 -9.28931 5
    endloop
  endfacet
  facet normal -0.587785 -0.809017 0
    outer loop
      vertex -8.36413 -9.28931 5
      vertex -8.36413 -9.28931 0
      vertex -6.25 -10.8253 0
    endloop
  endfacet
  facet normal -0.587785 -0.809017 0
    outer loop
      vertex -6.25 -10.8253 5
      vertex -8.36413 -9.28931 5
      vertex -6.25 -10.8253 0
    endloop
  endfacet
  facet normal -0.406736 -0.913546 0
    outer loop
      vertex -6.25 -10.8253 5
      vertex -6.25 -10.8253 0
      vertex -3.86271 -11.8882 0
    endloop
  endfacet
  facet normal -0.406736 -0.913546 0
    outer loop
      vertex -3.86271 -11.8882 5
      vertex -6.25 -10.8253 5
      vertex -3.86271 -11.8882 0
    endloop
  endfacet
  facet normal -0.207912 -0.978148 0
    outer loop
      vertex -3.86271 -11.8882 5
      vertex -3.86271 -11.8882 0
      vertex -1.30661 -12.4315 0
    endloop
  endfacet
  facet normal -0.207912 -0.978148 0
    outer loop
      vertex -1.30661 -12.4315 5
      vertex -3.86271 -11.8882 5
      vertex -1.30661 -12.4315 0
    endloop
  endfacet
  facet normal 0 -1 0
    outer loop
      vertex -1.30661 -12.4315 5
      vertex -1.30661 -12.4315 0
      vertex 1.30661 -12.4315 0
    endloop
  endfacet
  facet normal 0 -1 0
    outer loop
      vertex 1.30661 -12.4315 5
      vertex -1.30661 -12.4315 5
      vertex 1.30661 -12.4315 0
    endloop
  endfacet
  facet normal 0.207912 -0.978148 0
    outer loop
      vertex 1.30661 -12.4315 5
      vertex 1.30661 -12.4315 0
      vertex 3.86271 -11.8882 0
    endloop
  endfacet
  facet normal 0.207912 -0.978148 0
    outer loop
      vertex 3.86271 -11.8882 5
      vertex 1.30661 -12.4315 5
      vertex 3.86271 -11.8882 0
    endloop
  endfacet
  facet normal 0.406736 -0.913546 0
    outer loop
      vertex 3.86271 -11.8882 5
      vertex 3.86271 -11.8882 0
      vertex 6.25 -10.8253 0
    endloop
  endfacet
  facet normal 0.406736 -0.913546 0
    outer loop
      vertex 6.25 -10.8253 5
      vertex 3.86271 -11.8882 5
      vertex 6.25 -10.8253 0
    endloop
  endfacet
  facet normal 0.587785 -0.809017 0
    outer loop
      vertex 6.25 -10.8253 5
      vertex 6.25 -10.8253 0
      vertex 8.36413 -9.28931 0
    endloop
  endfacet
  facet normal 0.587785 -0.809017 0
    outer loop
      vertex 8.36413 -9.28931 5
      vertex 6.25 -10.8253 5
      vertex 8.36413 -9.28931 0
    endloop
  endfacet
  facet normal 0.743145 -0.669131 0
    outer loop
      vertex 8.36413 -9.28931 5
      vertex 8.36413 -9.28931 0
      vertex 10.1127 -7.34732 0
    endloop
  endfacet
  facet normal 0.743145 -0.669131 0
    outer loop
      vertex 10.1127 -7.34732 5
      vertex 8.36413 -9.28931 5
      vertex 10.1127 -7.34732 0
    endloop
  endfacet
  facet normal 0.866025 -0.5 0
    outer loop
      vertex 10.1127 -7.34732 5
      vertex 10.1127 -7.34732 0
      vertex 11.4193 -5.08421 0
    endloop
  endfacet
  facet normal 0.866025 -0.5 0
    outer loop
      vertex 11.4193 -5.08421 5
      vertex 10.1127 -7.34732 5
      vertex 11.4193 -5.08421 0
    endloop
  endfacet
  facet normal 0.951056 -0.309017 0
    outer loop
      vertex 11.4193 -5.08421 5
      vertex 11.4193 -5.08421 0
      vertex 12.2268 -2.5989 0
    endloop
  endfacet
  facet normal 0.951056 -0.309017 0
    outer loop
      vertex 12.2268 -2.5989 5
      vertex 11.4193 -5.08421 5
      vertex 12.2268 -2.5989 0
    endloop
  endfacet
  facet normal 0.994522 -0.104528 0
    outer loop
      vertex 12.2268 -2.5989 5
      vertex 12.2268 -2.5989 0
      vertex 12.5 0 0
    endloop
  endfacet
  facet normal 0.994522 -0.104528 0
    outer loop
      vertex 12.5 0 5
      vertex 12.2268 -2.5989 5
      vertex 12.5 0 0
    endloop
  endfacet
  facet normal 1 0 -0
    outer loop
      vertex 12.5 0 5
      vertex 12.5 0 0
      vertex 12.5 45 0
    endloop
  endfacet
  facet normal 1 0 0
    outer loop
      vertex 12.5 45 5
      vertex 12.5 0 5
      vertex 12.5 45 0
    endloop
  endfacet
  facet normal 0.994522 -0.104528 0
    outer loop
      vertex 12.7185 47.0791 -2.5461e-16
      vertex 12.7185 47.0791 5
      vertex 12.5 45 5
    endloop
  endfacet
  facet normal 0.994522 -0.104528 1.48544e-16
    outer loop
      vertex 12.5 45 0
      vertex 12.7185 47.0791 -2.5461e-16
      vertex 12.5 45 5
    endloop
  endfacet
  facet normal -0 -1.22461e-16 -1
    outer loop
      vertex 10 45 0
      vertex 10.2732 47.5989 -3.18262e-16
      vertex 12.5 45 0
    endloop
  endfacet
  facet normal -1.25224e-31 -1.22461e-16 -1
    outer loop
      vertex 12.5 45 0
      vertex 10.2732 47.5989 -3.18262e-16
      vertex 11.0807 50.0842 -6.22615e-16
    endloop
  endfacet
  facet normal -4.72622e-31 -1.22461e-16 -1
    outer loop
      vertex 12.5 45 0
      vertex 11.0807 50.0842 -6.22615e-16
      vertex 12.3873 52.3473 -8.99757e-16
    endloop
  endfacet
  facet normal 1.30042e-31 -1.22461e-16 -1
    outer loop
      vertex 12.7185 47.0791 -2.5461e-16
      vertex 12.3873 52.3473 -8.99757e-16
      vertex 14.1359 54.2893 -1.13757e-15
    endloop
  endfacet
  facet normal 3.1621e-31 -1.22461e-16 -1
    outer loop
      vertex 14.4098 50.8779 -7.19806e-16
      vertex 14.1359 54.2893 -1.13757e-15
      vertex 16.25 55.8253 -1.32568e-15
    endloop
  endfacet
  facet normal 0 -1.22461e-16 -1
    outer loop
      vertex 15.8087 52.4314 -9.1006e-16
      vertex 16.25 55.8253 -1.32568e-15
      vertex 18.6373 56.8882 -1.45584e-15
    endloop
  endfacet
  facet normal -4.59331e-32 -1.22461e-16 -1
    outer loop
      vertex 17.5 53.6603 -1.06054e-15
      vertex 18.6373 56.8882 -1.45584e-15
      vertex 21.1934 57.4315 -1.52237e-15
    endloop
  endfacet
  facet normal 0 -1.22461e-16 -1
    outer loop
      vertex 21.4547 54.9452 -1.2179e-15
      vertex 21.1934 57.4315 -1.52237e-15
      vertex 23.8066 57.4315 -1.52237e-15
    endloop
  endfacet
  facet normal 3.01181e-32 -1.22461e-16 -1
    outer loop
      vertex 23.5453 54.9452 -1.2179e-15
      vertex 23.8066 57.4315 -1.52237e-15
      vertex 26.3627 56.8882 -1.45584e-15
    endloop
  endfacet
  facet normal 1.04179e-31 -1.22461e-16 -1
    outer loop
      vertex 25.5902 54.5106 -1.16467e-15
      vertex 26.3627 56.8882 -1.45584e-15
      vertex 28.75 55.8253 -1.32568e-15
    endloop
  endfacet
  facet normal -9.66162e-32 -1.22461e-16 -1
    outer loop
      vertex 27.5 53.6603 -1.06054e-15
      vertex 28.75 55.8253 -1.32568e-15
      vertex 30.8641 54.2893 -1.13757e-15
    endloop
  endfacet
  facet normal -1.6968e-31 -1.22461e-16 -1
    outer loop
      vertex 29.1913 52.4314 -9.1006e-16
      vertex 30.8641 54.2893 -1.13757e-15
      vertex 32.6127 52.3473 -8.99757e-16
    endloop
  endfacet
  facet normal 4.46804e-32 -1.22461e-16 -1
    outer loop
      vertex 30.5902 50.8779 -7.19806e-16
      vertex 32.6127 52.3473 -8.99757e-16
      vertex 33.9193 50.0842 -6.22615e-16
    endloop
  endfacet
  facet normal 1.76768e-31 -1.22461e-16 -1
    outer loop
      vertex 31.6355 49.0674 -4.98092e-16
      vertex 33.9193 50.0842 -6.22615e-16
      vertex 34.7268 47.5989 -3.18262e-16
    endloop
  endfacet
  facet normal -0 -1.22461e-16 -1
    outer loop
      vertex 32.5 45 0
      vertex 34.7268 47.5989 -3.18262e-16
      vertex 35 45 0
    endloop
  endfacet
  facet normal -3.1906e-32 -1.22461e-16 -1
    outer loop
      vertex 32.2815 47.0791 -2.5461e-16
      vertex 34.7268 47.5989 -3.18262e-16
      vertex 32.5 45 0
    endloop
  endfacet
  facet normal 1.44554e-31 -1.22461e-16 -1
    outer loop
      vertex 30.5902 50.8779 -7.19806e-16
      vertex 33.9193 50.0842 -6.22615e-16
      vertex 31.6355 49.0674 -4.98092e-16
    endloop
  endfacet
  facet normal -1.65256e-31 -1.22461e-16 -1
    outer loop
      vertex 29.1913 52.4314 -9.1006e-16
      vertex 32.6127 52.3473 -8.99757e-16
      vertex 30.5902 50.8779 -7.19806e-16
    endloop
  endfacet
  facet normal 3.35473e-33 -1.22461e-16 -1
    outer loop
      vertex 27.5 53.6603 -1.06054e-15
      vertex 30.8641 54.2893 -1.13757e-15
      vertex 29.1913 52.4314 -9.1006e-16
    endloop
  endfacet
  facet normal 1.53901e-31 -1.22461e-16 -1
    outer loop
      vertex 25.5902 54.5106 -1.16467e-15
      vertex 28.75 55.8253 -1.32568e-15
      vertex 27.5 53.6603 -1.06054e-15
    endloop
  endfacet
  facet normal -1.15296e-31 -1.22461e-16 -1
    outer loop
      vertex 23.5453 54.9452 -1.2179e-15
      vertex 26.3627 56.8882 -1.45584e-15
      vertex 25.5902 54.5106 -1.16467e-15
    endloop
  endfacet
  facet normal -0 -1.22461e-16 -1
    outer loop
      vertex 21.4547 54.9452 -1.2179e-15
      vertex 23.8066 57.4315 -1.52237e-15
      vertex 23.5453 54.9452 -1.2179e-15
    endloop
  endfacet
  facet normal 1.56803e-31 -1.22461e-16 -1
    outer loop
      vertex 19.4098 54.5106 -1.16467e-15
      vertex 21.1934 57.4315 -1.52237e-15
      vertex 21.4547 54.9452 -1.2179e-15
    endloop
  endfacet
  facet normal -2.69737e-31 -1.22461e-16 -1
    outer loop
      vertex 17.5 53.6603 -1.06054e-15
      vertex 21.1934 57.4315 -1.52237e-15
      vertex 19.4098 54.5106 -1.16467e-15
    endloop
  endfacet
  facet normal -3.61639e-31 -1.22461e-16 -1
    outer loop
      vertex 15.8087 52.4314 -9.1006e-16
      vertex 18.6373 56.8882 -1.45584e-15
      vertex 17.5 53.6603 -1.06054e-15
    endloop
  endfacet
  facet normal 2.59968e-31 -1.22461e-16 -1
    outer loop
      vertex 14.4098 50.8779 -7.19806e-16
      vertex 16.25 55.8253 -1.32568e-15
      vertex 15.8087 52.4314 -9.1006e-16
    endloop
  endfacet
  facet normal 2.4824e-31 -1.22461e-16 -1
    outer loop
      vertex 13.3645 49.0674 -4.98092e-16
      vertex 14.1359 54.2893 -1.13757e-15
      vertex 14.4098 50.8779 -7.19806e-16
    endloop
  endfacet
  facet normal -1.04482e-30 -1.22461e-16 -1
    outer loop
      vertex 12.7185 47.0791 -2.5461e-16
      vertex 14.1359 54.2893 -1.13757e-15
      vertex 13.3645 49.0674 -4.98092e-16
    endloop
  endfacet
  facet normal 1.80822e-30 -1.22461e-16 -1
    outer loop
      vertex 12.5 45 0
      vertex 12.3873 52.3473 -8.99757e-16
      vertex 12.7185 47.0791 -2.5461e-16
    endloop
  endfacet
  facet normal 4.53252e-32 -1.22461e-16 -1
    outer loop
      vertex 31.6355 49.0674 -4.98092e-16
      vertex 34.7268 47.5989 -3.18262e-16
      vertex 32.2815 47.0791 -2.5461e-16
    endloop
  endfacet
  facet normal -1 -0 -0
    outer loop
      vertex 10 0 0
      vertex 10 0 5
      vertex 10 45 0
    endloop
  endfacet
  facet normal -1 0 -0
    outer loop
      vertex 10 45 0
      vertex 10 0 5
      vertex 10 45 5
    endloop
  endfacet
  facet normal -0.994522 0.104528 0
    outer loop
      vertex 10.2732 47.5989 -3.18262e-16
      vertex 10 45 0
      vertex 10 45 5
    endloop
  endfacet
  facet normal -0.994522 0.104528 0
    outer loop
      vertex 10.2732 47.5989 -3.18262e-16
      vertex 10 45 5
      vertex 10.2732 47.5989 5
    endloop
  endfacet
  facet normal -0.994522 0.104528 0
    outer loop
      vertex 10 0 5
      vertex 10 0 0
      vertex 9.78148 -2.07912 5
    endloop
  endfacet
  facet normal -0.994522 0.104528 0
    outer loop
      vertex 9.78148 -2.07912 5
      vertex 10 0 0
      vertex 9.78148 -2.07912 0
    endloop
  endfacet
  facet normal -0.951057 0.309017 0
    outer loop
      vertex 9.78148 -2.07912 5
      vertex 9.78148 -2.07912 0
      vertex 9.13546 -4.06737 5
    endloop
  endfacet
  facet normal -0.951057 0.309017 0
    outer loop
      vertex 9.13546 -4.06737 5
      vertex 9.78148 -2.07912 0
      vertex 9.13546 -4.06737 0
    endloop
  endfacet
  facet normal -0.866025 0.5 0
    outer loop
      vertex 9.13546 -4.06737 5
      vertex 9.13546 -4.06737 0
      vertex 8.09017 -5.87785 5
    endloop
  endfacet
  facet normal -0.866025 0.5 0
    outer loop
      vertex 8.09017 -5.87785 5
      vertex 9.13546 -4.06737 0
      vertex 8.09017 -5.87785 0
    endloop
  endfacet
  facet normal -0.743145 0.669131 0
    outer loop
      vertex 8.09017 -5.87785 5
      vertex 8.09017 -5.87785 0
      vertex 6.69131 -7.43145 5
    endloop
  endfacet
  facet normal -0.743145 0.669131 0
    outer loop
      vertex 6.69131 -7.43145 5
      vertex 8.09017 -5.87785 0
      vertex 6.69131 -7.43145 0
    endloop
  endfacet
  facet normal -0.587785 0.809017 0
    outer loop
      vertex 6.69131 -7.43145 5
      vertex 6.69131 -7.43145 0
      vertex 5 -8.66025 5
    endloop
  endfacet
  facet normal -0.587785 0.809017 0
    outer loop
      vertex 5 -8.66025 5
      vertex 6.69131 -7.43145 0
      vertex 5 -8.66025 0
    endloop
  endfacet
  facet normal -0.406737 0.913545 0
    outer loop
      vertex 5 -8.66025 5
      vertex 5 -8.66025 0
      vertex 3.09017 -9.51056 5
    endloop
  endfacet
  facet normal -0.406737 0.913545 0
    outer loop
      vertex 3.09017 -9.51056 5
      vertex 5 -8.66025 0
      vertex 3.09017 -9.51056 0
    endloop
  endfacet
  facet normal -0.207912 0.978148 0
    outer loop
      vertex 3.09017 -9.51056 5
      vertex 3.09017 -9.51056 0
      vertex 1.04529 -9.94522 5
    endloop
  endfacet
  facet normal -0.207912 0.978148 0
    outer loop
      vertex 1.04529 -9.94522 5
      vertex 3.09017 -9.51056 0
      vertex 1.04529 -9.94522 0
    endloop
  endfacet
  facet normal 0 1 0
    outer loop
      vertex 1.04529 -9.94522 5
      vertex 1.04529 -9.94522 0
      vertex -1.04529 -9.94522 5
    endloop
  endfacet
  facet normal 0 1 -0
    outer loop
      vertex -1.04529 -9.94522 5
      vertex 1.04529 -9.94522 0
      vertex -1.04529 -9.94522 0
    endloop
  endfacet
  facet normal 0.207912 0.978148 -0
    outer loop
      vertex -1.04529 -9.94522 5
      vertex -1.04529 -9.94522 0
      vertex -3.09017 -9.51056 5
    endloop
  endfacet
  facet normal 0.207912 0.978148 -0
    outer loop
      vertex -3.09017 -9.51056 5
      vertex -1.04529 -9.94522 0
      vertex -3.09017 -9.51056 0
    endloop
  endfacet
  facet normal 0.406737 0.913545 -0
    outer loop
      vertex -3.09017 -9.51056 5
      vertex -3.09017 -9.51056 0
      vertex -5 -8.66025 5
    endloop
  endfacet
  facet normal 0.406737 0.913545 -0
    outer loop
      vertex -5 -8.66025 5
      vertex -3.09017 -9.51056 0
      vertex -5 -8.66025 0
    endloop
  endfacet
  facet normal 0.587785 0.809017 -0
    outer loop
      vertex -5 -8.66025 5
      vertex -5 -8.66025 0
      vertex -6.69131 -7.43145 5
    endloop
  endfacet
  facet normal 0.587785 0.809017 -0
    outer loop
      vertex -6.69131 -7.43145 5
      vertex -5 -8.66025 0
      vertex -6.69131 -7.43145 0
    endloop
  endfacet
  facet normal 0.743145 0.669131 0
    outer loop
      vertex -8.09017 -5.87785 5
      vertex -6.69131 -7.43145 5
      vertex -6.69131 -7.43145 0
    endloop
  endfacet
  facet normal 0.743145 0.669131 0
    outer loop
      vertex -8.09017 -5.87785 0
      vertex -8.09017 -5.87785 5
      vertex -6.69131 -7.43145 0
    endloop
  endfacet
  facet normal 0.866025 0.5 0
    outer loop
      vertex -9.13546 -4.06737 5
      vertex -8.09017 -5.87785 5
      vertex -8.09017 -5.87785 0
    endloop
  endfacet
  facet normal 0.866025 0.5 0
    outer loop
      vertex -9.13546 -4.06737 0
      vertex -9.13546 -4.06737 5
      vertex -8.09017 -5.87785 0
    endloop
  endfacet
  facet normal 0.951057 0.309017 0
    outer loop
      vertex -9.78148 -2.07912 5
      vertex -9.13546 -4.06737 5
      vertex -9.13546 -4.06737 0
    endloop
  endfacet
  facet normal 0.951057 0.309017 0
    outer loop
      vertex -9.78148 -2.07912 0
      vertex -9.78148 -2.07912 5
      vertex -9.13546 -4.06737 0
    endloop
  endfacet
  facet normal 0.994522 0.104528 0
    outer loop
      vertex -10 0 5
      vertex -9.78148 -2.07912 5
      vertex -9.78148 -2.07912 0
    endloop
  endfacet
  facet normal 0.994522 0.104528 0
    outer loop
      vertex -10 0 0
      vertex -10 0 5
      vertex -9.78148 -2.07912 0
    endloop
  endfacet
  facet normal 1 0 -0
    outer loop
      vertex -10 0 5
      vertex -10 0 0
      vertex -10 10 0
    endloop
  endfacet
  facet normal 1 0 0
    outer loop
      vertex -10 10 5
      vertex -10 0 5
      vertex -10 10 0
    endloop
  endfacet
  facet normal 0 3.41752e-16 1
    outer loop
      vertex 10.2732 47.5989 5
      vertex 10 45 5
      vertex 12.5 45 5
    endloop
  endfacet
  facet normal 0 0 1
    outer loop
      vertex 13.3645 49.0674 5
      vertex 10.2732 47.5989 5
      vertex 12.7185 47.0791 5
    endloop
  endfacet
  facet normal 8.88178e-17 4.17855e-16 1
    outer loop
      vertex 12.7185 47.0791 5
      vertex 10.2732 47.5989 5
      vertex 12.5 45 5
    endloop
  endfacet
  facet normal 0 0 1
    outer loop
      vertex 14.4098 50.8779 5
      vertex 10.2732 47.5989 5
      vertex 13.3645 49.0674 5
    endloop
  endfacet
  facet normal -1.58285e-15 1.9969e-15 1
    outer loop
      vertex 15.8087 52.4314 5
      vertex 10.2732 47.5989 5
      vertex 14.4098 50.8779 5
    endloop
  endfacet
  facet normal 2.6813e-15 -2.88755e-15 1
    outer loop
      vertex 21.1934 57.4315 5
      vertex 10.2732 47.5989 5
      vertex 15.8087 52.4314 5
    endloop
  endfacet
  facet normal 0 0 1
    outer loop
      vertex 21.1934 57.4315 5
      vertex 15.8087 52.4314 5
      vertex 17.5 53.6603 5
    endloop
  endfacet
  facet normal 0 0 1
    outer loop
      vertex 23.8066 57.4315 5
      vertex 17.5 53.6603 5
      vertex 19.4098 54.5106 5
    endloop
  endfacet
  facet normal 0 0 1
    outer loop
      vertex 26.3627 56.8882 5
      vertex 19.4098 54.5106 5
      vertex 21.4547 54.9452 5
    endloop
  endfacet
  facet normal 0 0 1
    outer loop
      vertex 28.75 55.8253 5
      vertex 21.4547 54.9452 5
      vertex 23.5453 54.9452 5
    endloop
  endfacet
  facet normal 0 0 1
    outer loop
      vertex 30.8641 54.2893 5
      vertex 23.5453 54.9452 5
      vertex 25.5902 54.5106 5
    endloop
  endfacet
  facet normal 0 0 1
    outer loop
      vertex 32.6127 52.3473 5
      vertex 25.5902 54.5106 5
      vertex 27.5 53.6603 5
    endloop
  endfacet
  facet normal -5.93181e-16 -8.16444e-16 1
    outer loop
      vertex 33.9193 50.0842 5
      vertex 27.5 53.6603 5
      vertex 29.1913 52.4314 5
    endloop
  endfacet
  facet normal 1.58285e-15 1.9969e-15 1
    outer loop
      vertex 34.7268 47.5989 5
      vertex 29.1913 52.4314 5
      vertex 30.5902 50.8779 5
    endloop
  endfacet
  facet normal -8.73976e-16 -5.0459e-16 1
    outer loop
      vertex 35 45 5
      vertex 30.5902 50.8779 5
      vertex 31.6355 49.0674 5
    endloop
  endfacet
  facet normal -4.34747e-16 -1.41258e-16 1
    outer loop
      vertex 35 45 5
      vertex 31.6355 49.0674 5
      vertex 32.2815 47.0791 5
    endloop
  endfacet
  facet normal -0 4.2719e-16 1
    outer loop
      vertex 35 45 5
      vertex 32.2815 47.0791 5
      vertex 32.5 45 5
    endloop
  endfacet
  facet normal 2.95511e-16 3.72812e-16 1
    outer loop
      vertex 34.7268 47.5989 5
      vertex 30.5902 50.8779 5
      vertex 35 45 5
    endloop
  endfacet
  facet normal -2.23985e-16 -7.27772e-17 1
    outer loop
      vertex 33.9193 50.0842 5
      vertex 29.1913 52.4314 5
      vertex 34.7268 47.5989 5
    endloop
  endfacet
  facet normal 1.18327e-16 4.60775e-16 1
    outer loop
      vertex 32.6127 52.3473 5
      vertex 27.5 53.6603 5
      vertex 33.9193 50.0842 5
    endloop
  endfacet
  facet normal -0 -0 1
    outer loop
      vertex 30.8641 54.2893 5
      vertex 25.5902 54.5106 5
      vertex 32.6127 52.3473 5
    endloop
  endfacet
  facet normal 0 -0 1
    outer loop
      vertex 28.75 55.8253 5
      vertex 23.5453 54.9452 5
      vertex 30.8641 54.2893 5
    endloop
  endfacet
  facet normal 0 -0 1
    outer loop
      vertex 26.3627 56.8882 5
      vertex 21.4547 54.9452 5
      vertex 28.75 55.8253 5
    endloop
  endfacet
  facet normal 0 -0 1
    outer loop
      vertex 23.8066 57.4315 5
      vertex 19.4098 54.5106 5
      vertex 26.3627 56.8882 5
    endloop
  endfacet
  facet normal 0 -0 1
    outer loop
      vertex 21.1934 57.4315 5
      vertex 17.5 53.6603 5
      vertex 23.8066 57.4315 5
    endloop
  endfacet
  facet normal -2.51334e-17 1.18243e-16 1
    outer loop
      vertex 18.6373 56.8882 5
      vertex 10.2732 47.5989 5
      vertex 21.1934 57.4315 5
    endloop
  endfacet
  facet normal -7.10542e-17 1.5959e-16 1
    outer loop
      vertex 16.25 55.8253 5
      vertex 10.2732 47.5989 5
      vertex 18.6373 56.8882 5
    endloop
  endfacet
  facet normal -1.66144e-16 2.28677e-16 1
    outer loop
      vertex 14.1359 54.2893 5
      vertex 10.2732 47.5989 5
      vertex 16.25 55.8253 5
    endloop
  endfacet
  facet normal -4.10934e-16 3.70007e-16 1
    outer loop
      vertex 12.3873 52.3473 5
      vertex 10.2732 47.5989 5
      vertex 14.1359 54.2893 5
    endloop
  endfacet
  facet normal 1.55472e-15 -5.0516e-16 1
    outer loop
      vertex 11.0807 50.0842 5
      vertex 10.2732 47.5989 5
      vertex 12.3873 52.3473 5
    endloop
  endfacet
  facet normal 0.951057 -0.309017 4.39139e-16
    outer loop
      vertex 13.3645 49.0674 -4.98092e-16
      vertex 13.3645 49.0674 5
      vertex 12.7185 47.0791 5
    endloop
  endfacet
  facet normal 0.951057 -0.309017 0
    outer loop
      vertex 12.7185 47.0791 -2.5461e-16
      vertex 13.3645 49.0674 -4.98092e-16
      vertex 12.7185 47.0791 5
    endloop
  endfacet
  facet normal 0.866025 -0.5 0
    outer loop
      vertex 14.4098 50.8779 -7.19806e-16
      vertex 14.4098 50.8779 5
      vertex 13.3645 49.0674 5
    endloop
  endfacet
  facet normal 0.866025 -0.5 7.10543e-16
    outer loop
      vertex 13.3645 49.0674 -4.98092e-16
      vertex 14.4098 50.8779 -7.19806e-16
      vertex 13.3645 49.0674 5
    endloop
  endfacet
  facet normal 0.743145 -0.669131 0
    outer loop
      vertex 15.8087 52.4314 -9.1006e-16
      vertex 15.8087 52.4314 5
      vertex 14.4098 50.8779 5
    endloop
  endfacet
  facet normal 0.743145 -0.669131 0
    outer loop
      vertex 14.4098 50.8779 -7.19806e-16
      vertex 15.8087 52.4314 -9.1006e-16
      vertex 14.4098 50.8779 5
    endloop
  endfacet
  facet normal 0.587785 -0.809017 0
    outer loop
      vertex 17.5 53.6603 -1.06054e-15
      vertex 17.5 53.6603 5
      vertex 15.8087 52.4314 5
    endloop
  endfacet
  facet normal 0.587785 -0.809017 0
    outer loop
      vertex 15.8087 52.4314 -9.1006e-16
      vertex 17.5 53.6603 -1.06054e-15
      vertex 15.8087 52.4314 5
    endloop
  endfacet
  facet normal 0.406737 -0.913545 1.29823e-15
    outer loop
      vertex 19.4098 54.5106 -1.16467e-15
      vertex 19.4098 54.5106 5
      vertex 17.5 53.6603 5
    endloop
  endfacet
  facet normal 0.406737 -0.913545 0
    outer loop
      vertex 17.5 53.6603 -1.06054e-15
      vertex 19.4098 54.5106 -1.16467e-15
      vertex 17.5 53.6603 5
    endloop
  endfacet
  facet normal 0.207912 -0.978148 0
    outer loop
      vertex 21.4547 54.9452 -1.2179e-15
      vertex 21.4547 54.9452 5
      vertex 19.4098 54.5106 5
    endloop
  endfacet
  facet normal 0.207912 -0.978148 1.39003e-15
    outer loop
      vertex 19.4098 54.5106 -1.16467e-15
      vertex 21.4547 54.9452 -1.2179e-15
      vertex 19.4098 54.5106 5
    endloop
  endfacet
  facet normal 0 -1 0
    outer loop
      vertex 23.5453 54.9452 -1.2179e-15
      vertex 23.5453 54.9452 5
      vertex 21.4547 54.9452 5
    endloop
  endfacet
  facet normal -0 -1 -0
    outer loop
      vertex 21.4547 54.9452 -1.2179e-15
      vertex 23.5453 54.9452 -1.2179e-15
      vertex 21.4547 54.9452 5
    endloop
  endfacet
  facet normal -0.207912 -0.978148 1.39003e-15
    outer loop
      vertex 25.5902 54.5106 -1.16467e-15
      vertex 25.5902 54.5106 5
      vertex 23.5453 54.9452 5
    endloop
  endfacet
  facet normal -0.207912 -0.978148 -0
    outer loop
      vertex 23.5453 54.9452 -1.2179e-15
      vertex 25.5902 54.5106 -1.16467e-15
      vertex 23.5453 54.9452 5
    endloop
  endfacet
  facet normal -0.406737 -0.913545 -0
    outer loop
      vertex 27.5 53.6603 -1.06054e-15
      vertex 27.5 53.6603 5
      vertex 25.5902 54.5106 5
    endloop
  endfacet
  facet normal -0.406737 -0.913545 1.29823e-15
    outer loop
      vertex 25.5902 54.5106 -1.16467e-15
      vertex 27.5 53.6603 -1.06054e-15
      vertex 25.5902 54.5106 5
    endloop
  endfacet
  facet normal -0.587785 -0.809017 -0
    outer loop
      vertex 29.1913 52.4314 -9.1006e-16
      vertex 29.1913 52.4314 5
      vertex 27.5 53.6603 5
    endloop
  endfacet
  facet normal -0.587785 -0.809017 -0
    outer loop
      vertex 27.5 53.6603 -1.06054e-15
      vertex 29.1913 52.4314 -9.1006e-16
      vertex 27.5 53.6603 5
    endloop
  endfacet
  facet normal -0.743145 -0.669131 0
    outer loop
      vertex 30.5902 50.8779 5
      vertex 29.1913 52.4314 5
      vertex 30.5902 50.8779 -7.19806e-16
    endloop
  endfacet
  facet normal -0.743145 -0.669131 0
    outer loop
      vertex 30.5902 50.8779 -7.19806e-16
      vertex 29.1913 52.4314 5
      vertex 29.1913 52.4314 -9.1006e-16
    endloop
  endfacet
  facet normal -0.866025 -0.5 7.10543e-16
    outer loop
      vertex 31.6355 49.0674 5
      vertex 30.5902 50.8779 5
      vertex 31.6355 49.0674 -4.98092e-16
    endloop
  endfacet
  facet normal -0.866025 -0.5 0
    outer loop
      vertex 31.6355 49.0674 -4.98092e-16
      vertex 30.5902 50.8779 5
      vertex 30.5902 50.8779 -7.19806e-16
    endloop
  endfacet
  facet normal -0.951057 -0.309017 0
    outer loop
      vertex 32.2815 47.0791 5
      vertex 31.6355 49.0674 5
      vertex 32.2815 47.0791 -2.5461e-16
    endloop
  endfacet
  facet normal -0.951057 -0.309017 4.31488e-16
    outer loop
      vertex 32.2815 47.0791 -2.5461e-16
      vertex 31.6355 49.0674 5
      vertex 31.6355 49.0674 -4.98092e-16
    endloop
  endfacet
  facet normal -0.994522 -0.104528 1.48544e-16
    outer loop
      vertex 32.5 45 5
      vertex 32.2815 47.0791 5
      vertex 32.5 45 0
    endloop
  endfacet
  facet normal -0.994522 -0.104528 0
    outer loop
      vertex 32.5 45 0
      vertex 32.2815 47.0791 5
      vertex 32.2815 47.0791 -2.5461e-16
    endloop
  endfacet
  facet normal -1 -0 -0
    outer loop
      vertex 32.5 35 0
      vertex 32.5 35 5
      vertex 32.5 45 0
    endloop
  endfacet
  facet normal -1 0 -0
    outer loop
      vertex 32.5 45 0
      vertex 32.5 35 5
      vertex 32.5 45 5
    endloop
  endfacet
  facet normal -0 -0 -1
    outer loop
      vertex 32.5 35 0
      vertex 32.5 45 0
      vertex 35 35 0
    endloop
  endfacet
  facet normal 0 0 -1
    outer loop
      vertex 35 35 0
      vertex 32.5 45 0
      vertex 35 45 0
    endloop
  endfacet
  facet normal 1 0 -0
    outer loop
      vertex 35 35 5
      vertex 35 35 0
      vertex 35 45 0
    endloop
  endfacet
  facet normal 1 0 0
    outer loop
      vertex 35 45 5
      vertex 35 35 5
      vertex 35 45 0
    endloop
  endfacet
  facet normal 0.994522 0.104528 0
    outer loop
      vertex 35 45 0
      vertex 34.7268 47.5989 -3.18262e-16
      vertex 34.7268 47.5989 5
    endloop
  endfacet
  facet normal 0.994522 0.104528 -1.4133e-15
    outer loop
      vertex 35 45 5
      vertex 35 45 0
      vertex 34.7268 47.5989 5
    endloop
  endfacet
  facet normal 0.951056 0.309017 0
    outer loop
      vertex 34.7268 47.5989 -3.18262e-16
      vertex 33.9193 50.0842 -6.22615e-16
      vertex 33.9193 50.0842 5
    endloop
  endfacet
  facet normal 0.951056 0.309017 -0
    outer loop
      vertex 34.7268 47.5989 5
      vertex 34.7268 47.5989 -3.18262e-16
      vertex 33.9193 50.0842 5
    endloop
  endfacet
  facet normal 0.866025 0.5 -6.90381e-16
    outer loop
      vertex 33.9193 50.0842 -6.22615e-16
      vertex 32.6127 52.3473 -8.99757e-16
      vertex 32.6127 52.3473 5
    endloop
  endfacet
  facet normal 0.866025 0.5 -0
    outer loop
      vertex 33.9193 50.0842 5
      vertex 33.9193 50.0842 -6.22615e-16
      vertex 32.6127 52.3473 5
    endloop
  endfacet
  facet normal 0.743145 0.669131 -9.55913e-16
    outer loop
      vertex 32.6127 52.3473 -8.99757e-16
      vertex 30.8641 54.2893 -1.13757e-15
      vertex 30.8641 54.2893 5
    endloop
  endfacet
  facet normal 0.743145 0.669131 -9.50892e-16
    outer loop
      vertex 32.6127 52.3473 5
      vertex 32.6127 52.3473 -8.99757e-16
      vertex 30.8641 54.2893 5
    endloop
  endfacet
  facet normal 0.587785 0.809017 0
    outer loop
      vertex 28.75 55.8253 -1.32568e-15
      vertex 28.75 55.8253 5
      vertex 30.8641 54.2893 -1.13757e-15
    endloop
  endfacet
  facet normal 0.587785 0.809017 -1.14968e-15
    outer loop
      vertex 30.8641 54.2893 -1.13757e-15
      vertex 28.75 55.8253 5
      vertex 30.8641 54.2893 5
    endloop
  endfacet
  facet normal 0.406736 0.913546 0
    outer loop
      vertex 26.3627 56.8882 -1.45584e-15
      vertex 26.3627 56.8882 5
      vertex 28.75 55.8253 -1.32568e-15
    endloop
  endfacet
  facet normal 0.406736 0.913546 0
    outer loop
      vertex 28.75 55.8253 -1.32568e-15
      vertex 26.3627 56.8882 5
      vertex 28.75 55.8253 5
    endloop
  endfacet
  facet normal 0.207912 0.978148 0
    outer loop
      vertex 23.8066 57.4315 -1.52237e-15
      vertex 23.8066 57.4315 5
      vertex 26.3627 56.8882 -1.45584e-15
    endloop
  endfacet
  facet normal 0.207912 0.978148 0
    outer loop
      vertex 26.3627 56.8882 -1.45584e-15
      vertex 23.8066 57.4315 5
      vertex 26.3627 56.8882 5
    endloop
  endfacet
  facet normal 0 1 0
    outer loop
      vertex 21.1934 57.4315 -1.52237e-15
      vertex 21.1934 57.4315 5
      vertex 23.8066 57.4315 -1.52237e-15
    endloop
  endfacet
  facet normal 0 1 0
    outer loop
      vertex 23.8066 57.4315 -1.52237e-15
      vertex 21.1934 57.4315 5
      vertex 23.8066 57.4315 5
    endloop
  endfacet
  facet normal -0.207912 0.978148 0
    outer loop
      vertex 18.6373 56.8882 -1.45584e-15
      vertex 18.6373 56.8882 5
      vertex 21.1934 57.4315 -1.52237e-15
    endloop
  endfacet
  facet normal -0.207912 0.978148 0
    outer loop
      vertex 21.1934 57.4315 -1.52237e-15
      vertex 18.6373 56.8882 5
      vertex 21.1934 57.4315 5
    endloop
  endfacet
  facet normal -0.406736 0.913546 0
    outer loop
      vertex 16.25 55.8253 -1.32568e-15
      vertex 16.25 55.8253 5
      vertex 18.6373 56.8882 -1.45584e-15
    endloop
  endfacet
  facet normal -0.406736 0.913546 0
    outer loop
      vertex 18.6373 56.8882 -1.45584e-15
      vertex 16.25 55.8253 5
      vertex 18.6373 56.8882 5
    endloop
  endfacet
  facet normal -0.587785 0.809017 -1.14968e-15
    outer loop
      vertex 14.1359 54.2893 -1.13757e-15
      vertex 14.1359 54.2893 5
      vertex 16.25 55.8253 -1.32568e-15
    endloop
  endfacet
  facet normal -0.587785 0.809017 0
    outer loop
      vertex 16.25 55.8253 -1.32568e-15
      vertex 14.1359 54.2893 5
      vertex 16.25 55.8253 5
    endloop
  endfacet
  facet normal -0.743145 0.669131 -9.50892e-16
    outer loop
      vertex 12.3873 52.3473 -8.99757e-16
      vertex 12.3873 52.3473 5
      vertex 14.1359 54.2893 -1.13757e-15
    endloop
  endfacet
  facet normal -0.743145 0.669131 -9.50892e-16
    outer loop
      vertex 14.1359 54.2893 -1.13757e-15
      vertex 12.3873 52.3473 5
      vertex 14.1359 54.2893 5
    endloop
  endfacet
  facet normal -0.866025 0.5 0
    outer loop
      vertex 11.0807 50.0842 -6.22615e-16
      vertex 11.0807 50.0842 5
      vertex 12.3873 52.3473 -8.99757e-16
    endloop
  endfacet
  facet normal -0.866025 0.5 -7.10543e-16
    outer loop
      vertex 12.3873 52.3473 -8.99757e-16
      vertex 11.0807 50.0842 5
      vertex 12.3873 52.3473 5
    endloop
  endfacet
  facet normal -0.951056 0.309017 0
    outer loop
      vertex 10.2732 47.5989 -3.18262e-16
      vertex 10.2732 47.5989 5
      vertex 11.0807 50.0842 -6.22615e-16
    endloop
  endfacet
  facet normal -0.951056 0.309017 0
    outer loop
      vertex 11.0807 50.0842 -6.22615e-16
      vertex 10.2732 47.5989 5
      vertex 11.0807 50.0842 5
    endloop
  endfacet
  facet normal 0 -0 1
    outer loop
      vertex 32.5 45 5
      vertex 32.5 35 5
      vertex 35 35 5
    endloop
  endfacet
  facet normal 0 0 1
    outer loop
      vertex 35 45 5
      vertex 32.5 45 5
      vertex 35 35 5
    endloop
  endfacet
  facet normal 0 -1 0
    outer loop
      vertex 32.5 35 5
      vertex 32.5 35 0
      vertex 35 35 0
    endloop
  endfacet
  facet normal 0 -1 0
    outer loop
      vertex 35 35 5
      vertex 32.5 35 5
      vertex 35 35 0
    endloop
  endfacet
endsolid OpenSCAD_Model
