solid OpenSCAD_Model
  facet normal 0 0 -1
    outer loop
      vertex -15 15 -21.2132
      vertex 15 15 -21.2132
      vertex -15 -15 -21.2132
    endloop
  endfacet
  facet normal 0 0 -1
    outer loop
      vertex -15 -15 -21.2132
      vertex 15 15 -21.2132
      vertex 15 -15 -21.2132
    endloop
  endfacet
  facet normal -0.816497 0 -0.57735
    outer loop
      vertex -30 0 0
      vertex -15 15 -21.2132
      vertex -15 -15 -21.2132
    endloop
  endfacet
  facet normal -0.707107 -0.707107 0
    outer loop
      vertex -30 0 0
      vertex -15 -15 -21.2132
      vertex 0 -30 0
    endloop
  endfacet
  facet normal -0.707107 -0.707107 0
    outer loop
      vertex -15 -15 21.2132
      vertex -30 0 0
      vertex 0 -30 0
    endloop
  endfacet
  facet normal 0 -0.816497 -0.57735
    outer loop
      vertex -15 -15 -21.2132
      vertex 15 -15 -21.2132
      vertex 0 -30 0
    endloop
  endfacet
  facet normal 0.707107 -0.707107 0
    outer loop
      vertex 0 -30 0
      vertex 15 -15 -21.2132
      vertex 30 0 0
    endloop
  endfacet
  facet normal 0.707107 -0.707107 0
    outer loop
      vertex 15 -15 21.2132
      vertex 0 -30 0
      vertex 30 0 0
    endloop
  endfacet
  facet normal 0.816497 0 -0.57735
    outer loop
      vertex 15 -15 -21.2132
      vertex 15 15 -21.2132
      vertex 30 0 0
    endloop
  endfacet
  facet normal 0.707107 0.707107 0
    outer loop
      vertex 15 15 21.2132
      vertex 30 0 0
      vertex 0 30 0
    endloop
  endfacet
  facet normal 0.707107 0.707107 0
    outer loop
      vertex 0 30 0
      vertex 30 0 0
      vertex 15 15 -21.2132
    endloop
  endfacet
  facet normal 0 0.816497 -0.57735
    outer loop
      vertex -15 15 -21.2132
      vertex 0 30 0
      vertex 15 15 -21.2132
    endloop
  endfacet
  facet normal -0.707107 0.707107 0
    outer loop
      vertex -15 15 21.2132
      vertex 0 30 0
      vertex -30 0 0
    endloop
  endfacet
  facet normal -0.707107 0.707107 0
    outer loop
      vertex -30 0 0
      vertex 0 30 0
      vertex -15 15 -21.2132
    endloop
  endfacet
  facet normal -0.816497 0 0.57735
    outer loop
      vertex -30 0 0
      vertex -15 -15 21.2132
      vertex -15 15 21.2132
    endloop
  endfacet
  facet normal 0 0 1
    outer loop
      vertex -15 -15 21.2132
      vertex 15 -15 21.2132
      vertex 15 15 21.2132
    endloop
  endfacet
  facet normal 0 0 1
    outer loop
      vertex -15 15 21.2132
      vertex -15 -15 21.2132
      vertex 15 15 21.2132
    endloop
  endfacet
  facet normal 0 -0.816497 0.57735
    outer loop
      vertex -15 -15 21.2132
      vertex 0 -30 0
      vertex 15 -15 21.2132
    endloop
  endfacet
  facet normal 0.816497 0 0.57735
    outer loop
      vertex 15 -15 21.2132
      vertex 30 0 0
      vertex 15 15 21.2132
    endloop
  endfacet
  facet normal 0 0.816497 0.57735
    outer loop
      vertex -15 15 21.2132
      vertex 15 15 21.2132
      vertex 0 30 0
    endloop
  endfacet
endsolid OpenSCAD_Model
