solid link chain v6
facet normal 0.845597427157893 0.214754902135337 -0.488718040584541
outer loop
vertex 9.36882209754935 3.92858180255222 1.125
vertex 10.5913331091504 0.0 1.66765714851933
vertex 10.366557158515 0.0 1.125
endloop
endfacet
facet normal 0.939319541120627 0.238557343776667 -0.246514083571622
outer loop
vertex 10.5913331091504 0.0 1.66765714851933
vertex 9.36882209754935 3.92858180255222 1.125
vertex 9.57533310915041 4.0005 1.66765714851933
endloop
endfacet
facet normal 0.936803863879063 0.237918441620079 -0.256502116479241
outer loop
vertex 9.57533310915041 4.0005 1.66765714851933
vertex 9.36882209754935 3.92858180255222 1.125
vertex 9.35055715851499 4.0005 1.125
endloop
endfacet
facet normal 0.936803863879063 0.237918441620079 -0.256502116479241
outer loop
vertex 9.57533310915041 4.0005 1.66765714851933
vertex 10.668 0.0 2.25
vertex 10.5913331091504 0.0 1.66765714851933
endloop
endfacet
facet normal 0.961435241617176 0.24417402961706 -0.126575350827442
outer loop
vertex 10.668 0.0 2.25
vertex 9.57533310915041 4.0005 1.66765714851933
vertex 9.652 4.0005 2.25
endloop
endfacet
facet normal 0.738415271164648 0.18753403712118 -0.647745221697444
outer loop
vertex 9.03292078880264 3.84327353366416 0.659009742330265
vertex 10.366557158515 0.0 1.125
vertex 10.0089902576697 0.0 0.659009742330269
endloop
endfacet
facet normal 0.850420829723744 0.215979893263172 -0.47972606566457
outer loop
vertex 10.366557158515 0.0 1.125
vertex 9.03292078880264 3.84327353366416 0.659009742330265
vertex 9.36882209754935 3.92858180255222 1.125
endloop
endfacet
facet normal 0.845597427157893 0.214754902135337 -0.488718040584541
outer loop
vertex 9.36882209754935 3.92858180255222 1.125
vertex 9.03292078880264 3.84327353366416 0.659009742330265
vertex 8.99299025766973 4.0005 0.659009742330265
endloop
endfacet
facet normal 0.845597427157893 0.214754902135337 -0.488718040584541
outer loop
vertex 9.36882209754935 3.92858180255222 1.125
vertex 8.99299025766973 4.0005 0.659009742330265
vertex 9.35055715851499 4.0005 1.125
endloop
endfacet
facet normal 0.965925826289068 -3.97245832731043e-019 -0.258819045102522
outer loop
vertex 14.7683331091504 4.0005 1.66765714851933
vertex 14.845 15.7595 2.25
vertex 14.845 4.0005 2.25
endloop
endfacet
facet normal 0.99144486137381 -1.33459719859583e-020 -0.130526192220054
outer loop
vertex 14.845 15.7595 2.25
vertex 14.7683331091504 4.0005 1.66765714851933
vertex 14.7683331091504 15.7595 1.66765714851933
endloop
endfacet
facet normal 0.991444861373811 0.0 0.130526192220049
outer loop
vertex 14.845 15.7595 2.25
vertex 14.7683331091504 4.0005 2.83234285148067
vertex 14.845 4.0005 2.25
endloop
endfacet
facet normal 0.965925826289069 0.0 0.25881904510252
outer loop
vertex 14.7683331091504 4.0005 2.83234285148067
vertex 14.845 15.7595 2.25
vertex 14.7683331091504 15.7595 2.83234285148067
endloop
endfacet
facet normal 9.93023103028533e-017 -5.38529538372201e-017 -1.0
outer loop
vertex 2.33401948466054 19.76 -1.27779731240452e-015
vertex 4.445 15.85 0.0
vertex 1.29135281799387 15.85 -5.72805691767542e-016
endloop
endfacet
facet normal 9.93023103028533e-017 -5.38529538372201e-017 -1.0
outer loop
vertex 4.445 15.85 0.0
vertex 2.33401948466054 19.76 -1.27779731240452e-015
vertex 9.34998051533947 19.76 -1.27779731240452e-015
endloop
endfacet
facet normal 9.93023103028533e-017 -5.38529538372201e-017 -1.0
outer loop
vertex 4.445 15.85 0.0
vertex 9.34998051533947 19.76 -1.27779731240452e-015
vertex 4.445 3.91 0.0
endloop
endfacet
facet normal 9.93023103028533e-017 -5.38529538372201e-017 -1.0
outer loop
vertex 4.445 3.91 0.0
vertex 9.34998051533947 19.76 -1.27779731240452e-015
vertex 8.33398051533947 15.7595 1.07323911001081e-016
endloop
endfacet
facet normal 9.93023103028533e-017 -5.38529538372201e-017 -1.0
outer loop
vertex 13.5269805153395 15.7595 0.0
vertex 8.33398051533947 4.0005 6.32619347112704e-017
vertex 8.33398051533947 15.7595 1.07323911001081e-016
endloop
endfacet
facet normal 9.93023103028533e-017 -5.38529538372201e-017 -1.0
outer loop
vertex 8.33398051533947 4.0005 6.32619347112704e-017
vertex 13.5269805153395 15.7595 0.0
vertex 13.5269805153395 4.0005 0.0
endloop
endfacet
facet normal 9.93023103028533e-017 -5.38529538372201e-017 -1.0
outer loop
vertex 4.445 3.91 0.0
vertex 2.33401948466054 -1.3769428370768e-015 -1.76247905159244e-015
vertex 1.29135281799387 3.91 -7.93115573216596e-016
endloop
endfacet
facet normal 9.93023103028533e-017 -5.38529538372201e-017 -1.0
outer loop
vertex 2.33401948466054 -1.3769428370768e-015 -1.76247905159244e-015
vertex 4.445 3.91 0.0
vertex 9.34998051533947 -5.90384195190115e-019 2.29122276707017e-015
endloop
endfacet
facet normal 9.93023103028533e-017 -5.38529538372201e-017 -1.0
outer loop
vertex 9.34998051533947 -5.90384195190115e-019 2.29122276707017e-015
vertex 4.445 3.91 0.0
vertex 8.33398051533947 4.0005 6.32619347112704e-017
endloop
endfacet
facet normal 9.93023103028533e-017 -5.38529538372201e-017 -1.0
outer loop
vertex 8.33398051533947 4.0005 6.32619347112704e-017
vertex 4.445 3.91 0.0
vertex 8.33398051533947 15.7595 1.07323911001081e-016
endloop
endfacet
facet normal 0.845597427157893 0.214754902135338 0.488718040584542
outer loop
vertex 9.36882209754935 3.92858180255221 3.375
vertex 10.0089902576697 0.0 3.84099025766973
vertex 10.366557158515 0.0 3.375
endloop
endfacet
facet normal 0.742673745053115 0.188615554299204 0.642541734897574
outer loop
vertex 10.0089902576697 0.0 3.84099025766973
vertex 9.36882209754935 3.92858180255221 3.375
vertex 9.03292078880264 3.84327353366416 3.84099025766973
endloop
endfacet
facet normal 0.738415271261794 0.187534037145853 0.647745221579557
outer loop
vertex 9.03292078880264 3.84327353366416 3.84099025766973
vertex 9.36882209754935 3.92858180255221 3.375
vertex 8.99299025766973 4.0005 3.84099025766973
endloop
endfacet
facet normal 0.734189331611427 0.186460782631474 0.652838725787943
outer loop
vertex 8.99299025766973 4.0005 3.84099025766973
vertex 9.36882209754935 3.92858180255221 3.375
vertex 9.35055715851499 4.0005 3.375
endloop
endfacet
facet normal 0.936803863879064 0.23791844162008 0.25650211647924
outer loop
vertex 9.57533310915041 4.0005 2.83234285148067
vertex 10.366557158515 0.0 3.375
vertex 10.5913331091504 0.0 2.83234285148067
endloop
endfacet
facet normal 0.850420829723743 0.215979893263173 0.479726065664571
outer loop
vertex 10.366557158515 0.0 3.375
vertex 9.57533310915041 4.0005 2.83234285148067
vertex 9.36882209754935 3.92858180255221 3.375
endloop
endfacet
facet normal 0.845597427157893 0.214754902135338 0.488718040584542
outer loop
vertex 9.36882209754935 3.92858180255221 3.375
vertex 9.57533310915041 4.0005 2.83234285148067
vertex 9.35055715851499 4.0005 3.375
endloop
endfacet
facet normal 0.793353340291236 2.2813071995588e-032 -0.60876142900872
outer loop
vertex 14.1859902576697 15.7595 0.659009742330268
vertex 14.543557158515 4.0005 1.125
vertex 14.1859902576697 4.0005 0.659009742330268
endloop
endfacet
facet normal 0.866025403784439 -3.90515265804968e-019 -0.5
outer loop
vertex 14.543557158515 4.0005 1.125
vertex 14.1859902576697 15.7595 0.659009742330268
vertex 14.543557158515 15.7595 1.125
endloop
endfacet
facet normal 0.965925826289069 0.0 0.25881904510252
outer loop
vertex 14.7683331091504 15.7595 2.83234285148067
vertex 14.543557158515 4.0005 3.375
vertex 14.7683331091504 4.0005 2.83234285148067
endloop
endfacet
facet normal 0.866025403784438 0.0 0.500000000000001
outer loop
vertex 14.543557158515 4.0005 3.375
vertex 14.7683331091504 15.7595 2.83234285148067
vertex 14.543557158515 15.7595 3.375
endloop
endfacet
facet normal -0.776173479835295 -0.206979594622746 -0.595578858431168
outer loop
vertex 0.274776174818347 3.91 1.125
vertex 1.67500974233027 2.8199664825479e-015 0.659009742330267
vertex 1.31744284148502 2.8199664825479e-015 1.125
endloop
endfacet
facet normal -0.732678951487156 -0.195381053729909 -0.651926221202271
outer loop
vertex 1.67500974233027 2.8199664825479e-015 0.659009742330267
vertex 0.274776174818347 3.91 1.125
vertex 0.632343075663604 3.91 0.659009742330267
endloop
endfacet
facet normal 0.866025403784438 0.0 0.500000000000001
outer loop
vertex 14.543557158515 15.7595 3.375
vertex 14.1859902576697 4.0005 3.84099025766973
vertex 14.543557158515 4.0005 3.375
endloop
endfacet
facet normal 0.793353340291234 0.0 0.608761429008723
outer loop
vertex 14.1859902576697 4.0005 3.84099025766973
vertex 14.543557158515 15.7595 3.375
vertex 14.1859902576697 15.7595 3.84099025766973
endloop
endfacet
facet normal 0.866025403784439 -3.90515265804968e-019 -0.5
outer loop
vertex 14.543557158515 15.7595 1.125
vertex 14.7683331091504 4.0005 1.66765714851933
vertex 14.543557158515 4.0005 1.125
endloop
endfacet
facet normal 0.965925826289068 -3.97245832731043e-019 -0.258819045102522
outer loop
vertex 14.7683331091504 4.0005 1.66765714851933
vertex 14.543557158515 15.7595 1.125
vertex 14.7683331091504 15.7595 1.66765714851933
endloop
endfacet
facet normal -0.741516195819203 -0.197737652218455 0.641134581997377
outer loop
vertex 0.6323430756636 3.91 3.84099025766973
vertex 1.31744284148501 0.0 3.375
vertex 1.67500974233027 0.0 3.84099025766973
endloop
endfacet
facet normal -0.776173479835295 -0.206979594622746 0.595578858431167
outer loop
vertex 1.31744284148501 0.0 3.375
vertex 0.6323430756636 3.91 3.84099025766973
vertex 0.274776174818344 3.91 3.375
endloop
endfacet
facet normal 0.961435241617176 0.244174029617061 0.12657535082744
outer loop
vertex 9.652 4.0005 2.25
vertex 10.5913331091504 0.0 2.83234285148067
vertex 10.668 0.0 2.25
endloop
endfacet
facet normal 0.939319541120627 0.238557343776667 0.246514083571622
outer loop
vertex 10.5913331091504 0.0 2.83234285148067
vertex 9.652 4.0005 2.25
vertex 9.57533310915041 4.0005 2.83234285148067
endloop
endfacet
facet normal 0.738415271261794 -0.187534037145852 -0.647745221579558
outer loop
vertex 9.03292078880264 15.9167264663358 0.659009742330267
vertex 9.35055715851499 15.7595 1.125
vertex 8.99299025766973 15.7595 0.659009742330267
endloop
endfacet
facet normal 0.840858511268494 -0.213551367941205 -0.497345732139898
outer loop
vertex 9.35055715851499 15.7595 1.125
vertex 9.03292078880264 15.9167264663358 0.659009742330267
vertex 9.36882209754935 15.8314181974478 1.125
endloop
endfacet
facet normal 0.845597427157893 -0.214754902135338 -0.488718040584542
outer loop
vertex 9.36882209754935 15.8314181974478 1.125
vertex 9.03292078880264 15.9167264663358 0.659009742330267
vertex 10.366557158515 19.76 1.125
endloop
endfacet
facet normal 0.850420829723743 -0.215979893263173 -0.479726065664571
outer loop
vertex 10.366557158515 19.76 1.125
vertex 9.03292078880264 15.9167264663358 0.659009742330267
vertex 10.0089902576697 19.76 0.659009742330267
endloop
endfacet
facet normal 0.939319541120627 -0.238557343776667 0.24651408357162
outer loop
vertex 10.5913331091504 19.76 2.83234285148067
vertex 9.35055715851499 15.7595 3.375
vertex 9.57533310915041 15.7595 2.83234285148067
endloop
endfacet
facet normal 0.840858511268495 -0.213551367941205 0.497345732139897
outer loop
vertex 9.35055715851499 15.7595 3.375
vertex 10.5913331091504 19.76 2.83234285148067
vertex 9.36882209754935 15.8314181974478 3.375
endloop
endfacet
facet normal 0.845597427157892 -0.214754902135338 0.488718040584542
outer loop
vertex 9.36882209754935 15.8314181974478 3.375
vertex 10.5913331091504 19.76 2.83234285148067
vertex 10.366557158515 19.76 3.375
endloop
endfacet
facet normal 0.845597427157892 -0.214754902135338 0.488718040584542
outer loop
vertex 9.36882209754935 15.8314181974478 3.375
vertex 8.99299025766974 15.7595 3.84099025766973
vertex 9.35055715851499 15.7595 3.375
endloop
endfacet
facet normal 0.734189331611427 -0.186460782631474 0.652838725787943
outer loop
vertex 8.99299025766974 15.7595 3.84099025766973
vertex 9.36882209754935 15.8314181974478 3.375
vertex 9.03292078880265 15.9167264663358 3.84099025766973
endloop
endfacet
facet normal 0.738415271164648 -0.187534037121181 0.647745221697444
outer loop
vertex 9.03292078880265 15.9167264663358 3.84099025766973
vertex 9.36882209754935 15.8314181974478 3.375
vertex 10.366557158515 19.76 3.375
endloop
endfacet
facet normal 0.738415271164648 -0.187534037121181 0.647745221697444
outer loop
vertex 9.03292078880265 15.9167264663358 3.84099025766973
vertex 10.366557158515 19.76 3.375
vertex 10.0089902576697 19.76 3.84099025766973
endloop
endfacet
facet normal -0.83866013195908 0.223642701855755 -0.496621712140173
outer loop
vertex 1.31744284148502 19.76 1.125
vertex 0.632343075663601 15.85 0.659009742330267
vertex 0.274776174818346 15.85 1.125
endloop
endfacet
facet normal -0.741516195819203 0.197737652218455 -0.641134581997376
outer loop
vertex 0.632343075663601 15.85 0.659009742330267
vertex 1.31744284148502 19.76 1.125
vertex 1.67500974233027 19.76 0.659009742330267
endloop
endfacet
facet normal 0.961435241617177 -0.244174029617061 0.126575350827436
outer loop
vertex 10.668 19.76 2.25
vertex 9.57533310915041 15.7595 2.83234285148067
vertex 9.652 15.7595 2.25
endloop
endfacet
facet normal 0.936803863879064 -0.23791844162008 0.256502116479239
outer loop
vertex 9.57533310915041 15.7595 2.83234285148067
vertex 10.668 19.76 2.25
vertex 10.5913331091504 19.76 2.83234285148067
endloop
endfacet
facet normal 0.845597427157893 -0.214754902135338 -0.488718040584542
outer loop
vertex 9.36882209754935 15.8314181974478 1.125
vertex 9.57533310915041 15.7595 1.66765714851933
vertex 9.35055715851499 15.7595 1.125
endloop
endfacet
facet normal 0.936803863879063 -0.23791844162008 -0.25650211647924
outer loop
vertex 9.57533310915041 15.7595 1.66765714851933
vertex 9.36882209754935 15.8314181974478 1.125
vertex 10.5913331091504 19.76 1.66765714851933
endloop
endfacet
facet normal 0.939319541120627 -0.238557343776667 -0.246514083571622
outer loop
vertex 10.5913331091504 19.76 1.66765714851933
vertex 9.36882209754935 15.8314181974478 1.125
vertex 10.366557158515 19.76 1.125
endloop
endfacet
facet normal 0.939319541120627 -0.238557343776667 -0.246514083571622
outer loop
vertex 10.5913331091504 19.76 1.66765714851933
vertex 9.652 15.7595 2.25
vertex 9.57533310915041 15.7595 1.66765714851933
endloop
endfacet
facet normal 0.961435241617176 -0.24417402961706 -0.126575350827441
outer loop
vertex 9.652 15.7595 2.25
vertex 10.5913331091504 19.76 1.66765714851933
vertex 10.668 19.76 2.25
endloop
endfacet
facet normal -0.897056193546103 -0.239214984945628 0.371572841577583
outer loop
vertex 0.274776174818344 3.91 3.375
vertex 1.0926668908496 0.0 2.83234285148067
vertex 1.31744284148501 0.0 3.375
endloop
endfacet
facet normal -0.897056193546103 -0.239214984945628 0.371572841577583
outer loop
vertex 1.0926668908496 0.0 2.83234285148067
vertex 0.274776174818344 3.91 3.375
vertex 0.0500002241829254 3.91 2.83234285148067
endloop
endfacet
facet normal -0.958510901559872 -0.255602907082633 0.126190354155097
outer loop
vertex 0.0500002241829254 3.91 2.83234285148067
vertex 1.016 0.0 2.25
vertex 1.0926668908496 0.0 2.83234285148067
endloop
endfacet
facet normal -0.958510901559872 -0.255602907082633 0.126190354155097
outer loop
vertex 1.016 0.0 2.25
vertex 0.0500002241829254 3.91 2.83234285148067
vertex -0.0266666666666667 3.91 2.25
endloop
endfacet
facet normal -0.958510901559871 -0.255602907082633 -0.126190354155103
outer loop
vertex -0.0266666666666667 3.91 2.25
vertex 1.0926668908496 2.8199664825479e-015 1.66765714851933
vertex 1.016 0.0 2.25
endloop
endfacet
facet normal -0.958510901559871 -0.255602907082633 -0.126190354155103
outer loop
vertex 1.0926668908496 2.8199664825479e-015 1.66765714851933
vertex -0.0266666666666667 3.91 2.25
vertex 0.0500002241829293 3.91 1.66765714851933
endloop
endfacet
facet normal -0.897056193546103 -0.239214984945628 -0.371572841577582
outer loop
vertex 0.0500002241829293 3.91 1.66765714851933
vertex 1.31744284148502 2.8199664825479e-015 1.125
vertex 1.0926668908496 2.8199664825479e-015 1.66765714851933
endloop
endfacet
facet normal -0.897056193546103 -0.239214984945628 -0.371572841577582
outer loop
vertex 1.31744284148502 2.8199664825479e-015 1.125
vertex 0.0500002241829293 3.91 1.66765714851933
vertex 0.274776174818347 3.91 1.125
endloop
endfacet
facet normal -0.83866013195908 0.223642701855756 0.496621712140172
outer loop
vertex 1.31744284148501 19.76 3.375
vertex 0.0500002241829264 15.85 2.83234285148067
vertex 0.274776174818343 15.85 3.375
endloop
endfacet
facet normal -0.897056193546104 0.239214984945629 0.37157284157758
outer loop
vertex 0.0500002241829264 15.85 2.83234285148067
vertex 1.31744284148501 19.76 3.375
vertex 1.0926668908496 19.76 2.83234285148067
endloop
endfacet
facet normal -0.958510901559871 0.255602907082633 -0.126190354155102
outer loop
vertex 1.016 19.76 2.25
vertex 0.0500002241829291 15.85 1.66765714851933
vertex -0.0266666666666668 15.85 2.25
endloop
endfacet
facet normal -0.958510901559871 0.255602907082633 -0.126190354155102
outer loop
vertex 0.0500002241829291 15.85 1.66765714851933
vertex 1.016 19.76 2.25
vertex 1.0926668908496 19.76 1.66765714851933
endloop
endfacet
facet normal -0.897056193546104 0.239214984945628 -0.371572841577581
outer loop
vertex 1.0926668908496 19.76 1.66765714851933
vertex 0.274776174818346 15.85 1.125
vertex 0.0500002241829291 15.85 1.66765714851933
endloop
endfacet
facet normal -0.848602466908574 0.226293991175621 -0.478189170427866
outer loop
vertex 0.274776174818346 15.85 1.125
vertex 1.0926668908496 19.76 1.66765714851933
vertex 1.31744284148502 19.76 1.125
endloop
endfacet
facet normal 0.0 1.0 0.0
outer loop
vertex 0.274776174818347 3.91 1.125
vertex 2.22093273986813 3.91 0.850000000000001
vertex 0.632343075663604 3.91 0.659009742330267
endloop
endfacet
facet normal 0.0 1.0 0.0
outer loop
vertex 2.22093273986813 3.91 0.850000000000001
vertex 0.274776174818347 3.91 1.125
vertex 1.23098324620697 3.91 1.26005050633883
endloop
endfacet
facet normal 0.0 1.0 0.0
outer loop
vertex 1.23098324620697 3.91 1.26005050633883
vertex 0.274776174818347 3.91 1.125
vertex 0.0500002241829293 3.91 1.66765714851933
endloop
endfacet
facet normal 0.0 1.0 0.0
outer loop
vertex 1.23098324620697 3.91 1.26005050633883
vertex 0.0500002241829293 3.91 1.66765714851933
vertex 0.820932739868137 3.91 2.25
endloop
endfacet
facet normal 0.0 1.0 0.0
outer loop
vertex 0.820932739868137 3.91 2.25
vertex 0.0500002241829293 3.91 1.66765714851933
vertex -0.0266666666666667 3.91 2.25
endloop
endfacet
facet normal 0.0 1.0 0.0
outer loop
vertex 0.820932739868137 3.91 2.25
vertex -0.0266666666666667 3.91 2.25
vertex 0.0500002241829254 3.91 2.83234285148067
endloop
endfacet
facet normal 0.0 1.0 0.0
outer loop
vertex 0.820932739868137 3.91 2.25
vertex 0.0500002241829254 3.91 2.83234285148067
vertex 1.23098324620697 3.91 3.23994949366117
endloop
endfacet
facet normal 0.0 1.0 0.0
outer loop
vertex 1.23098324620697 3.91 3.23994949366117
vertex 0.0500002241829254 3.91 2.83234285148067
vertex 0.274776174818344 3.91 3.375
endloop
endfacet
facet normal 0.0 1.0 0.0
outer loop
vertex 1.23098324620697 3.91 3.23994949366117
vertex 0.274776174818344 3.91 3.375
vertex 2.22093273986813 3.91 3.65
endloop
endfacet
facet normal 0.0 1.0 0.0
outer loop
vertex 2.22093273986813 3.91 3.65
vertex 0.274776174818344 3.91 3.375
vertex 0.6323430756636 3.91 3.84099025766973
endloop
endfacet
facet normal 0.0 1.0 0.0
outer loop
vertex 0.632343075663604 3.91 0.659009742330267
vertex 4.445 3.91 0.0
vertex 1.29135281799387 3.91 -7.93115573216596e-016
endloop
endfacet
facet normal 0.0 1.0 0.0
outer loop
vertex 4.445 3.91 0.0
vertex 0.632343075663604 3.91 0.659009742330267
vertex 5.57 3.91 1.125
endloop
endfacet
facet normal 0.0 1.0 0.0
outer loop
vertex 5.57 3.91 1.125
vertex 0.632343075663604 3.91 0.659009742330267
vertex 2.22093273986813 3.91 0.850000000000001
endloop
endfacet
facet normal 0.0 1.0 0.0
outer loop
vertex 5.57 3.91 1.125
vertex 2.22093273986813 3.91 0.850000000000001
vertex 3.21088223352931 3.91 1.26005050633883
endloop
endfacet
facet normal 0.0 1.0 0.0
outer loop
vertex 5.57 3.91 1.125
vertex 3.21088223352931 3.91 1.26005050633883
vertex 5.57 3.91 3.375
endloop
endfacet
facet normal 0.0 1.0 0.0
outer loop
vertex 5.57 3.91 3.375
vertex 3.21088223352931 3.91 1.26005050633883
vertex 3.62093273986813 3.91 2.25
endloop
endfacet
facet normal 0.0 1.0 0.0
outer loop
vertex 5.57 3.91 3.375
vertex 3.62093273986813 3.91 2.25
vertex 3.21088223352931 3.91 3.23994949366117
endloop
endfacet
facet normal 0.0 1.0 0.0
outer loop
vertex 5.57 3.91 3.375
vertex 3.21088223352931 3.91 3.23994949366117
vertex 2.22093273986813 3.91 3.65
endloop
endfacet
facet normal 0.0 1.0 0.0
outer loop
vertex 5.57 3.91 3.375
vertex 2.22093273986813 3.91 3.65
vertex 4.445 3.91 4.5
endloop
endfacet
facet normal 0.0 1.0 0.0
outer loop
vertex 4.445 3.91 4.5
vertex 2.22093273986813 3.91 3.65
vertex 0.6323430756636 3.91 3.84099025766973
endloop
endfacet
facet normal 0.0 1.0 0.0
outer loop
vertex 4.445 3.91 4.5
vertex 0.6323430756636 3.91 3.84099025766973
vertex 1.29135281799387 3.91 4.5
endloop
endfacet
facet normal 0.0 -1.0 0.0
outer loop
vertex 4.445 15.85 0.0
vertex 0.632343075663601 15.85 0.659009742330267
vertex 1.29135281799387 15.85 -5.72805691767542e-016
endloop
endfacet
facet normal 0.0 -1.0 0.0
outer loop
vertex 0.632343075663601 15.85 0.659009742330267
vertex 4.445 15.85 0.0
vertex 5.57 15.85 1.125
endloop
endfacet
facet normal 0.0 -1.0 0.0
outer loop
vertex 0.632343075663601 15.85 0.659009742330267
vertex 5.57 15.85 1.125
vertex 2.22333333333333 15.85 0.850000000000002
endloop
endfacet
facet normal 0.0 -1.0 0.0
outer loop
vertex 2.22333333333333 15.85 0.850000000000002
vertex 5.57 15.85 1.125
vertex 3.21328282699451 15.85 1.26005050633883
endloop
endfacet
facet normal 0.0 -1.0 0.0
outer loop
vertex 3.21328282699451 15.85 1.26005050633883
vertex 5.57 15.85 1.125
vertex 5.57 15.85 3.375
endloop
endfacet
facet normal 0.0 -1.0 0.0
outer loop
vertex 3.21328282699451 15.85 1.26005050633883
vertex 5.57 15.85 3.375
vertex 3.62333333333334 15.85 2.25
endloop
endfacet
facet normal 0.0 -1.0 0.0
outer loop
vertex 3.62333333333334 15.85 2.25
vertex 5.57 15.85 3.375
vertex 3.21328282699451 15.85 3.23994949366117
endloop
endfacet
facet normal 0.0 -1.0 0.0
outer loop
vertex 3.21328282699451 15.85 3.23994949366117
vertex 5.57 15.85 3.375
vertex 2.22333333333333 15.85 3.65
endloop
endfacet
facet normal 0.0 -1.0 0.0
outer loop
vertex 2.22333333333333 15.85 3.65
vertex 5.57 15.85 3.375
vertex 4.445 15.85 4.5
endloop
endfacet
facet normal 0.0 -1.0 0.0
outer loop
vertex 2.22333333333333 15.85 3.65
vertex 4.445 15.85 4.5
vertex 0.632343075663598 15.85 3.84099025766973
endloop
endfacet
facet normal 0.0 -1.0 0.0
outer loop
vertex 0.632343075663598 15.85 3.84099025766973
vertex 4.445 15.85 4.5
vertex 1.29135281799387 15.85 4.5
endloop
endfacet
facet normal 0.0 -1.0 0.0
outer loop
vertex 2.22333333333333 15.85 0.850000000000002
vertex 0.274776174818346 15.85 1.125
vertex 0.632343075663601 15.85 0.659009742330267
endloop
endfacet
facet normal 0.0 -1.0 0.0
outer loop
vertex 0.274776174818346 15.85 1.125
vertex 2.22333333333333 15.85 0.850000000000002
vertex 1.23338383967218 15.85 1.26005050633883
endloop
endfacet
facet normal 0.0 -1.0 0.0
outer loop
vertex 0.274776174818346 15.85 1.125
vertex 1.23338383967218 15.85 1.26005050633883
vertex 0.0500002241829291 15.85 1.66765714851933
endloop
endfacet
facet normal 0.0 -1.0 0.0
outer loop
vertex 0.0500002241829291 15.85 1.66765714851933
vertex 1.23338383967218 15.85 1.26005050633883
vertex 0.823333333333342 15.85 2.25
endloop
endfacet
facet normal 0.0 -1.0 0.0
outer loop
vertex 0.0500002241829291 15.85 1.66765714851933
vertex 0.823333333333342 15.85 2.25
vertex -0.0266666666666668 15.85 2.25
endloop
endfacet
facet normal 0.0 -1.0 0.0
outer loop
vertex -0.0266666666666668 15.85 2.25
vertex 0.823333333333342 15.85 2.25
vertex 0.0500002241829264 15.85 2.83234285148067
endloop
endfacet
facet normal 0.0 -1.0 0.0
outer loop
vertex 0.0500002241829264 15.85 2.83234285148067
vertex 0.823333333333342 15.85 2.25
vertex 1.23338383967218 15.85 3.23994949366117
endloop
endfacet
facet normal 0.0 -1.0 0.0
outer loop
vertex 0.0500002241829264 15.85 2.83234285148067
vertex 1.23338383967218 15.85 3.23994949366117
vertex 0.274776174818343 15.85 3.375
endloop
endfacet
facet normal 0.0 -1.0 0.0
outer loop
vertex 0.274776174818343 15.85 3.375
vertex 1.23338383967218 15.85 3.23994949366117
vertex 2.22333333333333 15.85 3.65
endloop
endfacet
facet normal 0.0 -1.0 0.0
outer loop
vertex 0.274776174818343 15.85 3.375
vertex 2.22333333333333 15.85 3.65
vertex 0.632343075663598 15.85 3.84099025766973
endloop
endfacet
facet normal -0.707106781186548 0.0 0.707106781186547
outer loop
vertex 5.57 15.85 1.125
vertex 4.445 3.91 0.0
vertex 5.57 3.91 1.125
endloop
endfacet
facet normal -0.707106781186548 0.0 0.707106781186547
outer loop
vertex 4.445 3.91 0.0
vertex 5.57 15.85 1.125
vertex 4.445 15.85 0.0
endloop
endfacet
facet normal -1.0 0.0 0.0
outer loop
vertex 5.57 15.85 3.375
vertex 5.57 3.91 1.125
vertex 5.57 3.91 3.375
endloop
endfacet
facet normal -1.0 0.0 0.0
outer loop
vertex 5.57 3.91 1.125
vertex 5.57 15.85 3.375
vertex 5.57 15.85 1.125
endloop
endfacet
facet normal -0.707106781186547 0.0 -0.707106781186548
outer loop
vertex 5.57 15.85 3.375
vertex 4.445 3.91 4.5
vertex 4.445 15.85 4.5
endloop
endfacet
facet normal -0.707106781186547 0.0 -0.707106781186548
outer loop
vertex 4.445 3.91 4.5
vertex 5.57 15.85 3.375
vertex 5.57 3.91 3.375
endloop
endfacet
facet normal -0.732678951487156 -0.195381053729909 -0.651926221202271
outer loop
vertex 1.67500974233027 2.8199664825479e-015 0.659009742330267
vertex 1.29135281799387 3.91 -7.93115573216596e-016
vertex 2.33401948466054 -1.3769428370768e-015 -1.76247905159244e-015
endloop
endfacet
facet normal -0.694861581918119 -0.185296421844832 -0.694861581918119
outer loop
vertex 1.29135281799387 3.91 -7.93115573216596e-016
vertex 1.67500974233027 2.8199664825479e-015 0.659009742330267
vertex 0.632343075663604 3.91 0.659009742330267
endloop
endfacet
facet normal 0.695973285238859 -0.176755120060663 -0.695973285238859
outer loop
vertex 9.34998051533947 19.76 -1.27779731240452e-015
vertex 8.99299025766973 15.7595 0.659009742330267
vertex 8.33398051533947 15.7595 1.07323911001081e-016
endloop
endfacet
facet normal 0.734189331611427 -0.186460782631473 -0.652838725787943
outer loop
vertex 8.99299025766973 15.7595 0.659009742330267
vertex 9.34998051533947 19.76 -1.27779731240452e-015
vertex 9.03292078880264 15.9167264663358 0.659009742330267
endloop
endfacet
facet normal 0.738415271261794 -0.187534037145852 -0.647745221579558
outer loop
vertex 9.03292078880264 15.9167264663358 0.659009742330267
vertex 9.34998051533947 19.76 -1.27779731240452e-015
vertex 10.0089902576697 19.76 0.659009742330267
endloop
endfacet
facet normal 0.707106781186547 1.43080984310785e-018 -0.707106781186548
outer loop
vertex 14.1859902576697 15.7595 0.659009742330268
vertex 13.5269805153395 4.0005 0.0
vertex 13.5269805153395 15.7595 0.0
endloop
endfacet
facet normal 0.707106781186547 1.43080984310785e-018 -0.707106781186548
outer loop
vertex 13.5269805153395 4.0005 0.0
vertex 14.1859902576697 15.7595 0.659009742330268
vertex 14.1859902576697 4.0005 0.659009742330268
endloop
endfacet
facet normal 0.734189331611427 0.186460782631473 -0.652838725787943
outer loop
vertex 8.99299025766973 4.0005 0.659009742330265
vertex 9.34998051533947 -5.90384195190115e-019 2.29122276707017e-015
vertex 8.33398051533947 4.0005 6.32619347112704e-017
endloop
endfacet
facet normal 0.695973285238859 0.176755120060662 -0.695973285238859
outer loop
vertex 9.34998051533947 -5.90384195190115e-019 2.29122276707017e-015
vertex 8.99299025766973 4.0005 0.659009742330265
vertex 9.03292078880264 3.84327353366416 0.659009742330265
endloop
endfacet
facet normal 0.695973285238859 0.176755120060662 -0.695973285238859
outer loop
vertex 9.34998051533947 -5.90384195190115e-019 2.29122276707017e-015
vertex 9.03292078880264 3.84327353366416 0.659009742330265
vertex 10.0089902576697 0.0 0.659009742330269
endloop
endfacet
facet normal -0.732678951487156 0.195381053729909 -0.651926221202271
outer loop
vertex 1.67500974233027 19.76 0.659009742330267
vertex 1.29135281799387 15.85 -5.72805691767542e-016
vertex 0.632343075663601 15.85 0.659009742330267
endloop
endfacet
facet normal -0.694861581918119 0.185296421844832 -0.694861581918119
outer loop
vertex 1.29135281799387 15.85 -5.72805691767542e-016
vertex 1.67500974233027 19.76 0.659009742330267
vertex 2.33401948466054 19.76 -1.27779731240452e-015
endloop
endfacet
facet normal 1.12279984685151e-015 4.70208603920503e-016 -1.0
outer loop
vertex 12.145 5.5005 3.45
vertex 11.834417145877 4.0005 3.40911099154688
vertex 11.834417145877 5.5005 3.40911099154688
endloop
endfacet
facet normal 0.258819045102521 4.55997232057826e-016 -0.965925826289068
outer loop
vertex 11.834417145877 4.0005 3.40911099154688
vertex 12.145 5.5005 3.45
vertex 12.145 4.0005 3.45
endloop
endfacet
facet normal 0.0 -1.0 0.0
outer loop
vertex 12.455582854123 5.5005 1.09088900845312
vertex 11.834417145877 5.5005 1.09088900845312
vertex 12.145 5.5005 1.05
endloop
endfacet
facet normal 0.0 -1.0 0.0
outer loop
vertex 11.834417145877 5.5005 1.09088900845312
vertex 12.455582854123 5.5005 1.09088900845312
vertex 11.545 5.5005 1.21076951545867
endloop
endfacet
facet normal 0.0 -1.0 0.0
outer loop
vertex 11.545 5.5005 1.21076951545867
vertex 12.455582854123 5.5005 1.09088900845312
vertex 12.745 5.5005 1.21076951545867
endloop
endfacet
facet normal 0.0 -1.0 0.0
outer loop
vertex 11.545 5.5005 1.21076951545867
vertex 12.745 5.5005 1.21076951545867
vertex 11.2964718625761 5.5005 1.40147186257614
endloop
endfacet
facet normal 0.0 -1.0 0.0
outer loop
vertex 11.2964718625761 5.5005 1.40147186257614
vertex 12.745 5.5005 1.21076951545867
vertex 12.9935281374239 5.5005 1.40147186257614
endloop
endfacet
facet normal 0.0 -1.0 0.0
outer loop
vertex 11.2964718625761 5.5005 1.40147186257614
vertex 12.9935281374239 5.5005 1.40147186257614
vertex 11.1057695154587 5.5005 1.65
endloop
endfacet
facet normal 0.0 -1.0 0.0
outer loop
vertex 11.1057695154587 5.5005 1.65
vertex 12.9935281374239 5.5005 1.40147186257614
vertex 13.1842304845413 5.5005 1.65
endloop
endfacet
facet normal 0.0 -1.0 0.0
outer loop
vertex 11.1057695154587 5.5005 1.65
vertex 13.1842304845413 5.5005 1.65
vertex 10.9858890084531 5.5005 1.93941714587698
endloop
endfacet
facet normal 0.0 -1.0 0.0
outer loop
vertex 10.9858890084531 5.5005 1.93941714587698
vertex 13.1842304845413 5.5005 1.65
vertex 13.3041109915469 5.5005 1.93941714587698
endloop
endfacet
facet normal 0.0 -1.0 0.0
outer loop
vertex 10.9858890084531 5.5005 1.93941714587698
vertex 13.3041109915469 5.5005 1.93941714587698
vertex 10.945 5.5005 2.25
endloop
endfacet
facet normal 0.0 -1.0 0.0
outer loop
vertex 10.945 5.5005 2.25
vertex 13.3041109915469 5.5005 1.93941714587698
vertex 13.345 5.5005 2.25
endloop
endfacet
facet normal 0.0 -1.0 0.0
outer loop
vertex 10.945 5.5005 2.25
vertex 13.345 5.5005 2.25
vertex 13.3041109915469 5.5005 2.56058285412303
endloop
endfacet
facet normal 0.0 -1.0 0.0
outer loop
vertex 10.945 5.5005 2.25
vertex 13.3041109915469 5.5005 2.56058285412303
vertex 10.9858890084531 5.5005 2.56058285412302
endloop
endfacet
facet normal 0.0 -1.0 0.0
outer loop
vertex 10.9858890084531 5.5005 2.56058285412302
vertex 13.3041109915469 5.5005 2.56058285412303
vertex 11.1057695154587 5.5005 2.85
endloop
endfacet
facet normal 0.0 -1.0 0.0
outer loop
vertex 11.1057695154587 5.5005 2.85
vertex 13.3041109915469 5.5005 2.56058285412303
vertex 13.1842304845413 5.5005 2.85
endloop
endfacet
facet normal 0.0 -1.0 0.0
outer loop
vertex 11.1057695154587 5.5005 2.85
vertex 13.1842304845413 5.5005 2.85
vertex 11.2964718625761 5.5005 3.09852813742386
endloop
endfacet
facet normal 0.0 -1.0 0.0
outer loop
vertex 11.2964718625761 5.5005 3.09852813742386
vertex 13.1842304845413 5.5005 2.85
vertex 12.9935281374239 5.5005 3.09852813742386
endloop
endfacet
facet normal 0.0 -1.0 0.0
outer loop
vertex 11.2964718625761 5.5005 3.09852813742386
vertex 12.9935281374239 5.5005 3.09852813742386
vertex 11.545 5.5005 3.28923048454133
endloop
endfacet
facet normal 0.0 -1.0 0.0
outer loop
vertex 11.545 5.5005 3.28923048454133
vertex 12.9935281374239 5.5005 3.09852813742386
vertex 12.745 5.5005 3.28923048454133
endloop
endfacet
facet normal 0.0 -1.0 0.0
outer loop
vertex 11.545 5.5005 3.28923048454133
vertex 12.745 5.5005 3.28923048454133
vertex 11.834417145877 5.5005 3.40911099154688
endloop
endfacet
facet normal 0.0 -1.0 0.0
outer loop
vertex 11.834417145877 5.5005 3.40911099154688
vertex 12.745 5.5005 3.28923048454133
vertex 12.455582854123 5.5005 3.40911099154688
endloop
endfacet
facet normal 0.0 -1.0 0.0
outer loop
vertex 11.834417145877 5.5005 3.40911099154688
vertex 12.455582854123 5.5005 3.40911099154688
vertex 12.145 5.5005 3.45
endloop
endfacet
facet normal -0.707106781186546 2.13068592734947e-016 -0.707106781186549
outer loop
vertex 12.9935281374239 5.5005 3.09852813742386
vertex 12.745 4.0005 3.28923048454133
vertex 12.745 5.5005 3.28923048454133
endloop
endfacet
facet normal -0.5 3.62379326812108e-016 -0.866025403784439
outer loop
vertex 12.745 4.0005 3.28923048454133
vertex 12.9935281374239 5.5005 3.09852813742386
vertex 12.9935281374239 4.0005 3.09852813742386
endloop
endfacet
facet normal -0.5 3.62379326812108e-016 -0.866025403784439
outer loop
vertex 12.745 5.5005 3.28923048454133
vertex 12.455582854123 4.0005 3.40911099154688
vertex 12.455582854123 5.5005 3.40911099154688
endloop
endfacet
facet normal -0.258819045102522 4.55997232057826e-016 -0.965925826289068
outer loop
vertex 12.455582854123 4.0005 3.40911099154688
vertex 12.745 5.5005 3.28923048454133
vertex 12.745 4.0005 3.28923048454133
endloop
endfacet
facet normal 0.866025403784439 -1.16580645600124e-016 0.499999999999999
outer loop
vertex 11.1057695154587 5.5005 1.65
vertex 10.9858890084531 4.0005 1.93941714587698
vertex 11.1057695154587 4.0005 1.65
endloop
endfacet
facet normal 0.965925826289069 -6.03465827433192e-017 0.25881904510252
outer loop
vertex 10.9858890084531 4.0005 1.93941714587698
vertex 11.1057695154587 5.5005 1.65
vertex 10.9858890084531 5.5005 1.93941714587698
endloop
endfacet
facet normal 0.258819045102521 -2.29809213816598e-016 0.965925826289068
outer loop
vertex 11.834417145877 4.0005 1.09088900845312
vertex 11.545 5.5005 1.21076951545867
vertex 11.545 4.0005 1.21076951545867
endloop
endfacet
facet normal 0.499999999999999 -2.05544796933967e-016 0.866025403784439
outer loop
vertex 11.545 5.5005 1.21076951545867
vertex 11.834417145877 4.0005 1.09088900845312
vertex 11.834417145877 5.5005 1.09088900845312
endloop
endfacet
facet normal 0.499999999999999 -2.05544796933967e-016 0.866025403784439
outer loop
vertex 11.545 4.0005 1.21076951545867
vertex 11.2964718625761 5.5005 1.40147186257614
vertex 11.2964718625761 4.0005 1.40147186257614
endloop
endfacet
facet normal 0.707106781186546 -1.64869930117908e-016 0.707106781186549
outer loop
vertex 11.2964718625761 5.5005 1.40147186257614
vertex 11.545 4.0005 1.21076951545867
vertex 11.545 5.5005 1.21076951545867
endloop
endfacet
facet normal -0.707106781186548 -1.64869930117908e-016 0.707106781186548
outer loop
vertex 12.9935281374239 4.0005 1.40147186257614
vertex 12.745 5.5005 1.21076951545867
vertex 12.745 4.0005 1.21076951545867
endloop
endfacet
facet normal -0.5 -2.05544796933967e-016 0.866025403784438
outer loop
vertex 12.745 5.5005 1.21076951545867
vertex 12.9935281374239 4.0005 1.40147186257614
vertex 12.9935281374239 5.5005 1.40147186257614
endloop
endfacet
facet normal 0.258819045102521 4.55997232057826e-016 -0.965925826289068
outer loop
vertex 11.834417145877 5.5005 3.40911099154688
vertex 11.545 4.0005 3.28923048454133
vertex 11.545 5.5005 3.28923048454133
endloop
endfacet
facet normal 0.5 3.60824531243817e-016 -0.866025403784438
outer loop
vertex 11.545 4.0005 3.28923048454133
vertex 11.834417145877 5.5005 3.40911099154688
vertex 11.834417145877 4.0005 3.40911099154688
endloop
endfacet
facet normal 0.5 3.60824531243817e-016 -0.866025403784438
outer loop
vertex 11.545 5.5005 3.28923048454133
vertex 11.2964718625761 4.0005 3.09852813742386
vertex 11.2964718625761 5.5005 3.09852813742386
endloop
endfacet
facet normal 0.707106781186548 2.11513797166655e-016 -0.707106781186547
outer loop
vertex 11.2964718625761 4.0005 3.09852813742386
vertex 11.545 5.5005 3.28923048454133
vertex 11.545 4.0005 3.28923048454133
endloop
endfacet
facet normal 0.965925826289068 6.03465827433191e-017 -0.25881904510252
outer loop
vertex 10.9858890084531 5.5005 2.56058285412302
vertex 11.1057695154587 4.0005 2.85
vertex 10.9858890084531 4.0005 2.56058285412302
endloop
endfacet
facet normal 0.866025403784438 1.16580645600125e-016 -0.500000000000001
outer loop
vertex 11.1057695154587 4.0005 2.85
vertex 10.9858890084531 5.5005 2.56058285412302
vertex 11.1057695154587 5.5005 2.85
endloop
endfacet
facet normal 0.965925826289069 -6.03465827433191e-017 0.25881904510252
outer loop
vertex 10.9858890084531 5.5005 1.93941714587698
vertex 10.945 4.0005 2.25
vertex 10.9858890084531 4.0005 1.93941714587698
endloop
endfacet
facet normal 1.0 -4.88729977426946e-031 2.10302193537267e-015
outer loop
vertex 10.945 4.0005 2.25
vertex 10.9858890084531 5.5005 1.93941714587698
vertex 10.945 5.5005 2.25
endloop
endfacet
facet normal 0.866025403784438 1.16580645600125e-016 -0.500000000000001
outer loop
vertex 11.1057695154587 5.5005 2.85
vertex 11.2964718625761 4.0005 3.09852813742386
vertex 11.1057695154587 4.0005 2.85
endloop
endfacet
facet normal 0.707106781186548 2.11513797166655e-016 -0.707106781186547
outer loop
vertex 11.2964718625761 4.0005 3.09852813742386
vertex 11.1057695154587 5.5005 2.85
vertex 11.2964718625761 5.5005 3.09852813742386
endloop
endfacet
facet normal -0.258819045102521 4.55997232057826e-016 -0.965925826289068
outer loop
vertex 12.455582854123 5.5005 3.40911099154688
vertex 12.145 4.0005 3.45
vertex 12.145 5.5005 3.45
endloop
endfacet
facet normal 1.12279984685151e-015 4.70208603920503e-016 -1.0
outer loop
vertex 12.145 4.0005 3.45
vertex 12.455582854123 5.5005 3.40911099154688
vertex 12.455582854123 4.0005 3.40911099154688
endloop
endfacet
facet normal -0.866025403784439 -1.16580645600124e-016 0.499999999999999
outer loop
vertex 13.1842304845413 5.5005 1.65
vertex 12.9935281374239 4.0005 1.40147186257614
vertex 13.1842304845413 4.0005 1.65
endloop
endfacet
facet normal -0.707106781186548 -1.64869930117908e-016 0.707106781186548
outer loop
vertex 12.9935281374239 4.0005 1.40147186257614
vertex 13.1842304845413 5.5005 1.65
vertex 12.9935281374239 5.5005 1.40147186257614
endloop
endfacet
facet normal -0.866025403784439 1.16580645600125e-016 -0.5
outer loop
vertex 13.1842304845413 5.5005 2.85
vertex 13.3041109915469 4.0005 2.56058285412303
vertex 13.1842304845413 4.0005 2.85
endloop
endfacet
facet normal -0.965925826289069 6.03465827433192e-017 -0.25881904510252
outer loop
vertex 13.3041109915469 4.0005 2.56058285412303
vertex 13.1842304845413 5.5005 2.85
vertex 13.3041109915469 5.5005 2.56058285412303
endloop
endfacet
facet normal -0.965925826289069 -6.03465827433192e-017 0.25881904510252
outer loop
vertex 13.3041109915469 5.5005 1.93941714587698
vertex 13.1842304845413 4.0005 1.65
vertex 13.3041109915469 4.0005 1.93941714587698
endloop
endfacet
facet normal -0.866025403784439 -1.16580645600124e-016 0.499999999999999
outer loop
vertex 13.1842304845413 4.0005 1.65
vertex 13.3041109915469 5.5005 1.93941714587698
vertex 13.1842304845413 5.5005 1.65
endloop
endfacet
facet normal -1.0 -4.55092691531164e-032 1.87133307808585e-016
outer loop
vertex 13.345 5.5005 2.25
vertex 13.3041109915469 4.0005 1.93941714587698
vertex 13.345 4.0005 2.25
endloop
endfacet
facet normal -0.965925826289069 -6.03465827433192e-017 0.25881904510252
outer loop
vertex 13.3041109915469 4.0005 1.93941714587698
vertex 13.345 5.5005 2.25
vertex 13.3041109915469 5.5005 1.93941714587698
endloop
endfacet
facet normal -0.965925826289069 6.03465827433192e-017 -0.25881904510252
outer loop
vertex 13.3041109915469 5.5005 2.56058285412303
vertex 13.345 4.0005 2.25
vertex 13.3041109915469 4.0005 2.56058285412303
endloop
endfacet
facet normal -1.0 -5.54025885342287e-032 2.22777747391173e-016
outer loop
vertex 13.345 4.0005 2.25
vertex 13.3041109915469 5.5005 2.56058285412303
vertex 13.345 5.5005 2.25
endloop
endfacet
facet normal -0.258819045102521 -2.29809213816598e-016 0.965925826289068
outer loop
vertex 12.455582854123 4.0005 1.09088900845312
vertex 12.145 5.5005 1.05
vertex 12.145 4.0005 1.05
endloop
endfacet
facet normal 0.0 -2.35104301960251e-016 1.0
outer loop
vertex 12.145 5.5005 1.05
vertex 12.455582854123 4.0005 1.09088900845312
vertex 12.455582854123 5.5005 1.09088900845312
endloop
endfacet
facet normal -0.707106781186546 2.13068592734947e-016 -0.707106781186549
outer loop
vertex 12.9935281374239 5.5005 3.09852813742386
vertex 13.1842304845413 4.0005 2.85
vertex 12.9935281374239 4.0005 3.09852813742386
endloop
endfacet
facet normal -0.866025403784439 1.16580645600125e-016 -0.5
outer loop
vertex 13.1842304845413 4.0005 2.85
vertex 12.9935281374239 5.5005 3.09852813742386
vertex 13.1842304845413 5.5005 2.85
endloop
endfacet
facet normal 0.707106781186546 -1.64869930117908e-016 0.707106781186549
outer loop
vertex 11.2964718625761 5.5005 1.40147186257614
vertex 11.1057695154587 4.0005 1.65
vertex 11.2964718625761 4.0005 1.40147186257614
endloop
endfacet
facet normal 0.866025403784439 -1.16580645600124e-016 0.499999999999999
outer loop
vertex 11.1057695154587 4.0005 1.65
vertex 11.2964718625761 5.5005 1.40147186257614
vertex 11.1057695154587 5.5005 1.65
endloop
endfacet
facet normal 0.0 -2.35104301960251e-016 1.0
outer loop
vertex 12.145 4.0005 1.05
vertex 11.834417145877 5.5005 1.09088900845312
vertex 11.834417145877 4.0005 1.09088900845312
endloop
endfacet
facet normal 0.258819045102521 -2.29809213816598e-016 0.965925826289068
outer loop
vertex 11.834417145877 5.5005 1.09088900845312
vertex 12.145 4.0005 1.05
vertex 12.145 5.5005 1.05
endloop
endfacet
facet normal -0.5 -2.05544796933967e-016 0.866025403784438
outer loop
vertex 12.745 4.0005 1.21076951545867
vertex 12.455582854123 5.5005 1.09088900845312
vertex 12.455582854123 4.0005 1.09088900845312
endloop
endfacet
facet normal -0.258819045102521 -2.29809213816598e-016 0.965925826289068
outer loop
vertex 12.455582854123 5.5005 1.09088900845312
vertex 12.745 4.0005 1.21076951545867
vertex 12.745 5.5005 1.21076951545867
endloop
endfacet
facet normal 1.0 -4.80815321922056e-031 2.06737749579008e-015
outer loop
vertex 10.945 5.5005 2.25
vertex 10.9858890084531 4.0005 2.56058285412302
vertex 10.945 4.0005 2.25
endloop
endfacet
facet normal 0.965925826289068 6.03465827433191e-017 -0.25881904510252
outer loop
vertex 10.9858890084531 4.0005 2.56058285412302
vertex 10.945 5.5005 2.25
vertex 10.9858890084531 5.5005 2.56058285412302
endloop
endfacet
facet normal 0.965925826289069 -1.81059778768339e-018 -0.25881904510252
outer loop
vertex 10.9858890084531 15.7595 2.56058285412303
vertex 11.1057695154587 14.2595 2.85
vertex 10.9858890084531 14.2595 2.56058285412303
endloop
endfacet
facet normal 0.866025403784439 -1.81059778768339e-018 -0.499999999999999
outer loop
vertex 11.1057695154587 14.2595 2.85
vertex 10.9858890084531 15.7595 2.56058285412303
vertex 11.1057695154587 15.7595 2.85
endloop
endfacet
facet normal -0.866025403784439 3.31054610700861e-018 0.5
outer loop
vertex 13.1842304845413 15.7595 1.65
vertex 12.9935281374239 14.2595 1.40147186257614
vertex 13.1842304845413 14.2595 1.65
endloop
endfacet
facet normal -0.707106781186546 1.41407833170122e-030 0.707106781186549
outer loop
vertex 12.9935281374239 14.2595 1.40147186257614
vertex 13.1842304845413 15.7595 1.65
vertex 12.9935281374239 15.7595 1.40147186257614
endloop
endfacet
facet normal -0.258819045102522 4.85752690000617e-019 0.965925826289068
outer loop
vertex 12.455582854123 14.2595 1.09088900845312
vertex 12.145 15.7595 1.05
vertex 12.145 14.2595 1.05
endloop
endfacet
facet normal 8.10911000503868e-016 4.85752690000618e-019 1.0
outer loop
vertex 12.145 15.7595 1.05
vertex 12.455582854123 14.2595 1.09088900845312
vertex 12.455582854123 15.7595 1.09088900845312
endloop
endfacet
facet normal 0.0 1.0 0.0
outer loop
vertex 11.834417145877 14.2595 1.09088900845312
vertex 12.455582854123 14.2595 1.09088900845312
vertex 12.145 14.2595 1.05
endloop
endfacet
facet normal 0.0 1.0 0.0
outer loop
vertex 12.455582854123 14.2595 1.09088900845312
vertex 11.834417145877 14.2595 1.09088900845312
vertex 12.745 14.2595 1.21076951545867
endloop
endfacet
facet normal 0.0 1.0 0.0
outer loop
vertex 12.745 14.2595 1.21076951545867
vertex 11.834417145877 14.2595 1.09088900845312
vertex 11.545 14.2595 1.21076951545867
endloop
endfacet
facet normal 0.0 1.0 0.0
outer loop
vertex 12.745 14.2595 1.21076951545867
vertex 11.545 14.2595 1.21076951545867
vertex 12.9935281374239 14.2595 1.40147186257614
endloop
endfacet
facet normal 0.0 1.0 0.0
outer loop
vertex 12.9935281374239 14.2595 1.40147186257614
vertex 11.545 14.2595 1.21076951545867
vertex 11.2964718625761 14.2595 1.40147186257614
endloop
endfacet
facet normal 0.0 1.0 0.0
outer loop
vertex 12.9935281374239 14.2595 1.40147186257614
vertex 11.2964718625761 14.2595 1.40147186257614
vertex 13.1842304845413 14.2595 1.65
endloop
endfacet
facet normal 0.0 1.0 0.0
outer loop
vertex 13.1842304845413 14.2595 1.65
vertex 11.2964718625761 14.2595 1.40147186257614
vertex 11.1057695154587 14.2595 1.65
endloop
endfacet
facet normal 0.0 1.0 0.0
outer loop
vertex 13.1842304845413 14.2595 1.65
vertex 11.1057695154587 14.2595 1.65
vertex 13.3041109915469 14.2595 1.93941714587697
endloop
endfacet
facet normal 0.0 1.0 0.0
outer loop
vertex 13.3041109915469 14.2595 1.93941714587697
vertex 11.1057695154587 14.2595 1.65
vertex 10.9858890084531 14.2595 1.93941714587698
endloop
endfacet
facet normal 0.0 1.0 0.0
outer loop
vertex 13.3041109915469 14.2595 1.93941714587697
vertex 10.9858890084531 14.2595 1.93941714587698
vertex 13.345 14.2595 2.25
endloop
endfacet
facet normal 0.0 1.0 0.0
outer loop
vertex 13.345 14.2595 2.25
vertex 10.9858890084531 14.2595 1.93941714587698
vertex 10.945 14.2595 2.25
endloop
endfacet
facet normal 0.0 1.0 0.0
outer loop
vertex 13.345 14.2595 2.25
vertex 10.945 14.2595 2.25
vertex 10.9858890084531 14.2595 2.56058285412303
endloop
endfacet
facet normal 0.0 1.0 0.0
outer loop
vertex 13.345 14.2595 2.25
vertex 10.9858890084531 14.2595 2.56058285412303
vertex 13.3041109915469 14.2595 2.56058285412302
endloop
endfacet
facet normal 0.0 1.0 0.0
outer loop
vertex 13.3041109915469 14.2595 2.56058285412302
vertex 10.9858890084531 14.2595 2.56058285412303
vertex 13.1842304845413 14.2595 2.85
endloop
endfacet
facet normal 0.0 1.0 0.0
outer loop
vertex 13.1842304845413 14.2595 2.85
vertex 10.9858890084531 14.2595 2.56058285412303
vertex 11.1057695154587 14.2595 2.85
endloop
endfacet
facet normal 0.0 1.0 0.0
outer loop
vertex 13.1842304845413 14.2595 2.85
vertex 11.1057695154587 14.2595 2.85
vertex 12.9935281374239 14.2595 3.09852813742386
endloop
endfacet
facet normal 0.0 1.0 0.0
outer loop
vertex 12.9935281374239 14.2595 3.09852813742386
vertex 11.1057695154587 14.2595 2.85
vertex 11.2964718625761 14.2595 3.09852813742386
endloop
endfacet
facet normal 0.0 1.0 0.0
outer loop
vertex 12.9935281374239 14.2595 3.09852813742386
vertex 11.2964718625761 14.2595 3.09852813742386
vertex 11.545 14.2595 3.28923048454133
endloop
endfacet
facet normal 0.0 1.0 0.0
outer loop
vertex 12.9935281374239 14.2595 3.09852813742386
vertex 11.545 14.2595 3.28923048454133
vertex 12.745 14.2595 3.28923048454133
endloop
endfacet
facet normal 0.0 1.0 0.0
outer loop
vertex 12.745 14.2595 3.28923048454133
vertex 11.545 14.2595 3.28923048454133
vertex 12.455582854123 14.2595 3.40911099154688
endloop
endfacet
facet normal 0.0 1.0 0.0
outer loop
vertex 12.455582854123 14.2595 3.40911099154688
vertex 11.545 14.2595 3.28923048454133
vertex 11.834417145877 14.2595 3.40911099154688
endloop
endfacet
facet normal 0.0 1.0 0.0
outer loop
vertex 12.455582854123 14.2595 3.40911099154688
vertex 11.834417145877 14.2595 3.40911099154688
vertex 12.145 14.2595 3.45
endloop
endfacet
facet normal -0.707106781186546 1.41407833170122e-030 0.707106781186549
outer loop
vertex 12.9935281374239 14.2595 1.40147186257614
vertex 12.745 15.7595 1.21076951545867
vertex 12.745 14.2595 1.21076951545867
endloop
endfacet
facet normal -0.5 1.02920568433833e-031 0.866025403784439
outer loop
vertex 12.745 15.7595 1.21076951545867
vertex 12.9935281374239 14.2595 1.40147186257614
vertex 12.9935281374239 15.7595 1.40147186257614
endloop
endfacet
facet normal -0.5 1.02920568433833e-031 0.866025403784439
outer loop
vertex 12.745 14.2595 1.21076951545867
vertex 12.455582854123 15.7595 1.09088900845312
vertex 12.455582854123 14.2595 1.09088900845312
endloop
endfacet
facet normal -0.258819045102522 4.85752690000617e-019 0.965925826289068
outer loop
vertex 12.455582854123 15.7595 1.09088900845312
vertex 12.745 14.2595 1.21076951545867
vertex 12.745 15.7595 1.21076951545867
endloop
endfacet
facet normal -0.965925826289069 2.29635047768214e-018 -0.25881904510252
outer loop
vertex 13.3041109915469 15.7595 2.56058285412302
vertex 13.345 14.2595 2.25
vertex 13.3041109915469 14.2595 2.56058285412302
endloop
endfacet
facet normal -1.0 9.71505379997533e-019 -2.22777747391173e-016
outer loop
vertex 13.345 14.2595 2.25
vertex 13.3041109915469 15.7595 2.56058285412302
vertex 13.345 15.7595 2.25
endloop
endfacet
facet normal -1.0 9.71505379997533e-019 -2.22777747391173e-016
outer loop
vertex 13.345 15.7595 2.25
vertex 13.3041109915469 14.2595 1.93941714587697
vertex 13.345 14.2595 2.25
endloop
endfacet
facet normal -0.965925826289069 3.79629879700598e-018 0.25881904510252
outer loop
vertex 13.3041109915469 14.2595 1.93941714587697
vertex 13.345 15.7595 2.25
vertex 13.3041109915469 15.7595 1.93941714587697
endloop
endfacet
facet normal 0.499999999999999 9.54212507250637e-031 -0.866025403784439
outer loop
vertex 11.545 15.7595 3.28923048454133
vertex 11.2964718625761 14.2595 3.09852813742386
vertex 11.2964718625761 15.7595 3.09852813742386
endloop
endfacet
facet normal 0.707106781186547 5.42530233515305e-031 -0.707106781186548
outer loop
vertex 11.2964718625761 14.2595 3.09852813742386
vertex 11.545 15.7595 3.28923048454133
vertex 11.545 14.2595 3.28923048454133
endloop
endfacet
facet normal -0.866025403784439 1.81059778768454e-018 -0.499999999999999
outer loop
vertex 13.1842304845413 15.7595 2.85
vertex 13.3041109915469 14.2595 2.56058285412302
vertex 13.1842304845413 14.2595 2.85
endloop
endfacet
facet normal -0.965925826289069 2.29635047768214e-018 -0.25881904510252
outer loop
vertex 13.3041109915469 14.2595 2.56058285412302
vertex 13.1842304845413 15.7595 2.85
vertex 13.3041109915469 15.7595 2.56058285412302
endloop
endfacet
facet normal 0.707106781186548 1.43464194824313e-030 0.707106781186547
outer loop
vertex 11.2964718625761 15.7595 1.40147186257614
vertex 11.1057695154587 14.2595 1.65
vertex 11.2964718625761 14.2595 1.40147186257614
endloop
endfacet
facet normal 0.866025403784438 -1.81059778768287e-018 0.500000000000001
outer loop
vertex 11.1057695154587 14.2595 1.65
vertex 11.2964718625761 15.7595 1.40147186257614
vertex 11.1057695154587 15.7595 1.65
endloop
endfacet
facet normal 2.94066626556348e-016 7.67253614234788e-031 -1.0
outer loop
vertex 12.145 15.7595 3.45
vertex 11.834417145877 14.2595 3.40911099154688
vertex 11.834417145877 15.7595 3.40911099154688
endloop
endfacet
facet normal 0.25881904510252 8.53471771662752e-031 -0.965925826289068
outer loop
vertex 11.834417145877 14.2595 3.40911099154688
vertex 12.145 15.7595 3.45
vertex 12.145 14.2595 3.45
endloop
endfacet
facet normal -0.258819045102521 3.25464116307367e-031 -0.965925826289068
outer loop
vertex 12.455582854123 15.7595 3.40911099154688
vertex 12.145 14.2595 3.45
vertex 12.145 15.7595 3.45
endloop
endfacet
facet normal 2.94066626556348e-016 7.67253614234788e-031 -1.0
outer loop
vertex 12.145 14.2595 3.45
vertex 12.455582854123 15.7595 3.40911099154688
vertex 12.455582854123 14.2595 3.40911099154688
endloop
endfacet
facet normal 0.500000000000001 8.83798957313262e-032 0.866025403784438
outer loop
vertex 11.545 14.2595 1.21076951545867
vertex 11.2964718625761 15.7595 1.40147186257614
vertex 11.2964718625761 14.2595 1.40147186257614
endloop
endfacet
facet normal 0.707106781186548 1.43464194824313e-030 0.707106781186547
outer loop
vertex 11.2964718625761 15.7595 1.40147186257614
vertex 11.545 14.2595 1.21076951545867
vertex 11.545 15.7595 1.21076951545867
endloop
endfacet
facet normal 0.965925826289068 -1.81059778768507e-018 0.25881904510252
outer loop
vertex 10.9858890084531 15.7595 1.93941714587698
vertex 10.945 14.2595 2.25
vertex 10.9858890084531 14.2595 1.93941714587698
endloop
endfacet
facet normal 1.0 -8.54497650449827e-031 -2.0139108364162e-015
outer loop
vertex 10.945 14.2595 2.25
vertex 10.9858890084531 15.7595 1.93941714587698
vertex 10.945 15.7595 2.25
endloop
endfacet
facet normal 0.25881904510252 8.53471771662752e-031 -0.965925826289068
outer loop
vertex 11.834417145877 15.7595 3.40911099154688
vertex 11.545 14.2595 3.28923048454133
vertex 11.545 15.7595 3.28923048454133
endloop
endfacet
facet normal 0.499999999999999 9.54212507250637e-031 -0.866025403784439
outer loop
vertex 11.545 14.2595 3.28923048454133
vertex 11.834417145877 15.7595 3.40911099154688
vertex 11.834417145877 14.2595 3.40911099154688
endloop
endfacet
facet normal 8.10911000503868e-016 4.85752690000618e-019 1.0
outer loop
vertex 12.145 14.2595 1.05
vertex 11.834417145877 15.7595 1.09088900845312
vertex 11.834417145877 14.2595 1.09088900845312
endloop
endfacet
facet normal 0.258819045102521 1.04569367343656e-031 0.965925826289068
outer loop
vertex 11.834417145877 15.7595 1.09088900845312
vertex 12.145 14.2595 1.05
vertex 12.145 15.7595 1.05
endloop
endfacet
facet normal 0.258819045102521 1.04569367343656e-031 0.965925826289068
outer loop
vertex 11.834417145877 14.2595 1.09088900845312
vertex 11.545 15.7595 1.21076951545867
vertex 11.545 14.2595 1.21076951545867
endloop
endfacet
facet normal 0.500000000000001 8.83798957313262e-032 0.866025403784438
outer loop
vertex 11.545 15.7595 1.21076951545867
vertex 11.834417145877 14.2595 1.09088900845312
vertex 11.834417145877 15.7595 1.09088900845312
endloop
endfacet
facet normal -0.707106781186547 1.55479556829345e-018 -0.707106781186548
outer loop
vertex 12.9935281374239 15.7595 3.09852813742386
vertex 12.745 14.2595 3.28923048454133
vertex 12.745 15.7595 3.28923048454133
endloop
endfacet
facet normal -0.5 1.55479556829231e-018 -0.866025403784438
outer loop
vertex 12.745 14.2595 3.28923048454133
vertex 12.9935281374239 15.7595 3.09852813742386
vertex 12.9935281374239 14.2595 3.09852813742386
endloop
endfacet
facet normal -0.5 1.55479556829231e-018 -0.866025403784438
outer loop
vertex 12.745 15.7595 3.28923048454133
vertex 12.455582854123 14.2595 3.40911099154688
vertex 12.455582854123 15.7595 3.40911099154688
endloop
endfacet
facet normal -0.258819045102521 3.25464116307367e-031 -0.965925826289068
outer loop
vertex 12.455582854123 14.2595 3.40911099154688
vertex 12.745 15.7595 3.28923048454133
vertex 12.745 14.2595 3.28923048454133
endloop
endfacet
facet normal -0.965925826289069 3.79629879700598e-018 0.25881904510252
outer loop
vertex 13.3041109915469 15.7595 1.93941714587697
vertex 13.1842304845413 14.2595 1.65
vertex 13.3041109915469 14.2595 1.93941714587697
endloop
endfacet
facet normal -0.866025403784439 3.31054610700861e-018 0.5
outer loop
vertex 13.1842304845413 14.2595 1.65
vertex 13.3041109915469 15.7595 1.93941714587697
vertex 13.1842304845413 15.7595 1.65
endloop
endfacet
facet normal 1.88059117450728e-031 1.0 -8.474405022768e-032
outer loop
vertex 8.33398051533947 15.7595 1.07323911001081e-016
vertex 14.1859902576697 15.7595 0.659009742330268
vertex 13.5269805153395 15.7595 0.0
endloop
endfacet
facet normal 1.88059117450728e-031 1.0 -8.474405022768e-032
outer loop
vertex 14.1859902576697 15.7595 0.659009742330268
vertex 8.33398051533947 15.7595 1.07323911001081e-016
vertex 8.99299025766973 15.7595 0.659009742330267
endloop
endfacet
facet normal 1.88059117450728e-031 1.0 -8.474405022768e-032
outer loop
vertex 14.1859902576697 15.7595 0.659009742330268
vertex 8.99299025766973 15.7595 0.659009742330267
vertex 9.35055715851499 15.7595 1.125
endloop
endfacet
facet normal 1.88059117450728e-031 1.0 -8.474405022768e-032
outer loop
vertex 14.1859902576697 15.7595 0.659009742330268
vertex 9.35055715851499 15.7595 1.125
vertex 12.145 15.7595 1.05
endloop
endfacet
facet normal 1.88059117450728e-031 1.0 -8.474405022768e-032
outer loop
vertex 12.145 15.7595 1.05
vertex 9.35055715851499 15.7595 1.125
vertex 11.834417145877 15.7595 1.09088900845312
endloop
endfacet
facet normal 1.88059117450728e-031 1.0 -8.474405022768e-032
outer loop
vertex 11.834417145877 15.7595 1.09088900845312
vertex 9.35055715851499 15.7595 1.125
vertex 11.545 15.7595 1.21076951545867
endloop
endfacet
facet normal 1.88059117450728e-031 1.0 -8.474405022768e-032
outer loop
vertex 11.545 15.7595 1.21076951545867
vertex 9.35055715851499 15.7595 1.125
vertex 9.57533310915041 15.7595 1.66765714851933
endloop
endfacet
facet normal 1.88059117450728e-031 1.0 -8.474405022768e-032
outer loop
vertex 11.545 15.7595 1.21076951545867
vertex 9.57533310915041 15.7595 1.66765714851933
vertex 11.2964718625761 15.7595 1.40147186257614
endloop
endfacet
facet normal 1.88059117450728e-031 1.0 -8.474405022768e-032
outer loop
vertex 11.2964718625761 15.7595 1.40147186257614
vertex 9.57533310915041 15.7595 1.66765714851933
vertex 11.1057695154587 15.7595 1.65
endloop
endfacet
facet normal 1.88059117450728e-031 1.0 -8.474405022768e-032
outer loop
vertex 11.1057695154587 15.7595 1.65
vertex 9.57533310915041 15.7595 1.66765714851933
vertex 10.9858890084531 15.7595 1.93941714587698
endloop
endfacet
facet normal 1.88059117450728e-031 1.0 -8.474405022768e-032
outer loop
vertex 10.9858890084531 15.7595 1.93941714587698
vertex 9.57533310915041 15.7595 1.66765714851933
vertex 9.652 15.7595 2.25
endloop
endfacet
facet normal 1.88059117450728e-031 1.0 -8.474405022768e-032
outer loop
vertex 10.9858890084531 15.7595 1.93941714587698
vertex 9.652 15.7595 2.25
vertex 10.945 15.7595 2.25
endloop
endfacet
facet normal 1.88059117450728e-031 1.0 -8.474405022768e-032
outer loop
vertex 10.945 15.7595 2.25
vertex 9.652 15.7595 2.25
vertex 9.57533310915041 15.7595 2.83234285148067
endloop
endfacet
facet normal 1.88059117450728e-031 1.0 -8.474405022768e-032
outer loop
vertex 10.945 15.7595 2.25
vertex 9.57533310915041 15.7595 2.83234285148067
vertex 10.9858890084531 15.7595 2.56058285412303
endloop
endfacet
facet normal 1.88059117450728e-031 1.0 -8.474405022768e-032
outer loop
vertex 10.9858890084531 15.7595 2.56058285412303
vertex 9.57533310915041 15.7595 2.83234285148067
vertex 11.1057695154587 15.7595 2.85
endloop
endfacet
facet normal 1.88059117450728e-031 1.0 -8.474405022768e-032
outer loop
vertex 11.1057695154587 15.7595 2.85
vertex 9.57533310915041 15.7595 2.83234285148067
vertex 9.35055715851499 15.7595 3.375
endloop
endfacet
facet normal 1.88059117450728e-031 1.0 -8.474405022768e-032
outer loop
vertex 11.1057695154587 15.7595 2.85
vertex 9.35055715851499 15.7595 3.375
vertex 11.2964718625761 15.7595 3.09852813742386
endloop
endfacet
facet normal 1.88059117450728e-031 1.0 -8.474405022768e-032
outer loop
vertex 11.2964718625761 15.7595 3.09852813742386
vertex 9.35055715851499 15.7595 3.375
vertex 11.545 15.7595 3.28923048454133
endloop
endfacet
facet normal 1.88059117450728e-031 1.0 -8.474405022768e-032
outer loop
vertex 11.545 15.7595 3.28923048454133
vertex 9.35055715851499 15.7595 3.375
vertex 11.834417145877 15.7595 3.40911099154688
endloop
endfacet
facet normal 1.88059117450728e-031 1.0 -8.474405022768e-032
outer loop
vertex 11.834417145877 15.7595 3.40911099154688
vertex 9.35055715851499 15.7595 3.375
vertex 8.99299025766974 15.7595 3.84099025766973
endloop
endfacet
facet normal 1.88059117450728e-031 1.0 -8.474405022768e-032
outer loop
vertex 11.834417145877 15.7595 3.40911099154688
vertex 8.99299025766974 15.7595 3.84099025766973
vertex 12.145 15.7595 3.45
endloop
endfacet
facet normal 1.88059117450728e-031 1.0 -8.474405022768e-032
outer loop
vertex 12.145 15.7595 3.45
vertex 8.99299025766974 15.7595 3.84099025766973
vertex 14.1859902576697 15.7595 3.84099025766973
endloop
endfacet
facet normal 1.88059117450728e-031 1.0 -8.474405022768e-032
outer loop
vertex 14.1859902576697 15.7595 3.84099025766973
vertex 8.99299025766974 15.7595 3.84099025766973
vertex 13.5269805153395 15.7595 4.5
endloop
endfacet
facet normal 1.88059117450728e-031 1.0 -8.474405022768e-032
outer loop
vertex 13.5269805153395 15.7595 4.5
vertex 8.99299025766974 15.7595 3.84099025766973
vertex 8.33398051533947 15.7595 4.5
endloop
endfacet
facet normal 1.88059117450728e-031 1.0 -8.474405022768e-032
outer loop
vertex 12.145 15.7595 1.05
vertex 14.543557158515 15.7595 1.125
vertex 14.1859902576697 15.7595 0.659009742330268
endloop
endfacet
facet normal 1.88059117450728e-031 1.0 -8.474405022768e-032
outer loop
vertex 14.543557158515 15.7595 1.125
vertex 12.145 15.7595 1.05
vertex 12.455582854123 15.7595 1.09088900845312
endloop
endfacet
facet normal 1.88059117450728e-031 1.0 -8.474405022768e-032
outer loop
vertex 14.543557158515 15.7595 1.125
vertex 12.455582854123 15.7595 1.09088900845312
vertex 12.745 15.7595 1.21076951545867
endloop
endfacet
facet normal 1.88059117450728e-031 1.0 -8.474405022768e-032
outer loop
vertex 14.543557158515 15.7595 1.125
vertex 12.745 15.7595 1.21076951545867
vertex 14.7683331091504 15.7595 1.66765714851933
endloop
endfacet
facet normal 1.88059117450728e-031 1.0 -8.474405022768e-032
outer loop
vertex 14.7683331091504 15.7595 1.66765714851933
vertex 12.745 15.7595 1.21076951545867
vertex 12.9935281374239 15.7595 1.40147186257614
endloop
endfacet
facet normal 1.88059117450728e-031 1.0 -8.474405022768e-032
outer loop
vertex 14.7683331091504 15.7595 1.66765714851933
vertex 12.9935281374239 15.7595 1.40147186257614
vertex 13.1842304845413 15.7595 1.65
endloop
endfacet
facet normal 1.88059117450728e-031 1.0 -8.474405022768e-032
outer loop
vertex 14.7683331091504 15.7595 1.66765714851933
vertex 13.1842304845413 15.7595 1.65
vertex 13.3041109915469 15.7595 1.93941714587697
endloop
endfacet
facet normal 1.88059117450728e-031 1.0 -8.474405022768e-032
outer loop
vertex 14.7683331091504 15.7595 1.66765714851933
vertex 13.3041109915469 15.7595 1.93941714587697
vertex 14.845 15.7595 2.25
endloop
endfacet
facet normal 1.88059117450728e-031 1.0 -8.474405022768e-032
outer loop
vertex 14.845 15.7595 2.25
vertex 13.3041109915469 15.7595 1.93941714587697
vertex 13.345 15.7595 2.25
endloop
endfacet
facet normal 1.88059117450728e-031 1.0 -8.474405022768e-032
outer loop
vertex 14.845 15.7595 2.25
vertex 13.345 15.7595 2.25
vertex 13.3041109915469 15.7595 2.56058285412302
endloop
endfacet
facet normal 1.88059117450728e-031 1.0 -8.474405022768e-032
outer loop
vertex 14.845 15.7595 2.25
vertex 13.3041109915469 15.7595 2.56058285412302
vertex 14.7683331091504 15.7595 2.83234285148067
endloop
endfacet
facet normal 1.88059117450728e-031 1.0 -8.474405022768e-032
outer loop
vertex 14.7683331091504 15.7595 2.83234285148067
vertex 13.3041109915469 15.7595 2.56058285412302
vertex 13.1842304845413 15.7595 2.85
endloop
endfacet
facet normal 1.88059117450728e-031 1.0 -8.474405022768e-032
outer loop
vertex 14.7683331091504 15.7595 2.83234285148067
vertex 13.1842304845413 15.7595 2.85
vertex 14.543557158515 15.7595 3.375
endloop
endfacet
facet normal 1.88059117450728e-031 1.0 -8.474405022768e-032
outer loop
vertex 14.543557158515 15.7595 3.375
vertex 13.1842304845413 15.7595 2.85
vertex 12.9935281374239 15.7595 3.09852813742386
endloop
endfacet
facet normal 1.88059117450728e-031 1.0 -8.474405022768e-032
outer loop
vertex 14.543557158515 15.7595 3.375
vertex 12.9935281374239 15.7595 3.09852813742386
vertex 12.745 15.7595 3.28923048454133
endloop
endfacet
facet normal 1.88059117450728e-031 1.0 -8.474405022768e-032
outer loop
vertex 14.543557158515 15.7595 3.375
vertex 12.745 15.7595 3.28923048454133
vertex 12.455582854123 15.7595 3.40911099154688
endloop
endfacet
facet normal 1.88059117450728e-031 1.0 -8.474405022768e-032
outer loop
vertex 14.543557158515 15.7595 3.375
vertex 12.455582854123 15.7595 3.40911099154688
vertex 14.1859902576697 15.7595 3.84099025766973
endloop
endfacet
facet normal 1.88059117450728e-031 1.0 -8.474405022768e-032
outer loop
vertex 14.1859902576697 15.7595 3.84099025766973
vertex 12.455582854123 15.7595 3.40911099154688
vertex 12.145 15.7595 3.45
endloop
endfacet
facet normal 0.866025403784439 -1.81059778768339e-018 -0.499999999999999
outer loop
vertex 11.1057695154587 15.7595 2.85
vertex 11.2964718625761 14.2595 3.09852813742386
vertex 11.1057695154587 14.2595 2.85
endloop
endfacet
facet normal 0.707106781186547 5.42530233515305e-031 -0.707106781186548
outer loop
vertex 11.2964718625761 14.2595 3.09852813742386
vertex 11.1057695154587 15.7595 2.85
vertex 11.2964718625761 15.7595 3.09852813742386
endloop
endfacet
facet normal -0.707106781186547 1.55479556829345e-018 -0.707106781186548
outer loop
vertex 12.9935281374239 15.7595 3.09852813742386
vertex 13.1842304845413 14.2595 2.85
vertex 12.9935281374239 14.2595 3.09852813742386
endloop
endfacet
facet normal -0.866025403784439 1.81059778768454e-018 -0.499999999999999
outer loop
vertex 13.1842304845413 14.2595 2.85
vertex 12.9935281374239 15.7595 3.09852813742386
vertex 13.1842304845413 15.7595 2.85
endloop
endfacet
facet normal 0.866025403784438 -1.81059778768287e-018 0.500000000000001
outer loop
vertex 11.1057695154587 15.7595 1.65
vertex 10.9858890084531 14.2595 1.93941714587698
vertex 11.1057695154587 14.2595 1.65
endloop
endfacet
facet normal 0.965925826289068 -1.81059778768507e-018 0.25881904510252
outer loop
vertex 10.9858890084531 14.2595 1.93941714587698
vertex 11.1057695154587 15.7595 1.65
vertex 10.9858890084531 15.7595 1.93941714587698
endloop
endfacet
facet normal 1.0 -8.54497650449827e-031 -2.0139108364162e-015
outer loop
vertex 10.945 15.7595 2.25
vertex 10.9858890084531 14.2595 2.56058285412303
vertex 10.945 14.2595 2.25
endloop
endfacet
facet normal 0.965925826289069 -1.81059778768339e-018 -0.25881904510252
outer loop
vertex 10.9858890084531 14.2595 2.56058285412303
vertex 10.945 15.7595 2.25
vertex 10.9858890084531 15.7595 2.56058285412303
endloop
endfacet
facet normal 0.0 -1.0 0.0
outer loop
vertex 2.3902066306913 14.2236263805146 2.41687329735796
vertex 2.05646003597539 14.2236263805146 2.41687329735796
vertex 2.22333333333333 14.2236263805146 2.25
endloop
endfacet
facet normal 0.0 -1.0 0.0
outer loop
vertex 2.05646003597539 14.2236263805146 2.41687329735796
vertex 2.3902066306913 14.2236263805146 2.41687329735796
vertex 2.22333333333333 14.2236263805146 2.48599448032154
endloop
endfacet
facet normal -0.319211124401108 -0.551554486729166 -0.770643825789519
outer loop
vertex 2.22333333333333 15.85 0.850000000000002
vertex 2.05646003597539 14.2236263805146 2.08312670264204
vertex 1.23338383967218 15.85 1.26005050633883
endloop
endfacet
facet normal -0.319211124401108 -0.551554486729166 -0.770643825789519
outer loop
vertex 2.05646003597539 14.2236263805146 2.08312670264204
vertex 2.22333333333333 15.85 0.850000000000002
vertex 2.22333333333333 14.2236263805146 2.01400551967846
endloop
endfacet
facet normal -0.319211124401108 -0.551554486729166 0.770643825789519
outer loop
vertex 2.05646003597539 14.2236263805146 2.41687329735796
vertex 2.22333333333333 15.85 3.65
vertex 1.23338383967218 15.85 3.23994949366117
endloop
endfacet
facet normal -0.319211124401108 -0.551554486729166 0.770643825789519
outer loop
vertex 2.22333333333333 15.85 3.65
vertex 2.05646003597539 14.2236263805146 2.41687329735796
vertex 2.22333333333333 14.2236263805146 2.48599448032154
endloop
endfacet
facet normal 0.770643825789521 -0.551554486729165 -0.319211124401106
outer loop
vertex 3.21328282699451 15.85 1.26005050633883
vertex 2.45932781365488 14.2236263805146 2.25
vertex 2.3902066306913 14.2236263805146 2.08312670264204
endloop
endfacet
facet normal 0.770643825789521 -0.551554486729165 -0.319211124401106
outer loop
vertex 2.45932781365488 14.2236263805146 2.25
vertex 3.21328282699451 15.85 1.26005050633883
vertex 3.62333333333334 15.85 2.25
endloop
endfacet
facet normal 0.0 -1.0 0.0
outer loop
vertex 2.22333333333333 14.2236263805146 2.25
vertex 2.3902066306913 14.2236263805146 2.08312670264204
vertex 2.45932781365488 14.2236263805146 2.25
endloop
endfacet
facet normal 0.0 -1.0 0.0
outer loop
vertex 2.3902066306913 14.2236263805146 2.41687329735796
vertex 2.22333333333333 14.2236263805146 2.25
vertex 2.45932781365488 14.2236263805146 2.25
endloop
endfacet
facet normal 0.319211124401103 -0.551554486729166 0.770643825789521
outer loop
vertex 2.3902066306913 14.2236263805146 2.41687329735796
vertex 2.22333333333333 15.85 3.65
vertex 2.22333333333333 14.2236263805146 2.48599448032154
endloop
endfacet
facet normal 0.319211124401103 -0.551554486729166 0.770643825789521
outer loop
vertex 2.22333333333333 15.85 3.65
vertex 2.3902066306913 14.2236263805146 2.41687329735796
vertex 3.21328282699451 15.85 3.23994949366117
endloop
endfacet
facet normal -0.770643825789519 -0.551554486729165 -0.31921112440111
outer loop
vertex 0.823333333333342 15.85 2.25
vertex 2.05646003597539 14.2236263805146 2.08312670264204
vertex 1.9873388530118 14.2236263805146 2.25
endloop
endfacet
facet normal -0.770643825789519 -0.551554486729165 -0.31921112440111
outer loop
vertex 2.05646003597539 14.2236263805146 2.08312670264204
vertex 0.823333333333342 15.85 2.25
vertex 1.23338383967218 15.85 1.26005050633883
endloop
endfacet
facet normal -0.770643825789519 -0.551554486729165 0.319211124401109
outer loop
vertex 1.23338383967218 15.85 3.23994949366117
vertex 1.9873388530118 14.2236263805146 2.25
vertex 2.05646003597539 14.2236263805146 2.41687329735796
endloop
endfacet
facet normal -0.770643825789519 -0.551554486729165 0.319211124401109
outer loop
vertex 1.9873388530118 14.2236263805146 2.25
vertex 1.23338383967218 15.85 3.23994949366117
vertex 0.823333333333342 15.85 2.25
endloop
endfacet
facet normal 0.319211124401103 -0.551554486729166 -0.770643825789521
outer loop
vertex 3.21328282699451 15.85 1.26005050633883
vertex 2.22333333333333 14.2236263805146 2.01400551967846
vertex 2.22333333333333 15.85 0.850000000000002
endloop
endfacet
facet normal 0.319211124401103 -0.551554486729166 -0.770643825789521
outer loop
vertex 2.22333333333333 14.2236263805146 2.01400551967846
vertex 3.21328282699451 15.85 1.26005050633883
vertex 2.3902066306913 14.2236263805146 2.08312670264204
endloop
endfacet
facet normal 0.770643825789521 -0.551554486729165 0.319211124401106
outer loop
vertex 3.62333333333334 15.85 2.25
vertex 2.3902066306913 14.2236263805146 2.41687329735796
vertex 2.45932781365488 14.2236263805146 2.25
endloop
endfacet
facet normal 0.770643825789521 -0.551554486729165 0.319211124401106
outer loop
vertex 2.3902066306913 14.2236263805146 2.41687329735796
vertex 3.62333333333334 15.85 2.25
vertex 3.21328282699451 15.85 3.23994949366117
endloop
endfacet
facet normal 0.0 -1.0 0.0
outer loop
vertex 1.9873388530118 14.2236263805146 2.25
vertex 2.05646003597539 14.2236263805146 2.08312670264204
vertex 2.22333333333333 14.2236263805146 2.25
endloop
endfacet
facet normal 0.0 -1.0 0.0
outer loop
vertex 2.05646003597539 14.2236263805146 2.41687329735796
vertex 1.9873388530118 14.2236263805146 2.25
vertex 2.22333333333333 14.2236263805146 2.25
endloop
endfacet
facet normal 0.0 -1.0 0.0
outer loop
vertex 2.3902066306913 14.2236263805146 2.08312670264204
vertex 2.05646003597539 14.2236263805146 2.08312670264204
vertex 2.22333333333333 14.2236263805146 2.01400551967846
endloop
endfacet
facet normal 0.0 -1.0 0.0
outer loop
vertex 2.05646003597539 14.2236263805146 2.08312670264204
vertex 2.3902066306913 14.2236263805146 2.08312670264204
vertex 2.22333333333333 14.2236263805146 2.25
endloop
endfacet
facet normal -0.732678951487156 0.195381053729909 0.651926221202271
outer loop
vertex 1.67500974233027 19.76 3.84099025766973
vertex 0.274776174818343 15.85 3.375
vertex 0.632343075663598 15.85 3.84099025766973
endloop
endfacet
facet normal -0.848602466908575 0.226293991175621 0.478189170427865
outer loop
vertex 0.274776174818343 15.85 3.375
vertex 1.67500974233027 19.76 3.84099025766973
vertex 1.31744284148501 19.76 3.375
endloop
endfacet
facet normal -0.958510901559872 0.255602907082633 0.126190354155098
outer loop
vertex 1.0926668908496 19.76 2.83234285148067
vertex -0.0266666666666668 15.85 2.25
vertex 0.0500002241829264 15.85 2.83234285148067
endloop
endfacet
facet normal -0.958510901559872 0.255602907082633 0.126190354155098
outer loop
vertex -0.0266666666666668 15.85 2.25
vertex 1.0926668908496 19.76 2.83234285148067
vertex 1.016 19.76 2.25
endloop
endfacet
facet normal 0.0 1.0 0.0
outer loop
vertex 2.05405944251018 5.5363736194854 2.41687329735796
vertex 2.3878060372261 5.5363736194854 2.41687329735796
vertex 2.22093273986813 5.5363736194854 2.25
endloop
endfacet
facet normal 0.0 1.0 0.0
outer loop
vertex 2.3878060372261 5.5363736194854 2.41687329735796
vertex 2.05405944251018 5.5363736194854 2.41687329735796
vertex 2.22093273986813 5.5363736194854 2.48599448032154
endloop
endfacet
facet normal -0.319211124401106 0.551554486729166 -0.77064382578952
outer loop
vertex 2.05405944251018 5.5363736194854 2.08312670264204
vertex 2.22093273986813 3.91 0.850000000000001
vertex 1.23098324620697 3.91 1.26005050633883
endloop
endfacet
facet normal -0.319211124401106 0.551554486729166 -0.77064382578952
outer loop
vertex 2.22093273986813 3.91 0.850000000000001
vertex 2.05405944251018 5.5363736194854 2.08312670264204
vertex 2.22093273986813 5.5363736194854 2.01400551967846
endloop
endfacet
facet normal -0.319211124401107 0.551554486729166 0.770643825789519
outer loop
vertex 2.22093273986813 3.91 3.65
vertex 2.05405944251018 5.5363736194854 2.41687329735796
vertex 1.23098324620697 3.91 3.23994949366117
endloop
endfacet
facet normal -0.319211124401107 0.551554486729166 0.770643825789519
outer loop
vertex 2.05405944251018 5.5363736194854 2.41687329735796
vertex 2.22093273986813 3.91 3.65
vertex 2.22093273986813 5.5363736194854 2.48599448032154
endloop
endfacet
facet normal 0.770643825789523 0.551554486729165 -0.319211124401102
outer loop
vertex 2.3878060372261 5.5363736194854 2.08312670264204
vertex 3.62093273986813 3.91 2.25
vertex 3.21088223352931 3.91 1.26005050633883
endloop
endfacet
facet normal 0.770643825789523 0.551554486729165 -0.319211124401102
outer loop
vertex 3.62093273986813 3.91 2.25
vertex 2.3878060372261 5.5363736194854 2.08312670264204
vertex 2.45692722018969 5.5363736194854 2.25
endloop
endfacet
facet normal 0.0 1.0 0.0
outer loop
vertex 2.45692722018969 5.5363736194854 2.25
vertex 2.3878060372261 5.5363736194854 2.08312670264204
vertex 2.22093273986813 5.5363736194854 2.25
endloop
endfacet
facet normal 0.0 1.0 0.0
outer loop
vertex 2.3878060372261 5.5363736194854 2.41687329735796
vertex 2.45692722018969 5.5363736194854 2.25
vertex 2.22093273986813 5.5363736194854 2.25
endloop
endfacet
facet normal 0.319211124401103 0.551554486729166 0.770643825789521
outer loop
vertex 3.21088223352931 3.91 3.23994949366117
vertex 2.22093273986813 5.5363736194854 2.48599448032154
vertex 2.22093273986813 3.91 3.65
endloop
endfacet
facet normal 0.319211124401103 0.551554486729166 0.770643825789521
outer loop
vertex 2.22093273986813 5.5363736194854 2.48599448032154
vertex 3.21088223352931 3.91 3.23994949366117
vertex 2.3878060372261 5.5363736194854 2.41687329735796
endloop
endfacet
facet normal -0.770643825789519 0.551554486729166 -0.319211124401109
outer loop
vertex 1.9849382595466 5.5363736194854 2.25
vertex 1.23098324620697 3.91 1.26005050633883
vertex 0.820932739868137 3.91 2.25
endloop
endfacet
facet normal -0.770643825789519 0.551554486729166 -0.319211124401109
outer loop
vertex 1.23098324620697 3.91 1.26005050633883
vertex 1.9849382595466 5.5363736194854 2.25
vertex 2.05405944251018 5.5363736194854 2.08312670264204
endloop
endfacet
facet normal -0.770643825789519 0.551554486729166 0.319211124401109
outer loop
vertex 2.05405944251018 5.5363736194854 2.41687329735796
vertex 0.820932739868137 3.91 2.25
vertex 1.23098324620697 3.91 3.23994949366117
endloop
endfacet
facet normal -0.770643825789519 0.551554486729166 0.319211124401109
outer loop
vertex 0.820932739868137 3.91 2.25
vertex 2.05405944251018 5.5363736194854 2.41687329735796
vertex 1.9849382595466 5.5363736194854 2.25
endloop
endfacet
facet normal 0.319211124401102 0.551554486729166 -0.770643825789521
outer loop
vertex 2.3878060372261 5.5363736194854 2.08312670264204
vertex 2.22093273986813 3.91 0.850000000000001
vertex 2.22093273986813 5.5363736194854 2.01400551967846
endloop
endfacet
facet normal 0.319211124401102 0.551554486729166 -0.770643825789521
outer loop
vertex 2.22093273986813 3.91 0.850000000000001
vertex 2.3878060372261 5.5363736194854 2.08312670264204
vertex 3.21088223352931 3.91 1.26005050633883
endloop
endfacet
facet normal 0.770643825789523 0.551554486729165 0.319211124401102
outer loop
vertex 2.45692722018969 5.5363736194854 2.25
vertex 3.21088223352931 3.91 3.23994949366117
vertex 3.62093273986813 3.91 2.25
endloop
endfacet
facet normal 0.770643825789523 0.551554486729165 0.319211124401102
outer loop
vertex 3.21088223352931 3.91 3.23994949366117
vertex 2.45692722018969 5.5363736194854 2.25
vertex 2.3878060372261 5.5363736194854 2.41687329735796
endloop
endfacet
facet normal 0.0 1.0 0.0
outer loop
vertex 2.22093273986813 5.5363736194854 2.25
vertex 2.05405944251018 5.5363736194854 2.08312670264204
vertex 1.9849382595466 5.5363736194854 2.25
endloop
endfacet
facet normal 0.0 1.0 0.0
outer loop
vertex 2.05405944251018 5.5363736194854 2.41687329735796
vertex 2.22093273986813 5.5363736194854 2.25
vertex 1.9849382595466 5.5363736194854 2.25
endloop
endfacet
facet normal 0.0 1.0 0.0
outer loop
vertex 2.05405944251018 5.5363736194854 2.08312670264204
vertex 2.3878060372261 5.5363736194854 2.08312670264204
vertex 2.22093273986813 5.5363736194854 2.01400551967846
endloop
endfacet
facet normal 0.0 1.0 0.0
outer loop
vertex 2.3878060372261 5.5363736194854 2.08312670264204
vertex 2.05405944251018 5.5363736194854 2.08312670264204
vertex 2.22093273986813 5.5363736194854 2.25
endloop
endfacet
facet normal -9.30289088807705e-017 -1.0 -1.60600076429085e-016
outer loop
vertex 9.34998051533947 -5.90384195190115e-019 2.29122276707017e-015
vertex 1.67500974233027 2.8199664825479e-015 0.659009742330267
vertex 2.33401948466054 -1.3769428370768e-015 -1.76247905159244e-015
endloop
endfacet
facet normal -9.30289088807705e-017 -1.0 -1.60600076429085e-016
outer loop
vertex 1.67500974233027 2.8199664825479e-015 0.659009742330267
vertex 9.34998051533947 -5.90384195190115e-019 2.29122276707017e-015
vertex 10.0089902576697 0.0 0.659009742330269
endloop
endfacet
facet normal -9.30289088807705e-017 -1.0 -1.60600076429085e-016
outer loop
vertex 1.67500974233027 2.8199664825479e-015 0.659009742330267
vertex 10.0089902576697 0.0 0.659009742330269
vertex 1.31744284148502 2.8199664825479e-015 1.125
endloop
endfacet
facet normal -9.30289088807705e-017 -1.0 -1.60600076429085e-016
outer loop
vertex 1.31744284148502 2.8199664825479e-015 1.125
vertex 10.0089902576697 0.0 0.659009742330269
vertex 10.366557158515 0.0 1.125
endloop
endfacet
facet normal -9.30289088807705e-017 -1.0 -1.60600076429085e-016
outer loop
vertex 1.31744284148502 2.8199664825479e-015 1.125
vertex 10.366557158515 0.0 1.125
vertex 1.0926668908496 2.8199664825479e-015 1.66765714851933
endloop
endfacet
facet normal -9.30289088807705e-017 -1.0 -1.60600076429085e-016
outer loop
vertex 1.0926668908496 2.8199664825479e-015 1.66765714851933
vertex 10.366557158515 0.0 1.125
vertex 10.5913331091504 0.0 1.66765714851933
endloop
endfacet
facet normal -9.30289088807705e-017 -1.0 -1.60600076429085e-016
outer loop
vertex 1.0926668908496 2.8199664825479e-015 1.66765714851933
vertex 10.5913331091504 0.0 1.66765714851933
vertex 10.668 0.0 2.25
endloop
endfacet
facet normal -9.30289088807705e-017 -1.0 -1.60600076429085e-016
outer loop
vertex 1.0926668908496 2.8199664825479e-015 1.66765714851933
vertex 10.668 0.0 2.25
vertex 1.016 0.0 2.25
endloop
endfacet
facet normal -9.30289088807705e-017 -1.0 -1.60600076429085e-016
outer loop
vertex 1.016 0.0 2.25
vertex 10.668 0.0 2.25
vertex 1.0926668908496 0.0 2.83234285148067
endloop
endfacet
facet normal -9.30289088807705e-017 -1.0 -1.60600076429085e-016
outer loop
vertex 1.0926668908496 0.0 2.83234285148067
vertex 10.668 0.0 2.25
vertex 10.5913331091504 0.0 2.83234285148067
endloop
endfacet
facet normal -9.30289088807705e-017 -1.0 -1.60600076429085e-016
outer loop
vertex 1.0926668908496 0.0 2.83234285148067
vertex 10.5913331091504 0.0 2.83234285148067
vertex 1.31744284148501 0.0 3.375
endloop
endfacet
facet normal -9.30289088807705e-017 -1.0 -1.60600076429085e-016
outer loop
vertex 1.31744284148501 0.0 3.375
vertex 10.5913331091504 0.0 2.83234285148067
vertex 10.366557158515 0.0 3.375
endloop
endfacet
facet normal -9.30289088807705e-017 -1.0 -1.60600076429085e-016
outer loop
vertex 1.31744284148501 0.0 3.375
vertex 10.366557158515 0.0 3.375
vertex 1.67500974233027 0.0 3.84099025766973
endloop
endfacet
facet normal -9.30289088807705e-017 -1.0 -1.60600076429085e-016
outer loop
vertex 1.67500974233027 0.0 3.84099025766973
vertex 10.366557158515 0.0 3.375
vertex 10.0089902576697 0.0 3.84099025766973
endloop
endfacet
facet normal -9.30289088807705e-017 -1.0 -1.60600076429085e-016
outer loop
vertex 1.67500974233027 0.0 3.84099025766973
vertex 10.0089902576697 0.0 3.84099025766973
vertex 2.33401948466054 -4.20393891676897e-016 4.5
endloop
endfacet
facet normal -9.30289088807705e-017 -1.0 -1.60600076429085e-016
outer loop
vertex 2.33401948466054 -4.20393891676897e-016 4.5
vertex 10.0089902576697 0.0 3.84099025766973
vertex 9.34998051533947 5.44898595627828e-017 4.5
endloop
endfacet
facet normal -1.41669774716615e-016 1.0 4.25235540283031e-016
outer loop
vertex 1.67500974233027 19.76 0.659009742330267
vertex 9.34998051533947 19.76 -1.27779731240452e-015
vertex 2.33401948466054 19.76 -1.27779731240452e-015
endloop
endfacet
facet normal -1.41669774716615e-016 1.0 4.25235540283031e-016
outer loop
vertex 9.34998051533947 19.76 -1.27779731240452e-015
vertex 1.67500974233027 19.76 0.659009742330267
vertex 10.0089902576697 19.76 0.659009742330267
endloop
endfacet
facet normal -1.41669774716615e-016 1.0 4.25235540283031e-016
outer loop
vertex 10.0089902576697 19.76 0.659009742330267
vertex 1.67500974233027 19.76 0.659009742330267
vertex 1.31744284148502 19.76 1.125
endloop
endfacet
facet normal -1.41669774716615e-016 1.0 4.25235540283031e-016
outer loop
vertex 10.0089902576697 19.76 0.659009742330267
vertex 1.31744284148502 19.76 1.125
vertex 10.366557158515 19.76 1.125
endloop
endfacet
facet normal -1.41669774716615e-016 1.0 4.25235540283031e-016
outer loop
vertex 10.366557158515 19.76 1.125
vertex 1.31744284148502 19.76 1.125
vertex 1.0926668908496 19.76 1.66765714851933
endloop
endfacet
facet normal -1.41669774716615e-016 1.0 4.25235540283031e-016
outer loop
vertex 10.366557158515 19.76 1.125
vertex 1.0926668908496 19.76 1.66765714851933
vertex 10.5913331091504 19.76 1.66765714851933
endloop
endfacet
facet normal -1.41669774716615e-016 1.0 4.25235540283031e-016
outer loop
vertex 10.5913331091504 19.76 1.66765714851933
vertex 1.0926668908496 19.76 1.66765714851933
vertex 1.016 19.76 2.25
endloop
endfacet
facet normal -1.41669774716615e-016 1.0 4.25235540283031e-016
outer loop
vertex 10.5913331091504 19.76 1.66765714851933
vertex 1.016 19.76 2.25
vertex 10.668 19.76 2.25
endloop
endfacet
facet normal -1.41669774716615e-016 1.0 4.25235540283031e-016
outer loop
vertex 10.668 19.76 2.25
vertex 1.016 19.76 2.25
vertex 1.0926668908496 19.76 2.83234285148067
endloop
endfacet
facet normal -1.41669774716615e-016 1.0 4.25235540283031e-016
outer loop
vertex 10.668 19.76 2.25
vertex 1.0926668908496 19.76 2.83234285148067
vertex 10.5913331091504 19.76 2.83234285148067
endloop
endfacet
facet normal -1.41669774716615e-016 1.0 4.25235540283031e-016
outer loop
vertex 10.5913331091504 19.76 2.83234285148067
vertex 1.0926668908496 19.76 2.83234285148067
vertex 1.31744284148501 19.76 3.375
endloop
endfacet
facet normal -1.41669774716615e-016 1.0 4.25235540283031e-016
outer loop
vertex 10.5913331091504 19.76 2.83234285148067
vertex 1.31744284148501 19.76 3.375
vertex 10.366557158515 19.76 3.375
endloop
endfacet
facet normal -1.41669774716615e-016 1.0 4.25235540283031e-016
outer loop
vertex 10.366557158515 19.76 3.375
vertex 1.31744284148501 19.76 3.375
vertex 1.67500974233027 19.76 3.84099025766973
endloop
endfacet
facet normal -1.41669774716615e-016 1.0 4.25235540283031e-016
outer loop
vertex 10.366557158515 19.76 3.375
vertex 1.67500974233027 19.76 3.84099025766973
vertex 10.0089902576697 19.76 3.84099025766973
endloop
endfacet
facet normal -1.41669774716615e-016 1.0 4.25235540283031e-016
outer loop
vertex 10.0089902576697 19.76 3.84099025766973
vertex 1.67500974233027 19.76 3.84099025766973
vertex 2.33401948466054 19.76 4.5
endloop
endfacet
facet normal -1.41669774716615e-016 1.0 4.25235540283031e-016
outer loop
vertex 10.0089902576697 19.76 3.84099025766973
vertex 2.33401948466054 19.76 4.5
vertex 9.34998051533947 19.76 4.5
endloop
endfacet
facet normal -0.694861581918119 0.185296421844832 0.694861581918119
outer loop
vertex 1.29135281799387 15.85 4.5
vertex 1.67500974233027 19.76 3.84099025766973
vertex 0.632343075663598 15.85 3.84099025766973
endloop
endfacet
facet normal -0.732678951487156 0.195381053729909 0.651926221202271
outer loop
vertex 1.67500974233027 19.76 3.84099025766973
vertex 1.29135281799387 15.85 4.5
vertex 2.33401948466054 19.76 4.5
endloop
endfacet
facet normal 0.738415271164648 -0.187534037121181 0.647745221697444
outer loop
vertex 9.03292078880265 15.9167264663358 3.84099025766973
vertex 8.33398051533947 15.7595 4.5
vertex 8.99299025766974 15.7595 3.84099025766973
endloop
endfacet
facet normal 0.695973285238859 -0.176755120060663 0.695973285238859
outer loop
vertex 8.33398051533947 15.7595 4.5
vertex 9.03292078880265 15.9167264663358 3.84099025766973
vertex 9.34998051533947 19.76 4.5
endloop
endfacet
facet normal 0.695973285238859 -0.176755120060663 0.695973285238859
outer loop
vertex 9.34998051533947 19.76 4.5
vertex 9.03292078880265 15.9167264663358 3.84099025766973
vertex 10.0089902576697 19.76 3.84099025766973
endloop
endfacet
facet normal 3.97117171005207e-017 -1.0 -2.9539353220019e-016
outer loop
vertex 14.543557158515 4.0005 1.125
vertex 12.145 4.0005 1.05
vertex 14.1859902576697 4.0005 0.659009742330268
endloop
endfacet
facet normal 3.97117171005207e-017 -1.0 -2.9539353220019e-016
outer loop
vertex 12.145 4.0005 1.05
vertex 14.543557158515 4.0005 1.125
vertex 12.455582854123 4.0005 1.09088900845312
endloop
endfacet
facet normal 3.97117171005207e-017 -1.0 -2.9539353220019e-016
outer loop
vertex 12.455582854123 4.0005 1.09088900845312
vertex 14.543557158515 4.0005 1.125
vertex 12.745 4.0005 1.21076951545867
endloop
endfacet
facet normal 3.97117171005207e-017 -1.0 -2.9539353220019e-016
outer loop
vertex 12.745 4.0005 1.21076951545867
vertex 14.543557158515 4.0005 1.125
vertex 14.7683331091504 4.0005 1.66765714851933
endloop
endfacet
facet normal 3.97117171005207e-017 -1.0 -2.9539353220019e-016
outer loop
vertex 12.745 4.0005 1.21076951545867
vertex 14.7683331091504 4.0005 1.66765714851933
vertex 12.9935281374239 4.0005 1.40147186257614
endloop
endfacet
facet normal 3.97117171005207e-017 -1.0 -2.9539353220019e-016
outer loop
vertex 12.9935281374239 4.0005 1.40147186257614
vertex 14.7683331091504 4.0005 1.66765714851933
vertex 13.1842304845413 4.0005 1.65
endloop
endfacet
facet normal 3.97117171005207e-017 -1.0 -2.9539353220019e-016
outer loop
vertex 13.1842304845413 4.0005 1.65
vertex 14.7683331091504 4.0005 1.66765714851933
vertex 13.3041109915469 4.0005 1.93941714587698
endloop
endfacet
facet normal 3.97117171005207e-017 -1.0 -2.9539353220019e-016
outer loop
vertex 13.3041109915469 4.0005 1.93941714587698
vertex 14.7683331091504 4.0005 1.66765714851933
vertex 14.845 4.0005 2.25
endloop
endfacet
facet normal 3.97117171005207e-017 -1.0 -2.9539353220019e-016
outer loop
vertex 13.3041109915469 4.0005 1.93941714587698
vertex 14.845 4.0005 2.25
vertex 13.345 4.0005 2.25
endloop
endfacet
facet normal 3.97117171005207e-017 -1.0 -2.9539353220019e-016
outer loop
vertex 13.345 4.0005 2.25
vertex 14.845 4.0005 2.25
vertex 14.7683331091504 4.0005 2.83234285148067
endloop
endfacet
facet normal 3.97117171005207e-017 -1.0 -2.9539353220019e-016
outer loop
vertex 13.345 4.0005 2.25
vertex 14.7683331091504 4.0005 2.83234285148067
vertex 13.3041109915469 4.0005 2.56058285412303
endloop
endfacet
facet normal 3.97117171005207e-017 -1.0 -2.9539353220019e-016
outer loop
vertex 13.3041109915469 4.0005 2.56058285412303
vertex 14.7683331091504 4.0005 2.83234285148067
vertex 13.1842304845413 4.0005 2.85
endloop
endfacet
facet normal 3.97117171005207e-017 -1.0 -2.9539353220019e-016
outer loop
vertex 13.1842304845413 4.0005 2.85
vertex 14.7683331091504 4.0005 2.83234285148067
vertex 14.543557158515 4.0005 3.375
endloop
endfacet
facet normal 3.97117171005207e-017 -1.0 -2.9539353220019e-016
outer loop
vertex 13.1842304845413 4.0005 2.85
vertex 14.543557158515 4.0005 3.375
vertex 12.9935281374239 4.0005 3.09852813742386
endloop
endfacet
facet normal 3.97117171005207e-017 -1.0 -2.9539353220019e-016
outer loop
vertex 12.9935281374239 4.0005 3.09852813742386
vertex 14.543557158515 4.0005 3.375
vertex 12.745 4.0005 3.28923048454133
endloop
endfacet
facet normal 3.97117171005207e-017 -1.0 -2.9539353220019e-016
outer loop
vertex 12.745 4.0005 3.28923048454133
vertex 14.543557158515 4.0005 3.375
vertex 12.455582854123 4.0005 3.40911099154688
endloop
endfacet
facet normal 3.97117171005207e-017 -1.0 -2.9539353220019e-016
outer loop
vertex 12.455582854123 4.0005 3.40911099154688
vertex 14.543557158515 4.0005 3.375
vertex 14.1859902576697 4.0005 3.84099025766973
endloop
endfacet
facet normal 3.97117171005207e-017 -1.0 -2.9539353220019e-016
outer loop
vertex 12.455582854123 4.0005 3.40911099154688
vertex 14.1859902576697 4.0005 3.84099025766973
vertex 12.145 4.0005 3.45
endloop
endfacet
facet normal 3.97117171005207e-017 -1.0 -2.9539353220019e-016
outer loop
vertex 14.1859902576697 4.0005 0.659009742330268
vertex 8.33398051533947 4.0005 6.32619347112704e-017
vertex 13.5269805153395 4.0005 0.0
endloop
endfacet
facet normal 3.97117171005207e-017 -1.0 -2.9539353220019e-016
outer loop
vertex 8.33398051533947 4.0005 6.32619347112704e-017
vertex 14.1859902576697 4.0005 0.659009742330268
vertex 8.99299025766973 4.0005 0.659009742330265
endloop
endfacet
facet normal 3.97117171005207e-017 -1.0 -2.9539353220019e-016
outer loop
vertex 8.99299025766973 4.0005 0.659009742330265
vertex 14.1859902576697 4.0005 0.659009742330268
vertex 9.35055715851499 4.0005 1.125
endloop
endfacet
facet normal 3.97117171005207e-017 -1.0 -2.9539353220019e-016
outer loop
vertex 9.35055715851499 4.0005 1.125
vertex 14.1859902576697 4.0005 0.659009742330268
vertex 12.145 4.0005 1.05
endloop
endfacet
facet normal 3.97117171005207e-017 -1.0 -2.9539353220019e-016
outer loop
vertex 9.35055715851499 4.0005 1.125
vertex 12.145 4.0005 1.05
vertex 11.834417145877 4.0005 1.09088900845312
endloop
endfacet
facet normal 3.97117171005207e-017 -1.0 -2.9539353220019e-016
outer loop
vertex 9.35055715851499 4.0005 1.125
vertex 11.834417145877 4.0005 1.09088900845312
vertex 11.545 4.0005 1.21076951545867
endloop
endfacet
facet normal 3.97117171005207e-017 -1.0 -2.9539353220019e-016
outer loop
vertex 9.35055715851499 4.0005 1.125
vertex 11.545 4.0005 1.21076951545867
vertex 9.57533310915041 4.0005 1.66765714851933
endloop
endfacet
facet normal 3.97117171005207e-017 -1.0 -2.9539353220019e-016
outer loop
vertex 9.57533310915041 4.0005 1.66765714851933
vertex 11.545 4.0005 1.21076951545867
vertex 11.2964718625761 4.0005 1.40147186257614
endloop
endfacet
facet normal 3.97117171005207e-017 -1.0 -2.9539353220019e-016
outer loop
vertex 9.57533310915041 4.0005 1.66765714851933
vertex 11.2964718625761 4.0005 1.40147186257614
vertex 11.1057695154587 4.0005 1.65
endloop
endfacet
facet normal 3.97117171005207e-017 -1.0 -2.9539353220019e-016
outer loop
vertex 9.57533310915041 4.0005 1.66765714851933
vertex 11.1057695154587 4.0005 1.65
vertex 10.9858890084531 4.0005 1.93941714587698
endloop
endfacet
facet normal 3.97117171005207e-017 -1.0 -2.9539353220019e-016
outer loop
vertex 9.57533310915041 4.0005 1.66765714851933
vertex 10.9858890084531 4.0005 1.93941714587698
vertex 9.652 4.0005 2.25
endloop
endfacet
facet normal 3.97117171005207e-017 -1.0 -2.9539353220019e-016
outer loop
vertex 9.652 4.0005 2.25
vertex 10.9858890084531 4.0005 1.93941714587698
vertex 10.945 4.0005 2.25
endloop
endfacet
facet normal 3.97117171005207e-017 -1.0 -2.9539353220019e-016
outer loop
vertex 9.652 4.0005 2.25
vertex 10.945 4.0005 2.25
vertex 10.9858890084531 4.0005 2.56058285412302
endloop
endfacet
facet normal 3.97117171005207e-017 -1.0 -2.9539353220019e-016
outer loop
vertex 9.652 4.0005 2.25
vertex 10.9858890084531 4.0005 2.56058285412302
vertex 9.57533310915041 4.0005 2.83234285148067
endloop
endfacet
facet normal 3.97117171005207e-017 -1.0 -2.9539353220019e-016
outer loop
vertex 9.57533310915041 4.0005 2.83234285148067
vertex 10.9858890084531 4.0005 2.56058285412302
vertex 11.1057695154587 4.0005 2.85
endloop
endfacet
facet normal 3.97117171005207e-017 -1.0 -2.9539353220019e-016
outer loop
vertex 9.57533310915041 4.0005 2.83234285148067
vertex 11.1057695154587 4.0005 2.85
vertex 9.35055715851499 4.0005 3.375
endloop
endfacet
facet normal 3.97117171005207e-017 -1.0 -2.9539353220019e-016
outer loop
vertex 9.35055715851499 4.0005 3.375
vertex 11.1057695154587 4.0005 2.85
vertex 11.2964718625761 4.0005 3.09852813742386
endloop
endfacet
facet normal 3.97117171005207e-017 -1.0 -2.9539353220019e-016
outer loop
vertex 9.35055715851499 4.0005 3.375
vertex 11.2964718625761 4.0005 3.09852813742386
vertex 11.545 4.0005 3.28923048454133
endloop
endfacet
facet normal 3.97117171005207e-017 -1.0 -2.9539353220019e-016
outer loop
vertex 9.35055715851499 4.0005 3.375
vertex 11.545 4.0005 3.28923048454133
vertex 11.834417145877 4.0005 3.40911099154688
endloop
endfacet
facet normal 3.97117171005207e-017 -1.0 -2.9539353220019e-016
outer loop
vertex 9.35055715851499 4.0005 3.375
vertex 11.834417145877 4.0005 3.40911099154688
vertex 8.99299025766973 4.0005 3.84099025766973
endloop
endfacet
facet normal 3.97117171005207e-017 -1.0 -2.9539353220019e-016
outer loop
vertex 8.99299025766973 4.0005 3.84099025766973
vertex 11.834417145877 4.0005 3.40911099154688
vertex 12.145 4.0005 3.45
endloop
endfacet
facet normal 3.97117171005207e-017 -1.0 -2.9539353220019e-016
outer loop
vertex 8.99299025766973 4.0005 3.84099025766973
vertex 12.145 4.0005 3.45
vertex 14.1859902576697 4.0005 3.84099025766973
endloop
endfacet
facet normal 3.97117171005207e-017 -1.0 -2.9539353220019e-016
outer loop
vertex 8.99299025766973 4.0005 3.84099025766973
vertex 14.1859902576697 4.0005 3.84099025766973
vertex 13.5269805153395 4.0005 4.5
endloop
endfacet
facet normal 3.97117171005207e-017 -1.0 -2.9539353220019e-016
outer loop
vertex 8.99299025766973 4.0005 3.84099025766973
vertex 13.5269805153395 4.0005 4.5
vertex 8.33398051533947 4.0005 4.5
endloop
endfacet
facet normal 0.707106781186548 0.0 0.707106781186547
outer loop
vertex 14.1859902576697 15.7595 3.84099025766973
vertex 13.5269805153395 4.0005 4.5
vertex 14.1859902576697 4.0005 3.84099025766973
endloop
endfacet
facet normal 0.707106781186548 0.0 0.707106781186547
outer loop
vertex 13.5269805153395 4.0005 4.5
vertex 14.1859902576697 15.7595 3.84099025766973
vertex 13.5269805153395 15.7595 4.5
endloop
endfacet
facet normal -5.76481481324929e-017 3.81148796195716e-017 1.0
outer loop
vertex 2.33401948466054 -4.20393891676897e-016 4.5
vertex 4.445 3.91 4.5
vertex 1.29135281799387 3.91 4.5
endloop
endfacet
facet normal -5.76481481324929e-017 3.81148796195716e-017 1.0
outer loop
vertex 4.445 3.91 4.5
vertex 2.33401948466054 -4.20393891676897e-016 4.5
vertex 9.34998051533947 5.44898595627828e-017 4.5
endloop
endfacet
facet normal -5.76481481324929e-017 3.81148796195716e-017 1.0
outer loop
vertex 4.445 3.91 4.5
vertex 9.34998051533947 5.44898595627828e-017 4.5
vertex 4.445 15.85 4.5
endloop
endfacet
facet normal -5.76481481324929e-017 3.81148796195716e-017 1.0
outer loop
vertex 4.445 15.85 4.5
vertex 9.34998051533947 5.44898595627828e-017 4.5
vertex 8.33398051533947 4.0005 4.5
endloop
endfacet
facet normal -5.76481481324929e-017 3.81148796195716e-017 1.0
outer loop
vertex 13.5269805153395 4.0005 4.5
vertex 8.33398051533947 15.7595 4.5
vertex 8.33398051533947 4.0005 4.5
endloop
endfacet
facet normal -5.76481481324929e-017 3.81148796195716e-017 1.0
outer loop
vertex 8.33398051533947 15.7595 4.5
vertex 13.5269805153395 4.0005 4.5
vertex 13.5269805153395 15.7595 4.5
endloop
endfacet
facet normal -5.76481481324929e-017 3.81148796195716e-017 1.0
outer loop
vertex 4.445 15.85 4.5
vertex 2.33401948466054 19.76 4.5
vertex 1.29135281799387 15.85 4.5
endloop
endfacet
facet normal -5.76481481324929e-017 3.81148796195716e-017 1.0
outer loop
vertex 2.33401948466054 19.76 4.5
vertex 4.445 15.85 4.5
vertex 9.34998051533947 19.76 4.5
endloop
endfacet
facet normal -5.76481481324929e-017 3.81148796195716e-017 1.0
outer loop
vertex 9.34998051533947 19.76 4.5
vertex 4.445 15.85 4.5
vertex 8.33398051533947 15.7595 4.5
endloop
endfacet
facet normal -5.76481481324929e-017 3.81148796195716e-017 1.0
outer loop
vertex 8.33398051533947 15.7595 4.5
vertex 4.445 15.85 4.5
vertex 8.33398051533947 4.0005 4.5
endloop
endfacet
facet normal 0.738415271261794 0.187534037145853 0.647745221579557
outer loop
vertex 9.03292078880264 3.84327353366416 3.84099025766973
vertex 9.34998051533947 5.44898595627828e-017 4.5
vertex 10.0089902576697 0.0 3.84099025766973
endloop
endfacet
facet normal 0.69597328523886 0.176755120060663 0.695973285238859
outer loop
vertex 9.34998051533947 5.44898595627828e-017 4.5
vertex 9.03292078880264 3.84327353366416 3.84099025766973
vertex 8.33398051533947 4.0005 4.5
endloop
endfacet
facet normal 0.69597328523886 0.176755120060663 0.695973285238859
outer loop
vertex 8.33398051533947 4.0005 4.5
vertex 9.03292078880264 3.84327353366416 3.84099025766973
vertex 8.99299025766973 4.0005 3.84099025766973
endloop
endfacet
facet normal -0.694861581918119 -0.185296421844832 0.694861581918119
outer loop
vertex 1.29135281799387 3.91 4.5
vertex 1.67500974233027 0.0 3.84099025766973
vertex 2.33401948466054 -4.20393891676897e-016 4.5
endloop
endfacet
facet normal -0.732678951487156 -0.195381053729909 0.651926221202271
outer loop
vertex 1.67500974233027 0.0 3.84099025766973
vertex 1.29135281799387 3.91 4.5
vertex 0.6323430756636 3.91 3.84099025766973
endloop
endfacet
endsolid link chain v6
