solid ascii
  facet normal 1.000000e+000 0.000000e+000 0.000000e+000
    outer loop
      vertex   -3.000000e+001 1.300000e+002 1.500000e+002
      vertex   -3.000000e+001 7.500000e+001 1.500000e+002
      vertex   -3.000000e+001 1.300000e+002 1.016667e+002
    endloop
  endfacet
  facet normal 1.000000e+000 0.000000e+000 0.000000e+000
    outer loop
      vertex   -3.000000e+001 1.300000e+002 1.016667e+002
      vertex   -3.000000e+001 7.500000e+001 1.500000e+002
      vertex   -3.000000e+001 7.500000e+001 1.016667e+002
    endloop
  endfacet
  facet normal 1.000000e+000 0.000000e+000 0.000000e+000
    outer loop
      vertex   -3.000000e+001 1.300000e+002 5.333333e+001
      vertex   -3.000000e+001 7.500000e+001 1.016667e+002
      vertex   -3.000000e+001 7.500000e+001 5.333333e+001
    endloop
  endfacet
  facet normal 1.000000e+000 0.000000e+000 0.000000e+000
    outer loop
      vertex   -3.000000e+001 1.300000e+002 5.000000e+000
      vertex   -3.000000e+001 7.500000e+001 5.333333e+001
      vertex   -3.000000e+001 7.500000e+001 5.000000e+000
    endloop
  endfacet
  facet normal 1.000000e+000 0.000000e+000 -0.000000e+000
    outer loop
      vertex   -3.000000e+001 1.300000e+002 5.000000e+000
      vertex   -3.000000e+001 1.300000e+002 5.333333e+001
      vertex   -3.000000e+001 7.500000e+001 5.333333e+001
    endloop
  endfacet
  facet normal 1.000000e+000 0.000000e+000 0.000000e+000
    outer loop
      vertex   -3.000000e+001 7.500000e+001 1.500000e+002
      vertex   -3.000000e+001 2.000000e+001 1.500000e+002
      vertex   -3.000000e+001 7.500000e+001 1.016667e+002
    endloop
  endfacet
  facet normal 1.000000e+000 0.000000e+000 0.000000e+000
    outer loop
      vertex   -3.000000e+001 7.500000e+001 1.016667e+002
      vertex   -3.000000e+001 2.000000e+001 1.500000e+002
      vertex   -3.000000e+001 2.000000e+001 1.016667e+002
    endloop
  endfacet
  facet normal 1.000000e+000 0.000000e+000 0.000000e+000
    outer loop
      vertex   -3.000000e+001 7.500000e+001 5.333333e+001
      vertex   -3.000000e+001 2.000000e+001 1.016667e+002
      vertex   -3.000000e+001 2.000000e+001 5.333333e+001
    endloop
  endfacet
  facet normal 1.000000e+000 0.000000e+000 0.000000e+000
    outer loop
      vertex   -3.000000e+001 7.500000e+001 5.000000e+000
      vertex   -3.000000e+001 2.000000e+001 5.333333e+001
      vertex   -3.000000e+001 2.000000e+001 5.000000e+000
    endloop
  endfacet
  facet normal 1.000000e+000 0.000000e+000 -0.000000e+000
    outer loop
      vertex   -3.000000e+001 7.500000e+001 5.000000e+000
      vertex   -3.000000e+001 7.500000e+001 5.333333e+001
      vertex   -3.000000e+001 2.000000e+001 5.333333e+001
    endloop
  endfacet
  facet normal 1.000000e+000 0.000000e+000 0.000000e+000
    outer loop
      vertex   -3.000000e+001 2.000000e+001 1.500000e+002
      vertex   -3.000000e+001 -3.500000e+001 1.500000e+002
      vertex   -3.000000e+001 2.000000e+001 1.016667e+002
    endloop
  endfacet
  facet normal 1.000000e+000 0.000000e+000 0.000000e+000
    outer loop
      vertex   -3.000000e+001 2.000000e+001 1.016667e+002
      vertex   -3.000000e+001 -3.500000e+001 1.500000e+002
      vertex   -3.000000e+001 -3.500000e+001 1.016667e+002
    endloop
  endfacet
  facet normal 1.000000e+000 0.000000e+000 0.000000e+000
    outer loop
      vertex   -3.000000e+001 2.000000e+001 5.333333e+001
      vertex   -3.000000e+001 -3.500000e+001 1.016667e+002
      vertex   -3.000000e+001 -3.500000e+001 5.333333e+001
    endloop
  endfacet
  facet normal 1.000000e+000 0.000000e+000 0.000000e+000
    outer loop
      vertex   -3.000000e+001 2.000000e+001 5.000000e+000
      vertex   -3.000000e+001 -3.500000e+001 5.333333e+001
      vertex   -3.000000e+001 -3.500000e+001 5.000000e+000
    endloop
  endfacet
  facet normal 1.000000e+000 0.000000e+000 -0.000000e+000
    outer loop
      vertex   -3.000000e+001 2.000000e+001 5.000000e+000
      vertex   -3.000000e+001 2.000000e+001 5.333333e+001
      vertex   -3.000000e+001 -3.500000e+001 5.333333e+001
    endloop
  endfacet
  facet normal 1.000000e+000 0.000000e+000 0.000000e+000
    outer loop
      vertex   -3.000000e+001 -3.500000e+001 1.500000e+002
      vertex   -3.000000e+001 -9.000000e+001 1.500000e+002
      vertex   -3.000000e+001 -3.500000e+001 1.016667e+002
    endloop
  endfacet
  facet normal 1.000000e+000 0.000000e+000 0.000000e+000
    outer loop
      vertex   -3.000000e+001 -3.500000e+001 1.016667e+002
      vertex   -3.000000e+001 -9.000000e+001 1.500000e+002
      vertex   -3.000000e+001 -9.000000e+001 1.016667e+002
    endloop
  endfacet
  facet normal 1.000000e+000 0.000000e+000 0.000000e+000
    outer loop
      vertex   -3.000000e+001 -3.500000e+001 5.333333e+001
      vertex   -3.000000e+001 -9.000000e+001 1.016667e+002
      vertex   -3.000000e+001 -9.000000e+001 5.333333e+001
    endloop
  endfacet
  facet normal 1.000000e+000 0.000000e+000 0.000000e+000
    outer loop
      vertex   -3.000000e+001 -3.500000e+001 5.000000e+000
      vertex   -3.000000e+001 -9.000000e+001 5.333333e+001
      vertex   -3.000000e+001 -9.000000e+001 5.000000e+000
    endloop
  endfacet
  facet normal 1.000000e+000 0.000000e+000 -0.000000e+000
    outer loop
      vertex   -3.000000e+001 -3.500000e+001 5.000000e+000
      vertex   -3.000000e+001 -3.500000e+001 5.333333e+001
      vertex   -3.000000e+001 -9.000000e+001 5.333333e+001
    endloop
  endfacet
  facet normal 1.000000e+000 0.000000e+000 0.000000e+000
    outer loop
      vertex   -3.000000e+001 -3.500000e+001 1.016667e+002
      vertex   -3.000000e+001 -9.000000e+001 1.016667e+002
      vertex   -3.000000e+001 -3.500000e+001 5.333333e+001
    endloop
  endfacet
  facet normal 1.000000e+000 0.000000e+000 -0.000000e+000
    outer loop
      vertex   -3.000000e+001 1.300000e+002 5.333333e+001
      vertex   -3.000000e+001 1.300000e+002 1.016667e+002
      vertex   -3.000000e+001 7.500000e+001 1.016667e+002
    endloop
  endfacet
  facet normal 1.000000e+000 0.000000e+000 -0.000000e+000
    outer loop
      vertex   -3.000000e+001 2.000000e+001 5.333333e+001
      vertex   -3.000000e+001 2.000000e+001 1.016667e+002
      vertex   -3.000000e+001 -3.500000e+001 1.016667e+002
    endloop
  endfacet
  facet normal 1.000000e+000 0.000000e+000 -0.000000e+000
    outer loop
      vertex   -3.000000e+001 7.500000e+001 5.333333e+001
      vertex   -3.000000e+001 7.500000e+001 1.016667e+002
      vertex   -3.000000e+001 2.000000e+001 1.016667e+002
    endloop
  endfacet
  facet normal -0.000000e+000 1.000000e+000 0.000000e+000
    outer loop
      vertex   -3.000000e+001 -9.000000e+001 1.500000e+002
      vertex   -1.000000e+001 -9.000000e+001 1.500000e+002
      vertex   -3.000000e+001 -9.000000e+001 1.016667e+002
    endloop
  endfacet
  facet normal -0.000000e+000 1.000000e+000 0.000000e+000
    outer loop
      vertex   -3.000000e+001 -9.000000e+001 1.016667e+002
      vertex   -1.000000e+001 -9.000000e+001 1.500000e+002
      vertex   -1.000000e+001 -9.000000e+001 1.016667e+002
    endloop
  endfacet
  facet normal -0.000000e+000 1.000000e+000 0.000000e+000
    outer loop
      vertex   -3.000000e+001 -9.000000e+001 5.333333e+001
      vertex   -1.000000e+001 -9.000000e+001 1.016667e+002
      vertex   -1.000000e+001 -9.000000e+001 5.333333e+001
    endloop
  endfacet
  facet normal -0.000000e+000 1.000000e+000 0.000000e+000
    outer loop
      vertex   -3.000000e+001 -9.000000e+001 5.000000e+000
      vertex   -1.000000e+001 -9.000000e+001 5.333333e+001
      vertex   -1.000000e+001 -9.000000e+001 5.000000e+000
    endloop
  endfacet
  facet normal 0.000000e+000 1.000000e+000 0.000000e+000
    outer loop
      vertex   -3.000000e+001 -9.000000e+001 5.000000e+000
      vertex   -3.000000e+001 -9.000000e+001 5.333333e+001
      vertex   -1.000000e+001 -9.000000e+001 5.333333e+001
    endloop
  endfacet
  facet normal -0.000000e+000 1.000000e+000 0.000000e+000
    outer loop
      vertex   -3.000000e+001 -9.000000e+001 1.016667e+002
      vertex   -1.000000e+001 -9.000000e+001 1.016667e+002
      vertex   -3.000000e+001 -9.000000e+001 5.333333e+001
    endloop
  endfacet
  facet normal -1.000000e+000 0.000000e+000 -0.000000e+000
    outer loop
      vertex   -1.000000e+001 -9.000000e+001 1.500000e+002
      vertex   -1.000000e+001 -3.500000e+001 1.500000e+002
      vertex   -1.000000e+001 -9.000000e+001 1.016667e+002
    endloop
  endfacet
  facet normal -1.000000e+000 0.000000e+000 0.000000e+000
    outer loop
      vertex   -1.000000e+001 -9.000000e+001 1.016667e+002
      vertex   -1.000000e+001 -3.500000e+001 1.500000e+002
      vertex   -1.000000e+001 -3.500000e+001 1.016667e+002
    endloop
  endfacet
  facet normal -1.000000e+000 0.000000e+000 0.000000e+000
    outer loop
      vertex   -1.000000e+001 -9.000000e+001 5.333333e+001
      vertex   -1.000000e+001 -3.500000e+001 1.016667e+002
      vertex   -1.000000e+001 -3.500000e+001 5.333333e+001
    endloop
  endfacet
  facet normal -1.000000e+000 0.000000e+000 0.000000e+000
    outer loop
      vertex   -1.000000e+001 -9.000000e+001 5.000000e+000
      vertex   -1.000000e+001 -3.500000e+001 5.333333e+001
      vertex   -1.000000e+001 -3.500000e+001 5.000000e+000
    endloop
  endfacet
  facet normal -1.000000e+000 0.000000e+000 0.000000e+000
    outer loop
      vertex   -1.000000e+001 -9.000000e+001 5.000000e+000
      vertex   -1.000000e+001 -9.000000e+001 5.333333e+001
      vertex   -1.000000e+001 -3.500000e+001 5.333333e+001
    endloop
  endfacet
  facet normal -1.000000e+000 0.000000e+000 -0.000000e+000
    outer loop
      vertex   -1.000000e+001 -3.500000e+001 1.500000e+002
      vertex   -1.000000e+001 2.000000e+001 1.500000e+002
      vertex   -1.000000e+001 -3.500000e+001 1.016667e+002
    endloop
  endfacet
  facet normal -1.000000e+000 0.000000e+000 0.000000e+000
    outer loop
      vertex   -1.000000e+001 -3.500000e+001 1.016667e+002
      vertex   -1.000000e+001 2.000000e+001 1.500000e+002
      vertex   -1.000000e+001 2.000000e+001 1.016667e+002
    endloop
  endfacet
  facet normal -1.000000e+000 0.000000e+000 0.000000e+000
    outer loop
      vertex   -1.000000e+001 -3.500000e+001 5.333333e+001
      vertex   -1.000000e+001 2.000000e+001 1.016667e+002
      vertex   -1.000000e+001 2.000000e+001 5.333333e+001
    endloop
  endfacet
  facet normal -1.000000e+000 0.000000e+000 0.000000e+000
    outer loop
      vertex   -1.000000e+001 -3.500000e+001 5.000000e+000
      vertex   -1.000000e+001 2.000000e+001 5.333333e+001
      vertex   -1.000000e+001 2.000000e+001 5.000000e+000
    endloop
  endfacet
  facet normal -1.000000e+000 0.000000e+000 0.000000e+000
    outer loop
      vertex   -1.000000e+001 -3.500000e+001 5.000000e+000
      vertex   -1.000000e+001 -3.500000e+001 5.333333e+001
      vertex   -1.000000e+001 2.000000e+001 5.333333e+001
    endloop
  endfacet
  facet normal -1.000000e+000 0.000000e+000 -0.000000e+000
    outer loop
      vertex   -1.000000e+001 2.000000e+001 1.500000e+002
      vertex   -1.000000e+001 7.500000e+001 1.500000e+002
      vertex   -1.000000e+001 2.000000e+001 1.016667e+002
    endloop
  endfacet
  facet normal -1.000000e+000 0.000000e+000 0.000000e+000
    outer loop
      vertex   -1.000000e+001 2.000000e+001 1.016667e+002
      vertex   -1.000000e+001 7.500000e+001 1.500000e+002
      vertex   -1.000000e+001 7.500000e+001 1.016667e+002
    endloop
  endfacet
  facet normal -1.000000e+000 0.000000e+000 0.000000e+000
    outer loop
      vertex   -1.000000e+001 2.000000e+001 5.333333e+001
      vertex   -1.000000e+001 7.500000e+001 1.016667e+002
      vertex   -1.000000e+001 7.500000e+001 5.333333e+001
    endloop
  endfacet
  facet normal -1.000000e+000 0.000000e+000 0.000000e+000
    outer loop
      vertex   -1.000000e+001 2.000000e+001 5.000000e+000
      vertex   -1.000000e+001 7.500000e+001 5.333333e+001
      vertex   -1.000000e+001 7.500000e+001 5.000000e+000
    endloop
  endfacet
  facet normal -1.000000e+000 0.000000e+000 0.000000e+000
    outer loop
      vertex   -1.000000e+001 2.000000e+001 5.000000e+000
      vertex   -1.000000e+001 2.000000e+001 5.333333e+001
      vertex   -1.000000e+001 7.500000e+001 5.333333e+001
    endloop
  endfacet
  facet normal -1.000000e+000 0.000000e+000 -0.000000e+000
    outer loop
      vertex   -1.000000e+001 7.500000e+001 1.500000e+002
      vertex   -1.000000e+001 1.300000e+002 1.500000e+002
      vertex   -1.000000e+001 7.500000e+001 1.016667e+002
    endloop
  endfacet
  facet normal -1.000000e+000 0.000000e+000 0.000000e+000
    outer loop
      vertex   -1.000000e+001 7.500000e+001 1.016667e+002
      vertex   -1.000000e+001 1.300000e+002 1.500000e+002
      vertex   -1.000000e+001 1.300000e+002 1.016667e+002
    endloop
  endfacet
  facet normal -1.000000e+000 0.000000e+000 0.000000e+000
    outer loop
      vertex   -1.000000e+001 7.500000e+001 5.333333e+001
      vertex   -1.000000e+001 1.300000e+002 1.016667e+002
      vertex   -1.000000e+001 1.300000e+002 5.333333e+001
    endloop
  endfacet
  facet normal -1.000000e+000 0.000000e+000 0.000000e+000
    outer loop
      vertex   -1.000000e+001 7.500000e+001 5.000000e+000
      vertex   -1.000000e+001 1.300000e+002 5.333333e+001
      vertex   -1.000000e+001 1.300000e+002 5.000000e+000
    endloop
  endfacet
  facet normal -1.000000e+000 0.000000e+000 0.000000e+000
    outer loop
      vertex   -1.000000e+001 7.500000e+001 5.000000e+000
      vertex   -1.000000e+001 7.500000e+001 5.333333e+001
      vertex   -1.000000e+001 1.300000e+002 5.333333e+001
    endloop
  endfacet
  facet normal -1.000000e+000 0.000000e+000 -0.000000e+000
    outer loop
      vertex   -1.000000e+001 7.500000e+001 1.016667e+002
      vertex   -1.000000e+001 1.300000e+002 1.016667e+002
      vertex   -1.000000e+001 7.500000e+001 5.333333e+001
    endloop
  endfacet
  facet normal -1.000000e+000 0.000000e+000 0.000000e+000
    outer loop
      vertex   -1.000000e+001 -9.000000e+001 5.333333e+001
      vertex   -1.000000e+001 -9.000000e+001 1.016667e+002
      vertex   -1.000000e+001 -3.500000e+001 1.016667e+002
    endloop
  endfacet
  facet normal -1.000000e+000 0.000000e+000 0.000000e+000
    outer loop
      vertex   -1.000000e+001 2.000000e+001 5.333333e+001
      vertex   -1.000000e+001 2.000000e+001 1.016667e+002
      vertex   -1.000000e+001 7.500000e+001 1.016667e+002
    endloop
  endfacet
  facet normal -1.000000e+000 0.000000e+000 0.000000e+000
    outer loop
      vertex   -1.000000e+001 -3.500000e+001 5.333333e+001
      vertex   -1.000000e+001 -3.500000e+001 1.016667e+002
      vertex   -1.000000e+001 2.000000e+001 1.016667e+002
    endloop
  endfacet
  facet normal -0.000000e+000 -1.000000e+000 -0.000000e+000
    outer loop
      vertex   -1.000000e+001 1.300000e+002 1.500000e+002
      vertex   -3.000000e+001 1.300000e+002 1.500000e+002
      vertex   -1.000000e+001 1.300000e+002 1.016667e+002
    endloop
  endfacet
  facet normal -0.000000e+000 -1.000000e+000 -0.000000e+000
    outer loop
      vertex   -1.000000e+001 1.300000e+002 1.016667e+002
      vertex   -3.000000e+001 1.300000e+002 1.500000e+002
      vertex   -3.000000e+001 1.300000e+002 1.016667e+002
    endloop
  endfacet
  facet normal -0.000000e+000 -1.000000e+000 -0.000000e+000
    outer loop
      vertex   -1.000000e+001 1.300000e+002 5.333333e+001
      vertex   -3.000000e+001 1.300000e+002 1.016667e+002
      vertex   -3.000000e+001 1.300000e+002 5.333333e+001
    endloop
  endfacet
  facet normal -0.000000e+000 -1.000000e+000 -0.000000e+000
    outer loop
      vertex   -1.000000e+001 1.300000e+002 5.000000e+000
      vertex   -3.000000e+001 1.300000e+002 5.333333e+001
      vertex   -3.000000e+001 1.300000e+002 5.000000e+000
    endloop
  endfacet
  facet normal 0.000000e+000 -1.000000e+000 0.000000e+000
    outer loop
      vertex   -1.000000e+001 1.300000e+002 5.000000e+000
      vertex   -1.000000e+001 1.300000e+002 5.333333e+001
      vertex   -3.000000e+001 1.300000e+002 5.333333e+001
    endloop
  endfacet
  facet normal -0.000000e+000 -1.000000e+000 -0.000000e+000
    outer loop
      vertex   -1.000000e+001 1.300000e+002 1.016667e+002
      vertex   -3.000000e+001 1.300000e+002 1.016667e+002
      vertex   -1.000000e+001 1.300000e+002 5.333333e+001
    endloop
  endfacet
  facet normal 0.000000e+000 0.000000e+000 1.000000e+000
    outer loop
      vertex   -1.000000e+001 1.300000e+002 5.000000e+000
      vertex   -3.000000e+001 1.300000e+002 5.000000e+000
      vertex   -1.000000e+001 7.500000e+001 5.000000e+000
    endloop
  endfacet
  facet normal 0.000000e+000 0.000000e+000 1.000000e+000
    outer loop
      vertex   -1.000000e+001 7.500000e+001 5.000000e+000
      vertex   -3.000000e+001 1.300000e+002 5.000000e+000
      vertex   -3.000000e+001 7.500000e+001 5.000000e+000
    endloop
  endfacet
  facet normal 0.000000e+000 0.000000e+000 1.000000e+000
    outer loop
      vertex   -1.000000e+001 2.000000e+001 5.000000e+000
      vertex   -3.000000e+001 7.500000e+001 5.000000e+000
      vertex   -3.000000e+001 2.000000e+001 5.000000e+000
    endloop
  endfacet
  facet normal 0.000000e+000 0.000000e+000 1.000000e+000
    outer loop
      vertex   -1.000000e+001 -3.500000e+001 5.000000e+000
      vertex   -3.000000e+001 2.000000e+001 5.000000e+000
      vertex   -3.000000e+001 -3.500000e+001 5.000000e+000
    endloop
  endfacet
  facet normal 0.000000e+000 0.000000e+000 1.000000e+000
    outer loop
      vertex   -1.000000e+001 -9.000000e+001 5.000000e+000
      vertex   -3.000000e+001 -3.500000e+001 5.000000e+000
      vertex   -3.000000e+001 -9.000000e+001 5.000000e+000
    endloop
  endfacet
  facet normal 0.000000e+000 -0.000000e+000 1.000000e+000
    outer loop
      vertex   -1.000000e+001 -9.000000e+001 5.000000e+000
      vertex   -1.000000e+001 -3.500000e+001 5.000000e+000
      vertex   -3.000000e+001 -3.500000e+001 5.000000e+000
    endloop
  endfacet
  facet normal 0.000000e+000 0.000000e+000 1.000000e+000
    outer loop
      vertex   -1.000000e+001 7.500000e+001 5.000000e+000
      vertex   -3.000000e+001 7.500000e+001 5.000000e+000
      vertex   -1.000000e+001 2.000000e+001 5.000000e+000
    endloop
  endfacet
  facet normal 0.000000e+000 0.000000e+000 1.000000e+000
    outer loop
      vertex   -1.000000e+001 2.000000e+001 5.000000e+000
      vertex   -3.000000e+001 2.000000e+001 5.000000e+000
      vertex   -1.000000e+001 -3.500000e+001 5.000000e+000
    endloop
  endfacet
  facet normal 0.000000e+000 0.000000e+000 1.000000e+000
    outer loop
      vertex   -3.000000e+001 -3.500000e+001 1.500000e+002
      vertex   -3.500000e+001 -4.900000e+001 1.500000e+002
      vertex   -3.000000e+001 -9.000000e+001 1.500000e+002
    endloop
  endfacet
  facet normal 0.000000e+000 0.000000e+000 1.000000e+000
    outer loop
      vertex   -3.000000e+001 -3.500000e+001 1.500000e+002
      vertex   -3.500000e+001 -3.000000e+000 1.500000e+002
      vertex   -3.500000e+001 -4.900000e+001 1.500000e+002
    endloop
  endfacet
  facet normal 0.000000e+000 -0.000000e+000 1.000000e+000
    outer loop
      vertex   -3.000000e+001 -3.500000e+001 1.500000e+002
      vertex   -3.000000e+001 2.000000e+001 1.500000e+002
      vertex   -3.500000e+001 -3.000000e+000 1.500000e+002
    endloop
  endfacet
  facet normal 0.000000e+000 -0.000000e+000 1.000000e+000
    outer loop
      vertex   -3.500000e+001 -3.000000e+000 1.500000e+002
      vertex   -3.000000e+001 2.000000e+001 1.500000e+002
      vertex   -3.500000e+001 4.300000e+001 1.500000e+002
    endloop
  endfacet
  facet normal -0.000000e+000 0.000000e+000 1.000000e+000
    outer loop
      vertex   -3.500000e+001 4.300000e+001 1.500000e+002
      vertex   -3.000000e+001 2.000000e+001 1.500000e+002
      vertex   -3.000000e+001 7.500000e+001 1.500000e+002
    endloop
  endfacet
  facet normal -0.000000e+000 0.000000e+000 1.000000e+000
    outer loop
      vertex   -3.500000e+001 8.900000e+001 1.500000e+002
      vertex   -3.000000e+001 7.500000e+001 1.500000e+002
      vertex   -3.000000e+001 1.300000e+002 1.500000e+002
    endloop
  endfacet
  facet normal -0.000000e+000 0.000000e+000 1.000000e+000
    outer loop
      vertex   -3.500000e+001 1.350000e+002 1.500000e+002
      vertex   -3.000000e+001 1.300000e+002 1.500000e+002
      vertex   -1.000000e+001 1.300000e+002 1.500000e+002
    endloop
  endfacet
  facet normal 0.000000e+000 0.000000e+000 1.000000e+000
    outer loop
      vertex   -5.000000e+000 1.350000e+002 1.500000e+002
      vertex   -1.000000e+001 1.300000e+002 1.500000e+002
      vertex   -5.000000e+000 8.900000e+001 1.500000e+002
    endloop
  endfacet
  facet normal 0.000000e+000 0.000000e+000 1.000000e+000
    outer loop
      vertex   -5.000000e+000 1.350000e+002 1.500000e+002
      vertex   -3.500000e+001 1.350000e+002 1.500000e+002
      vertex   -1.000000e+001 1.300000e+002 1.500000e+002
    endloop
  endfacet
  facet normal 0.000000e+000 -0.000000e+000 1.000000e+000
    outer loop
      vertex   -3.500000e+001 4.300000e+001 1.500000e+002
      vertex   -3.000000e+001 7.500000e+001 1.500000e+002
      vertex   -3.500000e+001 8.900000e+001 1.500000e+002
    endloop
  endfacet
  facet normal 0.000000e+000 -0.000000e+000 1.000000e+000
    outer loop
      vertex   -3.500000e+001 8.900000e+001 1.500000e+002
      vertex   -3.000000e+001 1.300000e+002 1.500000e+002
      vertex   -3.500000e+001 1.350000e+002 1.500000e+002
    endloop
  endfacet
  facet normal -0.000000e+000 0.000000e+000 1.000000e+000
    outer loop
      vertex   -1.000000e+001 1.300000e+002 1.500000e+002
      vertex   -1.000000e+001 7.500000e+001 1.500000e+002
      vertex   -5.000000e+000 8.900000e+001 1.500000e+002
    endloop
  endfacet
  facet normal 0.000000e+000 0.000000e+000 1.000000e+000
    outer loop
      vertex   -5.000000e+000 8.900000e+001 1.500000e+002
      vertex   -1.000000e+001 7.500000e+001 1.500000e+002
      vertex   -5.000000e+000 4.300000e+001 1.500000e+002
    endloop
  endfacet
  facet normal 0.000000e+000 0.000000e+000 1.000000e+000
    outer loop
      vertex   -5.000000e+000 4.300000e+001 1.500000e+002
      vertex   -1.000000e+001 7.500000e+001 1.500000e+002
      vertex   -1.000000e+001 2.000000e+001 1.500000e+002
    endloop
  endfacet
  facet normal 0.000000e+000 0.000000e+000 1.000000e+000
    outer loop
      vertex   -5.000000e+000 -3.000000e+000 1.500000e+002
      vertex   -1.000000e+001 2.000000e+001 1.500000e+002
      vertex   -1.000000e+001 -3.500000e+001 1.500000e+002
    endloop
  endfacet
  facet normal 0.000000e+000 0.000000e+000 1.000000e+000
    outer loop
      vertex   -5.000000e+000 -4.900000e+001 1.500000e+002
      vertex   -1.000000e+001 -3.500000e+001 1.500000e+002
      vertex   -1.000000e+001 -9.000000e+001 1.500000e+002
    endloop
  endfacet
  facet normal 0.000000e+000 0.000000e+000 1.000000e+000
    outer loop
      vertex   -5.000000e+000 -9.500000e+001 1.500000e+002
      vertex   -1.000000e+001 -9.000000e+001 1.500000e+002
      vertex   -3.000000e+001 -9.000000e+001 1.500000e+002
    endloop
  endfacet
  facet normal 0.000000e+000 -0.000000e+000 1.000000e+000
    outer loop
      vertex   -3.500000e+001 -9.500000e+001 1.500000e+002
      vertex   -3.000000e+001 -9.000000e+001 1.500000e+002
      vertex   -3.500000e+001 -4.900000e+001 1.500000e+002
    endloop
  endfacet
  facet normal 0.000000e+000 -0.000000e+000 1.000000e+000
    outer loop
      vertex   -3.500000e+001 -9.500000e+001 1.500000e+002
      vertex   -5.000000e+000 -9.500000e+001 1.500000e+002
      vertex   -3.000000e+001 -9.000000e+001 1.500000e+002
    endloop
  endfacet
  facet normal 0.000000e+000 0.000000e+000 1.000000e+000
    outer loop
      vertex   -5.000000e+000 4.300000e+001 1.500000e+002
      vertex   -1.000000e+001 2.000000e+001 1.500000e+002
      vertex   -5.000000e+000 -3.000000e+000 1.500000e+002
    endloop
  endfacet
  facet normal 0.000000e+000 0.000000e+000 1.000000e+000
    outer loop
      vertex   -5.000000e+000 -3.000000e+000 1.500000e+002
      vertex   -1.000000e+001 -3.500000e+001 1.500000e+002
      vertex   -5.000000e+000 -4.900000e+001 1.500000e+002
    endloop
  endfacet
  facet normal 0.000000e+000 0.000000e+000 1.000000e+000
    outer loop
      vertex   -5.000000e+000 -4.900000e+001 1.500000e+002
      vertex   -1.000000e+001 -9.000000e+001 1.500000e+002
      vertex   -5.000000e+000 -9.500000e+001 1.500000e+002
    endloop
  endfacet
  facet normal 0.000000e+000 -0.000000e+000 -1.000000e+000
    outer loop
      vertex   -3.500000e+001 1.350000e+002 0.000000e+000
      vertex   -5.000000e+000 1.350000e+002 0.000000e+000
      vertex   -3.500000e+001 8.900000e+001 0.000000e+000
    endloop
  endfacet
  facet normal 0.000000e+000 0.000000e+000 -1.000000e+000
    outer loop
      vertex   -3.500000e+001 8.900000e+001 0.000000e+000
      vertex   -5.000000e+000 1.350000e+002 0.000000e+000
      vertex   -5.000000e+000 8.900000e+001 0.000000e+000
    endloop
  endfacet
  facet normal 0.000000e+000 0.000000e+000 -1.000000e+000
    outer loop
      vertex   -5.000000e+000 4.300000e+001 0.000000e+000
      vertex   -3.500000e+001 8.900000e+001 0.000000e+000
      vertex   -5.000000e+000 8.900000e+001 0.000000e+000
    endloop
  endfacet
  facet normal -0.000000e+000 0.000000e+000 -1.000000e+000
    outer loop
      vertex   -5.000000e+000 4.300000e+001 0.000000e+000
      vertex   -3.500000e+001 4.300000e+001 0.000000e+000
      vertex   -3.500000e+001 8.900000e+001 0.000000e+000
    endloop
  endfacet
  facet normal -0.000000e+000 -0.000000e+000 -1.000000e+000
    outer loop
      vertex   -5.000000e+000 4.300000e+001 0.000000e+000
      vertex   -5.000000e+000 -3.000000e+000 0.000000e+000
      vertex   -3.500000e+001 4.300000e+001 0.000000e+000
    endloop
  endfacet
  facet normal 0.000000e+000 -0.000000e+000 -1.000000e+000
    outer loop
      vertex   -3.500000e+001 4.300000e+001 0.000000e+000
      vertex   -5.000000e+000 -3.000000e+000 0.000000e+000
      vertex   -3.500000e+001 -3.000000e+000 0.000000e+000
    endloop
  endfacet
  facet normal 0.000000e+000 0.000000e+000 -1.000000e+000
    outer loop
      vertex   -3.500000e+001 -3.000000e+000 0.000000e+000
      vertex   -5.000000e+000 -3.000000e+000 0.000000e+000
      vertex   -5.000000e+000 -4.900000e+001 0.000000e+000
    endloop
  endfacet
  facet normal 0.000000e+000 -0.000000e+000 -1.000000e+000
    outer loop
      vertex   -3.500000e+001 -4.900000e+001 0.000000e+000
      vertex   -5.000000e+000 -4.900000e+001 0.000000e+000
      vertex   -3.500000e+001 -9.500000e+001 0.000000e+000
    endloop
  endfacet
  facet normal 0.000000e+000 0.000000e+000 -1.000000e+000
    outer loop
      vertex   -3.500000e+001 -4.900000e+001 0.000000e+000
      vertex   -3.500000e+001 -3.000000e+000 0.000000e+000
      vertex   -5.000000e+000 -4.900000e+001 0.000000e+000
    endloop
  endfacet
  facet normal -0.000000e+000 -0.000000e+000 -1.000000e+000
    outer loop
      vertex   -5.000000e+000 -4.900000e+001 0.000000e+000
      vertex   -5.000000e+000 -9.500000e+001 0.000000e+000
      vertex   -3.500000e+001 -9.500000e+001 0.000000e+000
    endloop
  endfacet
  facet normal 0.000000e+000 -1.000000e+000 0.000000e+000
    outer loop
      vertex   -3.500000e+001 -9.500000e+001 1.500000e+002
      vertex   -3.500000e+001 -9.500000e+001 1.000000e+002
      vertex   -5.000000e+000 -9.500000e+001 1.500000e+002
    endloop
  endfacet
  facet normal 0.000000e+000 -1.000000e+000 -0.000000e+000
    outer loop
      vertex   -5.000000e+000 -9.500000e+001 1.500000e+002
      vertex   -3.500000e+001 -9.500000e+001 1.000000e+002
      vertex   -5.000000e+000 -9.500000e+001 1.000000e+002
    endloop
  endfacet
  facet normal -0.000000e+000 -1.000000e+000 -0.000000e+000
    outer loop
      vertex   -5.000000e+000 -9.500000e+001 1.000000e+002
      vertex   -3.500000e+001 -9.500000e+001 1.000000e+002
      vertex   -3.500000e+001 -9.500000e+001 5.000000e+001
    endloop
  endfacet
  facet normal -0.000000e+000 -1.000000e+000 -0.000000e+000
    outer loop
      vertex   -5.000000e+000 -9.500000e+001 5.000000e+001
      vertex   -3.500000e+001 -9.500000e+001 5.000000e+001
      vertex   -3.500000e+001 -9.500000e+001 0.000000e+000
    endloop
  endfacet
  facet normal -0.000000e+000 -1.000000e+000 0.000000e+000
    outer loop
      vertex   -5.000000e+000 -9.500000e+001 0.000000e+000
      vertex   -5.000000e+000 -9.500000e+001 5.000000e+001
      vertex   -3.500000e+001 -9.500000e+001 0.000000e+000
    endloop
  endfacet
  facet normal 0.000000e+000 -1.000000e+000 -0.000000e+000
    outer loop
      vertex   -5.000000e+000 -9.500000e+001 1.000000e+002
      vertex   -3.500000e+001 -9.500000e+001 5.000000e+001
      vertex   -5.000000e+000 -9.500000e+001 5.000000e+001
    endloop
  endfacet
  facet normal -1.000000e+000 -0.000000e+000 -0.000000e+000
    outer loop
      vertex   -3.500000e+001 1.350000e+002 1.500000e+002
      vertex   -3.500000e+001 1.350000e+002 1.000000e+002
      vertex   -3.500000e+001 8.900000e+001 1.500000e+002
    endloop
  endfacet
  facet normal -1.000000e+000 -0.000000e+000 -0.000000e+000
    outer loop
      vertex   -3.500000e+001 8.900000e+001 1.500000e+002
      vertex   -3.500000e+001 1.350000e+002 1.000000e+002
      vertex   -3.500000e+001 7.750000e+001 1.000000e+002
    endloop
  endfacet
  facet normal -1.000000e+000 -0.000000e+000 -0.000000e+000
    outer loop
      vertex   -3.500000e+001 4.300000e+001 1.500000e+002
      vertex   -3.500000e+001 7.750000e+001 1.000000e+002
      vertex   -3.500000e+001 2.000000e+001 1.000000e+002
    endloop
  endfacet
  facet normal -1.000000e+000 -0.000000e+000 -0.000000e+000
    outer loop
      vertex   -3.500000e+001 -3.000000e+000 1.500000e+002
      vertex   -3.500000e+001 2.000000e+001 1.000000e+002
      vertex   -3.500000e+001 -3.750000e+001 1.000000e+002
    endloop
  endfacet
  facet normal -1.000000e+000 -0.000000e+000 -0.000000e+000
    outer loop
      vertex   -3.500000e+001 -4.900000e+001 1.500000e+002
      vertex   -3.500000e+001 -3.750000e+001 1.000000e+002
      vertex   -3.500000e+001 -9.500000e+001 1.000000e+002
    endloop
  endfacet
  facet normal -1.000000e+000 0.000000e+000 -0.000000e+000
    outer loop
      vertex   -3.500000e+001 -9.500000e+001 1.500000e+002
      vertex   -3.500000e+001 -4.900000e+001 1.500000e+002
      vertex   -3.500000e+001 -9.500000e+001 1.000000e+002
    endloop
  endfacet
  facet normal -1.000000e+000 -0.000000e+000 -0.000000e+000
    outer loop
      vertex   -3.500000e+001 1.350000e+002 1.000000e+002
      vertex   -3.500000e+001 1.350000e+002 5.000000e+001
      vertex   -3.500000e+001 7.750000e+001 1.000000e+002
    endloop
  endfacet
  facet normal -1.000000e+000 -0.000000e+000 -0.000000e+000
    outer loop
      vertex   -3.500000e+001 7.750000e+001 1.000000e+002
      vertex   -3.500000e+001 1.350000e+002 5.000000e+001
      vertex   -3.500000e+001 7.750000e+001 5.000000e+001
    endloop
  endfacet
  facet normal -1.000000e+000 -0.000000e+000 -0.000000e+000
    outer loop
      vertex   -3.500000e+001 2.000000e+001 1.000000e+002
      vertex   -3.500000e+001 7.750000e+001 5.000000e+001
      vertex   -3.500000e+001 2.000000e+001 5.000000e+001
    endloop
  endfacet
  facet normal -1.000000e+000 -0.000000e+000 -0.000000e+000
    outer loop
      vertex   -3.500000e+001 -3.750000e+001 1.000000e+002
      vertex   -3.500000e+001 2.000000e+001 5.000000e+001
      vertex   -3.500000e+001 -3.750000e+001 5.000000e+001
    endloop
  endfacet
  facet normal -1.000000e+000 -0.000000e+000 -0.000000e+000
    outer loop
      vertex   -3.500000e+001 -9.500000e+001 1.000000e+002
      vertex   -3.500000e+001 -3.750000e+001 5.000000e+001
      vertex   -3.500000e+001 -9.500000e+001 5.000000e+001
    endloop
  endfacet
  facet normal -1.000000e+000 0.000000e+000 0.000000e+000
    outer loop
      vertex   -3.500000e+001 -9.500000e+001 1.000000e+002
      vertex   -3.500000e+001 -3.750000e+001 1.000000e+002
      vertex   -3.500000e+001 -3.750000e+001 5.000000e+001
    endloop
  endfacet
  facet normal -1.000000e+000 0.000000e+000 0.000000e+000
    outer loop
      vertex   -3.500000e+001 1.350000e+002 0.000000e+000
      vertex   -3.500000e+001 8.900000e+001 0.000000e+000
      vertex   -3.500000e+001 1.350000e+002 5.000000e+001
    endloop
  endfacet
  facet normal -1.000000e+000 -0.000000e+000 0.000000e+000
    outer loop
      vertex   -3.500000e+001 1.350000e+002 5.000000e+001
      vertex   -3.500000e+001 8.900000e+001 0.000000e+000
      vertex   -3.500000e+001 7.750000e+001 5.000000e+001
    endloop
  endfacet
  facet normal -1.000000e+000 -0.000000e+000 -0.000000e+000
    outer loop
      vertex   -3.500000e+001 7.750000e+001 5.000000e+001
      vertex   -3.500000e+001 8.900000e+001 0.000000e+000
      vertex   -3.500000e+001 4.300000e+001 0.000000e+000
    endloop
  endfacet
  facet normal -1.000000e+000 -0.000000e+000 -0.000000e+000
    outer loop
      vertex   -3.500000e+001 2.000000e+001 5.000000e+001
      vertex   -3.500000e+001 4.300000e+001 0.000000e+000
      vertex   -3.500000e+001 -3.000000e+000 0.000000e+000
    endloop
  endfacet
  facet normal -1.000000e+000 -0.000000e+000 -0.000000e+000
    outer loop
      vertex   -3.500000e+001 -3.750000e+001 5.000000e+001
      vertex   -3.500000e+001 -3.000000e+000 0.000000e+000
      vertex   -3.500000e+001 -4.900000e+001 0.000000e+000
    endloop
  endfacet
  facet normal -1.000000e+000 -0.000000e+000 -0.000000e+000
    outer loop
      vertex   -3.500000e+001 -9.500000e+001 5.000000e+001
      vertex   -3.500000e+001 -4.900000e+001 0.000000e+000
      vertex   -3.500000e+001 -9.500000e+001 0.000000e+000
    endloop
  endfacet
  facet normal -1.000000e+000 0.000000e+000 -0.000000e+000
    outer loop
      vertex   -3.500000e+001 -9.500000e+001 5.000000e+001
      vertex   -3.500000e+001 -3.750000e+001 5.000000e+001
      vertex   -3.500000e+001 -4.900000e+001 0.000000e+000
    endloop
  endfacet
  facet normal -1.000000e+000 -0.000000e+000 0.000000e+000
    outer loop
      vertex   -3.500000e+001 7.750000e+001 5.000000e+001
      vertex   -3.500000e+001 4.300000e+001 0.000000e+000
      vertex   -3.500000e+001 2.000000e+001 5.000000e+001
    endloop
  endfacet
  facet normal -1.000000e+000 -0.000000e+000 0.000000e+000
    outer loop
      vertex   -3.500000e+001 2.000000e+001 5.000000e+001
      vertex   -3.500000e+001 -3.000000e+000 0.000000e+000
      vertex   -3.500000e+001 -3.750000e+001 5.000000e+001
    endloop
  endfacet
  facet normal -1.000000e+000 0.000000e+000 -0.000000e+000
    outer loop
      vertex   -3.500000e+001 -4.900000e+001 1.500000e+002
      vertex   -3.500000e+001 -3.000000e+000 1.500000e+002
      vertex   -3.500000e+001 -3.750000e+001 1.000000e+002
    endloop
  endfacet
  facet normal -1.000000e+000 0.000000e+000 -0.000000e+000
    outer loop
      vertex   -3.500000e+001 -3.000000e+000 1.500000e+002
      vertex   -3.500000e+001 4.300000e+001 1.500000e+002
      vertex   -3.500000e+001 2.000000e+001 1.000000e+002
    endloop
  endfacet
  facet normal -1.000000e+000 0.000000e+000 -0.000000e+000
    outer loop
      vertex   -3.500000e+001 4.300000e+001 1.500000e+002
      vertex   -3.500000e+001 8.900000e+001 1.500000e+002
      vertex   -3.500000e+001 7.750000e+001 1.000000e+002
    endloop
  endfacet
  facet normal -1.000000e+000 0.000000e+000 0.000000e+000
    outer loop
      vertex   -3.500000e+001 2.000000e+001 1.000000e+002
      vertex   -3.500000e+001 7.750000e+001 1.000000e+002
      vertex   -3.500000e+001 7.750000e+001 5.000000e+001
    endloop
  endfacet
  facet normal -1.000000e+000 0.000000e+000 0.000000e+000
    outer loop
      vertex   -3.500000e+001 -3.750000e+001 1.000000e+002
      vertex   -3.500000e+001 2.000000e+001 1.000000e+002
      vertex   -3.500000e+001 2.000000e+001 5.000000e+001
    endloop
  endfacet
  facet normal 0.000000e+000 1.000000e+000 0.000000e+000
    outer loop
      vertex   -5.000000e+000 1.350000e+002 1.500000e+002
      vertex   -5.000000e+000 1.350000e+002 1.000000e+002
      vertex   -3.500000e+001 1.350000e+002 1.500000e+002
    endloop
  endfacet
  facet normal 0.000000e+000 1.000000e+000 0.000000e+000
    outer loop
      vertex   -3.500000e+001 1.350000e+002 1.500000e+002
      vertex   -5.000000e+000 1.350000e+002 1.000000e+002
      vertex   -3.500000e+001 1.350000e+002 1.000000e+002
    endloop
  endfacet
  facet normal -0.000000e+000 1.000000e+000 0.000000e+000
    outer loop
      vertex   -3.500000e+001 1.350000e+002 1.000000e+002
      vertex   -5.000000e+000 1.350000e+002 1.000000e+002
      vertex   -5.000000e+000 1.350000e+002 5.000000e+001
    endloop
  endfacet
  facet normal -0.000000e+000 1.000000e+000 0.000000e+000
    outer loop
      vertex   -3.500000e+001 1.350000e+002 5.000000e+001
      vertex   -5.000000e+000 1.350000e+002 5.000000e+001
      vertex   -5.000000e+000 1.350000e+002 0.000000e+000
    endloop
  endfacet
  facet normal -0.000000e+000 1.000000e+000 0.000000e+000
    outer loop
      vertex   -3.500000e+001 1.350000e+002 0.000000e+000
      vertex   -3.500000e+001 1.350000e+002 5.000000e+001
      vertex   -5.000000e+000 1.350000e+002 0.000000e+000
    endloop
  endfacet
  facet normal 0.000000e+000 1.000000e+000 0.000000e+000
    outer loop
      vertex   -3.500000e+001 1.350000e+002 1.000000e+002
      vertex   -5.000000e+000 1.350000e+002 5.000000e+001
      vertex   -3.500000e+001 1.350000e+002 5.000000e+001
    endloop
  endfacet
  facet normal 1.000000e+000 -0.000000e+000 0.000000e+000
    outer loop
      vertex   -5.000000e+000 -9.500000e+001 1.500000e+002
      vertex   -5.000000e+000 -9.500000e+001 1.000000e+002
      vertex   -5.000000e+000 -4.900000e+001 1.500000e+002
    endloop
  endfacet
  facet normal 1.000000e+000 -0.000000e+000 0.000000e+000
    outer loop
      vertex   -5.000000e+000 -4.900000e+001 1.500000e+002
      vertex   -5.000000e+000 -9.500000e+001 1.000000e+002
      vertex   -5.000000e+000 -3.750000e+001 1.000000e+002
    endloop
  endfacet
  facet normal 1.000000e+000 -0.000000e+000 0.000000e+000
    outer loop
      vertex   -5.000000e+000 -3.000000e+000 1.500000e+002
      vertex   -5.000000e+000 -3.750000e+001 1.000000e+002
      vertex   -5.000000e+000 2.000000e+001 1.000000e+002
    endloop
  endfacet
  facet normal 1.000000e+000 -0.000000e+000 0.000000e+000
    outer loop
      vertex   -5.000000e+000 4.300000e+001 1.500000e+002
      vertex   -5.000000e+000 2.000000e+001 1.000000e+002
      vertex   -5.000000e+000 7.750000e+001 1.000000e+002
    endloop
  endfacet
  facet normal 1.000000e+000 -0.000000e+000 0.000000e+000
    outer loop
      vertex   -5.000000e+000 8.900000e+001 1.500000e+002
      vertex   -5.000000e+000 7.750000e+001 1.000000e+002
      vertex   -5.000000e+000 1.350000e+002 1.000000e+002
    endloop
  endfacet
  facet normal 1.000000e+000 0.000000e+000 0.000000e+000
    outer loop
      vertex   -5.000000e+000 1.350000e+002 1.500000e+002
      vertex   -5.000000e+000 8.900000e+001 1.500000e+002
      vertex   -5.000000e+000 1.350000e+002 1.000000e+002
    endloop
  endfacet
  facet normal 1.000000e+000 -0.000000e+000 0.000000e+000
    outer loop
      vertex   -5.000000e+000 -9.500000e+001 1.000000e+002
      vertex   -5.000000e+000 -9.500000e+001 5.000000e+001
      vertex   -5.000000e+000 -3.750000e+001 1.000000e+002
    endloop
  endfacet
  facet normal 1.000000e+000 -0.000000e+000 0.000000e+000
    outer loop
      vertex   -5.000000e+000 -3.750000e+001 1.000000e+002
      vertex   -5.000000e+000 -9.500000e+001 5.000000e+001
      vertex   -5.000000e+000 -3.750000e+001 5.000000e+001
    endloop
  endfacet
  facet normal 1.000000e+000 -0.000000e+000 0.000000e+000
    outer loop
      vertex   -5.000000e+000 2.000000e+001 1.000000e+002
      vertex   -5.000000e+000 -3.750000e+001 5.000000e+001
      vertex   -5.000000e+000 2.000000e+001 5.000000e+001
    endloop
  endfacet
  facet normal 1.000000e+000 -0.000000e+000 0.000000e+000
    outer loop
      vertex   -5.000000e+000 7.750000e+001 1.000000e+002
      vertex   -5.000000e+000 2.000000e+001 5.000000e+001
      vertex   -5.000000e+000 7.750000e+001 5.000000e+001
    endloop
  endfacet
  facet normal 1.000000e+000 -0.000000e+000 0.000000e+000
    outer loop
      vertex   -5.000000e+000 1.350000e+002 1.000000e+002
      vertex   -5.000000e+000 7.750000e+001 5.000000e+001
      vertex   -5.000000e+000 1.350000e+002 5.000000e+001
    endloop
  endfacet
  facet normal 1.000000e+000 0.000000e+000 0.000000e+000
    outer loop
      vertex   -5.000000e+000 1.350000e+002 1.000000e+002
      vertex   -5.000000e+000 7.750000e+001 1.000000e+002
      vertex   -5.000000e+000 7.750000e+001 5.000000e+001
    endloop
  endfacet
  facet normal 1.000000e+000 0.000000e+000 -0.000000e+000
    outer loop
      vertex   -5.000000e+000 -9.500000e+001 0.000000e+000
      vertex   -5.000000e+000 -4.900000e+001 0.000000e+000
      vertex   -5.000000e+000 -9.500000e+001 5.000000e+001
    endloop
  endfacet
  facet normal 1.000000e+000 -0.000000e+000 0.000000e+000
    outer loop
      vertex   -5.000000e+000 -9.500000e+001 5.000000e+001
      vertex   -5.000000e+000 -4.900000e+001 0.000000e+000
      vertex   -5.000000e+000 -3.750000e+001 5.000000e+001
    endloop
  endfacet
  facet normal 1.000000e+000 -0.000000e+000 0.000000e+000
    outer loop
      vertex   -5.000000e+000 -3.750000e+001 5.000000e+001
      vertex   -5.000000e+000 -4.900000e+001 0.000000e+000
      vertex   -5.000000e+000 -3.000000e+000 0.000000e+000
    endloop
  endfacet
  facet normal 1.000000e+000 -0.000000e+000 0.000000e+000
    outer loop
      vertex   -5.000000e+000 2.000000e+001 5.000000e+001
      vertex   -5.000000e+000 -3.000000e+000 0.000000e+000
      vertex   -5.000000e+000 4.300000e+001 0.000000e+000
    endloop
  endfacet
  facet normal 1.000000e+000 -0.000000e+000 0.000000e+000
    outer loop
      vertex   -5.000000e+000 7.750000e+001 5.000000e+001
      vertex   -5.000000e+000 4.300000e+001 0.000000e+000
      vertex   -5.000000e+000 8.900000e+001 0.000000e+000
    endloop
  endfacet
  facet normal 1.000000e+000 -0.000000e+000 0.000000e+000
    outer loop
      vertex   -5.000000e+000 1.350000e+002 5.000000e+001
      vertex   -5.000000e+000 8.900000e+001 0.000000e+000
      vertex   -5.000000e+000 1.350000e+002 0.000000e+000
    endloop
  endfacet
  facet normal 1.000000e+000 0.000000e+000 0.000000e+000
    outer loop
      vertex   -5.000000e+000 1.350000e+002 5.000000e+001
      vertex   -5.000000e+000 7.750000e+001 5.000000e+001
      vertex   -5.000000e+000 8.900000e+001 0.000000e+000
    endloop
  endfacet
  facet normal 1.000000e+000 -0.000000e+000 0.000000e+000
    outer loop
      vertex   -5.000000e+000 -3.750000e+001 5.000000e+001
      vertex   -5.000000e+000 -3.000000e+000 0.000000e+000
      vertex   -5.000000e+000 2.000000e+001 5.000000e+001
    endloop
  endfacet
  facet normal 1.000000e+000 -0.000000e+000 0.000000e+000
    outer loop
      vertex   -5.000000e+000 2.000000e+001 5.000000e+001
      vertex   -5.000000e+000 4.300000e+001 0.000000e+000
      vertex   -5.000000e+000 7.750000e+001 5.000000e+001
    endloop
  endfacet
  facet normal 1.000000e+000 0.000000e+000 0.000000e+000
    outer loop
      vertex   -5.000000e+000 8.900000e+001 1.500000e+002
      vertex   -5.000000e+000 4.300000e+001 1.500000e+002
      vertex   -5.000000e+000 7.750000e+001 1.000000e+002
    endloop
  endfacet
  facet normal 1.000000e+000 0.000000e+000 0.000000e+000
    outer loop
      vertex   -5.000000e+000 4.300000e+001 1.500000e+002
      vertex   -5.000000e+000 -3.000000e+000 1.500000e+002
      vertex   -5.000000e+000 2.000000e+001 1.000000e+002
    endloop
  endfacet
  facet normal 1.000000e+000 0.000000e+000 0.000000e+000
    outer loop
      vertex   -5.000000e+000 -3.000000e+000 1.500000e+002
      vertex   -5.000000e+000 -4.900000e+001 1.500000e+002
      vertex   -5.000000e+000 -3.750000e+001 1.000000e+002
    endloop
  endfacet
  facet normal 1.000000e+000 0.000000e+000 0.000000e+000
    outer loop
      vertex   -5.000000e+000 2.000000e+001 1.000000e+002
      vertex   -5.000000e+000 -3.750000e+001 1.000000e+002
      vertex   -5.000000e+000 -3.750000e+001 5.000000e+001
    endloop
  endfacet
  facet normal 1.000000e+000 0.000000e+000 0.000000e+000
    outer loop
      vertex   -5.000000e+000 7.750000e+001 1.000000e+002
      vertex   -5.000000e+000 2.000000e+001 1.000000e+002
      vertex   -5.000000e+000 2.000000e+001 5.000000e+001
    endloop
  endfacet
endsolid
