solid OpenSCAD_Model
  facet normal -1 0 0
    outer loop
      vertex -1.7 -1.7 0
      vertex -1.7 -1.7 5
      vertex -1.7 64.1 0
    endloop
  endfacet
  facet normal -1 0 0
    outer loop
      vertex -1.7 64.1 0
      vertex -1.7 -1.7 5
      vertex -1.7 64.1 5
    endloop
  endfacet
  facet normal 0 -1 0
    outer loop
      vertex -1.7 -1.7 5
      vertex -1.7 -1.7 0
      vertex 115.3 -1.7 0
    endloop
  endfacet
  facet normal 0 -1 0
    outer loop
      vertex 115.3 -1.7 5
      vertex -1.7 -1.7 5
      vertex 115.3 -1.7 0
    endloop
  endfacet
  facet normal 0 0 -1
    outer loop
      vertex -1.7 -1.7 0
      vertex -1.7 64.1 0
      vertex 115.3 -1.7 0
    endloop
  endfacet
  facet normal 0 0 -1
    outer loop
      vertex 115.3 -1.7 0
      vertex -1.7 64.1 0
      vertex 115.3 64.1 0
    endloop
  endfacet
  facet normal 0 1 0
    outer loop
      vertex -1.7 64.1 0
      vertex -1.7 64.1 5
      vertex 115.3 64.1 0
    endloop
  endfacet
  facet normal 0 1 0
    outer loop
      vertex 115.3 64.1 0
      vertex -1.7 64.1 5
      vertex 115.3 64.1 5
    endloop
  endfacet
  facet normal 0 0 1
    outer loop
      vertex -0.5 -0.5 5
      vertex -1.7 -1.7 5
      vertex 115.3 -1.7 5
    endloop
  endfacet
  facet normal 0 0 1
    outer loop
      vertex -1.7 64.1 5
      vertex -1.7 -1.7 5
      vertex -0.5 -0.5 5
    endloop
  endfacet
  facet normal 0 0 1
    outer loop
      vertex -0.5 62.9 5
      vertex 114.1 62.9 5
      vertex -1.7 64.1 5
    endloop
  endfacet
  facet normal 0 0 1
    outer loop
      vertex -1.7 64.1 5
      vertex -0.5 -0.5 5
      vertex -0.5 62.9 5
    endloop
  endfacet
  facet normal 0 0 1
    outer loop
      vertex 115.3 64.1 5
      vertex 114.1 62.9 5
      vertex 115.3 -1.7 5
    endloop
  endfacet
  facet normal 0 0 1
    outer loop
      vertex 115.3 64.1 5
      vertex -1.7 64.1 5
      vertex 114.1 62.9 5
    endloop
  endfacet
  facet normal 0 0 1
    outer loop
      vertex 114.1 62.9 5
      vertex 114.1 -0.5 5
      vertex 115.3 -1.7 5
    endloop
  endfacet
  facet normal 0 0 1
    outer loop
      vertex 114.1 -0.5 5
      vertex -0.5 -0.5 5
      vertex 115.3 -1.7 5
    endloop
  endfacet
  facet normal 1 0 0
    outer loop
      vertex 115.3 -1.7 5
      vertex 115.3 -1.7 0
      vertex 115.3 64.1 0
    endloop
  endfacet
  facet normal 1 0 0
    outer loop
      vertex 115.3 64.1 5
      vertex 115.3 -1.7 5
      vertex 115.3 64.1 0
    endloop
  endfacet
  facet normal 1 0 0
    outer loop
      vertex -0.5 62.9 1
      vertex -0.5 62.9 5
      vertex -0.5 -0.5 5
    endloop
  endfacet
  facet normal 1 0 0
    outer loop
      vertex -0.5 -0.5 1
      vertex -0.5 62.9 1
      vertex -0.5 -0.5 5
    endloop
  endfacet
  facet normal 0 1 0
    outer loop
      vertex 114.1 -0.5 5
      vertex 114.1 -0.5 1
      vertex -0.5 -0.5 5
    endloop
  endfacet
  facet normal 0 1 0
    outer loop
      vertex -0.5 -0.5 5
      vertex 114.1 -0.5 1
      vertex -0.5 -0.5 1
    endloop
  endfacet
  facet normal -1 0 0
    outer loop
      vertex 114.1 62.9 5
      vertex 114.1 62.9 1
      vertex 114.1 -0.5 5
    endloop
  endfacet
  facet normal -1 0 0
    outer loop
      vertex 114.1 -0.5 5
      vertex 114.1 62.9 1
      vertex 114.1 -0.5 1
    endloop
  endfacet
  facet normal 0 -1 0
    outer loop
      vertex -0.5 62.9 5
      vertex -0.5 62.9 1
      vertex 114.1 62.9 1
    endloop
  endfacet
  facet normal 0 -1 0
    outer loop
      vertex 114.1 62.9 5
      vertex -0.5 62.9 5
      vertex 114.1 62.9 1
    endloop
  endfacet
  facet normal 0 0 1
    outer loop
      vertex 50.7 1.7 1
      vertex -0.5 -0.5 1
      vertex 114.1 -0.5 1
    endloop
  endfacet
  facet normal 0 0 1
    outer loop
      vertex -0.5 62.9 1
      vertex -0.5 -0.5 1
      vertex 1.7 6.7 1
    endloop
  endfacet
  facet normal 0 0 1
    outer loop
      vertex 50.7 1.7 1
      vertex 6.7 1.7 1
      vertex -0.5 -0.5 1
    endloop
  endfacet
  facet normal 0 0 1
    outer loop
      vertex -0.5 62.9 1
      vertex 1.7 6.7 1
      vertex 1.7 55.7 1
    endloop
  endfacet
  facet normal 0 0 1
    outer loop
      vertex 55.5296 56.9941 1
      vertex 57.9 55.7 1
      vertex 55.0301 58.2 1
    endloop
  endfacet
  facet normal 0 0 1
    outer loop
      vertex -0.5 62.9 1
      vertex 1.7 55.7 1
      vertex 1.87037 56.9941 1
    endloop
  endfacet
  facet normal 0 0 1
    outer loop
      vertex 55.7 55.7 1
      vertex 57.9 55.7 1
      vertex 55.5296 56.9941 1
    endloop
  endfacet
  facet normal 0 0 1
    outer loop
      vertex -0.5 62.9 1
      vertex 1.87037 56.9941 1
      vertex 2.36987 58.2 1
    endloop
  endfacet
  facet normal 0 0 1
    outer loop
      vertex 57.9 6.7 1
      vertex 57.9 55.7 1
      vertex 55.7 55.7 1
    endloop
  endfacet
  facet normal 0 0 1
    outer loop
      vertex -0.5 62.9 1
      vertex 2.36987 58.2 1
      vertex 3.16447 59.2355 1
    endloop
  endfacet
  facet normal 0 0 1
    outer loop
      vertex 6.7 60.7 1
      vertex 50.7 60.7 1
      vertex 114.1 62.9 1
    endloop
  endfacet
  facet normal 0 0 1
    outer loop
      vertex -0.5 62.9 1
      vertex 3.16447 59.2355 1
      vertex 4.2 60.0301 1
    endloop
  endfacet
  facet normal 0 0 1
    outer loop
      vertex 6.7 60.7 1
      vertex -0.5 62.9 1
      vertex 5.4059 60.5296 1
    endloop
  endfacet
  facet normal 0 0 1
    outer loop
      vertex 59.3645 59.2355 1
      vertex 60.4 60.0301 1
      vertex 54.2355 59.2355 1
    endloop
  endfacet
  facet normal 0 0 1
    outer loop
      vertex 114.1 62.9 1
      vertex -0.5 62.9 1
      vertex 6.7 60.7 1
    endloop
  endfacet
  facet normal 0 0 1
    outer loop
      vertex 114.1 62.9 1
      vertex 50.7 60.7 1
      vertex 51.9941 60.5296 1
    endloop
  endfacet
  facet normal 0 0 1
    outer loop
      vertex 61.6059 60.5296 1
      vertex 51.9941 60.5296 1
      vertex 53.2 60.0301 1
    endloop
  endfacet
  facet normal 0 0 1
    outer loop
      vertex 60.4 60.0301 1
      vertex 53.2 60.0301 1
      vertex 54.2355 59.2355 1
    endloop
  endfacet
  facet normal 0 0 1
    outer loop
      vertex 61.6059 1.87037 1
      vertex 60.4 2.36987 1
      vertex 53.2 2.36987 1
    endloop
  endfacet
  facet normal 0 0 1
    outer loop
      vertex 58.0704 5.4059 1
      vertex 57.9 6.7 1
      vertex 55.7 6.7 1
    endloop
  endfacet
  facet normal 0 0 1
    outer loop
      vertex 62.9 1.7 1
      vertex 51.9941 1.87037 1
      vertex 114.1 -0.5 1
    endloop
  endfacet
  facet normal 0 0 1
    outer loop
      vertex 51.9941 1.87037 1
      vertex 50.7 1.7 1
      vertex 114.1 -0.5 1
    endloop
  endfacet
  facet normal 0 0 1
    outer loop
      vertex 55.0301 58.2 1
      vertex 57.9 55.7 1
      vertex 54.2355 59.2355 1
    endloop
  endfacet
  facet normal 0 0 1
    outer loop
      vertex 5.4059 1.87037 1
      vertex -0.5 -0.5 1
      vertex 6.7 1.7 1
    endloop
  endfacet
  facet normal 0 0 1
    outer loop
      vertex 4.2 2.36987 1
      vertex -0.5 -0.5 1
      vertex 5.4059 1.87037 1
    endloop
  endfacet
  facet normal 0 0 1
    outer loop
      vertex 3.16447 3.16447 1
      vertex -0.5 -0.5 1
      vertex 4.2 2.36987 1
    endloop
  endfacet
  facet normal 0 0 1
    outer loop
      vertex 2.36987 4.2 1
      vertex -0.5 -0.5 1
      vertex 3.16447 3.16447 1
    endloop
  endfacet
  facet normal 0 0 1
    outer loop
      vertex 1.87037 5.4059 1
      vertex -0.5 -0.5 1
      vertex 2.36987 4.2 1
    endloop
  endfacet
  facet normal 0 0 1
    outer loop
      vertex 1.7 6.7 1
      vertex -0.5 -0.5 1
      vertex 1.87037 5.4059 1
    endloop
  endfacet
  facet normal 0 0 1
    outer loop
      vertex 58.0704 56.9941 1
      vertex 54.2355 59.2355 1
      vertex 57.9 55.7 1
    endloop
  endfacet
  facet normal 0 0 1
    outer loop
      vertex 58.5699 58.2 1
      vertex 54.2355 59.2355 1
      vertex 58.0704 56.9941 1
    endloop
  endfacet
  facet normal 0 0 1
    outer loop
      vertex 59.3645 59.2355 1
      vertex 54.2355 59.2355 1
      vertex 58.5699 58.2 1
    endloop
  endfacet
  facet normal 0 0 1
    outer loop
      vertex 60.4 60.0301 1
      vertex 61.6059 60.5296 1
      vertex 53.2 60.0301 1
    endloop
  endfacet
  facet normal 0 0 1
    outer loop
      vertex 62.9 60.7 1
      vertex 51.9941 60.5296 1
      vertex 61.6059 60.5296 1
    endloop
  endfacet
  facet normal 0 0 1
    outer loop
      vertex 111.9 55.7 1
      vertex 111.9 6.7 1
      vertex 114.1 -0.5 1
    endloop
  endfacet
  facet normal 0 0 1
    outer loop
      vertex 114.1 62.9 1
      vertex 51.9941 60.5296 1
      vertex 62.9 60.7 1
    endloop
  endfacet
  facet normal 0 0 1
    outer loop
      vertex 110.436 3.16447 1
      vertex 109.4 2.36987 1
      vertex 114.1 -0.5 1
    endloop
  endfacet
  facet normal 0 0 1
    outer loop
      vertex 60.4 2.36987 1
      vertex 59.3645 3.16447 1
      vertex 54.2355 3.16447 1
    endloop
  endfacet
  facet normal 0 0 1
    outer loop
      vertex 114.1 62.9 1
      vertex 106.9 60.7 1
      vertex 108.194 60.5296 1
    endloop
  endfacet
  facet normal 0 0 1
    outer loop
      vertex 114.1 62.9 1
      vertex 108.194 60.5296 1
      vertex 109.4 60.0301 1
    endloop
  endfacet
  facet normal 0 0 1
    outer loop
      vertex 59.3645 3.16447 1
      vertex 58.5699 4.2 1
      vertex 55.0301 4.2 1
    endloop
  endfacet
  facet normal 0 0 1
    outer loop
      vertex 114.1 62.9 1
      vertex 109.4 60.0301 1
      vertex 110.436 59.2355 1
    endloop
  endfacet
  facet normal 0 0 1
    outer loop
      vertex 114.1 62.9 1
      vertex 110.436 59.2355 1
      vertex 111.23 58.2 1
    endloop
  endfacet
  facet normal 0 0 1
    outer loop
      vertex 58.5699 4.2 1
      vertex 58.0704 5.4059 1
      vertex 55.5296 5.4059 1
    endloop
  endfacet
  facet normal 0 0 1
    outer loop
      vertex 114.1 62.9 1
      vertex 111.23 58.2 1
      vertex 111.73 56.9941 1
    endloop
  endfacet
  facet normal 0 0 1
    outer loop
      vertex 114.1 62.9 1
      vertex 111.9 55.7 1
      vertex 114.1 -0.5 1
    endloop
  endfacet
  facet normal 0 0 1
    outer loop
      vertex 114.1 62.9 1
      vertex 111.73 56.9941 1
      vertex 111.9 55.7 1
    endloop
  endfacet
  facet normal 0 0 1
    outer loop
      vertex 111.9 6.7 1
      vertex 111.73 5.4059 1
      vertex 114.1 -0.5 1
    endloop
  endfacet
  facet normal 0 0 1
    outer loop
      vertex 111.73 5.4059 1
      vertex 111.23 4.2 1
      vertex 114.1 -0.5 1
    endloop
  endfacet
  facet normal 0 0 1
    outer loop
      vertex 111.23 4.2 1
      vertex 110.436 3.16447 1
      vertex 114.1 -0.5 1
    endloop
  endfacet
  facet normal 0 0 1
    outer loop
      vertex 55.0301 4.2 1
      vertex 54.2355 3.16447 1
      vertex 59.3645 3.16447 1
    endloop
  endfacet
  facet normal 0 0 1
    outer loop
      vertex 108.194 1.87037 1
      vertex 106.9 1.7 1
      vertex 114.1 -0.5 1
    endloop
  endfacet
  facet normal 0 0 1
    outer loop
      vertex 53.2 2.36987 1
      vertex 51.9941 1.87037 1
      vertex 62.9 1.7 1
    endloop
  endfacet
  facet normal 0 0 1
    outer loop
      vertex 53.2 2.36987 1
      vertex 62.9 1.7 1
      vertex 61.6059 1.87037 1
    endloop
  endfacet
  facet normal 0 0 1
    outer loop
      vertex 54.2355 3.16447 1
      vertex 53.2 2.36987 1
      vertex 60.4 2.36987 1
    endloop
  endfacet
  facet normal 0 0 1
    outer loop
      vertex 55.5296 5.4059 1
      vertex 55.0301 4.2 1
      vertex 58.5699 4.2 1
    endloop
  endfacet
  facet normal 0 0 1
    outer loop
      vertex 55.7 6.7 1
      vertex 55.5296 5.4059 1
      vertex 58.0704 5.4059 1
    endloop
  endfacet
  facet normal 0 0 1
    outer loop
      vertex 4.2 60.0301 1
      vertex 5.4059 60.5296 1
      vertex -0.5 62.9 1
    endloop
  endfacet
  facet normal 0 0 1
    outer loop
      vertex 109.4 2.36987 1
      vertex 108.194 1.87037 1
      vertex 114.1 -0.5 1
    endloop
  endfacet
  facet normal 0 0 1
    outer loop
      vertex 62.9 60.7 1
      vertex 106.9 60.7 1
      vertex 114.1 62.9 1
    endloop
  endfacet
  facet normal 0 0 1
    outer loop
      vertex 55.7 55.7 1
      vertex 55.7 6.7 1
      vertex 57.9 6.7 1
    endloop
  endfacet
  facet normal 0 0 1
    outer loop
      vertex 106.9 1.7 1
      vertex 62.9 1.7 1
      vertex 114.1 -0.5 1
    endloop
  endfacet
  facet normal -1 0 0
    outer loop
      vertex 1.7 6.7 1
      vertex 1.7 6.7 5
      vertex 1.7 55.7 1
    endloop
  endfacet
  facet normal -1 0 0
    outer loop
      vertex 1.7 55.7 1
      vertex 1.7 6.7 5
      vertex 1.7 55.7 5
    endloop
  endfacet
  facet normal -0.991445 -0.130526 0
    outer loop
      vertex 1.7 6.7 1
      vertex 1.87037 5.4059 1
      vertex 1.7 6.7 5
    endloop
  endfacet
  facet normal -0.991445 -0.130526 0
    outer loop
      vertex 1.7 6.7 5
      vertex 1.87037 5.4059 1
      vertex 1.87037 5.4059 5
    endloop
  endfacet
  facet normal -0.92388 -0.382683 0
    outer loop
      vertex 1.87037 5.4059 1
      vertex 2.36987 4.2 1
      vertex 1.87037 5.4059 5
    endloop
  endfacet
  facet normal -0.92388 -0.382683 0
    outer loop
      vertex 1.87037 5.4059 5
      vertex 2.36987 4.2 1
      vertex 2.36987 4.2 5
    endloop
  endfacet
  facet normal -0.793353 -0.608761 0
    outer loop
      vertex 2.36987 4.2 1
      vertex 3.16447 3.16447 1
      vertex 2.36987 4.2 5
    endloop
  endfacet
  facet normal -0.793353 -0.608761 0
    outer loop
      vertex 2.36987 4.2 5
      vertex 3.16447 3.16447 1
      vertex 3.16447 3.16447 5
    endloop
  endfacet
  facet normal -0.608761 -0.793353 0
    outer loop
      vertex 3.16447 3.16447 5
      vertex 3.16447 3.16447 1
      vertex 4.2 2.36987 1
    endloop
  endfacet
  facet normal -0.608761 -0.793353 0
    outer loop
      vertex 4.2 2.36987 5
      vertex 3.16447 3.16447 5
      vertex 4.2 2.36987 1
    endloop
  endfacet
  facet normal -0.382683 -0.92388 0
    outer loop
      vertex 4.2 2.36987 5
      vertex 4.2 2.36987 1
      vertex 5.4059 1.87037 1
    endloop
  endfacet
  facet normal -0.382683 -0.92388 0
    outer loop
      vertex 5.4059 1.87037 5
      vertex 4.2 2.36987 5
      vertex 5.4059 1.87037 1
    endloop
  endfacet
  facet normal -0.130526 -0.991445 0
    outer loop
      vertex 5.4059 1.87037 5
      vertex 5.4059 1.87037 1
      vertex 6.7 1.7 1
    endloop
  endfacet
  facet normal -0.130526 -0.991445 0
    outer loop
      vertex 6.7 1.7 5
      vertex 5.4059 1.87037 5
      vertex 6.7 1.7 1
    endloop
  endfacet
  facet normal 0 -1 0
    outer loop
      vertex 6.7 1.7 5
      vertex 6.7 1.7 1
      vertex 50.7 1.7 1
    endloop
  endfacet
  facet normal 0 -1 0
    outer loop
      vertex 50.7 1.7 5
      vertex 6.7 1.7 5
      vertex 50.7 1.7 1
    endloop
  endfacet
  facet normal 0.130526 -0.991445 0
    outer loop
      vertex 50.7 1.7 5
      vertex 50.7 1.7 1
      vertex 51.9941 1.87037 1
    endloop
  endfacet
  facet normal 0.130526 -0.991445 0
    outer loop
      vertex 51.9941 1.87037 5
      vertex 50.7 1.7 5
      vertex 51.9941 1.87037 1
    endloop
  endfacet
  facet normal 0.382683 -0.92388 0
    outer loop
      vertex 51.9941 1.87037 5
      vertex 51.9941 1.87037 1
      vertex 53.2 2.36987 1
    endloop
  endfacet
  facet normal 0.382683 -0.92388 0
    outer loop
      vertex 53.2 2.36987 5
      vertex 51.9941 1.87037 5
      vertex 53.2 2.36987 1
    endloop
  endfacet
  facet normal 0.608761 -0.793353 0
    outer loop
      vertex 53.2 2.36987 5
      vertex 53.2 2.36987 1
      vertex 54.2355 3.16447 1
    endloop
  endfacet
  facet normal 0.608761 -0.793353 0
    outer loop
      vertex 54.2355 3.16447 5
      vertex 53.2 2.36987 5
      vertex 54.2355 3.16447 1
    endloop
  endfacet
  facet normal 0.793353 -0.608761 0
    outer loop
      vertex 54.2355 3.16447 5
      vertex 54.2355 3.16447 1
      vertex 55.0301 4.2 1
    endloop
  endfacet
  facet normal 0.793353 -0.608761 0
    outer loop
      vertex 55.0301 4.2 5
      vertex 54.2355 3.16447 5
      vertex 55.0301 4.2 1
    endloop
  endfacet
  facet normal 0.92388 -0.382683 0
    outer loop
      vertex 55.0301 4.2 5
      vertex 55.0301 4.2 1
      vertex 55.5296 5.4059 1
    endloop
  endfacet
  facet normal 0.92388 -0.382683 0
    outer loop
      vertex 55.5296 5.4059 5
      vertex 55.0301 4.2 5
      vertex 55.5296 5.4059 1
    endloop
  endfacet
  facet normal 0.991445 -0.130526 0
    outer loop
      vertex 55.5296 5.4059 5
      vertex 55.5296 5.4059 1
      vertex 55.7 6.7 1
    endloop
  endfacet
  facet normal 0.991445 -0.130526 0
    outer loop
      vertex 55.7 6.7 5
      vertex 55.5296 5.4059 5
      vertex 55.7 6.7 1
    endloop
  endfacet
  facet normal 1 0 0
    outer loop
      vertex 55.7 6.7 5
      vertex 55.7 6.7 1
      vertex 55.7 55.7 1
    endloop
  endfacet
  facet normal 1 0 0
    outer loop
      vertex 55.7 55.7 5
      vertex 55.7 6.7 5
      vertex 55.7 55.7 1
    endloop
  endfacet
  facet normal 0.991445 0.130526 0
    outer loop
      vertex 55.7 55.7 1
      vertex 55.5296 56.9941 1
      vertex 55.5296 56.9941 5
    endloop
  endfacet
  facet normal 0.991445 0.130526 0
    outer loop
      vertex 55.7 55.7 5
      vertex 55.7 55.7 1
      vertex 55.5296 56.9941 5
    endloop
  endfacet
  facet normal 0.92388 0.382683 0
    outer loop
      vertex 55.5296 56.9941 1
      vertex 55.0301 58.2 1
      vertex 55.0301 58.2 5
    endloop
  endfacet
  facet normal 0.92388 0.382683 0
    outer loop
      vertex 55.5296 56.9941 5
      vertex 55.5296 56.9941 1
      vertex 55.0301 58.2 5
    endloop
  endfacet
  facet normal 0.793353 0.608761 0
    outer loop
      vertex 55.0301 58.2 1
      vertex 54.2355 59.2355 1
      vertex 54.2355 59.2355 5
    endloop
  endfacet
  facet normal 0.793353 0.608761 0
    outer loop
      vertex 55.0301 58.2 5
      vertex 55.0301 58.2 1
      vertex 54.2355 59.2355 5
    endloop
  endfacet
  facet normal 0.608761 0.793353 0
    outer loop
      vertex 53.2 60.0301 1
      vertex 53.2 60.0301 5
      vertex 54.2355 59.2355 1
    endloop
  endfacet
  facet normal 0.608761 0.793353 0
    outer loop
      vertex 54.2355 59.2355 1
      vertex 53.2 60.0301 5
      vertex 54.2355 59.2355 5
    endloop
  endfacet
  facet normal 0.382683 0.92388 0
    outer loop
      vertex 51.9941 60.5296 1
      vertex 51.9941 60.5296 5
      vertex 53.2 60.0301 1
    endloop
  endfacet
  facet normal 0.382683 0.92388 0
    outer loop
      vertex 53.2 60.0301 1
      vertex 51.9941 60.5296 5
      vertex 53.2 60.0301 5
    endloop
  endfacet
  facet normal 0.130526 0.991445 0
    outer loop
      vertex 50.7 60.7 1
      vertex 50.7 60.7 5
      vertex 51.9941 60.5296 1
    endloop
  endfacet
  facet normal 0.130526 0.991445 0
    outer loop
      vertex 51.9941 60.5296 1
      vertex 50.7 60.7 5
      vertex 51.9941 60.5296 5
    endloop
  endfacet
  facet normal 0 1 0
    outer loop
      vertex 6.7 60.7 1
      vertex 6.7 60.7 5
      vertex 50.7 60.7 1
    endloop
  endfacet
  facet normal 0 1 0
    outer loop
      vertex 50.7 60.7 1
      vertex 6.7 60.7 5
      vertex 50.7 60.7 5
    endloop
  endfacet
  facet normal -0.130526 0.991445 0
    outer loop
      vertex 5.4059 60.5296 1
      vertex 5.4059 60.5296 5
      vertex 6.7 60.7 1
    endloop
  endfacet
  facet normal -0.130526 0.991445 0
    outer loop
      vertex 6.7 60.7 1
      vertex 5.4059 60.5296 5
      vertex 6.7 60.7 5
    endloop
  endfacet
  facet normal -0.382683 0.92388 0
    outer loop
      vertex 4.2 60.0301 1
      vertex 4.2 60.0301 5
      vertex 5.4059 60.5296 1
    endloop
  endfacet
  facet normal -0.382683 0.92388 0
    outer loop
      vertex 5.4059 60.5296 1
      vertex 4.2 60.0301 5
      vertex 5.4059 60.5296 5
    endloop
  endfacet
  facet normal -0.608761 0.793353 0
    outer loop
      vertex 3.16447 59.2355 1
      vertex 3.16447 59.2355 5
      vertex 4.2 60.0301 1
    endloop
  endfacet
  facet normal -0.608761 0.793353 0
    outer loop
      vertex 4.2 60.0301 1
      vertex 3.16447 59.2355 5
      vertex 4.2 60.0301 5
    endloop
  endfacet
  facet normal -0.793353 0.608761 0
    outer loop
      vertex 2.36987 58.2 1
      vertex 2.36987 58.2 5
      vertex 3.16447 59.2355 1
    endloop
  endfacet
  facet normal -0.793353 0.608761 0
    outer loop
      vertex 3.16447 59.2355 1
      vertex 2.36987 58.2 5
      vertex 3.16447 59.2355 5
    endloop
  endfacet
  facet normal -0.92388 0.382683 0
    outer loop
      vertex 1.87037 56.9941 1
      vertex 1.87037 56.9941 5
      vertex 2.36987 58.2 1
    endloop
  endfacet
  facet normal -0.92388 0.382683 0
    outer loop
      vertex 2.36987 58.2 1
      vertex 1.87037 56.9941 5
      vertex 2.36987 58.2 5
    endloop
  endfacet
  facet normal -0.991445 0.130526 0
    outer loop
      vertex 1.7 55.7 1
      vertex 1.7 55.7 5
      vertex 1.87037 56.9941 1
    endloop
  endfacet
  facet normal -0.991445 0.130526 0
    outer loop
      vertex 1.87037 56.9941 1
      vertex 1.7 55.7 5
      vertex 1.87037 56.9941 5
    endloop
  endfacet
  facet normal -1 0 0
    outer loop
      vertex 57.9 6.7 1
      vertex 57.9 6.7 5
      vertex 57.9 55.7 1
    endloop
  endfacet
  facet normal -1 0 0
    outer loop
      vertex 57.9 55.7 1
      vertex 57.9 6.7 5
      vertex 57.9 55.7 5
    endloop
  endfacet
  facet normal -0.991445 -0.130526 0
    outer loop
      vertex 57.9 6.7 1
      vertex 58.0704 5.4059 1
      vertex 57.9 6.7 5
    endloop
  endfacet
  facet normal -0.991445 -0.130526 0
    outer loop
      vertex 57.9 6.7 5
      vertex 58.0704 5.4059 1
      vertex 58.0704 5.4059 5
    endloop
  endfacet
  facet normal -0.92388 -0.382683 0
    outer loop
      vertex 58.0704 5.4059 1
      vertex 58.5699 4.2 1
      vertex 58.0704 5.4059 5
    endloop
  endfacet
  facet normal -0.92388 -0.382683 0
    outer loop
      vertex 58.0704 5.4059 5
      vertex 58.5699 4.2 1
      vertex 58.5699 4.2 5
    endloop
  endfacet
  facet normal -0.793353 -0.608761 0
    outer loop
      vertex 58.5699 4.2 1
      vertex 59.3645 3.16447 1
      vertex 58.5699 4.2 5
    endloop
  endfacet
  facet normal -0.793353 -0.608761 0
    outer loop
      vertex 58.5699 4.2 5
      vertex 59.3645 3.16447 1
      vertex 59.3645 3.16447 5
    endloop
  endfacet
  facet normal -0.608761 -0.793353 0
    outer loop
      vertex 59.3645 3.16447 5
      vertex 59.3645 3.16447 1
      vertex 60.4 2.36987 1
    endloop
  endfacet
  facet normal -0.608761 -0.793353 0
    outer loop
      vertex 60.4 2.36987 5
      vertex 59.3645 3.16447 5
      vertex 60.4 2.36987 1
    endloop
  endfacet
  facet normal -0.382683 -0.92388 0
    outer loop
      vertex 60.4 2.36987 5
      vertex 60.4 2.36987 1
      vertex 61.6059 1.87037 1
    endloop
  endfacet
  facet normal -0.382683 -0.92388 0
    outer loop
      vertex 61.6059 1.87037 5
      vertex 60.4 2.36987 5
      vertex 61.6059 1.87037 1
    endloop
  endfacet
  facet normal -0.130526 -0.991445 0
    outer loop
      vertex 61.6059 1.87037 5
      vertex 61.6059 1.87037 1
      vertex 62.9 1.7 1
    endloop
  endfacet
  facet normal -0.130526 -0.991445 0
    outer loop
      vertex 62.9 1.7 5
      vertex 61.6059 1.87037 5
      vertex 62.9 1.7 1
    endloop
  endfacet
  facet normal 0 -1 0
    outer loop
      vertex 62.9 1.7 5
      vertex 62.9 1.7 1
      vertex 106.9 1.7 1
    endloop
  endfacet
  facet normal 0 -1 0
    outer loop
      vertex 106.9 1.7 5
      vertex 62.9 1.7 5
      vertex 106.9 1.7 1
    endloop
  endfacet
  facet normal 0.130526 -0.991445 0
    outer loop
      vertex 106.9 1.7 5
      vertex 106.9 1.7 1
      vertex 108.194 1.87037 1
    endloop
  endfacet
  facet normal 0.130526 -0.991445 0
    outer loop
      vertex 108.194 1.87037 5
      vertex 106.9 1.7 5
      vertex 108.194 1.87037 1
    endloop
  endfacet
  facet normal 0.382683 -0.92388 0
    outer loop
      vertex 108.194 1.87037 5
      vertex 108.194 1.87037 1
      vertex 109.4 2.36987 1
    endloop
  endfacet
  facet normal 0.382683 -0.92388 0
    outer loop
      vertex 109.4 2.36987 5
      vertex 108.194 1.87037 5
      vertex 109.4 2.36987 1
    endloop
  endfacet
  facet normal 0.608761 -0.793353 0
    outer loop
      vertex 109.4 2.36987 5
      vertex 109.4 2.36987 1
      vertex 110.436 3.16447 1
    endloop
  endfacet
  facet normal 0.608761 -0.793353 0
    outer loop
      vertex 110.436 3.16447 5
      vertex 109.4 2.36987 5
      vertex 110.436 3.16447 1
    endloop
  endfacet
  facet normal 0.793353 -0.608761 0
    outer loop
      vertex 110.436 3.16447 5
      vertex 110.436 3.16447 1
      vertex 111.23 4.2 1
    endloop
  endfacet
  facet normal 0.793353 -0.608761 0
    outer loop
      vertex 111.23 4.2 5
      vertex 110.436 3.16447 5
      vertex 111.23 4.2 1
    endloop
  endfacet
  facet normal 0.92388 -0.382683 0
    outer loop
      vertex 111.23 4.2 5
      vertex 111.23 4.2 1
      vertex 111.73 5.4059 1
    endloop
  endfacet
  facet normal 0.92388 -0.382683 0
    outer loop
      vertex 111.73 5.4059 5
      vertex 111.23 4.2 5
      vertex 111.73 5.4059 1
    endloop
  endfacet
  facet normal 0.991445 -0.130526 0
    outer loop
      vertex 111.73 5.4059 5
      vertex 111.73 5.4059 1
      vertex 111.9 6.7 1
    endloop
  endfacet
  facet normal 0.991445 -0.130526 0
    outer loop
      vertex 111.9 6.7 5
      vertex 111.73 5.4059 5
      vertex 111.9 6.7 1
    endloop
  endfacet
  facet normal 1 0 0
    outer loop
      vertex 111.9 6.7 5
      vertex 111.9 6.7 1
      vertex 111.9 55.7 1
    endloop
  endfacet
  facet normal 1 0 0
    outer loop
      vertex 111.9 55.7 5
      vertex 111.9 6.7 5
      vertex 111.9 55.7 1
    endloop
  endfacet
  facet normal 0.991445 0.130526 0
    outer loop
      vertex 111.9 55.7 1
      vertex 111.73 56.9941 1
      vertex 111.73 56.9941 5
    endloop
  endfacet
  facet normal 0.991445 0.130526 0
    outer loop
      vertex 111.9 55.7 5
      vertex 111.9 55.7 1
      vertex 111.73 56.9941 5
    endloop
  endfacet
  facet normal 0.92388 0.382683 0
    outer loop
      vertex 111.73 56.9941 1
      vertex 111.23 58.2 1
      vertex 111.23 58.2 5
    endloop
  endfacet
  facet normal 0.92388 0.382683 0
    outer loop
      vertex 111.73 56.9941 5
      vertex 111.73 56.9941 1
      vertex 111.23 58.2 5
    endloop
  endfacet
  facet normal 0.793353 0.608761 0
    outer loop
      vertex 111.23 58.2 1
      vertex 110.436 59.2355 1
      vertex 110.436 59.2355 5
    endloop
  endfacet
  facet normal 0.793353 0.608761 0
    outer loop
      vertex 111.23 58.2 5
      vertex 111.23 58.2 1
      vertex 110.436 59.2355 5
    endloop
  endfacet
  facet normal 0.608761 0.793353 0
    outer loop
      vertex 109.4 60.0301 1
      vertex 109.4 60.0301 5
      vertex 110.436 59.2355 1
    endloop
  endfacet
  facet normal 0.608761 0.793353 0
    outer loop
      vertex 110.436 59.2355 1
      vertex 109.4 60.0301 5
      vertex 110.436 59.2355 5
    endloop
  endfacet
  facet normal 0.382683 0.92388 0
    outer loop
      vertex 108.194 60.5296 1
      vertex 108.194 60.5296 5
      vertex 109.4 60.0301 1
    endloop
  endfacet
  facet normal 0.382683 0.92388 0
    outer loop
      vertex 109.4 60.0301 1
      vertex 108.194 60.5296 5
      vertex 109.4 60.0301 5
    endloop
  endfacet
  facet normal 0.130526 0.991445 0
    outer loop
      vertex 106.9 60.7 1
      vertex 106.9 60.7 5
      vertex 108.194 60.5296 1
    endloop
  endfacet
  facet normal 0.130526 0.991445 0
    outer loop
      vertex 108.194 60.5296 1
      vertex 106.9 60.7 5
      vertex 108.194 60.5296 5
    endloop
  endfacet
  facet normal 0 1 0
    outer loop
      vertex 62.9 60.7 1
      vertex 62.9 60.7 5
      vertex 106.9 60.7 1
    endloop
  endfacet
  facet normal 0 1 0
    outer loop
      vertex 106.9 60.7 1
      vertex 62.9 60.7 5
      vertex 106.9 60.7 5
    endloop
  endfacet
  facet normal -0.130526 0.991445 0
    outer loop
      vertex 61.6059 60.5296 1
      vertex 61.6059 60.5296 5
      vertex 62.9 60.7 1
    endloop
  endfacet
  facet normal -0.130526 0.991445 0
    outer loop
      vertex 62.9 60.7 1
      vertex 61.6059 60.5296 5
      vertex 62.9 60.7 5
    endloop
  endfacet
  facet normal -0.382683 0.92388 0
    outer loop
      vertex 60.4 60.0301 1
      vertex 60.4 60.0301 5
      vertex 61.6059 60.5296 1
    endloop
  endfacet
  facet normal -0.382683 0.92388 0
    outer loop
      vertex 61.6059 60.5296 1
      vertex 60.4 60.0301 5
      vertex 61.6059 60.5296 5
    endloop
  endfacet
  facet normal -0.608761 0.793353 0
    outer loop
      vertex 59.3645 59.2355 1
      vertex 59.3645 59.2355 5
      vertex 60.4 60.0301 1
    endloop
  endfacet
  facet normal -0.608761 0.793353 0
    outer loop
      vertex 60.4 60.0301 1
      vertex 59.3645 59.2355 5
      vertex 60.4 60.0301 5
    endloop
  endfacet
  facet normal -0.793353 0.608761 0
    outer loop
      vertex 58.5699 58.2 1
      vertex 58.5699 58.2 5
      vertex 59.3645 59.2355 1
    endloop
  endfacet
  facet normal -0.793353 0.608761 0
    outer loop
      vertex 59.3645 59.2355 1
      vertex 58.5699 58.2 5
      vertex 59.3645 59.2355 5
    endloop
  endfacet
  facet normal -0.92388 0.382683 0
    outer loop
      vertex 58.0704 56.9941 1
      vertex 58.0704 56.9941 5
      vertex 58.5699 58.2 1
    endloop
  endfacet
  facet normal -0.92388 0.382683 0
    outer loop
      vertex 58.5699 58.2 1
      vertex 58.0704 56.9941 5
      vertex 58.5699 58.2 5
    endloop
  endfacet
  facet normal -0.991445 0.130526 0
    outer loop
      vertex 57.9 55.7 1
      vertex 57.9 55.7 5
      vertex 58.0704 56.9941 1
    endloop
  endfacet
  facet normal -0.991445 0.130526 0
    outer loop
      vertex 58.0704 56.9941 1
      vertex 57.9 55.7 5
      vertex 58.0704 56.9941 5
    endloop
  endfacet
  facet normal 0 0 1
    outer loop
      vertex 1.7 55.7 5
      vertex 1.7 6.7 5
      vertex 1.87037 5.4059 5
    endloop
  endfacet
  facet normal 0 0 1
    outer loop
      vertex 2.9 7.9 5
      vertex 1.7 55.7 5
      vertex 2.36987 4.2 5
    endloop
  endfacet
  facet normal 0 0 1
    outer loop
      vertex 2.36987 4.2 5
      vertex 1.7 55.7 5
      vertex 1.87037 5.4059 5
    endloop
  endfacet
  facet normal 0 0 1
    outer loop
      vertex 54.3296 55.7941 5
      vertex 54.5 54.5 5
      vertex 55.7 55.7 5
    endloop
  endfacet
  facet normal 0 0 1
    outer loop
      vertex 7.9 59.5 5
      vertex 53.2 60.0301 5
      vertex 51.9941 60.5296 5
    endloop
  endfacet
  facet normal 0 0 1
    outer loop
      vertex 49.5 59.5 5
      vertex 50.7941 59.3296 5
      vertex 54.2355 59.2355 5
    endloop
  endfacet
  facet normal 0 0 1
    outer loop
      vertex 53.0355 4.36447 5
      vertex 52 3.56987 5
      vertex 53.2 2.36987 5
    endloop
  endfacet
  facet normal 0 0 1
    outer loop
      vertex 4.36447 58.0355 5
      vertex 5.4 58.8301 5
      vertex 6.7 60.7 5
    endloop
  endfacet
  facet normal 0 0 1
    outer loop
      vertex 5.4059 60.5296 5
      vertex 1.7 55.7 5
      vertex 6.7 60.7 5
    endloop
  endfacet
  facet normal 0 0 1
    outer loop
      vertex 4.2 60.0301 5
      vertex 1.7 55.7 5
      vertex 5.4059 60.5296 5
    endloop
  endfacet
  facet normal 0 0 1
    outer loop
      vertex 3.16447 59.2355 5
      vertex 1.7 55.7 5
      vertex 4.2 60.0301 5
    endloop
  endfacet
  facet normal 0 0 1
    outer loop
      vertex 2.36987 58.2 5
      vertex 1.7 55.7 5
      vertex 3.16447 59.2355 5
    endloop
  endfacet
  facet normal 0 0 1
    outer loop
      vertex 1.87037 56.9941 5
      vertex 1.7 55.7 5
      vertex 2.36987 58.2 5
    endloop
  endfacet
  facet normal 0 0 1
    outer loop
      vertex 3.16447 3.16447 5
      vertex 2.9 7.9 5
      vertex 2.36987 4.2 5
    endloop
  endfacet
  facet normal 0 0 1
    outer loop
      vertex 50.7941 3.07037 5
      vertex 49.5 2.9 5
      vertex 50.7 1.7 5
    endloop
  endfacet
  facet normal 0 0 1
    outer loop
      vertex 52 3.56987 5
      vertex 50.7941 3.07037 5
      vertex 51.9941 1.87037 5
    endloop
  endfacet
  facet normal 0 0 1
    outer loop
      vertex 53.8301 57 5
      vertex 54.3296 55.7941 5
      vertex 55.5296 56.9941 5
    endloop
  endfacet
  facet normal 0 0 1
    outer loop
      vertex 52 58.8301 5
      vertex 53.0355 58.0355 5
      vertex 55.0301 58.2 5
    endloop
  endfacet
  facet normal 0 0 1
    outer loop
      vertex 4.36447 58.0355 5
      vertex 1.7 55.7 5
      vertex 3.56987 57 5
    endloop
  endfacet
  facet normal 0 0 1
    outer loop
      vertex 6.7 60.7 5
      vertex 1.7 55.7 5
      vertex 4.36447 58.0355 5
    endloop
  endfacet
  facet normal 0 0 1
    outer loop
      vertex 6.7 60.7 5
      vertex 5.4 58.8301 5
      vertex 6.6059 59.3296 5
    endloop
  endfacet
  facet normal 0 0 1
    outer loop
      vertex 6.7 60.7 5
      vertex 7.9 59.5 5
      vertex 50.7 60.7 5
    endloop
  endfacet
  facet normal 0 0 1
    outer loop
      vertex 6.7 60.7 5
      vertex 6.6059 59.3296 5
      vertex 7.9 59.5 5
    endloop
  endfacet
  facet normal 0 0 1
    outer loop
      vertex 50.7941 59.3296 5
      vertex 52 58.8301 5
      vertex 54.2355 59.2355 5
    endloop
  endfacet
  facet normal 0 0 1
    outer loop
      vertex 53.2 60.0301 5
      vertex 49.5 59.5 5
      vertex 54.2355 59.2355 5
    endloop
  endfacet
  facet normal 0 0 1
    outer loop
      vertex 54.2355 59.2355 5
      vertex 52 58.8301 5
      vertex 55.0301 58.2 5
    endloop
  endfacet
  facet normal 0 0 1
    outer loop
      vertex 53.8301 5.4 5
      vertex 53.0355 4.36447 5
      vertex 55.0301 4.2 5
    endloop
  endfacet
  facet normal 0 0 1
    outer loop
      vertex 55.0301 58.2 5
      vertex 53.0355 58.0355 5
      vertex 55.5296 56.9941 5
    endloop
  endfacet
  facet normal 0 0 1
    outer loop
      vertex 3.07037 55.7941 5
      vertex 3.56987 57 5
      vertex 1.7 55.7 5
    endloop
  endfacet
  facet normal 0 0 1
    outer loop
      vertex 53.0355 58.0355 5
      vertex 53.8301 57 5
      vertex 55.5296 56.9941 5
    endloop
  endfacet
  facet normal 0 0 1
    outer loop
      vertex 7.9 59.5 5
      vertex 51.9941 60.5296 5
      vertex 50.7 60.7 5
    endloop
  endfacet
  facet normal 0 0 1
    outer loop
      vertex 55.5296 56.9941 5
      vertex 54.3296 55.7941 5
      vertex 55.7 55.7 5
    endloop
  endfacet
  facet normal 0 0 1
    outer loop
      vertex 7.9 59.5 5
      vertex 49.5 59.5 5
      vertex 53.2 60.0301 5
    endloop
  endfacet
  facet normal 0 0 1
    outer loop
      vertex 55.7 55.7 5
      vertex 54.5 54.5 5
      vertex 55.7 6.7 5
    endloop
  endfacet
  facet normal 0 0 1
    outer loop
      vertex 54.5 54.5 5
      vertex 54.5 7.9 5
      vertex 55.7 6.7 5
    endloop
  endfacet
  facet normal 0 0 1
    outer loop
      vertex 55.7 6.7 5
      vertex 54.3296 6.6059 5
      vertex 55.5296 5.4059 5
    endloop
  endfacet
  facet normal 0 0 1
    outer loop
      vertex 55.5296 5.4059 5
      vertex 53.8301 5.4 5
      vertex 55.0301 4.2 5
    endloop
  endfacet
  facet normal 0 0 1
    outer loop
      vertex 55.0301 4.2 5
      vertex 53.0355 4.36447 5
      vertex 54.2355 3.16447 5
    endloop
  endfacet
  facet normal 0 0 1
    outer loop
      vertex 53.2 2.36987 5
      vertex 52 3.56987 5
      vertex 51.9941 1.87037 5
    endloop
  endfacet
  facet normal 0 0 1
    outer loop
      vertex 51.9941 1.87037 5
      vertex 50.7941 3.07037 5
      vertex 50.7 1.7 5
    endloop
  endfacet
  facet normal 0 0 1
    outer loop
      vertex 50.7 1.7 5
      vertex 49.5 2.9 5
      vertex 6.7 1.7 5
    endloop
  endfacet
  facet normal 0 0 1
    outer loop
      vertex 54.5 7.9 5
      vertex 54.3296 6.6059 5
      vertex 55.7 6.7 5
    endloop
  endfacet
  facet normal 0 0 1
    outer loop
      vertex 49.5 2.9 5
      vertex 7.9 2.9 5
      vertex 6.7 1.7 5
    endloop
  endfacet
  facet normal 0 0 1
    outer loop
      vertex 7.9 2.9 5
      vertex 6.6059 3.07037 5
      vertex 6.7 1.7 5
    endloop
  endfacet
  facet normal 0 0 1
    outer loop
      vertex 6.7 1.7 5
      vertex 5.4 3.56987 5
      vertex 5.4059 1.87037 5
    endloop
  endfacet
  facet normal 0 0 1
    outer loop
      vertex 54.3296 6.6059 5
      vertex 53.8301 5.4 5
      vertex 55.5296 5.4059 5
    endloop
  endfacet
  facet normal 0 0 1
    outer loop
      vertex 5.4059 1.87037 5
      vertex 4.36447 4.36447 5
      vertex 4.2 2.36987 5
    endloop
  endfacet
  facet normal 0 0 1
    outer loop
      vertex 4.2 2.36987 5
      vertex 3.56987 5.4 5
      vertex 3.16447 3.16447 5
    endloop
  endfacet
  facet normal 0 0 1
    outer loop
      vertex 53.0355 4.36447 5
      vertex 53.2 2.36987 5
      vertex 54.2355 3.16447 5
    endloop
  endfacet
  facet normal 0 0 1
    outer loop
      vertex 3.56987 5.4 5
      vertex 3.07037 6.6059 5
      vertex 3.16447 3.16447 5
    endloop
  endfacet
  facet normal 0 0 1
    outer loop
      vertex 2.9 54.5 5
      vertex 3.07037 55.7941 5
      vertex 1.7 55.7 5
    endloop
  endfacet
  facet normal 0 0 1
    outer loop
      vertex 3.07037 6.6059 5
      vertex 2.9 7.9 5
      vertex 3.16447 3.16447 5
    endloop
  endfacet
  facet normal 0 0 1
    outer loop
      vertex 6.6059 3.07037 5
      vertex 5.4 3.56987 5
      vertex 6.7 1.7 5
    endloop
  endfacet
  facet normal 0 0 1
    outer loop
      vertex 5.4 3.56987 5
      vertex 4.36447 4.36447 5
      vertex 5.4059 1.87037 5
    endloop
  endfacet
  facet normal 0 0 1
    outer loop
      vertex 4.36447 4.36447 5
      vertex 3.56987 5.4 5
      vertex 4.2 2.36987 5
    endloop
  endfacet
  facet normal 0 0 1
    outer loop
      vertex 2.9 7.9 5
      vertex 2.9 54.5 5
      vertex 1.7 55.7 5
    endloop
  endfacet
  facet normal 0 0 1
    outer loop
      vertex 57.9 55.7 5
      vertex 57.9 6.7 5
      vertex 58.0704 5.4059 5
    endloop
  endfacet
  facet normal 0 0 1
    outer loop
      vertex 59.1 7.9 5
      vertex 57.9 55.7 5
      vertex 58.5699 4.2 5
    endloop
  endfacet
  facet normal 0 0 1
    outer loop
      vertex 58.5699 4.2 5
      vertex 57.9 55.7 5
      vertex 58.0704 5.4059 5
    endloop
  endfacet
  facet normal 0 0 1
    outer loop
      vertex 110.53 55.7941 5
      vertex 110.7 54.5 5
      vertex 111.9 55.7 5
    endloop
  endfacet
  facet normal 0 0 1
    outer loop
      vertex 64.1 59.5 5
      vertex 109.4 60.0301 5
      vertex 108.194 60.5296 5
    endloop
  endfacet
  facet normal 0 0 1
    outer loop
      vertex 105.7 59.5 5
      vertex 106.994 59.3296 5
      vertex 110.436 59.2355 5
    endloop
  endfacet
  facet normal 0 0 1
    outer loop
      vertex 109.236 4.36447 5
      vertex 108.2 3.56987 5
      vertex 109.4 2.36987 5
    endloop
  endfacet
  facet normal 0 0 1
    outer loop
      vertex 60.5645 58.0355 5
      vertex 61.6 58.8301 5
      vertex 62.9 60.7 5
    endloop
  endfacet
  facet normal 0 0 1
    outer loop
      vertex 61.6059 60.5296 5
      vertex 57.9 55.7 5
      vertex 62.9 60.7 5
    endloop
  endfacet
  facet normal 0 0 1
    outer loop
      vertex 60.4 60.0301 5
      vertex 57.9 55.7 5
      vertex 61.6059 60.5296 5
    endloop
  endfacet
  facet normal 0 0 1
    outer loop
      vertex 59.3645 59.2355 5
      vertex 57.9 55.7 5
      vertex 60.4 60.0301 5
    endloop
  endfacet
  facet normal 0 0 1
    outer loop
      vertex 58.5699 58.2 5
      vertex 57.9 55.7 5
      vertex 59.3645 59.2355 5
    endloop
  endfacet
  facet normal 0 0 1
    outer loop
      vertex 58.0704 56.9941 5
      vertex 57.9 55.7 5
      vertex 58.5699 58.2 5
    endloop
  endfacet
  facet normal 0 0 1
    outer loop
      vertex 59.3645 3.16447 5
      vertex 59.1 7.9 5
      vertex 58.5699 4.2 5
    endloop
  endfacet
  facet normal 0 0 1
    outer loop
      vertex 106.994 3.07037 5
      vertex 105.7 2.9 5
      vertex 106.9 1.7 5
    endloop
  endfacet
  facet normal 0 0 1
    outer loop
      vertex 108.2 3.56987 5
      vertex 106.994 3.07037 5
      vertex 108.194 1.87037 5
    endloop
  endfacet
  facet normal 0 0 1
    outer loop
      vertex 110.03 57 5
      vertex 110.53 55.7941 5
      vertex 111.73 56.9941 5
    endloop
  endfacet
  facet normal 0 0 1
    outer loop
      vertex 108.2 58.8301 5
      vertex 109.236 58.0355 5
      vertex 111.23 58.2 5
    endloop
  endfacet
  facet normal 0 0 1
    outer loop
      vertex 60.5645 58.0355 5
      vertex 57.9 55.7 5
      vertex 59.7699 57 5
    endloop
  endfacet
  facet normal 0 0 1
    outer loop
      vertex 62.9 60.7 5
      vertex 57.9 55.7 5
      vertex 60.5645 58.0355 5
    endloop
  endfacet
  facet normal 0 0 1
    outer loop
      vertex 62.9 60.7 5
      vertex 61.6 58.8301 5
      vertex 62.8059 59.3296 5
    endloop
  endfacet
  facet normal 0 0 1
    outer loop
      vertex 62.9 60.7 5
      vertex 64.1 59.5 5
      vertex 106.9 60.7 5
    endloop
  endfacet
  facet normal 0 0 1
    outer loop
      vertex 62.9 60.7 5
      vertex 62.8059 59.3296 5
      vertex 64.1 59.5 5
    endloop
  endfacet
  facet normal 0 0 1
    outer loop
      vertex 106.994 59.3296 5
      vertex 108.2 58.8301 5
      vertex 110.436 59.2355 5
    endloop
  endfacet
  facet normal 0 0 1
    outer loop
      vertex 109.4 60.0301 5
      vertex 105.7 59.5 5
      vertex 110.436 59.2355 5
    endloop
  endfacet
  facet normal 0 0 1
    outer loop
      vertex 110.436 59.2355 5
      vertex 108.2 58.8301 5
      vertex 111.23 58.2 5
    endloop
  endfacet
  facet normal 0 0 1
    outer loop
      vertex 110.03 5.4 5
      vertex 109.236 4.36447 5
      vertex 111.23 4.2 5
    endloop
  endfacet
  facet normal 0 0 1
    outer loop
      vertex 111.23 58.2 5
      vertex 109.236 58.0355 5
      vertex 111.73 56.9941 5
    endloop
  endfacet
  facet normal 0 0 1
    outer loop
      vertex 59.2704 55.7941 5
      vertex 59.7699 57 5
      vertex 57.9 55.7 5
    endloop
  endfacet
  facet normal 0 0 1
    outer loop
      vertex 109.236 58.0355 5
      vertex 110.03 57 5
      vertex 111.73 56.9941 5
    endloop
  endfacet
  facet normal 0 0 1
    outer loop
      vertex 64.1 59.5 5
      vertex 108.194 60.5296 5
      vertex 106.9 60.7 5
    endloop
  endfacet
  facet normal 0 0 1
    outer loop
      vertex 111.73 56.9941 5
      vertex 110.53 55.7941 5
      vertex 111.9 55.7 5
    endloop
  endfacet
  facet normal 0 0 1
    outer loop
      vertex 64.1 59.5 5
      vertex 105.7 59.5 5
      vertex 109.4 60.0301 5
    endloop
  endfacet
  facet normal 0 0 1
    outer loop
      vertex 111.9 55.7 5
      vertex 110.7 54.5 5
      vertex 111.9 6.7 5
    endloop
  endfacet
  facet normal 0 0 1
    outer loop
      vertex 110.7 54.5 5
      vertex 110.7 7.9 5
      vertex 111.9 6.7 5
    endloop
  endfacet
  facet normal 0 0 1
    outer loop
      vertex 111.9 6.7 5
      vertex 110.53 6.6059 5
      vertex 111.73 5.4059 5
    endloop
  endfacet
  facet normal 0 0 1
    outer loop
      vertex 111.73 5.4059 5
      vertex 110.03 5.4 5
      vertex 111.23 4.2 5
    endloop
  endfacet
  facet normal 0 0 1
    outer loop
      vertex 111.23 4.2 5
      vertex 109.236 4.36447 5
      vertex 110.436 3.16447 5
    endloop
  endfacet
  facet normal 0 0 1
    outer loop
      vertex 109.4 2.36987 5
      vertex 108.2 3.56987 5
      vertex 108.194 1.87037 5
    endloop
  endfacet
  facet normal 0 0 1
    outer loop
      vertex 108.194 1.87037 5
      vertex 106.994 3.07037 5
      vertex 106.9 1.7 5
    endloop
  endfacet
  facet normal 0 0 1
    outer loop
      vertex 106.9 1.7 5
      vertex 105.7 2.9 5
      vertex 62.9 1.7 5
    endloop
  endfacet
  facet normal 0 0 1
    outer loop
      vertex 110.7 7.9 5
      vertex 110.53 6.6059 5
      vertex 111.9 6.7 5
    endloop
  endfacet
  facet normal 0 0 1
    outer loop
      vertex 105.7 2.9 5
      vertex 64.1 2.9 5
      vertex 62.9 1.7 5
    endloop
  endfacet
  facet normal 0 0 1
    outer loop
      vertex 64.1 2.9 5
      vertex 62.8059 3.07037 5
      vertex 62.9 1.7 5
    endloop
  endfacet
  facet normal 0 0 1
    outer loop
      vertex 62.9 1.7 5
      vertex 61.6 3.56987 5
      vertex 61.6059 1.87037 5
    endloop
  endfacet
  facet normal 0 0 1
    outer loop
      vertex 110.53 6.6059 5
      vertex 110.03 5.4 5
      vertex 111.73 5.4059 5
    endloop
  endfacet
  facet normal 0 0 1
    outer loop
      vertex 61.6059 1.87037 5
      vertex 60.5645 4.36447 5
      vertex 60.4 2.36987 5
    endloop
  endfacet
  facet normal 0 0 1
    outer loop
      vertex 60.4 2.36987 5
      vertex 59.7699 5.4 5
      vertex 59.3645 3.16447 5
    endloop
  endfacet
  facet normal 0 0 1
    outer loop
      vertex 109.236 4.36447 5
      vertex 109.4 2.36987 5
      vertex 110.436 3.16447 5
    endloop
  endfacet
  facet normal 0 0 1
    outer loop
      vertex 59.7699 5.4 5
      vertex 59.2704 6.6059 5
      vertex 59.3645 3.16447 5
    endloop
  endfacet
  facet normal 0 0 1
    outer loop
      vertex 59.1 54.5 5
      vertex 59.2704 55.7941 5
      vertex 57.9 55.7 5
    endloop
  endfacet
  facet normal 0 0 1
    outer loop
      vertex 59.2704 6.6059 5
      vertex 59.1 7.9 5
      vertex 59.3645 3.16447 5
    endloop
  endfacet
  facet normal 0 0 1
    outer loop
      vertex 62.8059 3.07037 5
      vertex 61.6 3.56987 5
      vertex 62.9 1.7 5
    endloop
  endfacet
  facet normal 0 0 1
    outer loop
      vertex 61.6 3.56987 5
      vertex 60.5645 4.36447 5
      vertex 61.6059 1.87037 5
    endloop
  endfacet
  facet normal 0 0 1
    outer loop
      vertex 60.5645 4.36447 5
      vertex 59.7699 5.4 5
      vertex 60.4 2.36987 5
    endloop
  endfacet
  facet normal 0 0 1
    outer loop
      vertex 59.1 7.9 5
      vertex 59.1 54.5 5
      vertex 57.9 55.7 5
    endloop
  endfacet
  facet normal 0.991445 0.130526 0
    outer loop
      vertex 2.9 7.9 5
      vertex 3.07037 6.6059 5
      vertex 3.07037 6.6059 1
    endloop
  endfacet
  facet normal 0.991445 0.130526 0
    outer loop
      vertex 2.9 7.9 1
      vertex 2.9 7.9 5
      vertex 3.07037 6.6059 1
    endloop
  endfacet
  facet normal 0.92388 0.382683 0
    outer loop
      vertex 3.07037 6.6059 5
      vertex 3.56987 5.4 5
      vertex 3.56987 5.4 1
    endloop
  endfacet
  facet normal 0.92388 0.382683 0
    outer loop
      vertex 3.07037 6.6059 1
      vertex 3.07037 6.6059 5
      vertex 3.56987 5.4 1
    endloop
  endfacet
  facet normal 0.793353 0.608761 0
    outer loop
      vertex 3.56987 5.4 5
      vertex 4.36447 4.36447 5
      vertex 4.36447 4.36447 1
    endloop
  endfacet
  facet normal 0.793353 0.608761 0
    outer loop
      vertex 3.56987 5.4 1
      vertex 3.56987 5.4 5
      vertex 4.36447 4.36447 1
    endloop
  endfacet
  facet normal 0.608761 0.793353 0
    outer loop
      vertex 5.4 3.56987 5
      vertex 5.4 3.56987 1
      vertex 4.36447 4.36447 5
    endloop
  endfacet
  facet normal 0.608761 0.793353 0
    outer loop
      vertex 4.36447 4.36447 5
      vertex 5.4 3.56987 1
      vertex 4.36447 4.36447 1
    endloop
  endfacet
  facet normal 0.382683 0.92388 0
    outer loop
      vertex 6.6059 3.07037 5
      vertex 6.6059 3.07037 1
      vertex 5.4 3.56987 5
    endloop
  endfacet
  facet normal 0.382683 0.92388 0
    outer loop
      vertex 5.4 3.56987 5
      vertex 6.6059 3.07037 1
      vertex 5.4 3.56987 1
    endloop
  endfacet
  facet normal 0.130526 0.991445 0
    outer loop
      vertex 7.9 2.9 5
      vertex 7.9 2.9 1
      vertex 6.6059 3.07037 5
    endloop
  endfacet
  facet normal 0.130526 0.991445 0
    outer loop
      vertex 6.6059 3.07037 5
      vertex 7.9 2.9 1
      vertex 6.6059 3.07037 1
    endloop
  endfacet
  facet normal 0 1 0
    outer loop
      vertex 49.5 2.9 5
      vertex 49.5 2.9 1
      vertex 7.9 2.9 5
    endloop
  endfacet
  facet normal 0 1 0
    outer loop
      vertex 7.9 2.9 5
      vertex 49.5 2.9 1
      vertex 7.9 2.9 1
    endloop
  endfacet
  facet normal -0.130526 0.991445 0
    outer loop
      vertex 50.7941 3.07037 5
      vertex 50.7941 3.07037 1
      vertex 49.5 2.9 5
    endloop
  endfacet
  facet normal -0.130526 0.991445 0
    outer loop
      vertex 49.5 2.9 5
      vertex 50.7941 3.07037 1
      vertex 49.5 2.9 1
    endloop
  endfacet
  facet normal -0.382683 0.92388 0
    outer loop
      vertex 52 3.56987 5
      vertex 52 3.56987 1
      vertex 50.7941 3.07037 5
    endloop
  endfacet
  facet normal -0.382683 0.92388 0
    outer loop
      vertex 50.7941 3.07037 5
      vertex 52 3.56987 1
      vertex 50.7941 3.07037 1
    endloop
  endfacet
  facet normal -0.608761 0.793353 0
    outer loop
      vertex 53.0355 4.36447 5
      vertex 53.0355 4.36447 1
      vertex 52 3.56987 5
    endloop
  endfacet
  facet normal -0.608761 0.793353 0
    outer loop
      vertex 52 3.56987 5
      vertex 53.0355 4.36447 1
      vertex 52 3.56987 1
    endloop
  endfacet
  facet normal -0.793353 0.608761 0
    outer loop
      vertex 53.8301 5.4 5
      vertex 53.8301 5.4 1
      vertex 53.0355 4.36447 5
    endloop
  endfacet
  facet normal -0.793353 0.608761 0
    outer loop
      vertex 53.0355 4.36447 5
      vertex 53.8301 5.4 1
      vertex 53.0355 4.36447 1
    endloop
  endfacet
  facet normal -0.92388 0.382683 0
    outer loop
      vertex 54.3296 6.6059 5
      vertex 54.3296 6.6059 1
      vertex 53.8301 5.4 5
    endloop
  endfacet
  facet normal -0.92388 0.382683 0
    outer loop
      vertex 53.8301 5.4 5
      vertex 54.3296 6.6059 1
      vertex 53.8301 5.4 1
    endloop
  endfacet
  facet normal -0.991445 0.130526 0
    outer loop
      vertex 54.5 7.9 5
      vertex 54.5 7.9 1
      vertex 54.3296 6.6059 5
    endloop
  endfacet
  facet normal -0.991445 0.130526 0
    outer loop
      vertex 54.3296 6.6059 5
      vertex 54.5 7.9 1
      vertex 54.3296 6.6059 1
    endloop
  endfacet
  facet normal -1 0 0
    outer loop
      vertex 54.5 54.5 5
      vertex 54.5 54.5 1
      vertex 54.5 7.9 5
    endloop
  endfacet
  facet normal -1 0 0
    outer loop
      vertex 54.5 7.9 5
      vertex 54.5 54.5 1
      vertex 54.5 7.9 1
    endloop
  endfacet
  facet normal -0.991445 -0.130526 0
    outer loop
      vertex 54.5 54.5 5
      vertex 54.3296 55.7941 5
      vertex 54.5 54.5 1
    endloop
  endfacet
  facet normal -0.991445 -0.130526 0
    outer loop
      vertex 54.5 54.5 1
      vertex 54.3296 55.7941 5
      vertex 54.3296 55.7941 1
    endloop
  endfacet
  facet normal -0.92388 -0.382683 0
    outer loop
      vertex 54.3296 55.7941 5
      vertex 53.8301 57 5
      vertex 54.3296 55.7941 1
    endloop
  endfacet
  facet normal -0.92388 -0.382683 0
    outer loop
      vertex 54.3296 55.7941 1
      vertex 53.8301 57 5
      vertex 53.8301 57 1
    endloop
  endfacet
  facet normal -0.793353 -0.608761 0
    outer loop
      vertex 53.8301 57 5
      vertex 53.0355 58.0355 5
      vertex 53.8301 57 1
    endloop
  endfacet
  facet normal -0.793353 -0.608761 0
    outer loop
      vertex 53.8301 57 1
      vertex 53.0355 58.0355 5
      vertex 53.0355 58.0355 1
    endloop
  endfacet
  facet normal -0.608761 -0.793353 0
    outer loop
      vertex 53.0355 58.0355 1
      vertex 53.0355 58.0355 5
      vertex 52 58.8301 5
    endloop
  endfacet
  facet normal -0.608761 -0.793353 0
    outer loop
      vertex 52 58.8301 1
      vertex 53.0355 58.0355 1
      vertex 52 58.8301 5
    endloop
  endfacet
  facet normal -0.382683 -0.92388 0
    outer loop
      vertex 52 58.8301 1
      vertex 52 58.8301 5
      vertex 50.7941 59.3296 5
    endloop
  endfacet
  facet normal -0.382683 -0.92388 0
    outer loop
      vertex 50.7941 59.3296 1
      vertex 52 58.8301 1
      vertex 50.7941 59.3296 5
    endloop
  endfacet
  facet normal -0.130526 -0.991445 0
    outer loop
      vertex 50.7941 59.3296 1
      vertex 50.7941 59.3296 5
      vertex 49.5 59.5 5
    endloop
  endfacet
  facet normal -0.130526 -0.991445 0
    outer loop
      vertex 49.5 59.5 1
      vertex 50.7941 59.3296 1
      vertex 49.5 59.5 5
    endloop
  endfacet
  facet normal 0 -1 0
    outer loop
      vertex 49.5 59.5 1
      vertex 49.5 59.5 5
      vertex 7.9 59.5 5
    endloop
  endfacet
  facet normal 0 -1 0
    outer loop
      vertex 7.9 59.5 1
      vertex 49.5 59.5 1
      vertex 7.9 59.5 5
    endloop
  endfacet
  facet normal 0.130526 -0.991445 0
    outer loop
      vertex 7.9 59.5 1
      vertex 7.9 59.5 5
      vertex 6.6059 59.3296 5
    endloop
  endfacet
  facet normal 0.130526 -0.991445 0
    outer loop
      vertex 6.6059 59.3296 1
      vertex 7.9 59.5 1
      vertex 6.6059 59.3296 5
    endloop
  endfacet
  facet normal 0.382683 -0.92388 0
    outer loop
      vertex 6.6059 59.3296 1
      vertex 6.6059 59.3296 5
      vertex 5.4 58.8301 5
    endloop
  endfacet
  facet normal 0.382683 -0.92388 0
    outer loop
      vertex 5.4 58.8301 1
      vertex 6.6059 59.3296 1
      vertex 5.4 58.8301 5
    endloop
  endfacet
  facet normal 0.608761 -0.793353 0
    outer loop
      vertex 5.4 58.8301 1
      vertex 5.4 58.8301 5
      vertex 4.36447 58.0355 5
    endloop
  endfacet
  facet normal 0.608761 -0.793353 0
    outer loop
      vertex 4.36447 58.0355 1
      vertex 5.4 58.8301 1
      vertex 4.36447 58.0355 5
    endloop
  endfacet
  facet normal 0.793353 -0.608761 0
    outer loop
      vertex 4.36447 58.0355 1
      vertex 4.36447 58.0355 5
      vertex 3.56987 57 5
    endloop
  endfacet
  facet normal 0.793353 -0.608761 0
    outer loop
      vertex 3.56987 57 1
      vertex 4.36447 58.0355 1
      vertex 3.56987 57 5
    endloop
  endfacet
  facet normal 0.92388 -0.382683 0
    outer loop
      vertex 3.56987 57 1
      vertex 3.56987 57 5
      vertex 3.07037 55.7941 5
    endloop
  endfacet
  facet normal 0.92388 -0.382683 0
    outer loop
      vertex 3.07037 55.7941 1
      vertex 3.56987 57 1
      vertex 3.07037 55.7941 5
    endloop
  endfacet
  facet normal 0.991445 -0.130526 0
    outer loop
      vertex 3.07037 55.7941 1
      vertex 3.07037 55.7941 5
      vertex 2.9 54.5 5
    endloop
  endfacet
  facet normal 0.991445 -0.130526 0
    outer loop
      vertex 2.9 54.5 1
      vertex 3.07037 55.7941 1
      vertex 2.9 54.5 5
    endloop
  endfacet
  facet normal 1 0 0
    outer loop
      vertex 2.9 54.5 1
      vertex 2.9 54.5 5
      vertex 2.9 7.9 5
    endloop
  endfacet
  facet normal 1 0 0
    outer loop
      vertex 2.9 7.9 1
      vertex 2.9 54.5 1
      vertex 2.9 7.9 5
    endloop
  endfacet
  facet normal 0.991445 0.130526 0
    outer loop
      vertex 59.1 7.9 5
      vertex 59.2704 6.6059 5
      vertex 59.2704 6.6059 1
    endloop
  endfacet
  facet normal 0.991445 0.130526 0
    outer loop
      vertex 59.1 7.9 1
      vertex 59.1 7.9 5
      vertex 59.2704 6.6059 1
    endloop
  endfacet
  facet normal 0.92388 0.382683 0
    outer loop
      vertex 59.2704 6.6059 5
      vertex 59.7699 5.4 5
      vertex 59.7699 5.4 1
    endloop
  endfacet
  facet normal 0.92388 0.382683 0
    outer loop
      vertex 59.2704 6.6059 1
      vertex 59.2704 6.6059 5
      vertex 59.7699 5.4 1
    endloop
  endfacet
  facet normal 0.793353 0.608761 0
    outer loop
      vertex 59.7699 5.4 5
      vertex 60.5645 4.36447 5
      vertex 60.5645 4.36447 1
    endloop
  endfacet
  facet normal 0.793353 0.608761 0
    outer loop
      vertex 59.7699 5.4 1
      vertex 59.7699 5.4 5
      vertex 60.5645 4.36447 1
    endloop
  endfacet
  facet normal 0.608761 0.793353 0
    outer loop
      vertex 61.6 3.56987 5
      vertex 61.6 3.56987 1
      vertex 60.5645 4.36447 5
    endloop
  endfacet
  facet normal 0.608761 0.793353 0
    outer loop
      vertex 60.5645 4.36447 5
      vertex 61.6 3.56987 1
      vertex 60.5645 4.36447 1
    endloop
  endfacet
  facet normal 0.382683 0.92388 0
    outer loop
      vertex 62.8059 3.07037 5
      vertex 62.8059 3.07037 1
      vertex 61.6 3.56987 5
    endloop
  endfacet
  facet normal 0.382683 0.92388 0
    outer loop
      vertex 61.6 3.56987 5
      vertex 62.8059 3.07037 1
      vertex 61.6 3.56987 1
    endloop
  endfacet
  facet normal 0.130526 0.991445 0
    outer loop
      vertex 64.1 2.9 5
      vertex 64.1 2.9 1
      vertex 62.8059 3.07037 5
    endloop
  endfacet
  facet normal 0.130526 0.991445 0
    outer loop
      vertex 62.8059 3.07037 5
      vertex 64.1 2.9 1
      vertex 62.8059 3.07037 1
    endloop
  endfacet
  facet normal 0 1 0
    outer loop
      vertex 105.7 2.9 5
      vertex 105.7 2.9 1
      vertex 64.1 2.9 5
    endloop
  endfacet
  facet normal 0 1 0
    outer loop
      vertex 64.1 2.9 5
      vertex 105.7 2.9 1
      vertex 64.1 2.9 1
    endloop
  endfacet
  facet normal -0.130526 0.991445 0
    outer loop
      vertex 106.994 3.07037 5
      vertex 106.994 3.07037 1
      vertex 105.7 2.9 5
    endloop
  endfacet
  facet normal -0.130526 0.991445 0
    outer loop
      vertex 105.7 2.9 5
      vertex 106.994 3.07037 1
      vertex 105.7 2.9 1
    endloop
  endfacet
  facet normal -0.382683 0.92388 0
    outer loop
      vertex 108.2 3.56987 5
      vertex 108.2 3.56987 1
      vertex 106.994 3.07037 5
    endloop
  endfacet
  facet normal -0.382683 0.92388 0
    outer loop
      vertex 106.994 3.07037 5
      vertex 108.2 3.56987 1
      vertex 106.994 3.07037 1
    endloop
  endfacet
  facet normal -0.608761 0.793353 0
    outer loop
      vertex 109.236 4.36447 5
      vertex 109.236 4.36447 1
      vertex 108.2 3.56987 5
    endloop
  endfacet
  facet normal -0.608761 0.793353 0
    outer loop
      vertex 108.2 3.56987 5
      vertex 109.236 4.36447 1
      vertex 108.2 3.56987 1
    endloop
  endfacet
  facet normal -0.793353 0.608761 0
    outer loop
      vertex 110.03 5.4 5
      vertex 110.03 5.4 1
      vertex 109.236 4.36447 5
    endloop
  endfacet
  facet normal -0.793353 0.608761 0
    outer loop
      vertex 109.236 4.36447 5
      vertex 110.03 5.4 1
      vertex 109.236 4.36447 1
    endloop
  endfacet
  facet normal -0.92388 0.382683 0
    outer loop
      vertex 110.53 6.6059 5
      vertex 110.53 6.6059 1
      vertex 110.03 5.4 5
    endloop
  endfacet
  facet normal -0.92388 0.382683 0
    outer loop
      vertex 110.03 5.4 5
      vertex 110.53 6.6059 1
      vertex 110.03 5.4 1
    endloop
  endfacet
  facet normal -0.991445 0.130526 0
    outer loop
      vertex 110.7 7.9 5
      vertex 110.7 7.9 1
      vertex 110.53 6.6059 5
    endloop
  endfacet
  facet normal -0.991445 0.130526 0
    outer loop
      vertex 110.53 6.6059 5
      vertex 110.7 7.9 1
      vertex 110.53 6.6059 1
    endloop
  endfacet
  facet normal -1 0 0
    outer loop
      vertex 110.7 54.5 5
      vertex 110.7 54.5 1
      vertex 110.7 7.9 5
    endloop
  endfacet
  facet normal -1 0 0
    outer loop
      vertex 110.7 7.9 5
      vertex 110.7 54.5 1
      vertex 110.7 7.9 1
    endloop
  endfacet
  facet normal -0.991445 -0.130526 0
    outer loop
      vertex 110.7 54.5 5
      vertex 110.53 55.7941 5
      vertex 110.7 54.5 1
    endloop
  endfacet
  facet normal -0.991445 -0.130526 0
    outer loop
      vertex 110.7 54.5 1
      vertex 110.53 55.7941 5
      vertex 110.53 55.7941 1
    endloop
  endfacet
  facet normal -0.92388 -0.382683 0
    outer loop
      vertex 110.53 55.7941 5
      vertex 110.03 57 5
      vertex 110.53 55.7941 1
    endloop
  endfacet
  facet normal -0.92388 -0.382683 0
    outer loop
      vertex 110.53 55.7941 1
      vertex 110.03 57 5
      vertex 110.03 57 1
    endloop
  endfacet
  facet normal -0.793353 -0.608761 0
    outer loop
      vertex 110.03 57 5
      vertex 109.236 58.0355 5
      vertex 110.03 57 1
    endloop
  endfacet
  facet normal -0.793353 -0.608761 0
    outer loop
      vertex 110.03 57 1
      vertex 109.236 58.0355 5
      vertex 109.236 58.0355 1
    endloop
  endfacet
  facet normal -0.608761 -0.793353 0
    outer loop
      vertex 109.236 58.0355 1
      vertex 109.236 58.0355 5
      vertex 108.2 58.8301 5
    endloop
  endfacet
  facet normal -0.608761 -0.793353 0
    outer loop
      vertex 108.2 58.8301 1
      vertex 109.236 58.0355 1
      vertex 108.2 58.8301 5
    endloop
  endfacet
  facet normal -0.382683 -0.92388 0
    outer loop
      vertex 108.2 58.8301 1
      vertex 108.2 58.8301 5
      vertex 106.994 59.3296 5
    endloop
  endfacet
  facet normal -0.382683 -0.92388 0
    outer loop
      vertex 106.994 59.3296 1
      vertex 108.2 58.8301 1
      vertex 106.994 59.3296 5
    endloop
  endfacet
  facet normal -0.130526 -0.991445 0
    outer loop
      vertex 106.994 59.3296 1
      vertex 106.994 59.3296 5
      vertex 105.7 59.5 5
    endloop
  endfacet
  facet normal -0.130526 -0.991445 0
    outer loop
      vertex 105.7 59.5 1
      vertex 106.994 59.3296 1
      vertex 105.7 59.5 5
    endloop
  endfacet
  facet normal 0 -1 0
    outer loop
      vertex 105.7 59.5 1
      vertex 105.7 59.5 5
      vertex 64.1 59.5 5
    endloop
  endfacet
  facet normal 0 -1 0
    outer loop
      vertex 64.1 59.5 1
      vertex 105.7 59.5 1
      vertex 64.1 59.5 5
    endloop
  endfacet
  facet normal 0.130526 -0.991445 0
    outer loop
      vertex 64.1 59.5 1
      vertex 64.1 59.5 5
      vertex 62.8059 59.3296 5
    endloop
  endfacet
  facet normal 0.130526 -0.991445 0
    outer loop
      vertex 62.8059 59.3296 1
      vertex 64.1 59.5 1
      vertex 62.8059 59.3296 5
    endloop
  endfacet
  facet normal 0.382683 -0.92388 0
    outer loop
      vertex 62.8059 59.3296 1
      vertex 62.8059 59.3296 5
      vertex 61.6 58.8301 5
    endloop
  endfacet
  facet normal 0.382683 -0.92388 0
    outer loop
      vertex 61.6 58.8301 1
      vertex 62.8059 59.3296 1
      vertex 61.6 58.8301 5
    endloop
  endfacet
  facet normal 0.608761 -0.793353 0
    outer loop
      vertex 61.6 58.8301 1
      vertex 61.6 58.8301 5
      vertex 60.5645 58.0355 5
    endloop
  endfacet
  facet normal 0.608761 -0.793353 0
    outer loop
      vertex 60.5645 58.0355 1
      vertex 61.6 58.8301 1
      vertex 60.5645 58.0355 5
    endloop
  endfacet
  facet normal 0.793353 -0.608761 0
    outer loop
      vertex 60.5645 58.0355 1
      vertex 60.5645 58.0355 5
      vertex 59.7699 57 5
    endloop
  endfacet
  facet normal 0.793353 -0.608761 0
    outer loop
      vertex 59.7699 57 1
      vertex 60.5645 58.0355 1
      vertex 59.7699 57 5
    endloop
  endfacet
  facet normal 0.92388 -0.382683 0
    outer loop
      vertex 59.7699 57 1
      vertex 59.7699 57 5
      vertex 59.2704 55.7941 5
    endloop
  endfacet
  facet normal 0.92388 -0.382683 0
    outer loop
      vertex 59.2704 55.7941 1
      vertex 59.7699 57 1
      vertex 59.2704 55.7941 5
    endloop
  endfacet
  facet normal 0.991445 -0.130526 0
    outer loop
      vertex 59.2704 55.7941 1
      vertex 59.2704 55.7941 5
      vertex 59.1 54.5 5
    endloop
  endfacet
  facet normal 0.991445 -0.130526 0
    outer loop
      vertex 59.1 54.5 1
      vertex 59.2704 55.7941 1
      vertex 59.1 54.5 5
    endloop
  endfacet
  facet normal 1 0 0
    outer loop
      vertex 59.1 54.5 1
      vertex 59.1 54.5 5
      vertex 59.1 7.9 5
    endloop
  endfacet
  facet normal 1 0 0
    outer loop
      vertex 59.1 7.9 1
      vertex 59.1 54.5 1
      vertex 59.1 7.9 5
    endloop
  endfacet
  facet normal 0 0 1
    outer loop
      vertex 4.36447 4.36447 1
      vertex 2.9 7.9 1
      vertex 3.56987 5.4 1
    endloop
  endfacet
  facet normal 0 0 1
    outer loop
      vertex 3.56987 5.4 1
      vertex 2.9 7.9 1
      vertex 3.07037 6.6059 1
    endloop
  endfacet
  facet normal 0 0 1
    outer loop
      vertex 5.4 3.56987 1
      vertex 2.9 7.9 1
      vertex 4.36447 4.36447 1
    endloop
  endfacet
  facet normal 0 0 1
    outer loop
      vertex 6.6059 3.07037 1
      vertex 2.9 7.9 1
      vertex 5.4 3.56987 1
    endloop
  endfacet
  facet normal 0 0 1
    outer loop
      vertex 7.9 2.9 1
      vertex 2.9 7.9 1
      vertex 6.6059 3.07037 1
    endloop
  endfacet
  facet normal 0 0 1
    outer loop
      vertex 49.5 2.9 1
      vertex 2.9 7.9 1
      vertex 7.9 2.9 1
    endloop
  endfacet
  facet normal 0 0 1
    outer loop
      vertex 50.7941 3.07037 1
      vertex 2.9 7.9 1
      vertex 49.5 2.9 1
    endloop
  endfacet
  facet normal 0 0 1
    outer loop
      vertex 52 3.56987 1
      vertex 2.9 7.9 1
      vertex 50.7941 3.07037 1
    endloop
  endfacet
  facet normal 0 0 1
    outer loop
      vertex 53.0355 4.36447 1
      vertex 2.9 7.9 1
      vertex 52 3.56987 1
    endloop
  endfacet
  facet normal 0 0 1
    outer loop
      vertex 53.8301 5.4 1
      vertex 2.9 7.9 1
      vertex 53.0355 4.36447 1
    endloop
  endfacet
  facet normal 0 0 1
    outer loop
      vertex 54.3296 6.6059 1
      vertex 2.9 7.9 1
      vertex 53.8301 5.4 1
    endloop
  endfacet
  facet normal 0 0 1
    outer loop
      vertex 54.5 7.9 1
      vertex 2.9 7.9 1
      vertex 54.3296 6.6059 1
    endloop
  endfacet
  facet normal 0 0 1
    outer loop
      vertex 54.5 54.5 1
      vertex 2.9 7.9 1
      vertex 54.5 7.9 1
    endloop
  endfacet
  facet normal 0 0 1
    outer loop
      vertex 54.3296 55.7941 1
      vertex 2.9 7.9 1
      vertex 54.5 54.5 1
    endloop
  endfacet
  facet normal 0 0 1
    outer loop
      vertex 53.8301 57 1
      vertex 2.9 7.9 1
      vertex 54.3296 55.7941 1
    endloop
  endfacet
  facet normal 0 0 1
    outer loop
      vertex 53.0355 58.0355 1
      vertex 2.9 7.9 1
      vertex 53.8301 57 1
    endloop
  endfacet
  facet normal 0 0 1
    outer loop
      vertex 52 58.8301 1
      vertex 2.9 7.9 1
      vertex 53.0355 58.0355 1
    endloop
  endfacet
  facet normal 0 0 1
    outer loop
      vertex 50.7941 59.3296 1
      vertex 2.9 7.9 1
      vertex 52 58.8301 1
    endloop
  endfacet
  facet normal 0 0 1
    outer loop
      vertex 49.5 59.5 1
      vertex 2.9 7.9 1
      vertex 50.7941 59.3296 1
    endloop
  endfacet
  facet normal 0 0 1
    outer loop
      vertex 7.9 59.5 1
      vertex 2.9 7.9 1
      vertex 49.5 59.5 1
    endloop
  endfacet
  facet normal 0 0 1
    outer loop
      vertex 2.9 54.5 1
      vertex 3.56987 57 1
      vertex 3.07037 55.7941 1
    endloop
  endfacet
  facet normal 0 0 1
    outer loop
      vertex 2.9 54.5 1
      vertex 4.36447 58.0355 1
      vertex 3.56987 57 1
    endloop
  endfacet
  facet normal 0 0 1
    outer loop
      vertex 2.9 54.5 1
      vertex 5.4 58.8301 1
      vertex 4.36447 58.0355 1
    endloop
  endfacet
  facet normal 0 0 1
    outer loop
      vertex 2.9 54.5 1
      vertex 6.6059 59.3296 1
      vertex 5.4 58.8301 1
    endloop
  endfacet
  facet normal 0 0 1
    outer loop
      vertex 2.9 54.5 1
      vertex 7.9 59.5 1
      vertex 6.6059 59.3296 1
    endloop
  endfacet
  facet normal 0 0 1
    outer loop
      vertex 2.9 54.5 1
      vertex 2.9 7.9 1
      vertex 7.9 59.5 1
    endloop
  endfacet
  facet normal 0 0 1
    outer loop
      vertex 60.5645 4.36447 1
      vertex 59.1 7.9 1
      vertex 59.7699 5.4 1
    endloop
  endfacet
  facet normal 0 0 1
    outer loop
      vertex 59.7699 5.4 1
      vertex 59.1 7.9 1
      vertex 59.2704 6.6059 1
    endloop
  endfacet
  facet normal 0 0 1
    outer loop
      vertex 61.6 3.56987 1
      vertex 59.1 7.9 1
      vertex 60.5645 4.36447 1
    endloop
  endfacet
  facet normal 0 0 1
    outer loop
      vertex 62.8059 3.07037 1
      vertex 59.1 7.9 1
      vertex 61.6 3.56987 1
    endloop
  endfacet
  facet normal 0 0 1
    outer loop
      vertex 64.1 2.9 1
      vertex 59.1 7.9 1
      vertex 62.8059 3.07037 1
    endloop
  endfacet
  facet normal 0 0 1
    outer loop
      vertex 105.7 2.9 1
      vertex 59.1 7.9 1
      vertex 64.1 2.9 1
    endloop
  endfacet
  facet normal 0 0 1
    outer loop
      vertex 106.994 3.07037 1
      vertex 59.1 7.9 1
      vertex 105.7 2.9 1
    endloop
  endfacet
  facet normal 0 0 1
    outer loop
      vertex 108.2 3.56987 1
      vertex 59.1 7.9 1
      vertex 106.994 3.07037 1
    endloop
  endfacet
  facet normal 0 0 1
    outer loop
      vertex 109.236 4.36447 1
      vertex 59.1 7.9 1
      vertex 108.2 3.56987 1
    endloop
  endfacet
  facet normal 0 0 1
    outer loop
      vertex 110.03 5.4 1
      vertex 59.1 7.9 1
      vertex 109.236 4.36447 1
    endloop
  endfacet
  facet normal 0 0 1
    outer loop
      vertex 110.53 6.6059 1
      vertex 59.1 7.9 1
      vertex 110.03 5.4 1
    endloop
  endfacet
  facet normal 0 0 1
    outer loop
      vertex 110.7 7.9 1
      vertex 59.1 7.9 1
      vertex 110.53 6.6059 1
    endloop
  endfacet
  facet normal 0 0 1
    outer loop
      vertex 110.7 54.5 1
      vertex 59.1 7.9 1
      vertex 110.7 7.9 1
    endloop
  endfacet
  facet normal 0 0 1
    outer loop
      vertex 110.53 55.7941 1
      vertex 59.1 7.9 1
      vertex 110.7 54.5 1
    endloop
  endfacet
  facet normal 0 0 1
    outer loop
      vertex 110.03 57 1
      vertex 59.1 7.9 1
      vertex 110.53 55.7941 1
    endloop
  endfacet
  facet normal 0 0 1
    outer loop
      vertex 109.236 58.0355 1
      vertex 59.1 7.9 1
      vertex 110.03 57 1
    endloop
  endfacet
  facet normal 0 0 1
    outer loop
      vertex 108.2 58.8301 1
      vertex 59.1 7.9 1
      vertex 109.236 58.0355 1
    endloop
  endfacet
  facet normal 0 0 1
    outer loop
      vertex 106.994 59.3296 1
      vertex 59.1 7.9 1
      vertex 108.2 58.8301 1
    endloop
  endfacet
  facet normal 0 0 1
    outer loop
      vertex 105.7 59.5 1
      vertex 59.1 7.9 1
      vertex 106.994 59.3296 1
    endloop
  endfacet
  facet normal 0 0 1
    outer loop
      vertex 64.1 59.5 1
      vertex 59.1 7.9 1
      vertex 105.7 59.5 1
    endloop
  endfacet
  facet normal 0 0 1
    outer loop
      vertex 59.1 54.5 1
      vertex 59.7699 57 1
      vertex 59.2704 55.7941 1
    endloop
  endfacet
  facet normal 0 0 1
    outer loop
      vertex 59.1 54.5 1
      vertex 60.5645 58.0355 1
      vertex 59.7699 57 1
    endloop
  endfacet
  facet normal 0 0 1
    outer loop
      vertex 59.1 54.5 1
      vertex 61.6 58.8301 1
      vertex 60.5645 58.0355 1
    endloop
  endfacet
  facet normal 0 0 1
    outer loop
      vertex 59.1 54.5 1
      vertex 62.8059 59.3296 1
      vertex 61.6 58.8301 1
    endloop
  endfacet
  facet normal 0 0 1
    outer loop
      vertex 59.1 54.5 1
      vertex 64.1 59.5 1
      vertex 62.8059 59.3296 1
    endloop
  endfacet
  facet normal 0 0 1
    outer loop
      vertex 59.1 54.5 1
      vertex 59.1 7.9 1
      vertex 64.1 59.5 1
    endloop
  endfacet
endsolid OpenSCAD_Model
