solid OpenSCAD_Model
  facet normal -1 0 0
    outer loop
      vertex -37 -13 24.6
      vertex -37 13 -0.2
      vertex -37 -13 -0.2
    endloop
  endfacet
  facet normal -1 0 0
    outer loop
      vertex -37 -13 24.6
      vertex -37 13 24.6
      vertex -37 13 -0.2
    endloop
  endfacet
  facet normal 0.980785 -0.19509 0
    outer loop
      vertex -1 -13 -0.2
      vertex -1.3806 -14.9134 24.6
      vertex -1.3806 -14.9134 -0.2
    endloop
  endfacet
  facet normal 0.980785 -0.19509 0
    outer loop
      vertex -1 -13 -0.2
      vertex -1 -13 24.6
      vertex -1.3806 -14.9134 24.6
    endloop
  endfacet
  facet normal -0.19509 -0.980785 0
    outer loop
      vertex -32 -18 -0.2
      vertex -33.9134 -17.6194 24.6
      vertex -33.9134 -17.6194 -0.2
    endloop
  endfacet
  facet normal -0.19509 -0.980785 0
    outer loop
      vertex -32 -18 -0.2
      vertex -32 -18 24.6
      vertex -33.9134 -17.6194 24.6
    endloop
  endfacet
  facet normal 0 0 -1
    outer loop
      vertex -35.5355 -16.5355 -0.2
      vertex -36.6194 -14.9134 -0.2
      vertex -37 -13 -0.2
    endloop
  endfacet
  facet normal 0 0 -1
    outer loop
      vertex -37 13 -0.2
      vertex -32 -18 -0.2
      vertex -37 -13 -0.2
    endloop
  endfacet
  facet normal 0 -0 -1
    outer loop
      vertex -36.6194 14.9134 -0.2
      vertex -35.5355 16.5355 -0.2
      vertex -37 13 -0.2
    endloop
  endfacet
  facet normal 0 -0 -1
    outer loop
      vertex -35.5355 16.5355 -0.2
      vertex -32 18 -0.2
      vertex -37 13 -0.2
    endloop
  endfacet
  facet normal 0 -0 -1
    outer loop
      vertex -33.9134 17.6194 -0.2
      vertex -32 18 -0.2
      vertex -35.5355 16.5355 -0.2
    endloop
  endfacet
  facet normal 0 -0 -1
    outer loop
      vertex -32 18 -0.2
      vertex -32 -18 -0.2
      vertex -37 13 -0.2
    endloop
  endfacet
  facet normal -0 -0 -1
    outer loop
      vertex -6 18 -0.2
      vertex -6 -18 -0.2
      vertex -32 18 -0.2
    endloop
  endfacet
  facet normal -0 -0 -1
    outer loop
      vertex -4.08658 17.6194 -0.2
      vertex -2.46447 16.5355 -0.2
      vertex -6 18 -0.2
    endloop
  endfacet
  facet normal -0 -0 -1
    outer loop
      vertex -2.46447 16.5355 -0.2
      vertex -1 13 -0.2
      vertex -6 18 -0.2
    endloop
  endfacet
  facet normal -0 -0 -1
    outer loop
      vertex -1.3806 14.9134 -0.2
      vertex -1 13 -0.2
      vertex -2.46447 16.5355 -0.2
    endloop
  endfacet
  facet normal -0 -0 -1
    outer loop
      vertex -1 13 -0.2
      vertex -1 -13 -0.2
      vertex -6 18 -0.2
    endloop
  endfacet
  facet normal -0 0 -1
    outer loop
      vertex -1 -13 -0.2
      vertex -6 -18 -0.2
      vertex -6 18 -0.2
    endloop
  endfacet
  facet normal -0 0 -1
    outer loop
      vertex -1.3806 -14.9134 -0.2
      vertex -2.46447 -16.5355 -0.2
      vertex -1 -13 -0.2
    endloop
  endfacet
  facet normal -0 0 -1
    outer loop
      vertex -2.46447 -16.5355 -0.2
      vertex -6 -18 -0.2
      vertex -1 -13 -0.2
    endloop
  endfacet
  facet normal -0 0 -1
    outer loop
      vertex -4.08658 -17.6194 -0.2
      vertex -6 -18 -0.2
      vertex -2.46447 -16.5355 -0.2
    endloop
  endfacet
  facet normal 0 0 -1
    outer loop
      vertex -6 -18 -0.2
      vertex -32 -18 -0.2
      vertex -32 18 -0.2
    endloop
  endfacet
  facet normal 0 0 -1
    outer loop
      vertex -32 -18 -0.2
      vertex -35.5355 -16.5355 -0.2
      vertex -37 -13 -0.2
    endloop
  endfacet
  facet normal 0 0 -1
    outer loop
      vertex -33.9134 -17.6194 -0.2
      vertex -35.5355 -16.5355 -0.2
      vertex -32 -18 -0.2
    endloop
  endfacet
  facet normal 0 0 1
    outer loop
      vertex -36.6194 14.9134 24.6
      vertex -37 13 24.6
      vertex -35.6194 13.9134 24.6
    endloop
  endfacet
  facet normal 0 0 1
    outer loop
      vertex -35.6194 -13.9134 24.6
      vertex -36 -12 24.6
      vertex -37 -13 24.6
    endloop
  endfacet
  facet normal 0 0 1
    outer loop
      vertex -34.5355 -15.5355 24.6
      vertex -35.5355 -16.5355 24.6
      vertex -33.9134 -17.6194 24.6
    endloop
  endfacet
  facet normal 0 0 1
    outer loop
      vertex -1 -13 24.6
      vertex -2 -12 24.6
      vertex -2.3806 -13.9134 24.6
    endloop
  endfacet
  facet normal 0 0 1
    outer loop
      vertex -1.3806 -14.9134 24.6
      vertex -3.46447 -15.5355 24.6
      vertex -2.46447 -16.5355 24.6
    endloop
  endfacet
  facet normal 0 0 1
    outer loop
      vertex -6 18 24.6
      vertex -7 17 24.6
      vertex -5.08658 16.6194 24.6
    endloop
  endfacet
  facet normal 0 0 1
    outer loop
      vertex -4.08658 17.6194 24.6
      vertex -3.46447 15.5355 24.6
      vertex -2.46447 16.5355 24.6
    endloop
  endfacet
  facet normal 0 0 1
    outer loop
      vertex -33.9134 17.6194 24.6
      vertex -35.5355 16.5355 24.6
      vertex -34.5355 15.5355 24.6
    endloop
  endfacet
  facet normal 0 0 1
    outer loop
      vertex -35.5355 16.5355 24.6
      vertex -36.6194 14.9134 24.6
      vertex -34.5355 15.5355 24.6
    endloop
  endfacet
  facet normal 0 0 1
    outer loop
      vertex -36 12 24.6
      vertex -37 13 24.6
      vertex -37 -13 24.6
    endloop
  endfacet
  facet normal 0 0 1
    outer loop
      vertex -36 12 24.6
      vertex -37 -13 24.6
      vertex -36 -12 24.6
    endloop
  endfacet
  facet normal -0 0 1
    outer loop
      vertex -36.6194 14.9134 24.6
      vertex -35.6194 13.9134 24.6
      vertex -34.5355 15.5355 24.6
    endloop
  endfacet
  facet normal 0 0 1
    outer loop
      vertex -35.6194 13.9134 24.6
      vertex -37 13 24.6
      vertex -36 12 24.6
    endloop
  endfacet
  facet normal -0 0 1
    outer loop
      vertex -33.9134 17.6194 24.6
      vertex -32.9134 16.6194 24.6
      vertex -32 18 24.6
    endloop
  endfacet
  facet normal 0 0 1
    outer loop
      vertex -34.5355 15.5355 24.6
      vertex -32.9134 16.6194 24.6
      vertex -33.9134 17.6194 24.6
    endloop
  endfacet
  facet normal 0 0 1
    outer loop
      vertex -32 18 24.6
      vertex -32.9134 16.6194 24.6
      vertex -31 17 24.6
    endloop
  endfacet
  facet normal -0 0 1
    outer loop
      vertex -32 18 24.6
      vertex -7 17 24.6
      vertex -6 18 24.6
    endloop
  endfacet
  facet normal 0 -0 1
    outer loop
      vertex -1 -13 24.6
      vertex -1 13 24.6
      vertex -2 12 24.6
    endloop
  endfacet
  facet normal 0 -0 1
    outer loop
      vertex -31 17 24.6
      vertex -7 17 24.6
      vertex -32 18 24.6
    endloop
  endfacet
  facet normal 0 -0 1
    outer loop
      vertex -5.08658 16.6194 24.6
      vertex -4.08658 17.6194 24.6
      vertex -6 18 24.6
    endloop
  endfacet
  facet normal 0 0 1
    outer loop
      vertex -2.46447 16.5355 24.6
      vertex -3.46447 15.5355 24.6
      vertex -1.3806 14.9134 24.6
    endloop
  endfacet
  facet normal 0 -0 1
    outer loop
      vertex -2.3806 13.9134 24.6
      vertex -1.3806 14.9134 24.6
      vertex -3.46447 15.5355 24.6
    endloop
  endfacet
  facet normal -0 0 1
    outer loop
      vertex -5.08658 16.6194 24.6
      vertex -3.46447 15.5355 24.6
      vertex -4.08658 17.6194 24.6
    endloop
  endfacet
  facet normal -0 0 1
    outer loop
      vertex -2.3806 13.9134 24.6
      vertex -1 13 24.6
      vertex -1.3806 14.9134 24.6
    endloop
  endfacet
  facet normal 0 0 1
    outer loop
      vertex -1 -13 24.6
      vertex -2 12 24.6
      vertex -2 -12 24.6
    endloop
  endfacet
  facet normal 0 -0 1
    outer loop
      vertex -2 12 24.6
      vertex -1 13 24.6
      vertex -2.3806 13.9134 24.6
    endloop
  endfacet
  facet normal 0 0 1
    outer loop
      vertex -1 -13 24.6
      vertex -2.3806 -13.9134 24.6
      vertex -1.3806 -14.9134 24.6
    endloop
  endfacet
  facet normal 0 0 1
    outer loop
      vertex -2.46447 -16.5355 24.6
      vertex -3.46447 -15.5355 24.6
      vertex -4.08658 -17.6194 24.6
    endloop
  endfacet
  facet normal -0 0 1
    outer loop
      vertex -5.08658 -16.6194 24.6
      vertex -4.08658 -17.6194 24.6
      vertex -3.46447 -15.5355 24.6
    endloop
  endfacet
  facet normal 0 0 1
    outer loop
      vertex -2.3806 -13.9134 24.6
      vertex -3.46447 -15.5355 24.6
      vertex -1.3806 -14.9134 24.6
    endloop
  endfacet
  facet normal 0 0 1
    outer loop
      vertex -5.08658 -16.6194 24.6
      vertex -6 -18 24.6
      vertex -4.08658 -17.6194 24.6
    endloop
  endfacet
  facet normal -0 0 1
    outer loop
      vertex -33.9134 -17.6194 24.6
      vertex -32 -18 24.6
      vertex -32.9134 -16.6194 24.6
    endloop
  endfacet
  facet normal 0 0 1
    outer loop
      vertex -5.08658 -16.6194 24.6
      vertex -7 -17 24.6
      vertex -6 -18 24.6
    endloop
  endfacet
  facet normal 0 0 1
    outer loop
      vertex -31 -17 24.6
      vertex -32 -18 24.6
      vertex -6 -18 24.6
    endloop
  endfacet
  facet normal -0 0 1
    outer loop
      vertex -31 -17 24.6
      vertex -6 -18 24.6
      vertex -7 -17 24.6
    endloop
  endfacet
  facet normal 0 0 1
    outer loop
      vertex -31 -17 24.6
      vertex -32.9134 -16.6194 24.6
      vertex -32 -18 24.6
    endloop
  endfacet
  facet normal 0 0 1
    outer loop
      vertex -34.5355 -15.5355 24.6
      vertex -36.6194 -14.9134 24.6
      vertex -35.5355 -16.5355 24.6
    endloop
  endfacet
  facet normal 0 0 1
    outer loop
      vertex -32.9134 -16.6194 24.6
      vertex -34.5355 -15.5355 24.6
      vertex -33.9134 -17.6194 24.6
    endloop
  endfacet
  facet normal 0 0 1
    outer loop
      vertex -34.5355 -15.5355 24.6
      vertex -35.6194 -13.9134 24.6
      vertex -36.6194 -14.9134 24.6
    endloop
  endfacet
  facet normal 0 0 1
    outer loop
      vertex -35.6194 -13.9134 24.6
      vertex -37 -13 24.6
      vertex -36.6194 -14.9134 24.6
    endloop
  endfacet
  facet normal 0 -1 0
    outer loop
      vertex -6 -18 -0.2
      vertex -32 -18 24.6
      vertex -32 -18 -0.2
    endloop
  endfacet
  facet normal 0 -1 0
    outer loop
      vertex -6 -18 -0.2
      vertex -6 -18 24.6
      vertex -32 -18 24.6
    endloop
  endfacet
  facet normal -0.980785 -0.19509 0
    outer loop
      vertex -36.6194 -14.9134 24.6
      vertex -37 -13 24.6
      vertex -37 -13 -0.2
    endloop
  endfacet
  facet normal -0.980785 -0.19509 0
    outer loop
      vertex -36.6194 -14.9134 -0.2
      vertex -36.6194 -14.9134 24.6
      vertex -37 -13 -0.2
    endloop
  endfacet
  facet normal 1 0 0
    outer loop
      vertex -1 13 -0.2
      vertex -1 -13 24.6
      vertex -1 -13 -0.2
    endloop
  endfacet
  facet normal 1 0 -0
    outer loop
      vertex -1 13 -0.2
      vertex -1 13 24.6
      vertex -1 -13 24.6
    endloop
  endfacet
  facet normal -0.55557 -0.83147 0
    outer loop
      vertex -33.9134 -17.6194 -0.2
      vertex -35.5355 -16.5355 24.6
      vertex -35.5355 -16.5355 -0.2
    endloop
  endfacet
  facet normal -0.55557 -0.83147 0
    outer loop
      vertex -33.9134 -17.6194 -0.2
      vertex -33.9134 -17.6194 24.6
      vertex -35.5355 -16.5355 24.6
    endloop
  endfacet
  facet normal 0.19509 -0.980785 0
    outer loop
      vertex -4.08658 -17.6194 -0.2
      vertex -6 -18 24.6
      vertex -6 -18 -0.2
    endloop
  endfacet
  facet normal 0.19509 -0.980785 0
    outer loop
      vertex -4.08658 -17.6194 -0.2
      vertex -4.08658 -17.6194 24.6
      vertex -6 -18 24.6
    endloop
  endfacet
  facet normal 0.83147 0.55557 0
    outer loop
      vertex -1.3806 14.9134 24.6
      vertex -1.3806 14.9134 -0.2
      vertex -2.46447 16.5355 -0.2
    endloop
  endfacet
  facet normal 0.83147 0.55557 0
    outer loop
      vertex -2.46447 16.5355 24.6
      vertex -1.3806 14.9134 24.6
      vertex -2.46447 16.5355 -0.2
    endloop
  endfacet
  facet normal 0.980785 0.19509 0
    outer loop
      vertex -1 13 24.6
      vertex -1 13 -0.2
      vertex -1.3806 14.9134 -0.2
    endloop
  endfacet
  facet normal 0.980785 0.19509 0
    outer loop
      vertex -1.3806 14.9134 24.6
      vertex -1 13 24.6
      vertex -1.3806 14.9134 -0.2
    endloop
  endfacet
  facet normal 0 1 0
    outer loop
      vertex -32 18 24.6
      vertex -6 18 -0.2
      vertex -32 18 -0.2
    endloop
  endfacet
  facet normal -0 1 0
    outer loop
      vertex -32 18 24.6
      vertex -6 18 24.6
      vertex -6 18 -0.2
    endloop
  endfacet
  facet normal -0.980785 0.19509 0
    outer loop
      vertex -37 13 24.6
      vertex -36.6194 14.9134 -0.2
      vertex -37 13 -0.2
    endloop
  endfacet
  facet normal -0.980785 0.19509 0
    outer loop
      vertex -37 13 24.6
      vertex -36.6194 14.9134 24.6
      vertex -36.6194 14.9134 -0.2
    endloop
  endfacet
  facet normal -0.83147 0.55557 0
    outer loop
      vertex -36.6194 14.9134 24.6
      vertex -35.5355 16.5355 -0.2
      vertex -36.6194 14.9134 -0.2
    endloop
  endfacet
  facet normal -0.83147 0.55557 0
    outer loop
      vertex -36.6194 14.9134 24.6
      vertex -35.5355 16.5355 24.6
      vertex -35.5355 16.5355 -0.2
    endloop
  endfacet
  facet normal -0.83147 -0.55557 0
    outer loop
      vertex -35.5355 -16.5355 24.6
      vertex -36.6194 -14.9134 24.6
      vertex -36.6194 -14.9134 -0.2
    endloop
  endfacet
  facet normal -0.83147 -0.55557 0
    outer loop
      vertex -35.5355 -16.5355 -0.2
      vertex -35.5355 -16.5355 24.6
      vertex -36.6194 -14.9134 -0.2
    endloop
  endfacet
  facet normal 0.83147 -0.55557 0
    outer loop
      vertex -1.3806 -14.9134 -0.2
      vertex -2.46447 -16.5355 24.6
      vertex -2.46447 -16.5355 -0.2
    endloop
  endfacet
  facet normal 0.83147 -0.55557 0
    outer loop
      vertex -1.3806 -14.9134 -0.2
      vertex -1.3806 -14.9134 24.6
      vertex -2.46447 -16.5355 24.6
    endloop
  endfacet
  facet normal -0.19509 0.980785 0
    outer loop
      vertex -33.9134 17.6194 24.6
      vertex -32 18 -0.2
      vertex -33.9134 17.6194 -0.2
    endloop
  endfacet
  facet normal -0.19509 0.980785 0
    outer loop
      vertex -33.9134 17.6194 24.6
      vertex -32 18 24.6
      vertex -32 18 -0.2
    endloop
  endfacet
  facet normal -0.55557 0.83147 0
    outer loop
      vertex -35.5355 16.5355 24.6
      vertex -33.9134 17.6194 -0.2
      vertex -35.5355 16.5355 -0.2
    endloop
  endfacet
  facet normal -0.55557 0.83147 0
    outer loop
      vertex -35.5355 16.5355 24.6
      vertex -33.9134 17.6194 24.6
      vertex -33.9134 17.6194 -0.2
    endloop
  endfacet
  facet normal 0.55557 -0.83147 0
    outer loop
      vertex -2.46447 -16.5355 -0.2
      vertex -4.08658 -17.6194 24.6
      vertex -4.08658 -17.6194 -0.2
    endloop
  endfacet
  facet normal 0.55557 -0.83147 0
    outer loop
      vertex -2.46447 -16.5355 -0.2
      vertex -2.46447 -16.5355 24.6
      vertex -4.08658 -17.6194 24.6
    endloop
  endfacet
  facet normal 0.19509 0.980785 0
    outer loop
      vertex -6 18 24.6
      vertex -4.08658 17.6194 -0.2
      vertex -6 18 -0.2
    endloop
  endfacet
  facet normal 0.19509 0.980785 0
    outer loop
      vertex -6 18 24.6
      vertex -4.08658 17.6194 24.6
      vertex -4.08658 17.6194 -0.2
    endloop
  endfacet
  facet normal 0.55557 0.83147 0
    outer loop
      vertex -4.08658 17.6194 24.6
      vertex -2.46447 16.5355 -0.2
      vertex -4.08658 17.6194 -0.2
    endloop
  endfacet
  facet normal 0.55557 0.83147 0
    outer loop
      vertex -4.08658 17.6194 24.6
      vertex -2.46447 16.5355 24.6
      vertex -2.46447 16.5355 -0.2
    endloop
  endfacet
  facet normal -1 0 0
    outer loop
      vertex -36 -12 29.6
      vertex -36 12 24.6
      vertex -36 -12 24.6
    endloop
  endfacet
  facet normal -1 0 0
    outer loop
      vertex -36 -12 29.6
      vertex -36 12 29.6
      vertex -36 12 24.6
    endloop
  endfacet
  facet normal 0.980785 -0.19509 0
    outer loop
      vertex -2 -12 24.6
      vertex -2.3806 -13.9134 29.6
      vertex -2.3806 -13.9134 24.6
    endloop
  endfacet
  facet normal 0.980785 -0.19509 0
    outer loop
      vertex -2 -12 24.6
      vertex -2 -12 29.6
      vertex -2.3806 -13.9134 29.6
    endloop
  endfacet
  facet normal -0.19509 -0.980785 0
    outer loop
      vertex -31 -17 24.6
      vertex -32.9134 -16.6194 29.6
      vertex -32.9134 -16.6194 24.6
    endloop
  endfacet
  facet normal -0.19509 -0.980785 0
    outer loop
      vertex -31 -17 24.6
      vertex -31 -17 29.6
      vertex -32.9134 -16.6194 29.6
    endloop
  endfacet
  facet normal 0 0 1
    outer loop
      vertex -35.6194 13.9134 29.6
      vertex -36 12 29.6
      vertex -34.3694 12.6634 29.6
    endloop
  endfacet
  facet normal 0 0 1
    outer loop
      vertex -33.2855 -14.2855 29.6
      vertex -34.5355 -15.5355 29.6
      vertex -32.9134 -16.6194 29.6
    endloop
  endfacet
  facet normal 0 0 1
    outer loop
      vertex -2 -12 29.6
      vertex -3.25 -10.75 29.6
      vertex -3.6306 -12.6634 29.6
    endloop
  endfacet
  facet normal 0 0 1
    outer loop
      vertex -2.3806 -13.9134 29.6
      vertex -4.71447 -14.2855 29.6
      vertex -3.46447 -15.5355 29.6
    endloop
  endfacet
  facet normal 0 0 1
    outer loop
      vertex -7 17 29.6
      vertex -8.25 15.75 29.6
      vertex -6.33658 15.3694 29.6
    endloop
  endfacet
  facet normal 0 0 1
    outer loop
      vertex -5.08658 16.6194 29.6
      vertex -4.71447 14.2855 29.6
      vertex -3.46447 15.5355 29.6
    endloop
  endfacet
  facet normal 0 0 1
    outer loop
      vertex -32.9134 16.6194 29.6
      vertex -34.5355 15.5355 29.6
      vertex -33.2855 14.2855 29.6
    endloop
  endfacet
  facet normal 0 0 1
    outer loop
      vertex -34.5355 15.5355 29.6
      vertex -35.6194 13.9134 29.6
      vertex -33.2855 14.2855 29.6
    endloop
  endfacet
  facet normal 0 0 1
    outer loop
      vertex -34.75 10.75 29.6
      vertex -36 12 29.6
      vertex -36 -12 29.6
    endloop
  endfacet
  facet normal 0 0 1
    outer loop
      vertex -34.75 10.75 29.6
      vertex -36 -12 29.6
      vertex -34.75 -10.75 29.6
    endloop
  endfacet
  facet normal -0 0 1
    outer loop
      vertex -35.6194 13.9134 29.6
      vertex -34.3694 12.6634 29.6
      vertex -33.2855 14.2855 29.6
    endloop
  endfacet
  facet normal 0 0 1
    outer loop
      vertex -34.3694 12.6634 29.6
      vertex -36 12 29.6
      vertex -34.75 10.75 29.6
    endloop
  endfacet
  facet normal -0 0 1
    outer loop
      vertex -32.9134 16.6194 29.6
      vertex -31.6634 15.3694 29.6
      vertex -31 17 29.6
    endloop
  endfacet
  facet normal 0 0 1
    outer loop
      vertex -33.2855 14.2855 29.6
      vertex -31.6634 15.3694 29.6
      vertex -32.9134 16.6194 29.6
    endloop
  endfacet
  facet normal 0 0 1
    outer loop
      vertex -31 17 29.6
      vertex -31.6634 15.3694 29.6
      vertex -29.75 15.75 29.6
    endloop
  endfacet
  facet normal -0 0 1
    outer loop
      vertex -31 17 29.6
      vertex -8.25 15.75 29.6
      vertex -7 17 29.6
    endloop
  endfacet
  facet normal 0 -0 1
    outer loop
      vertex -2 -12 29.6
      vertex -2 12 29.6
      vertex -3.25 10.75 29.6
    endloop
  endfacet
  facet normal 0 -0 1
    outer loop
      vertex -29.75 15.75 29.6
      vertex -8.25 15.75 29.6
      vertex -31 17 29.6
    endloop
  endfacet
  facet normal 0 -0 1
    outer loop
      vertex -6.33658 15.3694 29.6
      vertex -5.08658 16.6194 29.6
      vertex -7 17 29.6
    endloop
  endfacet
  facet normal 0 0 1
    outer loop
      vertex -3.46447 15.5355 29.6
      vertex -4.71447 14.2855 29.6
      vertex -2.3806 13.9134 29.6
    endloop
  endfacet
  facet normal 0 -0 1
    outer loop
      vertex -3.6306 12.6634 29.6
      vertex -2.3806 13.9134 29.6
      vertex -4.71447 14.2855 29.6
    endloop
  endfacet
  facet normal -0 0 1
    outer loop
      vertex -6.33658 15.3694 29.6
      vertex -4.71447 14.2855 29.6
      vertex -5.08658 16.6194 29.6
    endloop
  endfacet
  facet normal -0 0 1
    outer loop
      vertex -3.6306 12.6634 29.6
      vertex -2 12 29.6
      vertex -2.3806 13.9134 29.6
    endloop
  endfacet
  facet normal 0 0 1
    outer loop
      vertex -2 -12 29.6
      vertex -3.25 10.75 29.6
      vertex -3.25 -10.75 29.6
    endloop
  endfacet
  facet normal 0 -0 1
    outer loop
      vertex -3.25 10.75 29.6
      vertex -2 12 29.6
      vertex -3.6306 12.6634 29.6
    endloop
  endfacet
  facet normal 0 0 1
    outer loop
      vertex -2 -12 29.6
      vertex -3.6306 -12.6634 29.6
      vertex -2.3806 -13.9134 29.6
    endloop
  endfacet
  facet normal 0 0 1
    outer loop
      vertex -3.46447 -15.5355 29.6
      vertex -4.71447 -14.2855 29.6
      vertex -5.08658 -16.6194 29.6
    endloop
  endfacet
  facet normal -0 0 1
    outer loop
      vertex -6.33658 -15.3694 29.6
      vertex -5.08658 -16.6194 29.6
      vertex -4.71447 -14.2855 29.6
    endloop
  endfacet
  facet normal 0 0 1
    outer loop
      vertex -3.6306 -12.6634 29.6
      vertex -4.71447 -14.2855 29.6
      vertex -2.3806 -13.9134 29.6
    endloop
  endfacet
  facet normal 0 0 1
    outer loop
      vertex -6.33658 -15.3694 29.6
      vertex -7 -17 29.6
      vertex -5.08658 -16.6194 29.6
    endloop
  endfacet
  facet normal -0 0 1
    outer loop
      vertex -32.9134 -16.6194 29.6
      vertex -31 -17 29.6
      vertex -31.6634 -15.3694 29.6
    endloop
  endfacet
  facet normal 0 0 1
    outer loop
      vertex -6.33658 -15.3694 29.6
      vertex -8.25 -15.75 29.6
      vertex -7 -17 29.6
    endloop
  endfacet
  facet normal 0 0 1
    outer loop
      vertex -29.75 -15.75 29.6
      vertex -31 -17 29.6
      vertex -7 -17 29.6
    endloop
  endfacet
  facet normal -0 0 1
    outer loop
      vertex -29.75 -15.75 29.6
      vertex -7 -17 29.6
      vertex -8.25 -15.75 29.6
    endloop
  endfacet
  facet normal 0 0 1
    outer loop
      vertex -29.75 -15.75 29.6
      vertex -31.6634 -15.3694 29.6
      vertex -31 -17 29.6
    endloop
  endfacet
  facet normal 0 0 1
    outer loop
      vertex -33.2855 -14.2855 29.6
      vertex -35.6194 -13.9134 29.6
      vertex -34.5355 -15.5355 29.6
    endloop
  endfacet
  facet normal 0 0 1
    outer loop
      vertex -31.6634 -15.3694 29.6
      vertex -33.2855 -14.2855 29.6
      vertex -32.9134 -16.6194 29.6
    endloop
  endfacet
  facet normal 0 0 1
    outer loop
      vertex -34.3694 -12.6634 29.6
      vertex -36 -12 29.6
      vertex -35.6194 -13.9134 29.6
    endloop
  endfacet
  facet normal 0 0 1
    outer loop
      vertex -33.2855 -14.2855 29.6
      vertex -34.3694 -12.6634 29.6
      vertex -35.6194 -13.9134 29.6
    endloop
  endfacet
  facet normal 0 0 1
    outer loop
      vertex -34.3694 -12.6634 29.6
      vertex -34.75 -10.75 29.6
      vertex -36 -12 29.6
    endloop
  endfacet
  facet normal 0 -1 0
    outer loop
      vertex -7 -17 24.6
      vertex -31 -17 29.6
      vertex -31 -17 24.6
    endloop
  endfacet
  facet normal 0 -1 0
    outer loop
      vertex -7 -17 24.6
      vertex -7 -17 29.6
      vertex -31 -17 29.6
    endloop
  endfacet
  facet normal -0.980785 -0.19509 0
    outer loop
      vertex -35.6194 -13.9134 29.6
      vertex -36 -12 29.6
      vertex -36 -12 24.6
    endloop
  endfacet
  facet normal -0.980785 -0.19509 0
    outer loop
      vertex -35.6194 -13.9134 24.6
      vertex -35.6194 -13.9134 29.6
      vertex -36 -12 24.6
    endloop
  endfacet
  facet normal 1 0 0
    outer loop
      vertex -2 12 24.6
      vertex -2 -12 29.6
      vertex -2 -12 24.6
    endloop
  endfacet
  facet normal 1 0 -0
    outer loop
      vertex -2 12 24.6
      vertex -2 12 29.6
      vertex -2 -12 29.6
    endloop
  endfacet
  facet normal -0.55557 -0.83147 0
    outer loop
      vertex -32.9134 -16.6194 24.6
      vertex -34.5355 -15.5355 29.6
      vertex -34.5355 -15.5355 24.6
    endloop
  endfacet
  facet normal -0.55557 -0.83147 0
    outer loop
      vertex -32.9134 -16.6194 24.6
      vertex -32.9134 -16.6194 29.6
      vertex -34.5355 -15.5355 29.6
    endloop
  endfacet
  facet normal 0.19509 -0.980785 0
    outer loop
      vertex -5.08658 -16.6194 24.6
      vertex -7 -17 29.6
      vertex -7 -17 24.6
    endloop
  endfacet
  facet normal 0.19509 -0.980785 0
    outer loop
      vertex -5.08658 -16.6194 24.6
      vertex -5.08658 -16.6194 29.6
      vertex -7 -17 29.6
    endloop
  endfacet
  facet normal 0.83147 0.55557 0
    outer loop
      vertex -2.3806 13.9134 29.6
      vertex -2.3806 13.9134 24.6
      vertex -3.46447 15.5355 24.6
    endloop
  endfacet
  facet normal 0.83147 0.55557 0
    outer loop
      vertex -3.46447 15.5355 29.6
      vertex -2.3806 13.9134 29.6
      vertex -3.46447 15.5355 24.6
    endloop
  endfacet
  facet normal 0.980785 0.19509 0
    outer loop
      vertex -2 12 29.6
      vertex -2 12 24.6
      vertex -2.3806 13.9134 24.6
    endloop
  endfacet
  facet normal 0.980785 0.19509 0
    outer loop
      vertex -2.3806 13.9134 29.6
      vertex -2 12 29.6
      vertex -2.3806 13.9134 24.6
    endloop
  endfacet
  facet normal 0 1 0
    outer loop
      vertex -31 17 29.6
      vertex -7 17 24.6
      vertex -31 17 24.6
    endloop
  endfacet
  facet normal -0 1 0
    outer loop
      vertex -31 17 29.6
      vertex -7 17 29.6
      vertex -7 17 24.6
    endloop
  endfacet
  facet normal -0.980785 0.19509 0
    outer loop
      vertex -36 12 29.6
      vertex -35.6194 13.9134 24.6
      vertex -36 12 24.6
    endloop
  endfacet
  facet normal -0.980785 0.19509 0
    outer loop
      vertex -36 12 29.6
      vertex -35.6194 13.9134 29.6
      vertex -35.6194 13.9134 24.6
    endloop
  endfacet
  facet normal -0.83147 -0.55557 0
    outer loop
      vertex -34.5355 -15.5355 29.6
      vertex -35.6194 -13.9134 29.6
      vertex -35.6194 -13.9134 24.6
    endloop
  endfacet
  facet normal -0.83147 -0.55557 0
    outer loop
      vertex -34.5355 -15.5355 24.6
      vertex -34.5355 -15.5355 29.6
      vertex -35.6194 -13.9134 24.6
    endloop
  endfacet
  facet normal 0.83147 -0.55557 0
    outer loop
      vertex -2.3806 -13.9134 24.6
      vertex -3.46447 -15.5355 29.6
      vertex -3.46447 -15.5355 24.6
    endloop
  endfacet
  facet normal 0.83147 -0.55557 0
    outer loop
      vertex -2.3806 -13.9134 24.6
      vertex -2.3806 -13.9134 29.6
      vertex -3.46447 -15.5355 29.6
    endloop
  endfacet
  facet normal -0.55557 0.83147 0
    outer loop
      vertex -34.5355 15.5355 29.6
      vertex -32.9134 16.6194 24.6
      vertex -34.5355 15.5355 24.6
    endloop
  endfacet
  facet normal -0.55557 0.83147 0
    outer loop
      vertex -34.5355 15.5355 29.6
      vertex -32.9134 16.6194 29.6
      vertex -32.9134 16.6194 24.6
    endloop
  endfacet
  facet normal 0.55557 -0.83147 0
    outer loop
      vertex -3.46447 -15.5355 24.6
      vertex -5.08658 -16.6194 29.6
      vertex -5.08658 -16.6194 24.6
    endloop
  endfacet
  facet normal 0.55557 -0.83147 0
    outer loop
      vertex -3.46447 -15.5355 24.6
      vertex -3.46447 -15.5355 29.6
      vertex -5.08658 -16.6194 29.6
    endloop
  endfacet
  facet normal -0.19509 0.980785 0
    outer loop
      vertex -32.9134 16.6194 29.6
      vertex -31 17 24.6
      vertex -32.9134 16.6194 24.6
    endloop
  endfacet
  facet normal -0.19509 0.980785 0
    outer loop
      vertex -32.9134 16.6194 29.6
      vertex -31 17 29.6
      vertex -31 17 24.6
    endloop
  endfacet
  facet normal 0.19509 0.980785 0
    outer loop
      vertex -7 17 29.6
      vertex -5.08658 16.6194 24.6
      vertex -7 17 24.6
    endloop
  endfacet
  facet normal 0.19509 0.980785 0
    outer loop
      vertex -7 17 29.6
      vertex -5.08658 16.6194 29.6
      vertex -5.08658 16.6194 24.6
    endloop
  endfacet
  facet normal 0.55557 0.83147 0
    outer loop
      vertex -5.08658 16.6194 29.6
      vertex -3.46447 15.5355 24.6
      vertex -5.08658 16.6194 24.6
    endloop
  endfacet
  facet normal 0.55557 0.83147 0
    outer loop
      vertex -5.08658 16.6194 29.6
      vertex -3.46447 15.5355 29.6
      vertex -3.46447 15.5355 24.6
    endloop
  endfacet
  facet normal -0.83147 0.55557 0
    outer loop
      vertex -35.6194 13.9134 29.6
      vertex -34.5355 15.5355 24.6
      vertex -35.6194 13.9134 24.6
    endloop
  endfacet
  facet normal -0.83147 0.55557 0
    outer loop
      vertex -35.6194 13.9134 29.6
      vertex -34.5355 15.5355 29.6
      vertex -34.5355 15.5355 24.6
    endloop
  endfacet
  facet normal 1 -0 0
    outer loop
      vertex -34.75 -10.75 29.6
      vertex -34.75 10.75 2
      vertex -34.75 10.75 29.6
    endloop
  endfacet
  facet normal 1 0 0
    outer loop
      vertex -34.75 -10.75 29.6
      vertex -34.75 -10.75 2
      vertex -34.75 10.75 2
    endloop
  endfacet
  facet normal 0 0 1
    outer loop
      vertex -34.75 -10.75 2
      vertex -34.3694 -12.6634 2
      vertex -33.2855 -14.2855 2
    endloop
  endfacet
  facet normal -0 -0 1
    outer loop
      vertex -31.6634 -15.3694 2
      vertex -29.75 -15.75 2
      vertex -33.2855 -14.2855 2
    endloop
  endfacet
  facet normal 0 0 1
    outer loop
      vertex -29.75 -15.75 2
      vertex -34.75 -10.75 2
      vertex -33.2855 -14.2855 2
    endloop
  endfacet
  facet normal 0 0 1
    outer loop
      vertex -8.25 -15.75 2
      vertex -34.75 -10.75 2
      vertex -29.75 -15.75 2
    endloop
  endfacet
  facet normal 0 -0 1
    outer loop
      vertex -6.33658 -15.3694 2
      vertex -4.71447 -14.2855 2
      vertex -8.25 -15.75 2
    endloop
  endfacet
  facet normal 0 -0 1
    outer loop
      vertex -4.71447 -14.2855 2
      vertex -3.25 -10.75 2
      vertex -8.25 -15.75 2
    endloop
  endfacet
  facet normal 0 -0 1
    outer loop
      vertex -3.6306 -12.6634 2
      vertex -3.25 -10.75 2
      vertex -4.71447 -14.2855 2
    endloop
  endfacet
  facet normal 0 0 1
    outer loop
      vertex -3.25 -10.75 2
      vertex -34.75 -10.75 2
      vertex -8.25 -15.75 2
    endloop
  endfacet
  facet normal 0 0 1
    outer loop
      vertex -3.25 10.75 2
      vertex -34.75 10.75 2
      vertex -3.25 -10.75 2
    endloop
  endfacet
  facet normal 0 0 1
    outer loop
      vertex -3.6306 12.6634 2
      vertex -4.71447 14.2855 2
      vertex -3.25 10.75 2
    endloop
  endfacet
  facet normal 0 0 1
    outer loop
      vertex -4.71447 14.2855 2
      vertex -8.25 15.75 2
      vertex -3.25 10.75 2
    endloop
  endfacet
  facet normal 0 0 1
    outer loop
      vertex -6.33658 15.3694 2
      vertex -8.25 15.75 2
      vertex -4.71447 14.2855 2
    endloop
  endfacet
  facet normal 0 0 1
    outer loop
      vertex -8.25 15.75 2
      vertex -29.75 15.75 2
      vertex -3.25 10.75 2
    endloop
  endfacet
  facet normal 0 0 1
    outer loop
      vertex -29.75 15.75 2
      vertex -34.75 10.75 2
      vertex -3.25 10.75 2
    endloop
  endfacet
  facet normal -0 0 1
    outer loop
      vertex -31.6634 15.3694 2
      vertex -33.2855 14.2855 2
      vertex -29.75 15.75 2
    endloop
  endfacet
  facet normal -0 0 1
    outer loop
      vertex -33.2855 14.2855 2
      vertex -34.75 10.75 2
      vertex -29.75 15.75 2
    endloop
  endfacet
  facet normal -0 0 1
    outer loop
      vertex -34.3694 12.6634 2
      vertex -34.75 10.75 2
      vertex -33.2855 14.2855 2
    endloop
  endfacet
  facet normal 0 0 1
    outer loop
      vertex -34.75 10.75 2
      vertex -34.75 -10.75 2
      vertex -3.25 -10.75 2
    endloop
  endfacet
  facet normal 0 1 -0
    outer loop
      vertex -8.25 -15.75 2
      vertex -29.75 -15.75 29.6
      vertex -8.25 -15.75 29.6
    endloop
  endfacet
  facet normal 0 1 0
    outer loop
      vertex -8.25 -15.75 2
      vertex -29.75 -15.75 2
      vertex -29.75 -15.75 29.6
    endloop
  endfacet
  facet normal 0.980785 0.19509 -0
    outer loop
      vertex -34.75 -10.75 2
      vertex -34.75 -10.75 29.6
      vertex -34.3694 -12.6634 29.6
    endloop
  endfacet
  facet normal 0.980785 0.19509 -0
    outer loop
      vertex -34.3694 -12.6634 2
      vertex -34.75 -10.75 2
      vertex -34.3694 -12.6634 29.6
    endloop
  endfacet
  facet normal -1 0 0
    outer loop
      vertex -3.25 10.75 2
      vertex -3.25 -10.75 29.6
      vertex -3.25 10.75 29.6
    endloop
  endfacet
  facet normal -1 0 0
    outer loop
      vertex -3.25 10.75 2
      vertex -3.25 -10.75 2
      vertex -3.25 -10.75 29.6
    endloop
  endfacet
  facet normal 0.55557 0.83147 -0
    outer loop
      vertex -31.6634 -15.3694 2
      vertex -33.2855 -14.2855 29.6
      vertex -31.6634 -15.3694 29.6
    endloop
  endfacet
  facet normal 0.55557 0.83147 0
    outer loop
      vertex -31.6634 -15.3694 2
      vertex -33.2855 -14.2855 2
      vertex -33.2855 -14.2855 29.6
    endloop
  endfacet
  facet normal -0.19509 0.980785 0
    outer loop
      vertex -6.33658 -15.3694 2
      vertex -8.25 -15.75 29.6
      vertex -6.33658 -15.3694 29.6
    endloop
  endfacet
  facet normal -0.19509 0.980785 0
    outer loop
      vertex -6.33658 -15.3694 2
      vertex -8.25 -15.75 2
      vertex -8.25 -15.75 29.6
    endloop
  endfacet
  facet normal -0.83147 -0.55557 0
    outer loop
      vertex -4.71447 14.2855 2
      vertex -3.6306 12.6634 2
      vertex -3.6306 12.6634 29.6
    endloop
  endfacet
  facet normal -0.83147 -0.55557 -0
    outer loop
      vertex -4.71447 14.2855 29.6
      vertex -4.71447 14.2855 2
      vertex -3.6306 12.6634 29.6
    endloop
  endfacet
  facet normal -0.980785 -0.19509 0
    outer loop
      vertex -3.6306 12.6634 2
      vertex -3.25 10.75 2
      vertex -3.25 10.75 29.6
    endloop
  endfacet
  facet normal -0.980785 -0.19509 -0
    outer loop
      vertex -3.6306 12.6634 29.6
      vertex -3.6306 12.6634 2
      vertex -3.25 10.75 29.6
    endloop
  endfacet
  facet normal 0 -1 0
    outer loop
      vertex -29.75 15.75 29.6
      vertex -8.25 15.75 2
      vertex -8.25 15.75 29.6
    endloop
  endfacet
  facet normal 0 -1 0
    outer loop
      vertex -29.75 15.75 29.6
      vertex -29.75 15.75 2
      vertex -8.25 15.75 2
    endloop
  endfacet
  facet normal 0.980785 -0.19509 0
    outer loop
      vertex -34.75 10.75 29.6
      vertex -34.3694 12.6634 2
      vertex -34.3694 12.6634 29.6
    endloop
  endfacet
  facet normal 0.980785 -0.19509 0
    outer loop
      vertex -34.75 10.75 29.6
      vertex -34.75 10.75 2
      vertex -34.3694 12.6634 2
    endloop
  endfacet
  facet normal 0.83147 -0.55557 0
    outer loop
      vertex -34.3694 12.6634 29.6
      vertex -33.2855 14.2855 2
      vertex -33.2855 14.2855 29.6
    endloop
  endfacet
  facet normal 0.83147 -0.55557 0
    outer loop
      vertex -34.3694 12.6634 29.6
      vertex -34.3694 12.6634 2
      vertex -33.2855 14.2855 2
    endloop
  endfacet
  facet normal 0.83147 0.55557 -0
    outer loop
      vertex -34.3694 -12.6634 2
      vertex -34.3694 -12.6634 29.6
      vertex -33.2855 -14.2855 29.6
    endloop
  endfacet
  facet normal 0.83147 0.55557 -0
    outer loop
      vertex -33.2855 -14.2855 2
      vertex -34.3694 -12.6634 2
      vertex -33.2855 -14.2855 29.6
    endloop
  endfacet
  facet normal 0.19509 0.980785 -0
    outer loop
      vertex -29.75 -15.75 2
      vertex -31.6634 -15.3694 29.6
      vertex -29.75 -15.75 29.6
    endloop
  endfacet
  facet normal 0.19509 0.980785 0
    outer loop
      vertex -29.75 -15.75 2
      vertex -31.6634 -15.3694 2
      vertex -31.6634 -15.3694 29.6
    endloop
  endfacet
  facet normal -0.83147 0.55557 0
    outer loop
      vertex -3.6306 -12.6634 2
      vertex -4.71447 -14.2855 29.6
      vertex -3.6306 -12.6634 29.6
    endloop
  endfacet
  facet normal -0.83147 0.55557 0
    outer loop
      vertex -3.6306 -12.6634 2
      vertex -4.71447 -14.2855 2
      vertex -4.71447 -14.2855 29.6
    endloop
  endfacet
  facet normal 0.55557 -0.83147 0
    outer loop
      vertex -33.2855 14.2855 29.6
      vertex -31.6634 15.3694 2
      vertex -31.6634 15.3694 29.6
    endloop
  endfacet
  facet normal 0.55557 -0.83147 0
    outer loop
      vertex -33.2855 14.2855 29.6
      vertex -33.2855 14.2855 2
      vertex -31.6634 15.3694 2
    endloop
  endfacet
  facet normal -0.980785 0.19509 0
    outer loop
      vertex -3.25 -10.75 2
      vertex -3.6306 -12.6634 29.6
      vertex -3.25 -10.75 29.6
    endloop
  endfacet
  facet normal -0.980785 0.19509 0
    outer loop
      vertex -3.25 -10.75 2
      vertex -3.6306 -12.6634 2
      vertex -3.6306 -12.6634 29.6
    endloop
  endfacet
  facet normal -0.55557 0.83147 0
    outer loop
      vertex -4.71447 -14.2855 2
      vertex -6.33658 -15.3694 29.6
      vertex -4.71447 -14.2855 29.6
    endloop
  endfacet
  facet normal -0.55557 0.83147 0
    outer loop
      vertex -4.71447 -14.2855 2
      vertex -6.33658 -15.3694 2
      vertex -6.33658 -15.3694 29.6
    endloop
  endfacet
  facet normal 0.19509 -0.980785 0
    outer loop
      vertex -31.6634 15.3694 29.6
      vertex -29.75 15.75 2
      vertex -29.75 15.75 29.6
    endloop
  endfacet
  facet normal 0.19509 -0.980785 0
    outer loop
      vertex -31.6634 15.3694 29.6
      vertex -31.6634 15.3694 2
      vertex -29.75 15.75 2
    endloop
  endfacet
  facet normal -0.19509 -0.980785 0
    outer loop
      vertex -8.25 15.75 29.6
      vertex -6.33658 15.3694 2
      vertex -6.33658 15.3694 29.6
    endloop
  endfacet
  facet normal -0.19509 -0.980785 -0
    outer loop
      vertex -8.25 15.75 29.6
      vertex -8.25 15.75 2
      vertex -6.33658 15.3694 2
    endloop
  endfacet
  facet normal -0.55557 -0.83147 0
    outer loop
      vertex -6.33658 15.3694 29.6
      vertex -4.71447 14.2855 2
      vertex -4.71447 14.2855 29.6
    endloop
  endfacet
  facet normal -0.55557 -0.83147 -0
    outer loop
      vertex -6.33658 15.3694 29.6
      vertex -6.33658 15.3694 2
      vertex -4.71447 14.2855 2
    endloop
  endfacet
  facet normal -1 0 0
    outer loop
      vertex 1 -13 7.2
      vertex 1 13 -1.90735e-007
      vertex 1 -13 -1.90735e-007
    endloop
  endfacet
  facet normal -1 0 0
    outer loop
      vertex 1 -13 7.2
      vertex 1 13 7.2
      vertex 1 13 -1.90735e-007
    endloop
  endfacet
  facet normal 0.980785 -0.19509 0
    outer loop
      vertex 37 -13 -1.90735e-007
      vertex 36.6194 -14.9134 7.2
      vertex 36.6194 -14.9134 -1.90735e-007
    endloop
  endfacet
  facet normal 0.980785 -0.19509 0
    outer loop
      vertex 37 -13 -1.90735e-007
      vertex 37 -13 7.2
      vertex 36.6194 -14.9134 7.2
    endloop
  endfacet
  facet normal -0.19509 -0.980785 0
    outer loop
      vertex 6 -18 -1.90735e-007
      vertex 4.08658 -17.6194 7.2
      vertex 4.08658 -17.6194 -1.90735e-007
    endloop
  endfacet
  facet normal -0.19509 -0.980785 0
    outer loop
      vertex 6 -18 -1.90735e-007
      vertex 6 -18 7.2
      vertex 4.08658 -17.6194 7.2
    endloop
  endfacet
  facet normal 0 0 -1
    outer loop
      vertex 2.46447 -16.5355 -1.90735e-007
      vertex 1.3806 -14.9134 -1.90735e-007
      vertex 1 -13 -1.90735e-007
    endloop
  endfacet
  facet normal 0 0 -1
    outer loop
      vertex 1 13 -1.90735e-007
      vertex 6 -18 -1.90735e-007
      vertex 1 -13 -1.90735e-007
    endloop
  endfacet
  facet normal 0 -0 -1
    outer loop
      vertex 1.3806 14.9134 -1.90735e-007
      vertex 2.46447 16.5355 -1.90735e-007
      vertex 1 13 -1.90735e-007
    endloop
  endfacet
  facet normal 0 -0 -1
    outer loop
      vertex 2.46447 16.5355 -1.90735e-007
      vertex 6 18 -1.90735e-007
      vertex 1 13 -1.90735e-007
    endloop
  endfacet
  facet normal 0 -0 -1
    outer loop
      vertex 4.08658 17.6194 -1.90735e-007
      vertex 6 18 -1.90735e-007
      vertex 2.46447 16.5355 -1.90735e-007
    endloop
  endfacet
  facet normal 0 -0 -1
    outer loop
      vertex 6 18 -1.90735e-007
      vertex 6 -18 -1.90735e-007
      vertex 1 13 -1.90735e-007
    endloop
  endfacet
  facet normal -0 -0 -1
    outer loop
      vertex 32 18 -1.90735e-007
      vertex 32 -18 -1.90735e-007
      vertex 6 18 -1.90735e-007
    endloop
  endfacet
  facet normal -0 -0 -1
    outer loop
      vertex 33.9134 17.6194 -1.90735e-007
      vertex 35.5355 16.5355 -1.90735e-007
      vertex 32 18 -1.90735e-007
    endloop
  endfacet
  facet normal -0 -0 -1
    outer loop
      vertex 35.5355 16.5355 -1.90735e-007
      vertex 37 13 -1.90735e-007
      vertex 32 18 -1.90735e-007
    endloop
  endfacet
  facet normal -0 -0 -1
    outer loop
      vertex 36.6194 14.9134 -1.90735e-007
      vertex 37 13 -1.90735e-007
      vertex 35.5355 16.5355 -1.90735e-007
    endloop
  endfacet
  facet normal -0 -0 -1
    outer loop
      vertex 37 13 -1.90735e-007
      vertex 37 -13 -1.90735e-007
      vertex 32 18 -1.90735e-007
    endloop
  endfacet
  facet normal -0 0 -1
    outer loop
      vertex 37 -13 -1.90735e-007
      vertex 32 -18 -1.90735e-007
      vertex 32 18 -1.90735e-007
    endloop
  endfacet
  facet normal -0 0 -1
    outer loop
      vertex 36.6194 -14.9134 -1.90735e-007
      vertex 35.5355 -16.5355 -1.90735e-007
      vertex 37 -13 -1.90735e-007
    endloop
  endfacet
  facet normal -0 0 -1
    outer loop
      vertex 35.5355 -16.5355 -1.90735e-007
      vertex 32 -18 -1.90735e-007
      vertex 37 -13 -1.90735e-007
    endloop
  endfacet
  facet normal -0 0 -1
    outer loop
      vertex 33.9134 -17.6194 -1.90735e-007
      vertex 32 -18 -1.90735e-007
      vertex 35.5355 -16.5355 -1.90735e-007
    endloop
  endfacet
  facet normal 0 0 -1
    outer loop
      vertex 32 -18 -1.90735e-007
      vertex 6 -18 -1.90735e-007
      vertex 6 18 -1.90735e-007
    endloop
  endfacet
  facet normal 0 0 -1
    outer loop
      vertex 6 -18 -1.90735e-007
      vertex 2.46447 -16.5355 -1.90735e-007
      vertex 1 -13 -1.90735e-007
    endloop
  endfacet
  facet normal 0 0 -1
    outer loop
      vertex 4.08658 -17.6194 -1.90735e-007
      vertex 2.46447 -16.5355 -1.90735e-007
      vertex 6 -18 -1.90735e-007
    endloop
  endfacet
  facet normal 0 0 1
    outer loop
      vertex 1.3806 14.9134 7.2
      vertex 1 13 7.2
      vertex 2.2556 14.0384 7.2
    endloop
  endfacet
  facet normal 0 0 1
    outer loop
      vertex 2.2556 -14.0384 7.2
      vertex 1.875 -12.125 7.2
      vertex 1 -13 7.2
    endloop
  endfacet
  facet normal 0 0 1
    outer loop
      vertex 3.33947 -15.6605 7.2
      vertex 2.46447 -16.5355 7.2
      vertex 4.08658 -17.6194 7.2
    endloop
  endfacet
  facet normal 0 0 1
    outer loop
      vertex 37 -13 7.2
      vertex 36.125 -12.125 7.2
      vertex 35.7444 -14.0384 7.2
    endloop
  endfacet
  facet normal 0 0 1
    outer loop
      vertex 36.6194 -14.9134 7.2
      vertex 34.6605 -15.6605 7.2
      vertex 35.5355 -16.5355 7.2
    endloop
  endfacet
  facet normal 0 0 1
    outer loop
      vertex 32 18 7.2
      vertex 31.125 17.125 7.2
      vertex 33.0384 16.7444 7.2
    endloop
  endfacet
  facet normal 0 0 1
    outer loop
      vertex 33.9134 17.6194 7.2
      vertex 34.6605 15.6605 7.2
      vertex 35.5355 16.5355 7.2
    endloop
  endfacet
  facet normal 0 0 1
    outer loop
      vertex 4.08658 17.6194 7.2
      vertex 2.46447 16.5355 7.2
      vertex 3.33947 15.6605 7.2
    endloop
  endfacet
  facet normal 0 0 1
    outer loop
      vertex 2.46447 16.5355 7.2
      vertex 1.3806 14.9134 7.2
      vertex 3.33947 15.6605 7.2
    endloop
  endfacet
  facet normal 0 0 1
    outer loop
      vertex 1.875 12.125 7.2
      vertex 1 13 7.2
      vertex 1 -13 7.2
    endloop
  endfacet
  facet normal 0 0 1
    outer loop
      vertex 1.875 12.125 7.2
      vertex 1 -13 7.2
      vertex 1.875 -12.125 7.2
    endloop
  endfacet
  facet normal -0 0 1
    outer loop
      vertex 1.3806 14.9134 7.2
      vertex 2.2556 14.0384 7.2
      vertex 3.33947 15.6605 7.2
    endloop
  endfacet
  facet normal 0 0 1
    outer loop
      vertex 2.2556 14.0384 7.2
      vertex 1 13 7.2
      vertex 1.875 12.125 7.2
    endloop
  endfacet
  facet normal -0 0 1
    outer loop
      vertex 4.08658 17.6194 7.2
      vertex 4.96158 16.7444 7.2
      vertex 6 18 7.2
    endloop
  endfacet
  facet normal 0 0 1
    outer loop
      vertex 3.33947 15.6605 7.2
      vertex 4.96158 16.7444 7.2
      vertex 4.08658 17.6194 7.2
    endloop
  endfacet
  facet normal 0 0 1
    outer loop
      vertex 33.9134 17.6194 7.2
      vertex 32 18 7.2
      vertex 33.0384 16.7444 7.2
    endloop
  endfacet
  facet normal 0 0 1
    outer loop
      vertex 4.96158 16.7444 7.2
      vertex 6.875 17.125 7.2
      vertex 6 18 7.2
    endloop
  endfacet
  facet normal 0 -0 1
    outer loop
      vertex 31.125 17.125 7.2
      vertex 32 18 7.2
      vertex 6 18 7.2
    endloop
  endfacet
  facet normal 0 0 1
    outer loop
      vertex 31.125 17.125 7.2
      vertex 6 18 7.2
      vertex 6.875 17.125 7.2
    endloop
  endfacet
  facet normal 0 0 1
    outer loop
      vertex 35.5355 16.5355 7.2
      vertex 34.6605 15.6605 7.2
      vertex 36.6194 14.9134 7.2
    endloop
  endfacet
  facet normal 0 -0 1
    outer loop
      vertex 37 -13 7.2
      vertex 37 13 7.2
      vertex 36.125 12.125 7.2
    endloop
  endfacet
  facet normal -0 0 1
    outer loop
      vertex 33.0384 16.7444 7.2
      vertex 34.6605 15.6605 7.2
      vertex 33.9134 17.6194 7.2
    endloop
  endfacet
  facet normal -0 0 1
    outer loop
      vertex 35.7444 14.0384 7.2
      vertex 37 13 7.2
      vertex 36.6194 14.9134 7.2
    endloop
  endfacet
  facet normal 0 -0 1
    outer loop
      vertex 35.7444 14.0384 7.2
      vertex 36.6194 14.9134 7.2
      vertex 34.6605 15.6605 7.2
    endloop
  endfacet
  facet normal 0 0 1
    outer loop
      vertex 37 -13 7.2
      vertex 36.125 12.125 7.2
      vertex 36.125 -12.125 7.2
    endloop
  endfacet
  facet normal 0 -0 1
    outer loop
      vertex 36.125 12.125 7.2
      vertex 37 13 7.2
      vertex 35.7444 14.0384 7.2
    endloop
  endfacet
  facet normal 0 0 1
    outer loop
      vertex 37 -13 7.2
      vertex 35.7444 -14.0384 7.2
      vertex 36.6194 -14.9134 7.2
    endloop
  endfacet
  facet normal 0 0 1
    outer loop
      vertex 35.5355 -16.5355 7.2
      vertex 34.6605 -15.6605 7.2
      vertex 33.9134 -17.6194 7.2
    endloop
  endfacet
  facet normal 0 0 1
    outer loop
      vertex 6 -18 7.2
      vertex 32 -18 7.2
      vertex 6.875 -17.125 7.2
    endloop
  endfacet
  facet normal 0 0 1
    outer loop
      vertex 35.7444 -14.0384 7.2
      vertex 34.6605 -15.6605 7.2
      vertex 36.6194 -14.9134 7.2
    endloop
  endfacet
  facet normal 0 0 1
    outer loop
      vertex 33.0384 -16.7444 7.2
      vertex 32 -18 7.2
      vertex 33.9134 -17.6194 7.2
    endloop
  endfacet
  facet normal -0 0 1
    outer loop
      vertex 33.0384 -16.7444 7.2
      vertex 33.9134 -17.6194 7.2
      vertex 34.6605 -15.6605 7.2
    endloop
  endfacet
  facet normal 0 0 1
    outer loop
      vertex 32 -18 7.2
      vertex 31.125 -17.125 7.2
      vertex 6.875 -17.125 7.2
    endloop
  endfacet
  facet normal -0 0 1
    outer loop
      vertex 31.125 -17.125 7.2
      vertex 32 -18 7.2
      vertex 33.0384 -16.7444 7.2
    endloop
  endfacet
  facet normal 0 0 1
    outer loop
      vertex 6 -18 7.2
      vertex 4.96158 -16.7444 7.2
      vertex 4.08658 -17.6194 7.2
    endloop
  endfacet
  facet normal 0 0 1
    outer loop
      vertex 6.875 -17.125 7.2
      vertex 4.96158 -16.7444 7.2
      vertex 6 -18 7.2
    endloop
  endfacet
  facet normal 0 0 1
    outer loop
      vertex 3.33947 -15.6605 7.2
      vertex 1.3806 -14.9134 7.2
      vertex 2.46447 -16.5355 7.2
    endloop
  endfacet
  facet normal 0 0 1
    outer loop
      vertex 4.96158 -16.7444 7.2
      vertex 3.33947 -15.6605 7.2
      vertex 4.08658 -17.6194 7.2
    endloop
  endfacet
  facet normal 0 0 1
    outer loop
      vertex 3.33947 -15.6605 7.2
      vertex 2.2556 -14.0384 7.2
      vertex 1.3806 -14.9134 7.2
    endloop
  endfacet
  facet normal 0 0 1
    outer loop
      vertex 2.2556 -14.0384 7.2
      vertex 1 -13 7.2
      vertex 1.3806 -14.9134 7.2
    endloop
  endfacet
  facet normal 0 -1 0
    outer loop
      vertex 32 -18 -1.90735e-007
      vertex 6 -18 7.2
      vertex 6 -18 -1.90735e-007
    endloop
  endfacet
  facet normal 0 -1 0
    outer loop
      vertex 32 -18 -1.90735e-007
      vertex 32 -18 7.2
      vertex 6 -18 7.2
    endloop
  endfacet
  facet normal -0.980785 -0.19509 0
    outer loop
      vertex 1.3806 -14.9134 7.2
      vertex 1 -13 7.2
      vertex 1 -13 -1.90735e-007
    endloop
  endfacet
  facet normal -0.980785 -0.19509 0
    outer loop
      vertex 1.3806 -14.9134 -1.90735e-007
      vertex 1.3806 -14.9134 7.2
      vertex 1 -13 -1.90735e-007
    endloop
  endfacet
  facet normal 1 0 0
    outer loop
      vertex 37 13 -1.90735e-007
      vertex 37 -13 7.2
      vertex 37 -13 -1.90735e-007
    endloop
  endfacet
  facet normal 1 0 -0
    outer loop
      vertex 37 13 -1.90735e-007
      vertex 37 13 7.2
      vertex 37 -13 7.2
    endloop
  endfacet
  facet normal -0.55557 -0.83147 0
    outer loop
      vertex 4.08658 -17.6194 -1.90735e-007
      vertex 2.46447 -16.5355 7.2
      vertex 2.46447 -16.5355 -1.90735e-007
    endloop
  endfacet
  facet normal -0.55557 -0.83147 0
    outer loop
      vertex 4.08658 -17.6194 -1.90735e-007
      vertex 4.08658 -17.6194 7.2
      vertex 2.46447 -16.5355 7.2
    endloop
  endfacet
  facet normal 0.19509 -0.980785 0
    outer loop
      vertex 33.9134 -17.6194 -1.90735e-007
      vertex 32 -18 7.2
      vertex 32 -18 -1.90735e-007
    endloop
  endfacet
  facet normal 0.19509 -0.980785 0
    outer loop
      vertex 33.9134 -17.6194 -1.90735e-007
      vertex 33.9134 -17.6194 7.2
      vertex 32 -18 7.2
    endloop
  endfacet
  facet normal 0.83147 0.55557 0
    outer loop
      vertex 36.6194 14.9134 7.2
      vertex 36.6194 14.9134 -1.90735e-007
      vertex 35.5355 16.5355 -1.90735e-007
    endloop
  endfacet
  facet normal 0.83147 0.55557 0
    outer loop
      vertex 35.5355 16.5355 7.2
      vertex 36.6194 14.9134 7.2
      vertex 35.5355 16.5355 -1.90735e-007
    endloop
  endfacet
  facet normal 0.980785 0.19509 0
    outer loop
      vertex 37 13 7.2
      vertex 37 13 -1.90735e-007
      vertex 36.6194 14.9134 -1.90735e-007
    endloop
  endfacet
  facet normal 0.980785 0.19509 0
    outer loop
      vertex 36.6194 14.9134 7.2
      vertex 37 13 7.2
      vertex 36.6194 14.9134 -1.90735e-007
    endloop
  endfacet
  facet normal 0 1 0
    outer loop
      vertex 6 18 7.2
      vertex 32 18 -1.90735e-007
      vertex 6 18 -1.90735e-007
    endloop
  endfacet
  facet normal -0 1 0
    outer loop
      vertex 6 18 7.2
      vertex 32 18 7.2
      vertex 32 18 -1.90735e-007
    endloop
  endfacet
  facet normal -0.980785 0.19509 0
    outer loop
      vertex 1 13 7.2
      vertex 1.3806 14.9134 -1.90735e-007
      vertex 1 13 -1.90735e-007
    endloop
  endfacet
  facet normal -0.980785 0.19509 0
    outer loop
      vertex 1 13 7.2
      vertex 1.3806 14.9134 7.2
      vertex 1.3806 14.9134 -1.90735e-007
    endloop
  endfacet
  facet normal -0.83147 0.55557 0
    outer loop
      vertex 1.3806 14.9134 7.2
      vertex 2.46447 16.5355 -1.90735e-007
      vertex 1.3806 14.9134 -1.90735e-007
    endloop
  endfacet
  facet normal -0.83147 0.55557 0
    outer loop
      vertex 1.3806 14.9134 7.2
      vertex 2.46447 16.5355 7.2
      vertex 2.46447 16.5355 -1.90735e-007
    endloop
  endfacet
  facet normal -0.83147 -0.55557 0
    outer loop
      vertex 2.46447 -16.5355 7.2
      vertex 1.3806 -14.9134 7.2
      vertex 1.3806 -14.9134 -1.90735e-007
    endloop
  endfacet
  facet normal -0.83147 -0.55557 0
    outer loop
      vertex 2.46447 -16.5355 -1.90735e-007
      vertex 2.46447 -16.5355 7.2
      vertex 1.3806 -14.9134 -1.90735e-007
    endloop
  endfacet
  facet normal 0.83147 -0.55557 0
    outer loop
      vertex 36.6194 -14.9134 -1.90735e-007
      vertex 35.5355 -16.5355 7.2
      vertex 35.5355 -16.5355 -1.90735e-007
    endloop
  endfacet
  facet normal 0.83147 -0.55557 0
    outer loop
      vertex 36.6194 -14.9134 -1.90735e-007
      vertex 36.6194 -14.9134 7.2
      vertex 35.5355 -16.5355 7.2
    endloop
  endfacet
  facet normal -0.19509 0.980785 0
    outer loop
      vertex 4.08658 17.6194 7.2
      vertex 6 18 -1.90735e-007
      vertex 4.08658 17.6194 -1.90735e-007
    endloop
  endfacet
  facet normal -0.19509 0.980785 0
    outer loop
      vertex 4.08658 17.6194 7.2
      vertex 6 18 7.2
      vertex 6 18 -1.90735e-007
    endloop
  endfacet
  facet normal -0.55557 0.83147 0
    outer loop
      vertex 2.46447 16.5355 7.2
      vertex 4.08658 17.6194 -1.90735e-007
      vertex 2.46447 16.5355 -1.90735e-007
    endloop
  endfacet
  facet normal -0.55557 0.83147 0
    outer loop
      vertex 2.46447 16.5355 7.2
      vertex 4.08658 17.6194 7.2
      vertex 4.08658 17.6194 -1.90735e-007
    endloop
  endfacet
  facet normal 0.55557 -0.83147 0
    outer loop
      vertex 35.5355 -16.5355 -1.90735e-007
      vertex 33.9134 -17.6194 7.2
      vertex 33.9134 -17.6194 -1.90735e-007
    endloop
  endfacet
  facet normal 0.55557 -0.83147 0
    outer loop
      vertex 35.5355 -16.5355 -1.90735e-007
      vertex 35.5355 -16.5355 7.2
      vertex 33.9134 -17.6194 7.2
    endloop
  endfacet
  facet normal 0.19509 0.980785 0
    outer loop
      vertex 32 18 7.2
      vertex 33.9134 17.6194 -1.90735e-007
      vertex 32 18 -1.90735e-007
    endloop
  endfacet
  facet normal 0.19509 0.980785 0
    outer loop
      vertex 32 18 7.2
      vertex 33.9134 17.6194 7.2
      vertex 33.9134 17.6194 -1.90735e-007
    endloop
  endfacet
  facet normal 0.55557 0.83147 0
    outer loop
      vertex 33.9134 17.6194 7.2
      vertex 35.5355 16.5355 -1.90735e-007
      vertex 33.9134 17.6194 -1.90735e-007
    endloop
  endfacet
  facet normal 0.55557 0.83147 0
    outer loop
      vertex 33.9134 17.6194 7.2
      vertex 35.5355 16.5355 7.2
      vertex 35.5355 16.5355 -1.90735e-007
    endloop
  endfacet
  facet normal 1 -0 0
    outer loop
      vertex 1.875 -12.125 7.2
      vertex 1.875 12.125 2
      vertex 1.875 12.125 7.2
    endloop
  endfacet
  facet normal 1 0 0
    outer loop
      vertex 1.875 -12.125 7.2
      vertex 1.875 -12.125 2
      vertex 1.875 12.125 2
    endloop
  endfacet
  facet normal -0.980785 0.19509 0
    outer loop
      vertex 36.125 -12.125 2
      vertex 35.7444 -14.0384 7.2
      vertex 36.125 -12.125 7.2
    endloop
  endfacet
  facet normal -0.980785 0.19509 0
    outer loop
      vertex 36.125 -12.125 2
      vertex 35.7444 -14.0384 2
      vertex 35.7444 -14.0384 7.2
    endloop
  endfacet
  facet normal 0.19509 0.980785 -0
    outer loop
      vertex 6.875 -17.125 2
      vertex 4.96158 -16.7444 7.2
      vertex 6.875 -17.125 7.2
    endloop
  endfacet
  facet normal 0.19509 0.980785 0
    outer loop
      vertex 6.875 -17.125 2
      vertex 4.96158 -16.7444 2
      vertex 4.96158 -16.7444 7.2
    endloop
  endfacet
  facet normal 0 0 1
    outer loop
      vertex 1.875 -12.125 2
      vertex 2.2556 -14.0384 2
      vertex 3.33947 -15.6605 2
    endloop
  endfacet
  facet normal -0 -0 1
    outer loop
      vertex 4.96158 -16.7444 2
      vertex 6.875 -17.125 2
      vertex 3.33947 -15.6605 2
    endloop
  endfacet
  facet normal 0 0 1
    outer loop
      vertex 6.875 -17.125 2
      vertex 1.875 -12.125 2
      vertex 3.33947 -15.6605 2
    endloop
  endfacet
  facet normal 0 0 1
    outer loop
      vertex 31.125 -17.125 2
      vertex 1.875 -12.125 2
      vertex 6.875 -17.125 2
    endloop
  endfacet
  facet normal 0 -0 1
    outer loop
      vertex 33.0384 -16.7444 2
      vertex 34.6605 -15.6605 2
      vertex 31.125 -17.125 2
    endloop
  endfacet
  facet normal 0 -0 1
    outer loop
      vertex 34.6605 -15.6605 2
      vertex 36.125 -12.125 2
      vertex 31.125 -17.125 2
    endloop
  endfacet
  facet normal 0 -0 1
    outer loop
      vertex 35.7444 -14.0384 2
      vertex 36.125 -12.125 2
      vertex 34.6605 -15.6605 2
    endloop
  endfacet
  facet normal 0 0 1
    outer loop
      vertex 36.125 -12.125 2
      vertex 1.875 -12.125 2
      vertex 31.125 -17.125 2
    endloop
  endfacet
  facet normal 0 0 1
    outer loop
      vertex 36.125 12.125 2
      vertex 1.875 12.125 2
      vertex 36.125 -12.125 2
    endloop
  endfacet
  facet normal 0 0 1
    outer loop
      vertex 35.7444 14.0384 2
      vertex 34.6605 15.6605 2
      vertex 36.125 12.125 2
    endloop
  endfacet
  facet normal 0 0 1
    outer loop
      vertex 34.6605 15.6605 2
      vertex 31.125 17.125 2
      vertex 36.125 12.125 2
    endloop
  endfacet
  facet normal 0 0 1
    outer loop
      vertex 33.0384 16.7444 2
      vertex 31.125 17.125 2
      vertex 34.6605 15.6605 2
    endloop
  endfacet
  facet normal 0 0 1
    outer loop
      vertex 31.125 17.125 2
      vertex 6.875 17.125 2
      vertex 36.125 12.125 2
    endloop
  endfacet
  facet normal 0 0 1
    outer loop
      vertex 6.875 17.125 2
      vertex 1.875 12.125 2
      vertex 36.125 12.125 2
    endloop
  endfacet
  facet normal -0 0 1
    outer loop
      vertex 4.96158 16.7444 2
      vertex 3.33947 15.6605 2
      vertex 6.875 17.125 2
    endloop
  endfacet
  facet normal -0 0 1
    outer loop
      vertex 3.33947 15.6605 2
      vertex 1.875 12.125 2
      vertex 6.875 17.125 2
    endloop
  endfacet
  facet normal -0 0 1
    outer loop
      vertex 2.2556 14.0384 2
      vertex 1.875 12.125 2
      vertex 3.33947 15.6605 2
    endloop
  endfacet
  facet normal 0 0 1
    outer loop
      vertex 1.875 12.125 2
      vertex 1.875 -12.125 2
      vertex 36.125 -12.125 2
    endloop
  endfacet
  facet normal 0 1 -0
    outer loop
      vertex 31.125 -17.125 2
      vertex 6.875 -17.125 7.2
      vertex 31.125 -17.125 7.2
    endloop
  endfacet
  facet normal 0 1 0
    outer loop
      vertex 31.125 -17.125 2
      vertex 6.875 -17.125 2
      vertex 6.875 -17.125 7.2
    endloop
  endfacet
  facet normal 0.980785 0.19509 -0
    outer loop
      vertex 1.875 -12.125 2
      vertex 1.875 -12.125 7.2
      vertex 2.2556 -14.0384 7.2
    endloop
  endfacet
  facet normal 0.980785 0.19509 -0
    outer loop
      vertex 2.2556 -14.0384 2
      vertex 1.875 -12.125 2
      vertex 2.2556 -14.0384 7.2
    endloop
  endfacet
  facet normal -1 0 0
    outer loop
      vertex 36.125 12.125 2
      vertex 36.125 -12.125 7.2
      vertex 36.125 12.125 7.2
    endloop
  endfacet
  facet normal -1 0 0
    outer loop
      vertex 36.125 12.125 2
      vertex 36.125 -12.125 2
      vertex 36.125 -12.125 7.2
    endloop
  endfacet
  facet normal 0.55557 0.83147 -0
    outer loop
      vertex 4.96158 -16.7444 2
      vertex 3.33947 -15.6605 7.2
      vertex 4.96158 -16.7444 7.2
    endloop
  endfacet
  facet normal 0.55557 0.83147 0
    outer loop
      vertex 4.96158 -16.7444 2
      vertex 3.33947 -15.6605 2
      vertex 3.33947 -15.6605 7.2
    endloop
  endfacet
  facet normal -0.19509 0.980785 0
    outer loop
      vertex 33.0384 -16.7444 2
      vertex 31.125 -17.125 7.2
      vertex 33.0384 -16.7444 7.2
    endloop
  endfacet
  facet normal -0.19509 0.980785 0
    outer loop
      vertex 33.0384 -16.7444 2
      vertex 31.125 -17.125 2
      vertex 31.125 -17.125 7.2
    endloop
  endfacet
  facet normal -0.83147 -0.55557 0
    outer loop
      vertex 34.6605 15.6605 2
      vertex 35.7444 14.0384 2
      vertex 35.7444 14.0384 7.2
    endloop
  endfacet
  facet normal -0.83147 -0.55557 -0
    outer loop
      vertex 34.6605 15.6605 7.2
      vertex 34.6605 15.6605 2
      vertex 35.7444 14.0384 7.2
    endloop
  endfacet
  facet normal -0.980785 -0.19509 0
    outer loop
      vertex 35.7444 14.0384 2
      vertex 36.125 12.125 2
      vertex 36.125 12.125 7.2
    endloop
  endfacet
  facet normal -0.980785 -0.19509 -0
    outer loop
      vertex 35.7444 14.0384 7.2
      vertex 35.7444 14.0384 2
      vertex 36.125 12.125 7.2
    endloop
  endfacet
  facet normal 0 -1 0
    outer loop
      vertex 6.875 17.125 7.2
      vertex 31.125 17.125 2
      vertex 31.125 17.125 7.2
    endloop
  endfacet
  facet normal 0 -1 0
    outer loop
      vertex 6.875 17.125 7.2
      vertex 6.875 17.125 2
      vertex 31.125 17.125 2
    endloop
  endfacet
  facet normal 0.980785 -0.19509 0
    outer loop
      vertex 1.875 12.125 7.2
      vertex 2.2556 14.0384 2
      vertex 2.2556 14.0384 7.2
    endloop
  endfacet
  facet normal 0.980785 -0.19509 0
    outer loop
      vertex 1.875 12.125 7.2
      vertex 1.875 12.125 2
      vertex 2.2556 14.0384 2
    endloop
  endfacet
  facet normal 0.83147 -0.55557 0
    outer loop
      vertex 2.2556 14.0384 7.2
      vertex 3.33947 15.6605 2
      vertex 3.33947 15.6605 7.2
    endloop
  endfacet
  facet normal 0.83147 -0.55557 0
    outer loop
      vertex 2.2556 14.0384 7.2
      vertex 2.2556 14.0384 2
      vertex 3.33947 15.6605 2
    endloop
  endfacet
  facet normal 0.83147 0.55557 -0
    outer loop
      vertex 2.2556 -14.0384 2
      vertex 2.2556 -14.0384 7.2
      vertex 3.33947 -15.6605 7.2
    endloop
  endfacet
  facet normal 0.83147 0.55557 -0
    outer loop
      vertex 3.33947 -15.6605 2
      vertex 2.2556 -14.0384 2
      vertex 3.33947 -15.6605 7.2
    endloop
  endfacet
  facet normal -0.83147 0.55557 0
    outer loop
      vertex 35.7444 -14.0384 2
      vertex 34.6605 -15.6605 7.2
      vertex 35.7444 -14.0384 7.2
    endloop
  endfacet
  facet normal -0.83147 0.55557 0
    outer loop
      vertex 35.7444 -14.0384 2
      vertex 34.6605 -15.6605 2
      vertex 34.6605 -15.6605 7.2
    endloop
  endfacet
  facet normal 0.19509 -0.980785 0
    outer loop
      vertex 4.96158 16.7444 7.2
      vertex 6.875 17.125 2
      vertex 6.875 17.125 7.2
    endloop
  endfacet
  facet normal 0.19509 -0.980785 0
    outer loop
      vertex 4.96158 16.7444 7.2
      vertex 4.96158 16.7444 2
      vertex 6.875 17.125 2
    endloop
  endfacet
  facet normal 0.55557 -0.83147 0
    outer loop
      vertex 3.33947 15.6605 7.2
      vertex 4.96158 16.7444 2
      vertex 4.96158 16.7444 7.2
    endloop
  endfacet
  facet normal 0.55557 -0.83147 0
    outer loop
      vertex 3.33947 15.6605 7.2
      vertex 3.33947 15.6605 2
      vertex 4.96158 16.7444 2
    endloop
  endfacet
  facet normal -0.55557 0.83147 0
    outer loop
      vertex 34.6605 -15.6605 2
      vertex 33.0384 -16.7444 7.2
      vertex 34.6605 -15.6605 7.2
    endloop
  endfacet
  facet normal -0.55557 0.83147 0
    outer loop
      vertex 34.6605 -15.6605 2
      vertex 33.0384 -16.7444 2
      vertex 33.0384 -16.7444 7.2
    endloop
  endfacet
  facet normal -0.19509 -0.980785 0
    outer loop
      vertex 31.125 17.125 7.2
      vertex 33.0384 16.7444 2
      vertex 33.0384 16.7444 7.2
    endloop
  endfacet
  facet normal -0.19509 -0.980785 -0
    outer loop
      vertex 31.125 17.125 7.2
      vertex 31.125 17.125 2
      vertex 33.0384 16.7444 2
    endloop
  endfacet
  facet normal -0.55557 -0.83147 0
    outer loop
      vertex 33.0384 16.7444 7.2
      vertex 34.6605 15.6605 2
      vertex 34.6605 15.6605 7.2
    endloop
  endfacet
  facet normal -0.55557 -0.83147 -0
    outer loop
      vertex 33.0384 16.7444 7.2
      vertex 33.0384 16.7444 2
      vertex 34.6605 15.6605 2
    endloop
  endfacet
endsolid OpenSCAD_Model
